<svg xmlns="http://www.w3.org/2000/svg" width="1920" height="1097.83" viewBox="0 0 1920 1097.83">
  <g id="Group_20158" data-name="Group 20158" transform="translate(0 4)">
    <g id="Group_20156" data-name="Group 20156" transform="translate(0 -0.049)">
      <g id="Polygon_35" data-name="Polygon 35" transform="translate(641.248 100.172) rotate(45)" fill="#707070">
        <path d="M 766.3984375 587.3783569335938 L 0.9233899116516113 587.3783569335938 L 383.6609191894531 0.9149161577224731 L 766.3984375 587.3783569335938 Z" stroke="none"/>
        <path d="M 383.6609191894531 1.82958984375 L 1.8466796875 586.8782348632812 L 765.4751586914062 586.8782348632812 L 383.6609191894531 1.82958984375 M 383.6609191894531 -6.103515625e-05 L 767.3218383789062 587.8782348632812 L 0 587.8782348632812 L 383.6609191894531 -6.103515625e-05 Z" stroke="none" fill="#707070"/>
      </g>
      <g id="Polygon_36" data-name="Polygon 36" transform="translate(28.055 125.849) rotate(-1)" fill="#878282" opacity="0.55">
        <path d="M 718.4557495117188 622.3783569335938 L 0.8660732507705688 622.3783569335938 L 359.6609191894531 0.99985671043396 L 718.4557495117188 622.3783569335938 Z" stroke="none"/>
        <path d="M 359.6609191894531 1.999755859375 L 1.73211669921875 621.8783569335938 L 717.5897216796875 621.8783569335938 L 359.6609191894531 1.999755859375 M 359.6609191894531 -6.103515625e-05 L 719.3218383789062 622.8783569335938 L 0 622.8783569335938 L 359.6609191894531 -6.103515625e-05 Z" stroke="none" fill="#707070"/>
      </g>
      <g id="Polygon_37" data-name="Polygon 37" transform="translate(760.454 803.66)" fill="#100202">
        <path d="M 626.9761962890625 270.3782958984375 L 1.345629811286926 270.3782958984375 L 314.1609191894531 0.6602369546890259 L 626.9761962890625 270.3782958984375 Z" stroke="none"/>
        <path d="M 314.1609191894531 1.320404052734375 L 2.691162109375 269.8782958984375 L 625.6306762695312 269.8782958984375 L 314.1609191894531 1.320404052734375 M 314.1609191894531 0 L 628.3218383789062 270.8782958984375 L 0 270.8782958984375 L 314.1609191894531 0 Z" stroke="none" fill="#707070"/>
      </g>
      <g id="Polygon_38" data-name="Polygon 38" transform="translate(1557.122 1093.879) rotate(-90)" fill="#170202" opacity="0.37">
        <path d="M 860.951171875 362.3782653808594 L 1.37065601348877 362.3782653808594 L 431.1609191894531 0.6535974740982056 L 860.951171875 362.3782653808594 Z" stroke="none"/>
        <path d="M 431.1609191894531 1.30706787109375 L 2.74114990234375 361.8782653808594 L 859.5806884765625 361.8782653808594 L 431.1609191894531 1.30706787109375 M 431.1609191894531 3.0517578125e-05 L 862.3218383789062 362.8782653808594 L 0 362.8782653808594 L 431.1609191894531 3.0517578125e-05 Z" stroke="none" fill="#707070"/>
      </g>
      <g id="Polygon_39" data-name="Polygon 39" transform="matrix(0.643, -0.766, 0.766, 0.643, 1087.729, 656.625)" fill="#0d0303">
        <path d="M 860.951171875 362.3782653808594 L 1.37065601348877 362.3782653808594 L 431.1609191894531 0.6535974740982056 L 860.951171875 362.3782653808594 Z" stroke="none"/>
        <path d="M 431.1609191894531 1.30706787109375 L 2.74114990234375 361.8782653808594 L 859.5806884765625 361.8782653808594 L 431.1609191894531 1.30706787109375 M 431.1609191894531 3.0517578125e-05 L 862.3218383789062 362.8782653808594 L 0 362.8782653808594 L 431.1609191894531 3.0517578125e-05 Z" stroke="none" fill="#707070"/>
      </g>
      <g id="Polygon_40" data-name="Polygon 40" transform="translate(824.346) rotate(38)" fill="#707070" opacity="0.66">
        <path d="M 860.951171875 362.3782653808594 L 1.37065601348877 362.3782653808594 L 431.1609191894531 0.6535974740982056 L 860.951171875 362.3782653808594 Z" stroke="none"/>
        <path d="M 431.1609191894531 1.30706787109375 L 2.74114990234375 361.8782653808594 L 859.5806884765625 361.8782653808594 L 431.1609191894531 1.30706787109375 M 431.1609191894531 3.0517578125e-05 L 862.3218383789062 362.8782653808594 L 0 362.8782653808594 L 431.1609191894531 3.0517578125e-05 Z" stroke="none" fill="#707070"/>
      </g>
      <g id="Polygon_41" data-name="Polygon 41" transform="translate(1014.392 726.681) rotate(90)" fill="#878282" opacity="0.55">
        <path d="M 352.7241516113281 1013.891967773438 L 0.5946839451789856 1013.891967773438 L 176.659423828125 2.914425373077393 L 352.7241516113281 1013.891967773438 Z" stroke="none"/>
        <path d="M 176.659423828125 5.8282470703125 L 1.189208984375 1013.391967773438 L 352.129638671875 1013.391967773438 L 176.659423828125 5.8282470703125 M 176.659423828125 0 L 353.3187866210938 1014.391967773438 L 6.103515625e-05 1014.391967773438 L 176.659423828125 0 Z" stroke="none" fill="#707070"/>
      </g>
      <g id="Polygon_42" data-name="Polygon 42" transform="translate(1599.793 1017.196) rotate(-180)" fill="#878282" opacity="0.55">
        <path d="M 352.7241516113281 1013.891967773438 L 0.5946839451789856 1013.891967773438 L 176.659423828125 2.914425373077393 L 352.7241516113281 1013.891967773438 Z" stroke="none"/>
        <path d="M 176.659423828125 5.8282470703125 L 1.189208984375 1013.391967773438 L 352.129638671875 1013.391967773438 L 176.659423828125 5.8282470703125 M 176.659423828125 0 L 353.3187866210938 1014.391967773438 L 6.103515625e-05 1014.391967773438 L 176.659423828125 0 Z" stroke="none" fill="#707070"/>
      </g>
      <g id="Rectangle_5811" data-name="Rectangle 5811" fill="#fff" stroke="#707070" stroke-width="1" opacity="0.96">
        <rect width="1919" height="1080" stroke="none"/>
        <rect x="0.5" y="0.5" width="1918" height="1079" fill="none"/>
      </g>
    </g>
  </g>
</svg>
