<?xml version="1.0" encoding="utf-8"?>
<!-- Generator: Adobe Illustrator 29.1.0, SVG Export Plug-In . SVG Version: 9.03 Build 55587)  -->
<svg version="1.1" id="Layer_1" xmlns="http://www.w3.org/2000/svg" xmlns:xlink="http://www.w3.org/1999/xlink" x="0px" y="0px"
	 viewBox="0 0 576 576" style="enable-background:new 0 0 576 576;" xml:space="preserve">
<g>
	<linearGradient id="SVGID_1_" gradientUnits="userSpaceOnUse" x1="558.3619" y1="528.9697" x2="212.1653" y2="226.0479">
		<stop  offset="0" style="stop-color:#DAE3FE"/>
		<stop  offset="1" style="stop-color:#E9EFFD"/>
	</linearGradient>
	<path style="fill:url(#SVGID_1_);" d="M499.5,371.6C454.8,477,335.6,536,232.2,520.1c-16.8-2.6-62.9-10.3-103.7-46.7
		c-78.6-70.1-95.4-208.9-32-306.6C142.6,95.6,225.3,55.2,303.9,57.2c16.9,0.4,81.8,3.1,138.8,50.1c8.4,6.9,26.8,23.3,43.5,49.3
		C525.3,217.8,528.7,303,499.5,371.6z"/>
	<g>
		<g>
			
				<linearGradient id="SVGID_00000039124496187322747470000012355493831163253941_" gradientUnits="userSpaceOnUse" x1="242.3896" y1="113.0794" x2="562.2997" y2="637.1866">
				<stop  offset="0" style="stop-color:#09005D"/>
				<stop  offset="1" style="stop-color:#1A0F91"/>
			</linearGradient>
			<path style="fill:url(#SVGID_00000039124496187322747470000012355493831163253941_);" d="M247.5,102.9l240.7,6.4
				c13.3,0.4,24,11,24.3,24.3L521,483c0.3,10.4-8.1,18.9-18.5,18.8l-276-2.3c-9.8-0.1-17.6-8.2-17.3-17.9l9.3-351.2
				C218.9,114.8,231.9,102.4,247.5,102.9z"/>
			<path style="fill:#FFFFFF;" d="M266.9,494.6C266.9,494.6,266.9,494.6,266.9,494.6l-30.9-1.2c-10.3-0.4-18.4-9.1-18.1-19.4
				l1.2-46.6c0-0.3,0.3-0.6,0.6-0.6c0,0,0,0,0,0c0.3,0,0.6,0.3,0.6,0.6l-1.2,46.6c-0.3,9.7,7.4,17.8,17,18.2l30.9,1.2
				c0.3,0,0.6,0.3,0.5,0.6C267.5,494.4,267.2,494.6,266.9,494.6z"/>
			<path style="fill:#FFFFFF;" d="M220.1,413.6C220.1,413.6,220.1,413.6,220.1,413.6c-0.3,0-0.6-0.3-0.6-0.6l0.2-7.5
				c0-0.3,0.3-0.6,0.6-0.6c0,0,0,0,0,0c0.3,0,0.6,0.3,0.6,0.6l-0.2,7.5C220.7,413.3,220.4,413.6,220.1,413.6z"/>
			<g>
				<path style="fill:#91B3FA;" d="M248.3,100c32.8,5.3,145.4,22.1,239.1,17.4c4.3-0.2,7.9,3.1,8,7.4l9.3,351.1
					c0.1,4.8-3.7,8.8-8.5,9c-39.4,1.3-201.5,6-259.1-1.6c-3.5-0.5-6.1-3.5-6-7l7.6-368.3C238.9,103,243.4,99.2,248.3,100z"/>
			</g>
			<g>
				<path style="fill:#BDD0FB;" d="M257.4,118.4c30.5,5,135.6,20.6,222.9,16.2c4-0.2,7.4,2.9,7.5,6.9l8.7,327.4
					c0.1,4.5-3.4,8.2-7.9,8.4c-36.7,1.2-187.9,5.6-241.6-1.5c-3.3-0.4-5.7-3.3-5.6-6.6l7.1-343.4
					C248.6,121.1,252.8,117.6,257.4,118.4z"/>
			</g>
			
				<linearGradient id="SVGID_00000051375239360383154210000004858731439367257267_" gradientUnits="userSpaceOnUse" x1="-154.7369" y1="2950.2483" x2="-265.4941" y2="3095.9468" gradientTransform="matrix(0.9997 2.650000e-02 -2.650000e-02 0.9997 644.7291 -2921.6272)">
				<stop  offset="0" style="stop-color:#09005D"/>
				<stop  offset="1" style="stop-color:#1A0F91"/>
			</linearGradient>
			<path style="fill:url(#SVGID_00000051375239360383154210000004858731439367257267_);" d="M384,58.9c-8.5-6.3-16.1-6.4-21.5-4.9
				c-4.9,1.3-8.2,5.9-7.8,11l1.6,25.1l27.2,3.1C383.6,93.1,400.8,71.2,384,58.9z M371.5,78.7c-3.8-0.1-6.7-3.2-6.6-7
				c0.1-3.8,3.2-6.7,7-6.6c3.8,0.1,6.7,3.2,6.6,7C378.4,75.9,375.3,78.8,371.5,78.7z"/>
			<path style="fill:#BDD0FB;" d="M358.9,80.1c-0.5-0.2-0.8-0.6-0.9-1.2l-0.3-4c0-0.7,0.5-1.4,1.3-1.4c0.7,0,1.4,0.5,1.4,1.3l0.3,4
				c0,0.7-0.5,1.4-1.3,1.4C359.3,80.2,359.1,80.2,358.9,80.1z M358.4,72.3c-0.5-0.2-0.8-0.6-0.9-1.2l-0.2-3c-0.3-5.1,3-9.8,8-11.2
				c3.4-0.9,6.9-1,10.3-0.2c0.7,0.2,1.2,0.9,1,1.6c-0.2,0.7-0.9,1.2-1.6,1c-3-0.7-6.1-0.7-9,0.1c-3.7,1-6.2,4.5-6,8.4l0.2,3
				c0,0.7-0.5,1.4-1.3,1.4C358.8,72.4,358.6,72.4,358.4,72.3z"/>
			
				<linearGradient id="SVGID_00000070098408171767298230000002531852539383207092_" gradientUnits="userSpaceOnUse" x1="-142.5871" y1="2959.4829" x2="-253.3451" y2="3105.1826" gradientTransform="matrix(0.9997 2.650000e-02 -2.650000e-02 0.9997 644.7291 -2921.6272)">
				<stop  offset="0" style="stop-color:#09005D"/>
				<stop  offset="1" style="stop-color:#1A0F91"/>
			</linearGradient>
			<path style="fill:url(#SVGID_00000070098408171767298230000002531852539383207092_);" d="M318.7,105.2l0.3-12.6
				c0.1-4.3,3.8-7.7,8.2-7.5l86.8,5.3c3.9,0.2,6.9,3.4,7,7.2l0.4,12.1L318.7,105.2z"/>
			<path style="fill:#BDD0FB;" d="M323,102c-0.5-0.2-0.9-0.7-0.9-1.3l0.1-5.1c0.1-2.1,0.9-4,2.4-5.5c1.5-1.4,3.5-2.2,5.6-2.1
				l13.7,0.4c0.7,0,1.3,0.6,1.3,1.4c0,0.7-0.6,1.3-1.4,1.3l-13.7-0.4c-2.8-0.1-5.2,2.2-5.3,5l-0.1,5.1c0,0.7-0.6,1.3-1.4,1.3
				C323.3,102.1,323.1,102,323,102z"/>
			
				<linearGradient id="SVGID_00000015331437496941214760000016229920049532177575_" gradientUnits="userSpaceOnUse" x1="-156.5441" y1="2968.3948" x2="-233.0206" y2="3108.8213" gradientTransform="matrix(0.9997 2.650000e-02 -2.650000e-02 0.9997 644.7291 -2921.6272)">
				<stop  offset="0" style="stop-color:#09005D"/>
				<stop  offset="1" style="stop-color:#1A0F91"/>
			</linearGradient>
			<path style="fill:url(#SVGID_00000015331437496941214760000016229920049532177575_);" d="M291.6,99.9l151.9,4
				c5.5,0.1,10,4.2,10.8,9.6l0.1,0.7c0.9,5.9-3.8,11.2-9.8,11l-155.8-4.1c-3.6-0.1-6.4-3.2-6.1-6.7l0.5-7
				C283.5,103.1,287.2,99.8,291.6,99.9z"/>
		</g>
		<g style="opacity:0.89;">
			<g>
				<path style="fill:#FFFFFF;" d="M477.4,264.9l-1.3-74.7c0-0.8-0.6-1.4-1.4-1.4l-216.6-5.7c-0.4,0-0.8,0.1-1.1,0.4
					c-0.3,0.3-0.4,0.7-0.4,1.1l3.7,77.1c0,0.8,0.7,1.3,1.4,1.3l214.3,3.4c0,0,0,0,0,0c0,0,0,0,0,0c0.8,0,1.5-0.6,1.5-1.4
					C477.4,264.9,477.4,264.9,477.4,264.9z M473.2,191.6l0.3,15.3l-213.2-5.4l-0.7-15.5L473.2,191.6z M263.1,260.2l-2.7-55.7
					l213.1,5.4l1,53.8L263.1,260.2z"/>
				<path style="fill:#FFFFFF;" d="M275.2,223.8l96.7,1.5c1.9,0,3.4-1.5,3.3-3.4l0-0.4c-0.1-1.9-1.7-3.5-3.7-3.5l-96.4-1.5
					c-1.9,0-3.4,1.5-3.4,3.4l0,0.4C271.8,222.2,273.3,223.8,275.2,223.8z"/>
				<path style="fill:#FFFFFF;" d="M372.6,237.2l-97.3-1.6c-1.9,0-3.4,1.5-3.4,3.4l0,0.4c0,1.9,1.6,3.5,3.5,3.6l97.6,1.7
					c1.9,0,3.4-1.5,3.3-3.5l0-0.4C376.2,238.8,374.5,237.2,372.6,237.2z"/>
				<path style="fill:#FFFFFF;" d="M452.4,226.6c2,0,3.5-1.6,3.3-3.6c-0.2-2-2-3.7-4-3.7l-42.5-0.7c-2,0-3.5,1.6-3.4,3.6
					c0.1,2,1.9,3.7,3.9,3.7L452.4,226.6z"/>
				<path style="fill:#FFFFFF;" d="M457.6,242.3c-0.2-2.1-2-3.8-4.1-3.8l-42.9-0.7c-2,0-3.6,1.6-3.4,3.7c0.1,2.1,1.9,3.8,4,3.8
					l43,0.7C456.3,246,457.8,244.4,457.6,242.3z"/>
			</g>
			<path style="fill:#FFFFFF;" d="M466.9,148.6c0,2.1-1.7,3.8-3.7,3.8l-198.4-0.4c-2.2,0-4-1.8-4-4l0-0.3c0-2.2,1.8-4,4-4l198.4,0.8
				c2,0,3.6,1.7,3.6,3.9L466.9,148.6z"/>
			<path style="fill:#FFFFFF;" d="M466.7,165.3c0,2.1-1.7,3.8-3.7,3.8l-198.2,0.4c-2.2,0-4-1.8-4-4l0-0.3c0-2.2,1.8-4,4-4l198.3,0
				c2,0,3.6,1.7,3.6,3.8L466.7,165.3z"/>
			<g>
				<path style="fill:#FFFFFF;" d="M298.7,325.7C298.7,325.7,298.6,325.7,298.7,325.7l-28.4-0.1c-4.1,0-7.5-2.8-7.9-6.5l-2.6-23.7
					c-0.2-1.4,0.3-2.8,1.2-3.9c1-1.3,2.6-2.1,4.4-2.2l0,0c2.4-0.2,5.7-0.5,9.3-0.8c7.9-0.7,16.8-1.5,22-1.6c0,0,0.1,0,0.1,0
					c3.8,0,7,2.2,7.9,5.5c1.5,5.5,1.4,15.8,1.2,26.8C305.9,322.7,302.6,325.7,298.7,325.7z M265.6,291.6c-1.1,0.1-2.1,0.6-2.8,1.4
					c-0.5,0.6-0.8,1.4-0.7,2.2l2.6,23.7c0.3,2.5,2.7,4.4,5.6,4.4l28.3,0.1c0,0,0,0,0.1,0c2.7,0,4.9-1.9,5-4.3
					c0.2-10.8,0.3-21-1.1-26.1c-0.6-2.3-3.1-4-5.8-3.9c-5.2,0.1-14.4,0.9-21.9,1.6C271.3,291.1,268,291.4,265.6,291.6L265.6,291.6z"
					/>
				<path style="opacity:0.6;fill:#FFFFFF;" d="M268.6,293.9c5.9-0.4,18.9-1.8,25-1.9c2.6,0,4.9,1.5,5.5,3.8
					c1.2,4.4,1.1,13.1,0.9,21.1c0,2.4-2.2,4.3-5,4.3l-22.6-0.1c-2.8,0-5.1-1.9-5.4-4.4l-2.1-19C264.8,295.8,266.4,294.1,268.6,293.9
					z"/>
				<g style="opacity:0.6;">
					<path style="fill:#FFFFFF;" d="M323.3,300.9c-1.2,0-2,0.9-1.7,2.1l2.6,9.7c0.3,1.2,1.6,2.2,2.9,2.2l142.6-0.8
						c1.2,0,2.2-1,2.2-2.3l-0.2-6c0-1.2-1.1-2.3-2.3-2.3L323.3,300.9z"/>
				</g>
			</g>
			<g>
				<path style="fill:#FFFFFF;" d="M298.1,388.4C298.1,388.4,298,388.4,298.1,388.4l-28.4-0.1c-4.1,0-7.5-2.8-7.9-6.5l-2.6-23.7
					c-0.2-1.4,0.3-2.8,1.2-3.9c1-1.3,2.6-2.1,4.4-2.2l0,0c2.4-0.2,5.7-0.5,9.3-0.8c7.9-0.7,16.8-1.5,22-1.6c0,0,0.1,0,0.1,0
					c3.8,0,7,2.2,7.9,5.5c1.5,5.5,1.4,15.8,1.2,26.8C305.3,385.5,302,388.4,298.1,388.4z M265,354.3c-1.1,0.1-2.1,0.6-2.8,1.4
					c-0.5,0.6-0.8,1.4-0.7,2.2l2.6,23.7c0.3,2.5,2.7,4.4,5.6,4.4l28.3,0.1c0,0,0,0,0.1,0c2.7,0,4.9-1.9,5-4.3
					c0.2-10.8,0.3-21-1.1-26.1c-0.6-2.3-3.1-4-5.8-3.9c-5.2,0.1-14.4,0.9-21.9,1.6C270.7,353.8,267.4,354.1,265,354.3L265,354.3z"/>
				<path style="opacity:0.6;fill:#FFFFFF;" d="M268,356.7c5.9-0.4,18.9-1.8,25-1.9c2.6,0,4.9,1.5,5.5,3.8
					c1.2,4.4,1.1,13.1,0.9,21.1c0,2.4-2.2,4.3-5,4.3l-22.6-0.1c-2.8,0-5.1-1.9-5.4-4.4l-2.1-19C264.2,358.6,265.8,356.8,268,356.7z"
					/>
				<g style="opacity:0.6;">
					<path style="fill:#FFFFFF;" d="M322.7,363.7c-1.2,0-2,0.9-1.7,2.1l2.6,9.7c0.3,1.2,1.6,2.2,2.9,2.2l142.6-0.8
						c1.2,0,2.2-1,2.2-2.3l-0.2-6c0-1.2-1.1-2.3-2.3-2.3L322.7,363.7z"/>
				</g>
			</g>
			<g>
				<path style="fill:#FFFFFF;" d="M297.5,451.2C297.4,451.2,297.4,451.2,297.5,451.2l-28.4-0.1c-4.1,0-7.5-2.8-7.9-6.5l-2.6-23.7
					c-0.2-1.4,0.3-2.8,1.2-3.9c1-1.3,2.6-2.1,4.4-2.2l0,0c2.4-0.2,5.7-0.5,9.3-0.8c7.9-0.7,16.8-1.5,22-1.6c0,0,0.1,0,0.1,0
					c3.8,0,7,2.2,7.9,5.5c1.5,5.5,1.4,15.8,1.2,26.8C304.7,448.2,301.4,451.2,297.5,451.2z M264.4,417c-1.1,0.1-2.1,0.6-2.8,1.4
					c-0.5,0.6-0.8,1.4-0.7,2.2l2.6,23.7c0.3,2.5,2.7,4.4,5.6,4.4l28.3,0.1c0,0,0,0,0.1,0c2.7,0,4.9-1.9,5-4.3
					c0.2-10.8,0.3-21-1.1-26.1c-0.6-2.3-3.1-4-5.8-3.9c-5.2,0.1-14.4,0.9-21.9,1.6C270.1,416.6,266.8,416.9,264.4,417L264.4,417z"/>
				<path style="opacity:0.6;fill:#FFFFFF;" d="M267.4,419.4c5.9-0.4,18.9-1.8,25-1.9c2.6,0,4.9,1.5,5.5,3.8
					c1.2,4.4,1.1,13.1,0.9,21.1c0,2.4-2.2,4.3-5,4.3l-22.6-0.1c-2.8,0-5.1-1.9-5.4-4.4l-2.1-19C263.6,421.3,265.2,419.6,267.4,419.4
					z"/>
				<g style="opacity:0.6;">
					<path style="fill:#FFFFFF;" d="M322.1,426.4c-1.2,0-2,0.9-1.7,2.1l2.6,9.7c0.3,1.2,1.6,2.2,2.9,2.2l142.6-0.8
						c1.2,0,2.2-1,2.2-2.3l-0.2-6c0-1.2-1.1-2.3-2.3-2.3L322.1,426.4z"/>
				</g>
			</g>
		</g>
	</g>
	<g>
		<path style="fill:#91B3FA;" d="M283.7,385.9c-13.3-44-69.2-217.8-150.8-312c-5.8-6.7-18.2-4.6-19.2,4.2
			c-5.8,51-29.1,210.9,163.3,313.5C280.6,393.5,284.9,389.9,283.7,385.9z"/>
		<path style="fill:#BDD0FB;" d="M276.9,386.2c0.3,0,0.5-0.1,0.8-0.3c0.5-0.4,0.6-1.2,0.1-1.7c-61.6-72.9-95.2-137.8-112.5-179.4
			c-18.8-45-23-73.2-23.1-73.5c-0.1-0.6-0.7-1.1-1.3-1c-0.6,0.1-1.1,0.7-1,1.3c0,0.3,4.3,28.7,23.2,74
			c17.4,41.8,51.1,106.9,112.9,180C276.3,386.1,276.6,386.2,276.9,386.2z"/>
	</g>
	<g>
		<path style="fill:#BDD0FB;" d="M197.1,370.1c3.2,1.5,6.8-0.8,7-4.3c0.7-19.3-2.2-74.2-52.5-118.2c-42.4-37.2-61.9-61.4-70-73
			c-1.7-2.5-5.6-1.3-5.6,1.7C75,209.2,81.3,317.5,197.1,370.1z"/>
		
			<linearGradient id="SVGID_00000146484247386202512630000003295533923426700937_" gradientUnits="userSpaceOnUse" x1="234.1706" y1="178.8028" x2="-19.3999" y2="561.7115">
			<stop  offset="0" style="stop-color:#DAE3FE"/>
			<stop  offset="1" style="stop-color:#E9EFFD"/>
		</linearGradient>
		<path style="fill:url(#SVGID_00000146484247386202512630000003295533923426700937_);" d="M200.1,366.6c-0.4,0-0.9-0.3-1-0.7
			c-0.3-0.8-34.1-79-90.5-133c-0.5-0.4-0.5-1.2,0-1.6c0.4-0.5,1.2-0.5,1.6,0c56.7,54.4,90.6,133,91,133.8c0.2,0.6,0,1.2-0.6,1.5
			C200.4,366.5,200.3,366.6,200.1,366.6z"/>
	</g>
	<g>
		<g>
			
				<linearGradient id="SVGID_00000049204839722288483210000010888581685452137374_" gradientUnits="userSpaceOnUse" x1="259.8096" y1="270.2065" x2="298.0946" y2="531.3958">
				<stop  offset="0" style="stop-color:#09005D"/>
				<stop  offset="1" style="stop-color:#1A0F91"/>
			</linearGradient>
			<path style="fill:url(#SVGID_00000049204839722288483210000010888581685452137374_);" d="M473.9,504.5c0,3.9-3.2,7.1-7.1,7.1
				H83.4c-3.9,0-7.1-3.2-7.1-7.1l-3.2-220.4c0-3.9,4.6-11.5,13-10.9l374.8-9.7c4.9-0.1,9.6,1.8,13.1,5.2c3.5,3.5,5.4,8.2,5.2,13.1
				L473.9,504.5z"/>
			
				<linearGradient id="SVGID_00000073002482491463557100000015703088000824659340_" gradientUnits="userSpaceOnUse" x1="515.2713" y1="49.7014" x2="281.5794" y2="386.6259">
				<stop  offset="0" style="stop-color:#4042E2"/>
				<stop  offset="1" style="stop-color:#4F52FF"/>
			</linearGradient>
			<path style="fill:url(#SVGID_00000073002482491463557100000015703088000824659340_);" d="M466.9,497.7c0,3.7-3,6.7-6.7,6.7H92.6
				c-3.7,0-6.7-3-6.7-6.7l-3-200.1c0.4-12,10.9-16.4,17.3-16.1l359.2-9.6c3.4-0.1,6.8,1.2,9.2,3.7c2.4,2.4,3.8,5.8,3.7,9.2
				L466.9,497.7z"/>
			<g>
				<path style="fill:#91B3FA;" d="M89.9,402.2c-0.3,0-0.6-0.2-0.6-0.6l-0.2-16.2c0-0.3,0.2-0.6,0.6-0.6c0.3,0,0.6,0.2,0.6,0.6
					l0.2,16.2C90.5,402,90.2,402.2,89.9,402.2C89.9,402.2,89.9,402.2,89.9,402.2z"/>
				<path style="fill:#91B3FA;" d="M89.3,362.5c-0.3,0-0.6-0.2-0.6-0.6l-0.9-62.1c0-4.2,1.3-7.5,3.8-9.9c4.6-4.4,11.7-4.2,12-4.1
					l114.7-3.1c0.3,0,0.6,0.2,0.6,0.6c0,0.3-0.2,0.6-0.6,0.6l-114.7,3.1c-0.3,0-7-0.2-11.2,3.8c-2.3,2.2-3.4,5.2-3.5,9.1l0.9,62.1
					C89.9,362.2,89.6,362.5,89.3,362.5C89.3,362.5,89.3,362.5,89.3,362.5z"/>
			</g>
		</g>
		
			<linearGradient id="SVGID_00000022536556962958163760000005949634343001275576_" gradientUnits="userSpaceOnUse" x1="278.1483" y1="538.4584" x2="282.8227" y2="398.2298">
			<stop  offset="0" style="stop-color:#09005D"/>
			<stop  offset="1" style="stop-color:#1A0F91"/>
		</linearGradient>
		<path style="fill:url(#SVGID_00000022536556962958163760000005949634343001275576_);" d="M497.5,522.8H60.5
			c-4.1,0-7.5-3.4-7.5-7.5V511c0-4.1,3.4-7.5,7.5-7.5h437.1c4.1,0,7.5,3.4,7.5,7.5v4.4C505,519.5,501.7,522.8,497.5,522.8z"/>
		<g>
			<path style="fill:#BDD0FB;" d="M324.9,349.5H137.4c-2.8,0-3.6-3.9-0.9-4.9l93.7-36.9c0.6-0.2,1.3-0.2,1.9,0l93.7,36.9
				C328.4,345.6,327.7,349.5,324.9,349.5z"/>
			<g>
				<g>
					<g>
						<rect x="143.6" y="354.9" style="fill:#BDD0FB;" width="4" height="74"/>
						<rect x="149.6" y="354.9" style="fill:#BDD0FB;" width="4" height="74"/>
						<rect x="155.6" y="354.9" style="fill:#BDD0FB;" width="4" height="74"/>
					</g>
					<polygon style="fill:#BDD0FB;" points="164.1,350.9 139.2,350.9 139.2,352 142.8,353.7 160.5,353.7 164.1,352 					"/>
					<polygon style="fill:#BDD0FB;" points="164.3,435.3 139.4,435.3 139.4,431.4 143,429.7 160.7,429.7 164.3,431.4 					"/>
				</g>
				<g>
					<g>
						<rect x="175.3" y="354.9" style="fill:#BDD0FB;" width="4" height="74"/>
						<rect x="181.4" y="354.9" style="fill:#BDD0FB;" width="4" height="74"/>
						<rect x="187.4" y="354.9" style="fill:#BDD0FB;" width="4" height="74"/>
					</g>
					<polygon style="fill:#BDD0FB;" points="195.8,350.9 170.9,350.9 170.9,352 174.5,353.7 192.2,353.7 195.8,352 					"/>
					<polygon style="fill:#BDD0FB;" points="196,435.3 171.1,435.3 171.1,431.4 174.7,429.7 192.4,429.7 196,431.4 					"/>
				</g>
				<g>
					<g>
						<rect x="207.1" y="354.9" style="fill:#BDD0FB;" width="4" height="74"/>
						<rect x="213.1" y="354.9" style="fill:#BDD0FB;" width="4" height="74"/>
						<rect x="219.2" y="354.9" style="fill:#BDD0FB;" width="4" height="74"/>
					</g>
					<polygon style="fill:#BDD0FB;" points="227.6,350.9 202.7,350.9 202.7,352 206.3,353.7 224,353.7 227.6,352 					"/>
					<polygon style="fill:#BDD0FB;" points="227.8,435.3 202.9,435.3 202.9,431.4 206.5,429.7 224.2,429.7 227.8,431.4 					"/>
				</g>
				<g>
					<g>
						<rect x="238.9" y="354.9" style="fill:#BDD0FB;" width="4" height="74"/>
						<rect x="244.9" y="354.9" style="fill:#BDD0FB;" width="4" height="74"/>
						<rect x="250.9" y="354.9" style="fill:#BDD0FB;" width="4" height="74"/>
					</g>
					<polygon style="fill:#BDD0FB;" points="259.4,350.9 234.4,350.9 234.4,352 238.1,353.7 255.8,353.7 259.4,352 					"/>
					<polygon style="fill:#BDD0FB;" points="259.6,435.3 234.6,435.3 234.6,431.4 238.3,429.7 256,429.7 259.6,431.4 					"/>
				</g>
				<g>
					<g>
						<rect x="270.6" y="354.9" style="fill:#BDD0FB;" width="4" height="74"/>
						<rect x="276.7" y="354.9" style="fill:#BDD0FB;" width="4" height="74"/>
						<rect x="282.7" y="354.9" style="fill:#BDD0FB;" width="4" height="74"/>
					</g>
					<polygon style="fill:#BDD0FB;" points="291.1,350.9 266.2,350.9 266.2,352 269.8,353.7 287.5,353.7 291.1,352 					"/>
					<polygon style="fill:#BDD0FB;" points="291.3,435.3 266.4,435.3 266.4,431.4 270,429.7 287.7,429.7 291.3,431.4 					"/>
				</g>
				<g>
					<g>
						<rect x="302.4" y="354.9" style="fill:#BDD0FB;" width="4" height="74"/>
						<rect x="308.4" y="354.9" style="fill:#BDD0FB;" width="4" height="74"/>
						<rect x="314.4" y="354.9" style="fill:#BDD0FB;" width="4" height="74"/>
					</g>
					<polygon style="fill:#BDD0FB;" points="322.9,350.9 298,350.9 298,352 301.6,353.7 319.3,353.7 322.9,352 					"/>
					<polygon style="fill:#BDD0FB;" points="323.1,435.3 298.2,435.3 298.2,431.4 301.8,429.7 319.5,429.7 323.1,431.4 					"/>
				</g>
			</g>
			<path style="fill:#BDD0FB;" d="M328.6,441.3H134.9c-1.2,0-2.2-1-2.2-2.2l0,0c0-1.2,1-2.2,2.2-2.2h193.8c1.2,0,2.2,1,2.2,2.2l0,0
				C330.8,440.3,329.8,441.3,328.6,441.3z"/>
			<path style="fill:#BDD0FB;" d="M334.8,454.5H127.5c-2.5,0-4.5-2-4.5-4.5v-2c0-2.5,2-4.5,4.5-4.5h207.3c2.5,0,4.5,2,4.5,4.5v2
				C339.3,452.5,337.3,454.5,334.8,454.5z"/>
		</g>
		<path style="fill:#91B3FA;" d="M436.3,335h-69.5c-5.7,0-10.3-4.6-10.3-10.3v-5.9c0-5.7,4.6-10.3,10.3-10.3h69.5
			c5.7,0,10.3,4.6,10.3,10.3v5.9C446.6,330.4,442,335,436.3,335z"/>
		<path style="fill:#91B3FA;" d="M436.3,371.6h-69.5c-5.7,0-10.3-4.6-10.3-10.3v-5.9c0-5.7,4.6-10.3,10.3-10.3h69.5
			c5.7,0,10.3,4.6,10.3,10.3v5.9C446.6,366.9,442,371.6,436.3,371.6z"/>
		<path style="fill:#91B3FA;" d="M436.3,408.1h-69.5c-5.7,0-10.3-4.6-10.3-10.3v-5.9c0-5.7,4.6-10.3,10.3-10.3h69.5
			c5.7,0,10.3,4.6,10.3,10.3v5.9C446.6,403.4,442,408.1,436.3,408.1z"/>
		<path style="fill:#91B3FA;" d="M439,486.6H132.7c-5.7,0-10.3-4.6-10.3-10.3v-5.9c0-5.7,4.6-10.3,10.3-10.3H439
			c5.7,0,10.3,4.6,10.3,10.3v5.9C449.4,482,444.7,486.6,439,486.6z"/>
	</g>
	<g>
		<g>
			
				<linearGradient id="SVGID_00000167369605968096982300000008876479899818589877_" gradientUnits="userSpaceOnUse" x1="426.7475" y1="546.7525" x2="481.2886" y2="483.446">
				<stop  offset="0" style="stop-color:#E1473D"/>
				<stop  offset="1" style="stop-color:#E9605A"/>
			</linearGradient>
			<circle style="fill:url(#SVGID_00000167369605968096982300000008876479899818589877_);" cx="482.4" cy="482.2" r="40.7"/>
			
				<linearGradient id="SVGID_00000129911596353428143320000002167931364913102215_" gradientUnits="userSpaceOnUse" x1="512.1078" y1="437.2725" x2="350.8286" y2="680.9195">
				<stop  offset="0" style="stop-color:#FF928E"/>
				<stop  offset="1" style="stop-color:#FE7062"/>
			</linearGradient>
			<circle style="fill:url(#SVGID_00000129911596353428143320000002167931364913102215_);" cx="482.4" cy="482.2" r="39.3"/>
			<path style="opacity:0.8;fill:#FFFFFF;" d="M450,466.4c-0.1,0-0.2,0-0.3-0.1c-0.3-0.1-0.4-0.5-0.3-0.8
				c6.3-12.5,18.9-20.3,32.9-20.3c2.2,0,4.5,0.2,6.6,0.6c0.3,0.1,0.5,0.4,0.5,0.7c-0.1,0.3-0.4,0.5-0.7,0.5
				c-2.1-0.4-4.3-0.6-6.4-0.6c-13.6,0-25.8,7.5-31.9,19.6C450.4,466.3,450.2,466.4,450,466.4z"/>
			
				<ellipse transform="matrix(1.850897e-02 -0.9998 0.9998 1.850897e-02 -8.6386 957.2475)" style="opacity:0.78;fill:#FFFFFF;" cx="483.2" cy="483" rx="33.3" ry="33.3"/>
			<g>
				
					<linearGradient id="SVGID_00000150788137860201798530000011831756122893497257_" gradientUnits="userSpaceOnUse" x1="507.2968" y1="444.2537" x2="421.4187" y2="588.4287">
					<stop  offset="0" style="stop-color:#FF928E"/>
					<stop  offset="1" style="stop-color:#FE7062"/>
				</linearGradient>
				<path style="fill:url(#SVGID_00000150788137860201798530000011831756122893497257_);" d="M480,507.8v-3.6
					c-3.8-0.2-7.5-1-10.2-2.2c-0.9-0.4-1.4-1.5-1.2-2.5l0.9-3.4c0.3-1.2,1.7-1.9,2.9-1.4c2.6,1.1,5.9,2,9.4,2c3.6,0,6.3-1.2,6.3-3.8
					c0-2.3-2.1-3.6-7.1-5c-7.2-2-12.4-5.1-12.4-11.5c0-5.7,4.2-10.1,11.5-11.3v-3.6c0-1.2,0.9-2.1,2.1-2.1h2.1
					c1.2,0,2.1,0.9,2.1,2.1v3.3c3.5,0.1,6,0.7,8.1,1.4c1,0.4,1.6,1.5,1.3,2.5l-0.8,3.1c-0.3,1.2-1.6,1.9-2.8,1.4
					c-1.9-0.7-4.5-1.4-7.9-1.4c-4.3,0-5.5,1.8-5.5,3.4c0,2,2.6,3.3,8.2,5.1c8,2.4,11.3,5.7,11.3,11.7c0,5.5-4.1,10.4-12,11.6v4.1
					c0,1.2-0.9,2.1-2.1,2.1h-2.1C480.9,509.9,480,508.9,480,507.8z"/>
			</g>
		</g>
		<g>
			
				<linearGradient id="SVGID_00000150782426223355840840000000593916819482429589_" gradientUnits="userSpaceOnUse" x1="383.4229" y1="546.7525" x2="437.964" y2="483.446">
				<stop  offset="0" style="stop-color:#E1473D"/>
				<stop  offset="1" style="stop-color:#E9605A"/>
			</linearGradient>
			<circle style="fill:url(#SVGID_00000150782426223355840840000000593916819482429589_);" cx="439.1" cy="482.2" r="40.7"/>
			
				<linearGradient id="SVGID_00000034056148826298298210000014687645834250283139_" gradientUnits="userSpaceOnUse" x1="468.7832" y1="437.2725" x2="307.5039" y2="680.9195">
				<stop  offset="0" style="stop-color:#FF928E"/>
				<stop  offset="1" style="stop-color:#FE7062"/>
			</linearGradient>
			<circle style="fill:url(#SVGID_00000034056148826298298210000014687645834250283139_);" cx="439.1" cy="482.2" r="39.3"/>
			<path style="opacity:0.8;fill:#FFFFFF;" d="M406.7,466.4c-0.1,0-0.2,0-0.3-0.1c-0.3-0.1-0.4-0.5-0.3-0.8
				c6.3-12.5,18.9-20.3,32.9-20.3c2.2,0,4.5,0.2,6.6,0.6c0.3,0.1,0.5,0.4,0.5,0.7c-0.1,0.3-0.4,0.5-0.7,0.5
				c-2.1-0.4-4.3-0.6-6.4-0.6c-13.6,0-25.8,7.5-31.9,19.6C407.1,466.3,406.9,466.4,406.7,466.4z"/>
			
				<ellipse transform="matrix(2.937367e-02 -0.9996 0.9996 2.937367e-02 -55.8153 908.5679)" style="opacity:0.78;fill:#FFFFFF;" cx="439.9" cy="483" rx="33.3" ry="33.3"/>
			<g>
				
					<linearGradient id="SVGID_00000075141665537482243470000012255722273256359587_" gradientUnits="userSpaceOnUse" x1="463.972" y1="444.2537" x2="378.0941" y2="588.4286">
					<stop  offset="0" style="stop-color:#FF928E"/>
					<stop  offset="1" style="stop-color:#FE7062"/>
				</linearGradient>
				<path style="fill:url(#SVGID_00000075141665537482243470000012255722273256359587_);" d="M436.7,507.8v-3.6
					c-3.8-0.2-7.5-1-10.2-2.2c-0.9-0.4-1.4-1.5-1.2-2.5l0.9-3.4c0.3-1.2,1.7-1.9,2.9-1.4c2.6,1.1,5.9,2,9.4,2c3.6,0,6.3-1.2,6.3-3.8
					c0-2.3-2.1-3.6-7.1-5c-7.2-2-12.4-5.1-12.4-11.5c0-5.7,4.2-10.1,11.5-11.3v-3.6c0-1.2,0.9-2.1,2.1-2.1h2.1
					c1.2,0,2.1,0.9,2.1,2.1v3.3c3.5,0.1,6,0.7,8.1,1.4c1,0.4,1.6,1.5,1.3,2.5l-0.8,3.1c-0.3,1.2-1.6,1.9-2.8,1.4
					c-1.9-0.7-4.5-1.4-7.9-1.4c-4.3,0-5.5,1.8-5.5,3.4c0,2,2.6,3.3,8.2,5.1c8,2.4,11.3,5.7,11.3,11.7c0,5.5-4.1,10.4-12,11.6v4.1
					c0,1.2-0.9,2.1-2.1,2.1h-2.1C437.6,509.9,436.7,508.9,436.7,507.8z"/>
			</g>
		</g>
		<g>
			
				<linearGradient id="SVGID_00000108283564175069278780000017200143430427405212_" gradientUnits="userSpaceOnUse" x1="340.0982" y1="546.7525" x2="394.6393" y2="483.446">
				<stop  offset="0" style="stop-color:#E1473D"/>
				<stop  offset="1" style="stop-color:#E9605A"/>
			</linearGradient>
			<circle style="fill:url(#SVGID_00000108283564175069278780000017200143430427405212_);" cx="395.7" cy="482.2" r="40.7"/>
			
				<linearGradient id="SVGID_00000162347060388398986040000001565096016694620060_" gradientUnits="userSpaceOnUse" x1="425.4584" y1="437.2725" x2="264.1792" y2="680.9195">
				<stop  offset="0" style="stop-color:#FF928E"/>
				<stop  offset="1" style="stop-color:#FE7062"/>
			</linearGradient>
			<circle style="fill:url(#SVGID_00000162347060388398986040000001565096016694620060_);" cx="395.7" cy="482.2" r="39.3"/>
			<path style="opacity:0.8;fill:#FFFFFF;" d="M363.3,466.4c-0.1,0-0.2,0-0.3-0.1c-0.3-0.1-0.4-0.5-0.3-0.8
				c6.3-12.5,18.9-20.3,32.9-20.3c2.2,0,4.5,0.2,6.6,0.6c0.3,0.1,0.5,0.4,0.5,0.7c-0.1,0.3-0.4,0.5-0.7,0.5
				c-2.1-0.4-4.3-0.6-6.4-0.6c-13.6,0-25.8,7.5-31.9,19.6C363.7,466.3,363.5,466.4,363.3,466.4z"/>
			
				<ellipse transform="matrix(2.628849e-02 -0.9997 0.9997 2.628849e-02 -96.6854 866.7861)" style="opacity:0.78;fill:#FFFFFF;" cx="396.6" cy="483" rx="33.3" ry="33.3"/>
			<g>
				
					<linearGradient id="SVGID_00000116195674929005556370000000318934617583256970_" gradientUnits="userSpaceOnUse" x1="420.6473" y1="444.2537" x2="334.7693" y2="588.4286">
					<stop  offset="0" style="stop-color:#FF928E"/>
					<stop  offset="1" style="stop-color:#FE7062"/>
				</linearGradient>
				<path style="fill:url(#SVGID_00000116195674929005556370000000318934617583256970_);" d="M393.3,507.8v-3.6
					c-3.8-0.2-7.5-1-10.2-2.2c-0.9-0.4-1.4-1.5-1.2-2.5l0.9-3.4c0.3-1.2,1.7-1.9,2.9-1.4c2.6,1.1,5.9,2,9.4,2c3.6,0,6.3-1.2,6.3-3.8
					c0-2.3-2.1-3.6-7.1-5c-7.2-2-12.4-5.1-12.4-11.5c0-5.7,4.2-10.1,11.5-11.3v-3.6c0-1.2,0.9-2.1,2.1-2.1h2.1
					c1.2,0,2.1,0.9,2.1,2.1v3.3c3.5,0.1,6,0.7,8.1,1.4c1,0.4,1.6,1.5,1.3,2.5l-0.8,3.1c-0.3,1.2-1.6,1.9-2.8,1.4
					c-1.9-0.7-4.5-1.4-7.9-1.4c-4.3,0-5.5,1.8-5.5,3.4c0,2,2.6,3.3,8.2,5.1c8,2.4,11.3,5.7,11.3,11.7c0,5.5-4.1,10.4-12,11.6v4.1
					c0,1.2-0.9,2.1-2.1,2.1h-2.1C394.3,509.9,393.3,508.9,393.3,507.8z"/>
			</g>
		</g>
		<g>
			
				<linearGradient id="SVGID_00000152972535100164268930000016598480146418887588_" gradientUnits="userSpaceOnUse" x1="266.7899" y1="554.2006" x2="338.3117" y2="471.1843">
				<stop  offset="0" style="stop-color:#E1473D"/>
				<stop  offset="1" style="stop-color:#E9605A"/>
			</linearGradient>
			<circle style="fill:url(#SVGID_00000152972535100164268930000016598480146418887588_);" cx="339.8" cy="469.5" r="53.3"/>
			
				<linearGradient id="SVGID_00000144301761562632832650000012765433252599952315_" gradientUnits="userSpaceOnUse" x1="378.7262" y1="410.6352" x2="167.2343" y2="730.1392">
				<stop  offset="0" style="stop-color:#FF928E"/>
				<stop  offset="1" style="stop-color:#FE7062"/>
			</linearGradient>
			<circle style="fill:url(#SVGID_00000144301761562632832650000012765433252599952315_);" cx="339.8" cy="469.5" r="51.5"/>
			<path style="opacity:0.8;fill:#FFFFFF;" d="M297.2,448.7c-0.1,0-0.2,0-0.3-0.1c-0.3-0.1-0.4-0.5-0.3-0.8
				c8.2-16.3,24.7-26.5,43-26.5c2.9,0,5.8,0.3,8.7,0.8c0.3,0.1,0.5,0.4,0.5,0.7c-0.1,0.3-0.3,0.5-0.7,0.5c-2.8-0.5-5.6-0.8-8.5-0.8
				c-17.9,0-33.9,9.9-42,25.9C297.7,448.5,297.5,448.7,297.2,448.7z"/>
			
				<ellipse transform="matrix(0.9487 -0.3162 0.3162 0.9487 -131.3337 131.9468)" style="opacity:0.78;fill:#FFFFFF;" cx="340.9" cy="470.6" rx="43.6" ry="43.6"/>
			<g>
				
					<linearGradient id="SVGID_00000001664311154274700320000008168502052224262539_" gradientUnits="userSpaceOnUse" x1="359.1438" y1="415.762" x2="329.6485" y2="508.4073">
					<stop  offset="0" style="stop-color:#FF928E"/>
					<stop  offset="1" style="stop-color:#FE7062"/>
				</linearGradient>
				<path style="fill:url(#SVGID_00000001664311154274700320000008168502052224262539_);" d="M336.6,503.1v-4.7
					c-4.9-0.2-9.8-1.4-13.3-2.9c-1.2-0.5-1.9-1.9-1.5-3.2l1.2-4.4c0.4-1.6,2.2-2.5,3.8-1.8c3.4,1.4,7.7,2.6,12.3,2.6
					c4.8,0,8.3-1.6,8.3-4.9c0-3-2.7-4.8-9.4-6.5c-9.5-2.6-16.2-6.7-16.2-15c0-7.5,5.5-13.2,15-14.8v-4.7c0-1.5,1.2-2.8,2.8-2.8h2.8
					c1.5,0,2.8,1.2,2.8,2.8v4.3c4.6,0.2,7.9,1,10.6,1.9c1.4,0.5,2.1,1.9,1.7,3.3l-1.1,4.1c-0.4,1.6-2.1,2.4-3.6,1.9
					c-2.4-0.9-5.9-1.9-10.4-1.9c-5.7,0-7.3,2.3-7.3,4.4c0,2.6,3.4,4.4,10.7,6.6c10.5,3.2,14.9,7.5,14.9,15.3
					c0,7.2-5.3,13.7-15.7,15.3v5.3c0,1.5-1.2,2.8-2.8,2.8h-2.8C337.8,505.8,336.6,504.6,336.6,503.1z"/>
			</g>
		</g>
	</g>
	<g>
		
			<linearGradient id="SVGID_00000088107946341269721350000016999065770353660309_" gradientUnits="userSpaceOnUse" x1="11119.2783" y1="267.1071" x2="11070.4873" y2="294.9565" gradientTransform="matrix(-1 0 0 1 11257.9824 0)">
			<stop  offset="0" style="stop-color:#FEBBBA"/>
			<stop  offset="1" style="stop-color:#FF928E"/>
		</linearGradient>
		<path style="fill:url(#SVGID_00000088107946341269721350000016999065770353660309_);" d="M146.1,312.5c0.1,0,31-54.2,35.2-59.3
			c0.7-0.9,1.8-1.3,2.9-1.2l8.6,1l10.1,22l-16.9-9.8c1.7,11.6-20,28.8-27.5,35c-0.8,0.6-0.8,1.8-0.1,2.5l3,3.1
			c-4.9,4.9-10.5,8.1-16.9,9.6L146.1,312.5z"/>
		
			<linearGradient id="SVGID_00000160155192986091526340000011532531582617341837_" gradientUnits="userSpaceOnUse" x1="-4472.3994" y1="-3328.8203" x2="-4476.145" y2="-3271.3889" gradientTransform="matrix(0.8974 -0.4412 0.4412 0.8974 5627.29 1309.0135)">
			<stop  offset="0" style="stop-color:#09005D"/>
			<stop  offset="1" style="stop-color:#1A0F91"/>
		</linearGradient>
		<path style="fill:url(#SVGID_00000160155192986091526340000011532531582617341837_);" d="M159.7,304.1c0,0,1.9,0.6,2.5,2.3
			c0.3,0.8,0,1.7-0.7,2.2c-3.1,2.2-13.4,9.5-18.2,10.9c-0.4,0.1-0.8-0.2-0.7-0.6c0.2-1.1,1-3.3,3.6-6.5l-0.2,0.5
			c-0.3,0.6,0.3,1.2,0.9,0.9C150.1,311.9,156.6,308,159.7,304.1z"/>
		
			<linearGradient id="SVGID_00000172428837032603678580000013576575131065732502_" gradientUnits="userSpaceOnUse" x1="11114.5586" y1="274.0525" x2="11281.499" y2="169.5453" gradientTransform="matrix(-1 0 0 1 11257.9824 0)">
			<stop  offset="0" style="stop-color:#FEBBBA"/>
			<stop  offset="1" style="stop-color:#FF928E"/>
		</linearGradient>
		<path style="fill:url(#SVGID_00000172428837032603678580000013576575131065732502_);" d="M158.2,325.8c0.1,0,4.7-11.2,4.7-11.3
			c4.3-25.9,14.6-48.1,17.7-54c0.5-1,1.5-1.6,2.6-1.7l8.7-0.7l14.4,19.4l-18.5-6.2c4,11-13.8,32.2-19.8,39.9
			c-0.6,0.8-0.4,1.9,0.4,2.5l3.5,2.4c-3.8,5.8-8.7,10.1-14.6,12.8L158.2,325.8z"/>
		
			<linearGradient id="SVGID_00000150803414411941347570000013590871158601900674_" gradientUnits="userSpaceOnUse" x1="-3439.2495" y1="-4688.3062" x2="-3442.9946" y2="-4630.8784" gradientTransform="matrix(0.7895 -0.6137 0.6137 0.7895 5746.1069 1899.5804)">
			<stop  offset="0" style="stop-color:#09005D"/>
			<stop  offset="1" style="stop-color:#1A0F91"/>
		</linearGradient>
		<path style="fill:url(#SVGID_00000150803414411941347570000013590871158601900674_);" d="M169.8,314.9c0,0,2,0.2,3,1.7
			c0.5,0.7,0.3,1.7-0.3,2.3c-2.6,2.8-11.2,12-15.6,14.3c-0.4,0.2-0.8-0.1-0.8-0.5c0-1.1,0.3-3.5,2.2-7.1l-0.1,0.5
			c-0.2,0.6,0.6,1.1,1.1,0.7C162,324.4,167.5,319.2,169.8,314.9z"/>
		<g>
			
				<linearGradient id="SVGID_00000081609770943265339490000009847055859903030446_" gradientUnits="userSpaceOnUse" x1="3216.8228" y1="288.1088" x2="3217.3899" y2="239.0447" gradientTransform="matrix(-1 0 0 1 3426.2827 0)">
				<stop  offset="0" style="stop-color:#FF928E"/>
				<stop  offset="1" style="stop-color:#FE7062"/>
			</linearGradient>
			<path style="fill:url(#SVGID_00000081609770943265339490000009847055859903030446_);" d="M232.5,254c0,0,7.8,11.7,8.5,17
				c0.6,5.3-2.2,7.2-10.4,7.8c-24.4,2-36.5-5.3-36.5-5.3c-1.7-10.7-2.9-13.4-16.8-19.2c0,0,17.6,1.4,21.2,0
				C202.1,253,232.5,254,232.5,254z"/>
		</g>
		<g>
			
				<linearGradient id="SVGID_00000051376301924693540870000017791734649880606114_" gradientUnits="userSpaceOnUse" x1="935.7037" y1="-6.5505" x2="879.9409" y2="39.8105" gradientTransform="matrix(0.9712 0.2381 -0.2381 0.9712 -635.5247 -37.0963)">
				<stop  offset="0" style="stop-color:#09005D"/>
				<stop  offset="1" style="stop-color:#1A0F91"/>
			</linearGradient>
			<path style="fill:url(#SVGID_00000051376301924693540870000017791734649880606114_);" d="M198.5,202.5c-4.4,0-9.1,1.1-11-1.5
				c-2.8-3.9,1.5-14.5,8.6-17.3c7.4-2.9,12.6,4.9,20.5,2c6.2-2.2,5.7-7.9,11.5-12.2c9.6-7.1,28.7-4.7,35.9,4.8
				c11.7,15.5-8.4,50.2-23.6,50.6C226.9,229.3,219.4,202.6,198.5,202.5z"/>
			
				<linearGradient id="SVGID_00000121994857622215521750000005835396700437378954_" gradientUnits="userSpaceOnUse" x1="11153.7988" y1="126.8486" x2="11038.7793" y2="237.7976" gradientTransform="matrix(-1 0 0 1 11257.9824 0)">
				<stop  offset="0" style="stop-color:#FF928E"/>
				<stop  offset="1" style="stop-color:#FE7062"/>
			</linearGradient>
			<path style="fill:url(#SVGID_00000121994857622215521750000005835396700437378954_);" d="M211.3,252.5c0,0-9.1-8.7-13.6-14.5
				c-2.4-3.1-3.2-7.2-2.1-11c2.1-6.9,5.7-14.1,6-15.2c0.5-1.7,10.7-1.6,10.7-1.6s20.1,13.1,28.1,35.2l-8.9,2.8
				c0,0-5.3-8.8-10.5-14.4c0,0,9,11.9,9.3,16.7L211.3,252.5z"/>
			
				<linearGradient id="SVGID_00000129916834911446433800000012581741737507292306_" gradientUnits="userSpaceOnUse" x1="228.3972" y1="235.9461" x2="205.7064" y2="276.6183">
				<stop  offset="0" style="stop-color:#FEBBBA"/>
				<stop  offset="1" style="stop-color:#FF928E"/>
			</linearGradient>
			<path style="fill:url(#SVGID_00000129916834911446433800000012581741737507292306_);" d="M193.9,255.9l6.9-7.5l7.9,2.1
				c0,0,9.2,1.4,14.5,0c5.3-1.4,5.3-1.4,5.3-1.4l11.9-3.7l1.9,5.3c0.5,1.3,0,2.8-1.2,3.7c-1,0.7-2.2,1.5-3,1.9
				c-1.6,0.7-36.2,0.2-36.2,0.2L193.9,255.9z"/>
			
				<linearGradient id="SVGID_00000026847695655989303150000001187176958909026957_" gradientUnits="userSpaceOnUse" x1="217.6735" y1="217.6055" x2="202.6423" y2="202.858">
				<stop  offset="0" style="stop-color:#FEBBBA"/>
				<stop  offset="1" style="stop-color:#FF928E"/>
			</linearGradient>
			<path style="fill:url(#SVGID_00000026847695655989303150000001187176958909026957_);" d="M205.3,197.9l6.9,12.8
				c-0.5,2.8-7.5,2.9-8.6,1.2c-0.1-0.2-0.2-0.4-0.2-0.6l-4.1-8.5c-0.2-0.8,2.1-3.6,2.9-4l2.7-1.5
				C205.9,196.7,201.5,196.7,205.3,197.9z"/>
			<g>
				
					<linearGradient id="SVGID_00000085234792019309436910000000539726076196712858_" gradientUnits="userSpaceOnUse" x1="-8572.6094" y1="-1144.1702" x2="-8550.2383" y2="-1183.9829" gradientTransform="matrix(0.5458 -0.8379 0.8379 0.5458 5843.6636 -6345.4897)">
					<stop  offset="0" style="stop-color:#FEBBBA"/>
					<stop  offset="1" style="stop-color:#FF928E"/>
				</linearGradient>
				<path style="fill:url(#SVGID_00000085234792019309436910000000539726076196712858_);" d="M191.4,194.9c0,0-0.8,4.3,2.6,9.8
					c3.4,5.5,6.8,5.2,8.5,3.3c1.7-2,3.8-5.2,2.8-10.7C204.4,191.8,192.6,189.4,191.4,194.9z"/>
				
					<linearGradient id="SVGID_00000167366863613097543380000000209486431606144436_" gradientUnits="userSpaceOnUse" x1="-6155.1821" y1="-3160.8914" x2="-6209.8906" y2="-3115.4067" gradientTransform="matrix(0.5458 -0.8379 0.8379 0.5458 5843.6636 -6345.4897)">
					<stop  offset="0" style="stop-color:#09005D"/>
					<stop  offset="1" style="stop-color:#1A0F91"/>
				</linearGradient>
				<path style="fill:url(#SVGID_00000167366863613097543380000000209486431606144436_);" d="M201.2,197.9c0,0-5.5-7.2-9.7-0.9
					l0.1,2.2c0,0-3.2,1.7-2.6-3.3c0.6-5.1,2.7-10.5,9-8.8c6.2,1.7,9.8,3.7,10.6,8c0.7,4.3-2.8,3.6-2.8,3.6s-1.3-3-3-3.2
					c-1.6-0.2-1,2.2-1,2.2L201.2,197.9z"/>
				
					<linearGradient id="SVGID_00000178167467742031744990000004771084651625586075_" gradientUnits="userSpaceOnUse" x1="-8567.8477" y1="-1141.4948" x2="-8545.4766" y2="-1181.3071" gradientTransform="matrix(0.5458 -0.8379 0.8379 0.5458 5843.6636 -6345.4897)">
					<stop  offset="0" style="stop-color:#FEBBBA"/>
					<stop  offset="1" style="stop-color:#FF928E"/>
				</linearGradient>
				<path style="fill:url(#SVGID_00000178167467742031744990000004771084651625586075_);" d="M202.5,197.7c0,0-2.9-3.7-0.3-4.5
					c2.6-0.8,2.5,3.6,2.3,5.3L202.5,197.7z"/>
			</g>
		</g>
		<g>
			
				<linearGradient id="SVGID_00000013156504228353912560000011376722025313442725_" gradientUnits="userSpaceOnUse" x1="-5806.2803" y1="93.8442" x2="-5831.7065" y2="100.8128" gradientTransform="matrix(0.9988 -4.940000e-02 4.940000e-02 0.9988 6029.5801 -134.323)">
				<stop  offset="0" style="stop-color:#09005D"/>
				<stop  offset="1" style="stop-color:#1A0F91"/>
			</linearGradient>
			<path style="fill:url(#SVGID_00000013156504228353912560000011376722025313442725_);" d="M216.6,258.9
				C216.6,258.9,216.5,258.9,216.6,258.9l-31.6,0c-0.8,0-1.4-0.6-1.4-1.4c0-0.8,0.6-1.4,1.4-1.4l31.6,0c0.8,0,1.4,0.6,1.4,1.4
				C217.9,258.2,217.3,258.8,216.6,258.9z"/>
			
				<linearGradient id="SVGID_00000024701389639110176590000015342567193379461803_" gradientUnits="userSpaceOnUse" x1="198.3691" y1="260.7937" x2="162.351" y2="235.5526">
				<stop  offset="0" style="stop-color:#09005D"/>
				<stop  offset="1" style="stop-color:#1A0F91"/>
			</linearGradient>
			<path style="fill:url(#SVGID_00000024701389639110176590000015342567193379461803_);" d="M156.6,230.2h26.3
				c1.9,0,3.7,1.1,4.5,2.9l12.1,25.8h-32.7c-1.2,0-2.4-0.8-2.8-1.9l-9.4-23.8C154.1,231.7,155.1,230.2,156.6,230.2z"/>
			
				<linearGradient id="SVGID_00000109012304516225139050000004722424964872247680_" gradientUnits="userSpaceOnUse" x1="-5818.9067" y1="238.8154" x2="-5827.0928" y2="251.1424" gradientTransform="matrix(1 0 0 1 5995.52 0)">
				<stop  offset="0" style="stop-color:#4042E2"/>
				<stop  offset="1" style="stop-color:#4F52FF"/>
			</linearGradient>
			<path style="fill:url(#SVGID_00000109012304516225139050000004722424964872247680_);" d="M175.1,243.4c0.6,1.8,0.1,3.5-0.9,3.8
				c-1.1,0.4-2.4-0.8-3-2.6c-0.6-1.8-0.1-3.5,0.9-3.8C173.2,240.5,174.5,241.7,175.1,243.4z"/>
		</g>
		<path style="fill:#91B3FA;" d="M225.3,198.6c-0.1,0-0.2,0-0.3,0c-3.3-0.1-6.6-1.7-10.3-4.9c-5.7-5-7.8-5.8-12.3-5.8
			c-0.1,0-0.3,0-0.4,0l0-0.2c0.1,0,0.3,0,0.4,0c4.5,0,6.8,0.8,12.5,5.8c3.6,3.1,6.9,4.7,10.2,4.8c3.5,0.1,7.1-2,10-5.9
			c1.2-1.7,2.3-3.5,3.3-5.3c0.9-1.7,1.9-3.4,3-5c0.8-1.2,2.1-2.8,4-3.7c1.8-0.9,3.9-0.8,5.3,0.2l-0.1,0.1c-1.3-1-3.3-1-5.1-0.2
			c-1.8,0.9-3.1,2.5-3.9,3.6c-1.1,1.6-2.1,3.3-3,5c-1,1.8-2,3.7-3.3,5.4C232.4,196.4,228.8,198.6,225.3,198.6z"/>
		<path style="fill:#91B3FA;" d="M226.4,203.2c-0.3,0-0.7,0-1-0.1c-2.1-0.2-4.6-1.6-5.4-3.9l0.2-0.1c0.7,2.3,3.1,3.5,5.2,3.8
			c2.7,0.3,5.7-0.7,8.5-2.7c1.9-1.4,3.5-3.1,5.1-4.7c0.5-0.5,1.1-1.1,1.6-1.7c2.4-2.4,5-4.6,7.7-6.6c1.8-1.3,3.8-2.5,6-2.5
			c0.1,0,0.1,0,0.2,0c1.3,0,2.7,0.8,3.5,1.8c0.6,0.8,0.8,1.7,0.6,2.6l-0.2,0c0.2-0.8,0-1.7-0.6-2.5c-0.8-1-2.1-1.7-3.3-1.7
			c-2.2-0.1-4.2,1.1-6.1,2.5c-2.7,2-5.3,4.2-7.7,6.5c-0.5,0.5-1.1,1.1-1.6,1.6c-1.6,1.6-3.2,3.4-5.1,4.7
			C231.5,202.2,228.8,203.2,226.4,203.2z"/>
		<path style="fill:#91B3FA;" d="M228.5,205.9c-0.8,0-1.7-0.2-2.5-0.6l0.1-0.2c2.9,1.5,6.4-0.4,7.7-1.3c1.5-1,3-2.2,4.3-3.3
			c2.3-1.9,4.7-3.9,7.5-4.9c1.5-0.5,2.8-0.7,4-0.5c1.5,0.2,2.7,1,3.3,2.2l-0.2,0.1c-0.6-1.1-1.7-1.9-3.1-2.1c-1.1-0.2-2.4,0-3.9,0.5
			c-2.8,1-5.2,3-7.4,4.9c-1.4,1.2-2.8,2.4-4.4,3.4C232.7,204.9,230.7,205.9,228.5,205.9z"/>
	</g>
</g>
</svg>
