<?xml version="1.0" encoding="utf-8"?>
<!-- Generator: Adobe Illustrator 29.1.0, SVG Export Plug-In . SVG Version: 9.03 Build 55587)  -->
<svg version="1.1" id="Layer_1" xmlns="http://www.w3.org/2000/svg" xmlns:xlink="http://www.w3.org/1999/xlink" x="0px" y="0px"
	 viewBox="0 0 576 576" style="enable-background:new 0 0 576 576;" xml:space="preserve">
<g>
	<g>
		<rect x="38" y="429.1" style="fill:#ECECEC;" width="500" height="0.2"/>
		<rect x="454.8" y="445.2" style="fill:#ECECEC;" width="33.1" height="0.2"/>
		<rect x="360.5" y="448" style="fill:#ECECEC;" width="8.7" height="0.2"/>
		<rect x="434.6" y="436" style="fill:#ECECEC;" width="19.2" height="0.2"/>
		<rect x="90.5" y="437.6" style="fill:#ECECEC;" width="43.2" height="0.2"/>
		<rect x="142.6" y="437.6" style="fill:#ECECEC;" width="6.3" height="0.2"/>
		<rect x="169.5" y="441.9" style="fill:#ECECEC;" width="93.7" height="0.2"/>
		<path style="fill:#ECECEC;" d="M275,384.5H81.9c-3.1,0-5.7-2.6-5.7-5.7V107.4c0-3.1,2.6-5.7,5.7-5.7H275c3.1,0,5.7,2.6,5.7,5.7
			v271.4C280.7,382,278.2,384.5,275,384.5z M81.9,101.9c-3,0-5.5,2.4-5.5,5.5v271.4c0,3,2.4,5.5,5.5,5.5H275c3,0,5.5-2.4,5.5-5.5
			V107.4c0-3-2.4-5.5-5.5-5.5H81.9z"/>
		<path style="fill:#ECECEC;" d="M491.3,384.5H298.2c-3.1,0-5.7-2.6-5.7-5.7V107.4c0-3.1,2.6-5.7,5.7-5.7h193.1
			c3.1,0,5.7,2.6,5.7,5.7v271.4C497,382,494.5,384.5,491.3,384.5z M298.2,101.9c-3,0-5.5,2.4-5.5,5.5v271.4c0,3,2.4,5.5,5.5,5.5
			h193.1c3,0,5.5-2.4,5.5-5.5V107.4c0-3-2.4-5.5-5.5-5.5H298.2z"/>
	</g>
	<g>
		<g>
			<rect x="104.7" y="153" style="fill:#F5F5F5;" width="256" height="211.4"/>
			<rect x="108.9" y="157.4" style="fill:#FAFAFA;" width="251.9" height="202.6"/>
			<g>
				<polygon style="fill:#F0F0F0;" points="110.7,302.4 110.7,230.8 118.2,230.8 118.2,221.4 134.9,213.6 134.9,203.9 137.7,203.9 
					137.7,230.8 140.5,230.8 140.5,302.4 144.2,302.4 144.2,265.2 152.6,265.2 152.6,245.7 155.3,245.7 155.3,302.4 161.8,302.4 
					161.8,281 166.5,281 166.5,275.5 176.7,275.5 176.7,255.9 182.3,255.9 182.3,242.9 188.8,242.9 188.8,223.4 191.6,223.4 
					191.6,242.9 198.1,242.9 198.1,255.9 203.7,255.9 203.7,275.5 213.9,275.5 213.9,281 218.6,281 218.6,302.4 224.1,302.4 
					224.1,275.5 234.4,275.5 234.4,216 237.2,216 237.2,209.5 259.5,209.5 259.5,216 264.1,216 264.1,258.7 282.7,258.7 
					282.7,263.4 289.2,263.4 289.2,266.2 282.7,266.2 282.7,282.9 302.2,282.9 302.2,227.1 306,227.1 306,216 315.2,216 
					315.2,173.2 318,173.2 318,216 324.5,216 324.5,227.1 360.8,227.1 360.8,360.1 108.9,360.1 108.9,302.4 				"/>
				<g>
					<rect x="338.8" y="230" style="fill:#F5F5F5;" width="2.6" height="2.6"/>
					<rect x="338.8" y="234.4" style="fill:#F5F5F5;" width="2.6" height="2.6"/>
					<rect x="338.8" y="252.1" style="fill:#F5F5F5;" width="2.6" height="2.6"/>
					<rect x="338.8" y="256.5" style="fill:#F5F5F5;" width="2.6" height="2.6"/>
					<rect x="338.8" y="260.9" style="fill:#F5F5F5;" width="2.6" height="2.6"/>
					<rect x="338.8" y="274.2" style="fill:#F5F5F5;" width="2.6" height="2.6"/>
					<rect x="338.8" y="278.6" style="fill:#F5F5F5;" width="2.6" height="2.6"/>
					<rect x="334.6" y="247.7" style="fill:#F5F5F5;" width="2.6" height="2.6"/>
					<rect x="334.6" y="252.1" style="fill:#F5F5F5;" width="2.6" height="2.6"/>
					<rect x="334.6" y="256.5" style="fill:#F5F5F5;" width="2.6" height="2.6"/>
					<rect x="334.6" y="260.9" style="fill:#F5F5F5;" width="2.6" height="2.6"/>
					<rect x="334.6" y="265.4" style="fill:#F5F5F5;" width="2.6" height="2.6"/>
					<rect x="334.6" y="274.2" style="fill:#F5F5F5;" width="2.6" height="2.6"/>
					<rect x="334.6" y="278.6" style="fill:#F5F5F5;" width="2.6" height="2.6"/>
					<rect x="330.4" y="230" style="fill:#F5F5F5;" width="2.6" height="2.6"/>
					<rect x="330.4" y="234.4" style="fill:#F5F5F5;" width="2.6" height="2.6"/>
					<rect x="330.4" y="238.9" style="fill:#F5F5F5;" width="2.6" height="2.6"/>
					<rect x="330.4" y="243.3" style="fill:#F5F5F5;" width="2.6" height="2.6"/>
					<rect x="330.4" y="247.7" style="fill:#F5F5F5;" width="2.6" height="2.6"/>
					<rect x="330.4" y="252.1" style="fill:#F5F5F5;" width="2.6" height="2.6"/>
					<rect x="330.4" y="256.5" style="fill:#F5F5F5;" width="2.6" height="2.6"/>
					<rect x="330.4" y="260.9" style="fill:#F5F5F5;" width="2.6" height="2.6"/>
					<rect x="330.4" y="265.4" style="fill:#F5F5F5;" width="2.6" height="2.6"/>
					<rect x="330.4" y="269.8" style="fill:#F5F5F5;" width="2.6" height="2.6"/>
					<rect x="330.4" y="278.6" style="fill:#F5F5F5;" width="2.6" height="2.6"/>
					<rect x="326.2" y="230" style="fill:#F5F5F5;" width="2.6" height="2.6"/>
					<rect x="326.2" y="234.4" style="fill:#F5F5F5;" width="2.6" height="2.6"/>
					<rect x="326.2" y="238.9" style="fill:#F5F5F5;" width="2.6" height="2.6"/>
					<rect x="326.2" y="243.3" style="fill:#F5F5F5;" width="2.6" height="2.6"/>
					<rect x="326.2" y="247.7" style="fill:#F5F5F5;" width="2.6" height="2.6"/>
					<rect x="326.2" y="252.1" style="fill:#F5F5F5;" width="2.6" height="2.6"/>
					<rect x="326.2" y="256.5" style="fill:#F5F5F5;" width="2.6" height="2.6"/>
					<rect x="326.2" y="296.3" style="fill:#F5F5F5;" width="2.6" height="2.6"/>
					<rect x="322" y="230" style="fill:#F5F5F5;" width="2.6" height="2.6"/>
					<rect x="322" y="234.4" style="fill:#F5F5F5;" width="2.6" height="2.6"/>
					<rect x="322" y="238.9" style="fill:#F5F5F5;" width="2.6" height="2.6"/>
					<rect x="322" y="243.3" style="fill:#F5F5F5;" width="2.6" height="2.6"/>
					<rect x="322" y="247.7" style="fill:#F5F5F5;" width="2.6" height="2.6"/>
					<rect x="322" y="252.1" style="fill:#F5F5F5;" width="2.6" height="2.6"/>
					<rect x="322" y="256.5" style="fill:#F5F5F5;" width="2.6" height="2.6"/>
					<rect x="322" y="260.9" style="fill:#F5F5F5;" width="2.6" height="2.6"/>
					<rect x="322" y="287.4" style="fill:#F5F5F5;" width="2.6" height="2.6"/>
					<rect x="322" y="291.9" style="fill:#F5F5F5;" width="2.6" height="2.6"/>
					<rect x="322" y="296.3" style="fill:#F5F5F5;" width="2.6" height="2.6"/>
					<rect x="322" y="300.7" style="fill:#F5F5F5;" width="2.6" height="2.6"/>
					<rect x="322" y="318.4" style="fill:#F5F5F5;" width="2.6" height="2.6"/>
					<rect x="317.9" y="230" style="fill:#F5F5F5;" width="2.6" height="2.6"/>
					<rect x="317.9" y="234.4" style="fill:#F5F5F5;" width="2.6" height="2.6"/>
					<rect x="317.9" y="238.9" style="fill:#F5F5F5;" width="2.6" height="2.6"/>
					<rect x="317.9" y="243.3" style="fill:#F5F5F5;" width="2.6" height="2.6"/>
					<rect x="317.9" y="247.7" style="fill:#F5F5F5;" width="2.6" height="2.6"/>
					<rect x="317.9" y="252.1" style="fill:#F5F5F5;" width="2.6" height="2.6"/>
					<rect x="317.9" y="256.5" style="fill:#F5F5F5;" width="2.6" height="2.6"/>
					<rect x="317.9" y="260.9" style="fill:#F5F5F5;" width="2.6" height="2.6"/>
					<rect x="317.9" y="265.4" style="fill:#F5F5F5;" width="2.6" height="2.6"/>
					<rect x="317.9" y="269.8" style="fill:#F5F5F5;" width="2.6" height="2.6"/>
					<rect x="317.9" y="283" style="fill:#F5F5F5;" width="2.6" height="2.6"/>
					<rect x="317.9" y="287.4" style="fill:#F5F5F5;" width="2.6" height="2.6"/>
					<rect x="317.9" y="291.9" style="fill:#F5F5F5;" width="2.6" height="2.6"/>
					<rect x="317.9" y="296.3" style="fill:#F5F5F5;" width="2.6" height="2.6"/>
					<rect x="317.9" y="300.7" style="fill:#F5F5F5;" width="2.6" height="2.6"/>
					<rect x="317.9" y="318.4" style="fill:#F5F5F5;" width="2.6" height="2.6"/>
					<rect x="313.7" y="230" style="fill:#F5F5F5;" width="2.6" height="2.6"/>
					<rect x="313.7" y="234.4" style="fill:#F5F5F5;" width="2.6" height="2.6"/>
					<rect x="313.7" y="238.9" style="fill:#F5F5F5;" width="2.6" height="2.6"/>
					<rect x="313.7" y="243.3" style="fill:#F5F5F5;" width="2.6" height="2.6"/>
					<rect x="313.7" y="247.7" style="fill:#F5F5F5;" width="2.6" height="2.6"/>
					<rect x="313.7" y="252.1" style="fill:#F5F5F5;" width="2.6" height="2.6"/>
					<rect x="313.7" y="256.5" style="fill:#F5F5F5;" width="2.6" height="2.6"/>
					<rect x="313.7" y="260.9" style="fill:#F5F5F5;" width="2.6" height="2.6"/>
					<rect x="313.7" y="265.4" style="fill:#F5F5F5;" width="2.6" height="2.6"/>
					<rect x="313.7" y="269.8" style="fill:#F5F5F5;" width="2.6" height="2.6"/>
					<rect x="313.7" y="274.2" style="fill:#F5F5F5;" width="2.6" height="2.6"/>
					<rect x="313.7" y="278.6" style="fill:#F5F5F5;" width="2.6" height="2.6"/>
					<rect x="313.7" y="283" style="fill:#F5F5F5;" width="2.6" height="2.6"/>
					<rect x="313.7" y="287.4" style="fill:#F5F5F5;" width="2.6" height="2.6"/>
					<rect x="313.7" y="291.9" style="fill:#F5F5F5;" width="2.6" height="2.6"/>
					<rect x="313.7" y="296.3" style="fill:#F5F5F5;" width="2.6" height="2.6"/>
					<rect x="313.7" y="300.7" style="fill:#F5F5F5;" width="2.6" height="2.6"/>
					<rect x="313.7" y="305.1" style="fill:#F5F5F5;" width="2.6" height="2.6"/>
					<rect x="309.5" y="230" style="fill:#F5F5F5;" width="2.6" height="2.6"/>
					<rect x="309.5" y="234.4" style="fill:#F5F5F5;" width="2.6" height="2.6"/>
					<rect x="309.5" y="238.9" style="fill:#F5F5F5;" width="2.6" height="2.6"/>
					<rect x="309.5" y="243.3" style="fill:#F5F5F5;" width="2.6" height="2.6"/>
					<rect x="309.5" y="247.7" style="fill:#F5F5F5;" width="2.6" height="2.6"/>
					<rect x="309.5" y="252.1" style="fill:#F5F5F5;" width="2.6" height="2.6"/>
					<rect x="309.5" y="256.5" style="fill:#F5F5F5;" width="2.6" height="2.6"/>
					<rect x="309.5" y="260.9" style="fill:#F5F5F5;" width="2.6" height="2.6"/>
					<rect x="309.5" y="265.4" style="fill:#F5F5F5;" width="2.6" height="2.6"/>
					<rect x="309.5" y="269.8" style="fill:#F5F5F5;" width="2.6" height="2.6"/>
					<rect x="309.5" y="283" style="fill:#F5F5F5;" width="2.6" height="2.6"/>
					<rect x="309.5" y="287.4" style="fill:#F5F5F5;" width="2.6" height="2.6"/>
					<rect x="309.5" y="291.9" style="fill:#F5F5F5;" width="2.6" height="2.6"/>
					<rect x="309.5" y="296.3" style="fill:#F5F5F5;" width="2.6" height="2.6"/>
					<rect x="305.3" y="230" style="fill:#F5F5F5;" width="2.6" height="2.6"/>
					<rect x="305.3" y="234.4" style="fill:#F5F5F5;" width="2.6" height="2.6"/>
					<rect x="305.3" y="238.9" style="fill:#F5F5F5;" width="2.6" height="2.6"/>
					<rect x="305.3" y="243.3" style="fill:#F5F5F5;" width="2.6" height="2.6"/>
					<rect x="305.3" y="247.7" style="fill:#F5F5F5;" width="2.6" height="2.6"/>
					<rect x="305.3" y="252.1" style="fill:#F5F5F5;" width="2.6" height="2.6"/>
					<rect x="305.3" y="256.5" style="fill:#F5F5F5;" width="2.6" height="2.6"/>
					<rect x="305.3" y="260.9" style="fill:#F5F5F5;" width="2.6" height="2.6"/>
					<rect x="305.3" y="265.4" style="fill:#F5F5F5;" width="2.6" height="2.6"/>
					<rect x="305.3" y="269.8" style="fill:#F5F5F5;" width="2.6" height="2.6"/>
					<rect x="305.3" y="283" style="fill:#F5F5F5;" width="2.6" height="2.6"/>
					<rect x="305.3" y="287.4" style="fill:#F5F5F5;" width="2.6" height="2.6"/>
					<rect x="305.3" y="291.9" style="fill:#F5F5F5;" width="2.6" height="2.6"/>
					<rect x="258.2" y="218.6" style="fill:#F5F5F5;" width="2.6" height="2.6"/>
					<rect x="258.2" y="223" style="fill:#F5F5F5;" width="2.6" height="2.6"/>
					<rect x="258.2" y="227.4" style="fill:#F5F5F5;" width="2.6" height="2.6"/>
					<rect x="258.2" y="231.8" style="fill:#F5F5F5;" width="2.6" height="2.6"/>
					<rect x="258.2" y="236.2" style="fill:#F5F5F5;" width="2.6" height="2.6"/>
					<rect x="258.2" y="240.6" style="fill:#F5F5F5;" width="2.6" height="2.6"/>
					<rect x="258.2" y="245.1" style="fill:#F5F5F5;" width="2.6" height="2.6"/>
					<rect x="258.2" y="249.5" style="fill:#F5F5F5;" width="2.6" height="2.6"/>
					<rect x="258.2" y="262.7" style="fill:#F5F5F5;" width="2.6" height="2.6"/>
					<rect x="258.2" y="267.1" style="fill:#F5F5F5;" width="2.6" height="2.6"/>
					<rect x="254" y="218.6" style="fill:#F5F5F5;" width="2.6" height="2.6"/>
					<rect x="254" y="223" style="fill:#F5F5F5;" width="2.6" height="2.6"/>
					<rect x="254" y="227.4" style="fill:#F5F5F5;" width="2.6" height="2.6"/>
					<rect x="254" y="231.8" style="fill:#F5F5F5;" width="2.6" height="2.6"/>
					<rect x="254" y="236.2" style="fill:#F5F5F5;" width="2.6" height="2.6"/>
					<rect x="254" y="240.6" style="fill:#F5F5F5;" width="2.6" height="2.6"/>
					<rect x="254" y="245.1" style="fill:#F5F5F5;" width="2.6" height="2.6"/>
					<rect x="254" y="249.5" style="fill:#F5F5F5;" width="2.6" height="2.6"/>
					<rect x="254" y="267.1" style="fill:#F5F5F5;" width="2.6" height="2.6"/>
					<rect x="249.8" y="218.6" style="fill:#F5F5F5;" width="2.6" height="2.6"/>
					<rect x="249.8" y="223" style="fill:#F5F5F5;" width="2.6" height="2.6"/>
					<rect x="249.8" y="227.4" style="fill:#F5F5F5;" width="2.6" height="2.6"/>
					<rect x="249.8" y="231.8" style="fill:#F5F5F5;" width="2.6" height="2.6"/>
					<rect x="249.8" y="236.2" style="fill:#F5F5F5;" width="2.6" height="2.6"/>
					<rect x="249.8" y="240.6" style="fill:#F5F5F5;" width="2.6" height="2.6"/>
					<rect x="249.8" y="245.1" style="fill:#F5F5F5;" width="2.6" height="2.6"/>
					<rect x="249.8" y="249.5" style="fill:#F5F5F5;" width="2.6" height="2.6"/>
					<rect x="245.7" y="218.6" style="fill:#F5F5F5;" width="2.6" height="2.6"/>
					<rect x="245.7" y="223" style="fill:#F5F5F5;" width="2.6" height="2.6"/>
					<rect x="245.7" y="227.4" style="fill:#F5F5F5;" width="2.6" height="2.6"/>
					<rect x="245.7" y="231.8" style="fill:#F5F5F5;" width="2.6" height="2.6"/>
					<rect x="245.7" y="236.2" style="fill:#F5F5F5;" width="2.6" height="2.6"/>
					<rect x="245.7" y="240.6" style="fill:#F5F5F5;" width="2.6" height="2.6"/>
					<rect x="245.7" y="249.5" style="fill:#F5F5F5;" width="2.6" height="2.6"/>
					<rect x="245.7" y="253.9" style="fill:#F5F5F5;" width="2.6" height="2.6"/>
					<rect x="245.7" y="267.1" style="fill:#F5F5F5;" width="2.6" height="2.6"/>
					<rect x="245.7" y="271.6" style="fill:#F5F5F5;" width="2.6" height="2.6"/>
					<rect x="245.7" y="276" style="fill:#F5F5F5;" width="2.6" height="2.6"/>
					<rect x="245.7" y="280.4" style="fill:#F5F5F5;" width="2.6" height="2.6"/>
					<rect x="245.7" y="284.8" style="fill:#F5F5F5;" width="2.6" height="2.6"/>
					<rect x="245.7" y="289.2" style="fill:#F5F5F5;" width="2.6" height="2.6"/>
					<rect x="245.7" y="293.6" style="fill:#F5F5F5;" width="2.6" height="2.6"/>
					<rect x="241.5" y="218.6" style="fill:#F5F5F5;" width="2.6" height="2.6"/>
					<rect x="241.5" y="223" style="fill:#F5F5F5;" width="2.6" height="2.6"/>
					<rect x="241.5" y="227.4" style="fill:#F5F5F5;" width="2.6" height="2.6"/>
					<rect x="241.5" y="231.8" style="fill:#F5F5F5;" width="2.6" height="2.6"/>
					<rect x="241.5" y="236.2" style="fill:#F5F5F5;" width="2.6" height="2.6"/>
					<rect x="241.5" y="240.6" style="fill:#F5F5F5;" width="2.6" height="2.6"/>
					<rect x="241.5" y="253.9" style="fill:#F5F5F5;" width="2.6" height="2.6"/>
					<rect x="241.5" y="258.3" style="fill:#F5F5F5;" width="2.6" height="2.6"/>
					<rect x="241.5" y="262.7" style="fill:#F5F5F5;" width="2.6" height="2.6"/>
					<rect x="241.5" y="267.1" style="fill:#F5F5F5;" width="2.6" height="2.6"/>
					<rect x="241.5" y="271.6" style="fill:#F5F5F5;" width="2.6" height="2.6"/>
					<rect x="241.5" y="276" style="fill:#F5F5F5;" width="2.6" height="2.6"/>
					<rect x="241.5" y="280.4" style="fill:#F5F5F5;" width="2.6" height="2.6"/>
					<rect x="241.5" y="284.8" style="fill:#F5F5F5;" width="2.6" height="2.6"/>
					<rect x="241.5" y="289.2" style="fill:#F5F5F5;" width="2.6" height="2.6"/>
					<rect x="241.5" y="293.6" style="fill:#F5F5F5;" width="2.6" height="2.6"/>
					<rect x="241.5" y="298.1" style="fill:#F5F5F5;" width="2.6" height="2.6"/>
					<rect x="241.5" y="306.9" style="fill:#F5F5F5;" width="2.6" height="2.6"/>
					<rect x="237.3" y="218.6" style="fill:#F5F5F5;" width="2.6" height="2.6"/>
					<rect x="237.3" y="223" style="fill:#F5F5F5;" width="2.6" height="2.6"/>
					<rect x="237.3" y="227.4" style="fill:#F5F5F5;" width="2.6" height="2.6"/>
					<rect x="237.3" y="231.8" style="fill:#F5F5F5;" width="2.6" height="2.6"/>
					<rect x="237.3" y="236.2" style="fill:#F5F5F5;" width="2.6" height="2.6"/>
					<rect x="237.3" y="240.6" style="fill:#F5F5F5;" width="2.6" height="2.6"/>
					<rect x="237.3" y="253.9" style="fill:#F5F5F5;" width="2.6" height="2.6"/>
					<rect x="237.3" y="258.3" style="fill:#F5F5F5;" width="2.6" height="2.6"/>
					<rect x="237.3" y="262.7" style="fill:#F5F5F5;" width="2.6" height="2.6"/>
					<rect x="237.3" y="267.1" style="fill:#F5F5F5;" width="2.6" height="2.6"/>
					<rect x="237.3" y="280.4" style="fill:#F5F5F5;" width="2.6" height="2.6"/>
					<rect x="237.3" y="284.8" style="fill:#F5F5F5;" width="2.6" height="2.6"/>
					<rect x="237.3" y="289.2" style="fill:#F5F5F5;" width="2.6" height="2.6"/>
					<rect x="237.3" y="293.6" style="fill:#F5F5F5;" width="2.6" height="2.6"/>
					<rect x="237.3" y="298.1" style="fill:#F5F5F5;" width="2.6" height="2.6"/>
					<rect x="237.3" y="306.9" style="fill:#F5F5F5;" width="2.6" height="2.6"/>
					<rect x="237.3" y="311.3" style="fill:#F5F5F5;" width="2.6" height="2.6"/>
					<rect x="199.3" y="259.6" style="fill:#F5F5F5;" width="2.6" height="2.6"/>
					<rect x="199.3" y="264" style="fill:#F5F5F5;" width="2.6" height="2.6"/>
					<rect x="199.3" y="268.5" style="fill:#F5F5F5;" width="2.6" height="2.6"/>
					<rect x="199.3" y="272.9" style="fill:#F5F5F5;" width="2.6" height="2.6"/>
					<rect x="199.3" y="277.3" style="fill:#F5F5F5;" width="2.6" height="2.6"/>
					<rect x="199.3" y="281.7" style="fill:#F5F5F5;" width="2.6" height="2.6"/>
					<rect x="199.3" y="286.1" style="fill:#F5F5F5;" width="2.6" height="2.6"/>
					<rect x="199.3" y="299.4" style="fill:#F5F5F5;" width="2.6" height="2.6"/>
					<rect x="199.3" y="303.8" style="fill:#F5F5F5;" width="2.6" height="2.6"/>
					<rect x="199.3" y="308.2" style="fill:#F5F5F5;" width="2.6" height="2.6"/>
					<rect x="195.1" y="259.6" style="fill:#F5F5F5;" width="2.6" height="2.6"/>
					<rect x="195.1" y="264" style="fill:#F5F5F5;" width="2.6" height="2.6"/>
					<rect x="195.1" y="268.5" style="fill:#F5F5F5;" width="2.6" height="2.6"/>
					<rect x="195.1" y="272.9" style="fill:#F5F5F5;" width="2.6" height="2.6"/>
					<rect x="195.1" y="277.3" style="fill:#F5F5F5;" width="2.6" height="2.6"/>
					<rect x="195.1" y="281.7" style="fill:#F5F5F5;" width="2.6" height="2.6"/>
					<rect x="195.1" y="286.1" style="fill:#F5F5F5;" width="2.6" height="2.6"/>
					<rect x="191" y="259.6" style="fill:#F5F5F5;" width="2.6" height="2.6"/>
					<rect x="191" y="264" style="fill:#F5F5F5;" width="2.6" height="2.6"/>
					<rect x="191" y="268.5" style="fill:#F5F5F5;" width="2.6" height="2.6"/>
					<rect x="191" y="272.9" style="fill:#F5F5F5;" width="2.6" height="2.6"/>
					<rect x="191" y="277.3" style="fill:#F5F5F5;" width="2.6" height="2.6"/>
					<rect x="191" y="281.7" style="fill:#F5F5F5;" width="2.6" height="2.6"/>
					<rect x="191" y="286.1" style="fill:#F5F5F5;" width="2.6" height="2.6"/>
					<rect x="186.8" y="259.6" style="fill:#F5F5F5;" width="2.6" height="2.6"/>
					<rect x="186.8" y="264" style="fill:#F5F5F5;" width="2.6" height="2.6"/>
					<rect x="186.8" y="268.5" style="fill:#F5F5F5;" width="2.6" height="2.6"/>
					<rect x="186.8" y="272.9" style="fill:#F5F5F5;" width="2.6" height="2.6"/>
					<rect x="186.8" y="277.3" style="fill:#F5F5F5;" width="2.6" height="2.6"/>
					<rect x="186.8" y="281.7" style="fill:#F5F5F5;" width="2.6" height="2.6"/>
					<rect x="186.8" y="286.1" style="fill:#F5F5F5;" width="2.6" height="2.6"/>
					<rect x="186.8" y="290.5" style="fill:#F5F5F5;" width="2.6" height="2.6"/>
					<rect x="186.8" y="295" style="fill:#F5F5F5;" width="2.6" height="2.6"/>
					<rect x="186.8" y="299.4" style="fill:#F5F5F5;" width="2.6" height="2.6"/>
					<rect x="186.8" y="303.8" style="fill:#F5F5F5;" width="2.6" height="2.6"/>
					<rect x="182.6" y="259.6" style="fill:#F5F5F5;" width="2.6" height="2.6"/>
					<rect x="182.6" y="264" style="fill:#F5F5F5;" width="2.6" height="2.6"/>
					<rect x="182.6" y="268.5" style="fill:#F5F5F5;" width="2.6" height="2.6"/>
					<rect x="182.6" y="272.9" style="fill:#F5F5F5;" width="2.6" height="2.6"/>
					<rect x="182.6" y="277.3" style="fill:#F5F5F5;" width="2.6" height="2.6"/>
					<rect x="182.6" y="281.7" style="fill:#F5F5F5;" width="2.6" height="2.6"/>
					<rect x="182.6" y="286.1" style="fill:#F5F5F5;" width="2.6" height="2.6"/>
					<rect x="182.6" y="290.5" style="fill:#F5F5F5;" width="2.6" height="2.6"/>
					<rect x="182.6" y="295" style="fill:#F5F5F5;" width="2.6" height="2.6"/>
					<rect x="182.6" y="299.4" style="fill:#F5F5F5;" width="2.6" height="2.6"/>
					<rect x="182.6" y="303.8" style="fill:#F5F5F5;" width="2.6" height="2.6"/>
					<rect x="182.6" y="308.2" style="fill:#F5F5F5;" width="2.6" height="2.6"/>
					<rect x="182.6" y="321.5" style="fill:#F5F5F5;" width="2.6" height="2.6"/>
					<rect x="182.6" y="325.9" style="fill:#F5F5F5;" width="2.6" height="2.6"/>
					<rect x="178.4" y="259.6" style="fill:#F5F5F5;" width="2.6" height="2.6"/>
					<rect x="178.4" y="264" style="fill:#F5F5F5;" width="2.6" height="2.6"/>
					<rect x="178.4" y="268.5" style="fill:#F5F5F5;" width="2.6" height="2.6"/>
					<rect x="178.4" y="281.7" style="fill:#F5F5F5;" width="2.6" height="2.6"/>
					<rect x="178.4" y="286.1" style="fill:#F5F5F5;" width="2.6" height="2.6"/>
					<rect x="178.4" y="290.5" style="fill:#F5F5F5;" width="2.6" height="2.6"/>
					<rect x="178.4" y="295" style="fill:#F5F5F5;" width="2.6" height="2.6"/>
					<rect x="178.4" y="299.4" style="fill:#F5F5F5;" width="2.6" height="2.6"/>
					<rect x="178.4" y="303.8" style="fill:#F5F5F5;" width="2.6" height="2.6"/>
					<rect x="178.4" y="308.2" style="fill:#F5F5F5;" width="2.6" height="2.6"/>
					<rect x="178.4" y="321.5" style="fill:#F5F5F5;" width="2.6" height="2.6"/>
					<rect x="178.4" y="325.9" style="fill:#F5F5F5;" width="2.6" height="2.6"/>
					<rect x="178.4" y="330.3" style="fill:#F5F5F5;" width="2.6" height="2.6"/>
					<rect x="134.6" y="233.1" style="fill:#F5F5F5;" width="2.6" height="2.6"/>
					<rect x="134.6" y="237.5" style="fill:#F5F5F5;" width="2.6" height="2.6"/>
					<rect x="134.6" y="242" style="fill:#F5F5F5;" width="2.6" height="2.6"/>
					<rect x="134.6" y="246.4" style="fill:#F5F5F5;" width="2.6" height="2.6"/>
					<rect x="134.6" y="250.8" style="fill:#F5F5F5;" width="2.6" height="2.6"/>
					<rect x="134.6" y="255.2" style="fill:#F5F5F5;" width="2.6" height="2.6"/>
					<rect x="134.6" y="259.6" style="fill:#F5F5F5;" width="2.6" height="2.6"/>
					<rect x="134.6" y="264" style="fill:#F5F5F5;" width="2.6" height="2.6"/>
					<rect x="134.6" y="268.5" style="fill:#F5F5F5;" width="2.6" height="2.6"/>
					<rect x="134.6" y="272.9" style="fill:#F5F5F5;" width="2.6" height="2.6"/>
					<rect x="134.6" y="277.3" style="fill:#F5F5F5;" width="2.6" height="2.6"/>
					<rect x="134.6" y="281.7" style="fill:#F5F5F5;" width="2.6" height="2.6"/>
					<rect x="134.6" y="286.1" style="fill:#F5F5F5;" width="2.6" height="2.6"/>
					<rect x="134.6" y="290.5" style="fill:#F5F5F5;" width="2.6" height="2.6"/>
					<rect x="134.6" y="295" style="fill:#F5F5F5;" width="2.6" height="2.6"/>
					<rect x="134.6" y="299.4" style="fill:#F5F5F5;" width="2.6" height="2.6"/>
					<rect x="134.6" y="303.8" style="fill:#F5F5F5;" width="2.6" height="2.6"/>
					<rect x="134.6" y="308.2" style="fill:#F5F5F5;" width="2.6" height="2.6"/>
					<rect x="134.6" y="312.6" style="fill:#F5F5F5;" width="2.6" height="2.6"/>
					<rect x="134.6" y="317" style="fill:#F5F5F5;" width="2.6" height="2.6"/>
					<rect x="134.6" y="321.5" style="fill:#F5F5F5;" width="2.6" height="2.6"/>
					<rect x="134.6" y="325.9" style="fill:#F5F5F5;" width="2.6" height="2.6"/>
					<rect x="134.6" y="330.3" style="fill:#F5F5F5;" width="2.6" height="2.6"/>
					<rect x="130.4" y="233.1" style="fill:#F5F5F5;" width="2.6" height="2.6"/>
					<rect x="130.4" y="237.5" style="fill:#F5F5F5;" width="2.6" height="2.6"/>
					<rect x="130.4" y="242" style="fill:#F5F5F5;" width="2.6" height="2.6"/>
					<rect x="130.4" y="246.4" style="fill:#F5F5F5;" width="2.6" height="2.6"/>
					<rect x="130.4" y="250.8" style="fill:#F5F5F5;" width="2.6" height="2.6"/>
					<rect x="130.4" y="255.2" style="fill:#F5F5F5;" width="2.6" height="2.6"/>
					<rect x="130.4" y="259.6" style="fill:#F5F5F5;" width="2.6" height="2.6"/>
					<rect x="130.4" y="264" style="fill:#F5F5F5;" width="2.6" height="2.6"/>
					<rect x="130.4" y="268.5" style="fill:#F5F5F5;" width="2.6" height="2.6"/>
					<rect x="130.4" y="272.9" style="fill:#F5F5F5;" width="2.6" height="2.6"/>
					<rect x="130.4" y="277.3" style="fill:#F5F5F5;" width="2.6" height="2.6"/>
					<rect x="130.4" y="281.7" style="fill:#F5F5F5;" width="2.6" height="2.6"/>
					<rect x="130.4" y="286.1" style="fill:#F5F5F5;" width="2.6" height="2.6"/>
					<rect x="130.4" y="290.5" style="fill:#F5F5F5;" width="2.6" height="2.6"/>
					<rect x="130.4" y="295" style="fill:#F5F5F5;" width="2.6" height="2.6"/>
					<rect x="130.4" y="299.4" style="fill:#F5F5F5;" width="2.6" height="2.6"/>
					<rect x="130.4" y="303.8" style="fill:#F5F5F5;" width="2.6" height="2.6"/>
					<rect x="130.4" y="308.2" style="fill:#F5F5F5;" width="2.6" height="2.6"/>
					<rect x="130.4" y="312.6" style="fill:#F5F5F5;" width="2.6" height="2.6"/>
					<rect x="126.2" y="233.1" style="fill:#F5F5F5;" width="2.6" height="2.6"/>
					<rect x="126.2" y="237.5" style="fill:#F5F5F5;" width="2.6" height="2.6"/>
					<rect x="126.2" y="242" style="fill:#F5F5F5;" width="2.6" height="2.6"/>
					<rect x="126.2" y="246.4" style="fill:#F5F5F5;" width="2.6" height="2.6"/>
					<rect x="126.2" y="250.8" style="fill:#F5F5F5;" width="2.6" height="2.6"/>
					<rect x="126.2" y="255.2" style="fill:#F5F5F5;" width="2.6" height="2.6"/>
					<rect x="126.2" y="259.6" style="fill:#F5F5F5;" width="2.6" height="2.6"/>
					<rect x="126.2" y="264" style="fill:#F5F5F5;" width="2.6" height="2.6"/>
					<rect x="126.2" y="268.5" style="fill:#F5F5F5;" width="2.6" height="2.6"/>
					<rect x="126.2" y="272.9" style="fill:#F5F5F5;" width="2.6" height="2.6"/>
					<rect x="126.2" y="277.3" style="fill:#F5F5F5;" width="2.6" height="2.6"/>
					<rect x="126.2" y="281.7" style="fill:#F5F5F5;" width="2.6" height="2.6"/>
					<rect x="126.2" y="286.1" style="fill:#F5F5F5;" width="2.6" height="2.6"/>
					<rect x="126.2" y="290.5" style="fill:#F5F5F5;" width="2.6" height="2.6"/>
					<rect x="126.2" y="295" style="fill:#F5F5F5;" width="2.6" height="2.6"/>
					<rect x="126.2" y="299.4" style="fill:#F5F5F5;" width="2.6" height="2.6"/>
					<rect x="126.2" y="303.8" style="fill:#F5F5F5;" width="2.6" height="2.6"/>
					<rect x="126.2" y="308.2" style="fill:#F5F5F5;" width="2.6" height="2.6"/>
					<rect x="126.2" y="312.6" style="fill:#F5F5F5;" width="2.6" height="2.6"/>
					<rect x="122" y="233.1" style="fill:#F5F5F5;" width="2.6" height="2.6"/>
					<rect x="122" y="237.5" style="fill:#F5F5F5;" width="2.6" height="2.6"/>
					<rect x="122" y="242" style="fill:#F5F5F5;" width="2.6" height="2.6"/>
					<rect x="122" y="246.4" style="fill:#F5F5F5;" width="2.6" height="2.6"/>
					<rect x="122" y="250.8" style="fill:#F5F5F5;" width="2.6" height="2.6"/>
					<rect x="122" y="255.2" style="fill:#F5F5F5;" width="2.6" height="2.6"/>
					<rect x="122" y="259.6" style="fill:#F5F5F5;" width="2.6" height="2.6"/>
					<rect x="122" y="264" style="fill:#F5F5F5;" width="2.6" height="2.6"/>
					<rect x="122" y="268.5" style="fill:#F5F5F5;" width="2.6" height="2.6"/>
					<rect x="122" y="272.9" style="fill:#F5F5F5;" width="2.6" height="2.6"/>
					<rect x="122" y="277.3" style="fill:#F5F5F5;" width="2.6" height="2.6"/>
					<rect x="122" y="281.7" style="fill:#F5F5F5;" width="2.6" height="2.6"/>
					<rect x="122" y="286.1" style="fill:#F5F5F5;" width="2.6" height="2.6"/>
					<rect x="122" y="290.5" style="fill:#F5F5F5;" width="2.6" height="2.6"/>
					<rect x="122" y="295" style="fill:#F5F5F5;" width="2.6" height="2.6"/>
					<rect x="117.8" y="233.1" style="fill:#F5F5F5;" width="2.6" height="2.6"/>
					<rect x="117.8" y="237.5" style="fill:#F5F5F5;" width="2.6" height="2.6"/>
					<rect x="117.8" y="242" style="fill:#F5F5F5;" width="2.6" height="2.6"/>
					<rect x="117.8" y="246.4" style="fill:#F5F5F5;" width="2.6" height="2.6"/>
					<rect x="117.8" y="250.8" style="fill:#F5F5F5;" width="2.6" height="2.6"/>
					<rect x="117.8" y="255.2" style="fill:#F5F5F5;" width="2.6" height="2.6"/>
					<rect x="117.8" y="259.6" style="fill:#F5F5F5;" width="2.6" height="2.6"/>
					<rect x="117.8" y="264" style="fill:#F5F5F5;" width="2.6" height="2.6"/>
					<rect x="117.8" y="268.5" style="fill:#F5F5F5;" width="2.6" height="2.6"/>
					<rect x="117.8" y="272.9" style="fill:#F5F5F5;" width="2.6" height="2.6"/>
					<rect x="117.8" y="277.3" style="fill:#F5F5F5;" width="2.6" height="2.6"/>
					<rect x="117.8" y="281.7" style="fill:#F5F5F5;" width="2.6" height="2.6"/>
					<rect x="117.8" y="286.1" style="fill:#F5F5F5;" width="2.6" height="2.6"/>
					<rect x="113.6" y="233.1" style="fill:#F5F5F5;" width="2.6" height="2.6"/>
					<rect x="113.6" y="237.5" style="fill:#F5F5F5;" width="2.6" height="2.6"/>
					<rect x="113.6" y="242" style="fill:#F5F5F5;" width="2.6" height="2.6"/>
					<rect x="113.6" y="246.4" style="fill:#F5F5F5;" width="2.6" height="2.6"/>
					<rect x="113.6" y="250.8" style="fill:#F5F5F5;" width="2.6" height="2.6"/>
					<rect x="113.6" y="255.2" style="fill:#F5F5F5;" width="2.6" height="2.6"/>
					<rect x="113.6" y="259.6" style="fill:#F5F5F5;" width="2.6" height="2.6"/>
					<rect x="113.6" y="264" style="fill:#F5F5F5;" width="2.6" height="2.6"/>
					<rect x="113.6" y="268.5" style="fill:#F5F5F5;" width="2.6" height="2.6"/>
					<rect x="113.6" y="272.9" style="fill:#F5F5F5;" width="2.6" height="2.6"/>
					<rect x="113.6" y="277.3" style="fill:#F5F5F5;" width="2.6" height="2.6"/>
					<rect x="113.6" y="281.7" style="fill:#F5F5F5;" width="2.6" height="2.6"/>
					<rect x="357.8" y="231.8" style="fill:#F5F5F5;" width="2.6" height="2.6"/>
					<rect x="357.8" y="236.2" style="fill:#F5F5F5;" width="2.6" height="2.6"/>
					<rect x="357.8" y="240.6" style="fill:#F5F5F5;" width="2.6" height="2.6"/>
					<rect x="357.8" y="245.1" style="fill:#F5F5F5;" width="2.6" height="2.6"/>
					<rect x="357.8" y="249.5" style="fill:#F5F5F5;" width="2.6" height="2.6"/>
					<rect x="357.8" y="253.9" style="fill:#F5F5F5;" width="2.6" height="2.6"/>
					<rect x="357.8" y="258.3" style="fill:#F5F5F5;" width="2.6" height="2.6"/>
					<rect x="357.8" y="262.7" style="fill:#F5F5F5;" width="2.6" height="2.6"/>
					<rect x="357.8" y="267.1" style="fill:#F5F5F5;" width="2.6" height="2.6"/>
					<rect x="357.8" y="271.6" style="fill:#F5F5F5;" width="2.6" height="2.6"/>
					<rect x="357.8" y="276" style="fill:#F5F5F5;" width="2.6" height="2.6"/>
					<rect x="357.8" y="280.4" style="fill:#F5F5F5;" width="2.6" height="2.6"/>
					<rect x="357.8" y="284.8" style="fill:#F5F5F5;" width="2.6" height="2.6"/>
					<rect x="357.8" y="289.2" style="fill:#F5F5F5;" width="2.6" height="2.6"/>
					<rect x="357.8" y="293.6" style="fill:#F5F5F5;" width="2.6" height="2.6"/>
					<rect x="357.8" y="298.1" style="fill:#F5F5F5;" width="2.6" height="2.6"/>
					<rect x="357.8" y="302.5" style="fill:#F5F5F5;" width="2.6" height="2.6"/>
					<rect x="357.8" y="311.3" style="fill:#F5F5F5;" width="2.6" height="2.6"/>
					<rect x="357.8" y="315.7" style="fill:#F5F5F5;" width="2.6" height="2.6"/>
					<rect x="357.8" y="320.1" style="fill:#F5F5F5;" width="2.6" height="2.6"/>
					<rect x="357.8" y="324.6" style="fill:#F5F5F5;" width="2.6" height="2.6"/>
					<rect x="357.8" y="329" style="fill:#F5F5F5;" width="2.6" height="2.6"/>
					<rect x="353.7" y="231.8" style="fill:#F5F5F5;" width="2.6" height="2.6"/>
					<rect x="353.7" y="236.2" style="fill:#F5F5F5;" width="2.6" height="2.6"/>
					<rect x="353.7" y="240.6" style="fill:#F5F5F5;" width="2.6" height="2.6"/>
					<rect x="353.7" y="245.1" style="fill:#F5F5F5;" width="2.6" height="2.6"/>
					<rect x="353.7" y="249.5" style="fill:#F5F5F5;" width="2.6" height="2.6"/>
					<rect x="353.7" y="253.9" style="fill:#F5F5F5;" width="2.6" height="2.6"/>
					<rect x="353.7" y="258.3" style="fill:#F5F5F5;" width="2.6" height="2.6"/>
					<rect x="353.7" y="262.7" style="fill:#F5F5F5;" width="2.6" height="2.6"/>
					<rect x="353.7" y="267.1" style="fill:#F5F5F5;" width="2.6" height="2.6"/>
					<rect x="353.7" y="271.6" style="fill:#F5F5F5;" width="2.6" height="2.6"/>
					<rect x="353.7" y="276" style="fill:#F5F5F5;" width="2.6" height="2.6"/>
					<rect x="353.7" y="280.4" style="fill:#F5F5F5;" width="2.6" height="2.6"/>
					<rect x="353.7" y="284.8" style="fill:#F5F5F5;" width="2.6" height="2.6"/>
					<rect x="353.7" y="289.2" style="fill:#F5F5F5;" width="2.6" height="2.6"/>
					<rect x="353.7" y="293.6" style="fill:#F5F5F5;" width="2.6" height="2.6"/>
					<rect x="353.7" y="298.1" style="fill:#F5F5F5;" width="2.6" height="2.6"/>
					<rect x="353.7" y="324.6" style="fill:#F5F5F5;" width="2.6" height="2.6"/>
					<rect x="353.7" y="329" style="fill:#F5F5F5;" width="2.6" height="2.6"/>
					<rect x="349.5" y="231.8" style="fill:#F5F5F5;" width="2.6" height="2.6"/>
					<rect x="349.5" y="236.2" style="fill:#F5F5F5;" width="2.6" height="2.6"/>
					<rect x="349.5" y="240.6" style="fill:#F5F5F5;" width="2.6" height="2.6"/>
					<rect x="349.5" y="245.1" style="fill:#F5F5F5;" width="2.6" height="2.6"/>
					<rect x="349.5" y="249.5" style="fill:#F5F5F5;" width="2.6" height="2.6"/>
					<rect x="349.5" y="253.9" style="fill:#F5F5F5;" width="2.6" height="2.6"/>
					<rect x="349.5" y="258.3" style="fill:#F5F5F5;" width="2.6" height="2.6"/>
					<rect x="349.5" y="262.7" style="fill:#F5F5F5;" width="2.6" height="2.6"/>
					<rect x="349.5" y="267.1" style="fill:#F5F5F5;" width="2.6" height="2.6"/>
					<rect x="349.5" y="271.6" style="fill:#F5F5F5;" width="2.6" height="2.6"/>
					<rect x="349.5" y="276" style="fill:#F5F5F5;" width="2.6" height="2.6"/>
					<rect x="349.5" y="280.4" style="fill:#F5F5F5;" width="2.6" height="2.6"/>
					<rect x="349.5" y="284.8" style="fill:#F5F5F5;" width="2.6" height="2.6"/>
					<rect x="349.5" y="289.2" style="fill:#F5F5F5;" width="2.6" height="2.6"/>
					<rect x="349.5" y="293.6" style="fill:#F5F5F5;" width="2.6" height="2.6"/>
					<rect x="349.5" y="298.1" style="fill:#F5F5F5;" width="2.6" height="2.6"/>
					<rect x="349.5" y="306.9" style="fill:#F5F5F5;" width="2.6" height="2.6"/>
					<rect x="349.5" y="311.3" style="fill:#F5F5F5;" width="2.6" height="2.6"/>
					<rect x="349.5" y="315.7" style="fill:#F5F5F5;" width="2.6" height="2.6"/>
					<rect x="349.5" y="320.1" style="fill:#F5F5F5;" width="2.6" height="2.6"/>
					<rect x="349.5" y="329" style="fill:#F5F5F5;" width="2.6" height="2.6"/>
					<rect x="276.5" y="262.7" style="fill:#F5F5F5;" width="2.6" height="2.6"/>
					<rect x="276.5" y="267.1" style="fill:#F5F5F5;" width="2.6" height="2.6"/>
					<rect x="276.5" y="271.6" style="fill:#F5F5F5;" width="2.6" height="2.6"/>
					<rect x="276.5" y="276" style="fill:#F5F5F5;" width="2.6" height="2.6"/>
					<rect x="276.5" y="280.4" style="fill:#F5F5F5;" width="2.6" height="2.6"/>
					<rect x="276.5" y="284.8" style="fill:#F5F5F5;" width="2.6" height="2.6"/>
					<rect x="276.5" y="289.2" style="fill:#F5F5F5;" width="2.6" height="2.6"/>
					<rect x="276.5" y="293.6" style="fill:#F5F5F5;" width="2.6" height="2.6"/>
					<rect x="276.5" y="298.1" style="fill:#F5F5F5;" width="2.6" height="2.6"/>
					<rect x="276.5" y="302.5" style="fill:#F5F5F5;" width="2.6" height="2.6"/>
					<rect x="276.5" y="306.9" style="fill:#F5F5F5;" width="2.6" height="2.6"/>
					<rect x="276.5" y="311.3" style="fill:#F5F5F5;" width="2.6" height="2.6"/>
					<rect x="276.5" y="315.7" style="fill:#F5F5F5;" width="2.6" height="2.6"/>
					<rect x="276.5" y="324.6" style="fill:#F5F5F5;" width="2.6" height="2.6"/>
					<rect x="276.5" y="329" style="fill:#F5F5F5;" width="2.6" height="2.6"/>
					<rect x="276.5" y="333.4" style="fill:#F5F5F5;" width="2.6" height="2.6"/>
					<rect x="276.5" y="337.8" style="fill:#F5F5F5;" width="2.6" height="2.6"/>
					<rect x="276.5" y="346.6" style="fill:#F5F5F5;" width="2.6" height="2.6"/>
					<rect x="276.5" y="351" style="fill:#F5F5F5;" width="2.6" height="2.6"/>
					<rect x="276.5" y="355.5" style="fill:#F5F5F5;" width="2.6" height="2.6"/>
					<rect x="272.3" y="262.7" style="fill:#F5F5F5;" width="2.6" height="2.6"/>
					<rect x="272.3" y="267.1" style="fill:#F5F5F5;" width="2.6" height="2.6"/>
					<rect x="272.3" y="271.6" style="fill:#F5F5F5;" width="2.6" height="2.6"/>
					<rect x="272.3" y="276" style="fill:#F5F5F5;" width="2.6" height="2.6"/>
					<rect x="272.3" y="280.4" style="fill:#F5F5F5;" width="2.6" height="2.6"/>
					<rect x="272.3" y="284.8" style="fill:#F5F5F5;" width="2.6" height="2.6"/>
					<rect x="272.3" y="289.2" style="fill:#F5F5F5;" width="2.6" height="2.6"/>
					<rect x="272.3" y="293.6" style="fill:#F5F5F5;" width="2.6" height="2.6"/>
					<rect x="272.3" y="298.1" style="fill:#F5F5F5;" width="2.6" height="2.6"/>
					<rect x="272.3" y="302.5" style="fill:#F5F5F5;" width="2.6" height="2.6"/>
					<rect x="272.3" y="306.9" style="fill:#F5F5F5;" width="2.6" height="2.6"/>
					<rect x="272.3" y="311.3" style="fill:#F5F5F5;" width="2.6" height="2.6"/>
					<rect x="272.3" y="315.7" style="fill:#F5F5F5;" width="2.6" height="2.6"/>
					<rect x="272.3" y="329" style="fill:#F5F5F5;" width="2.6" height="2.6"/>
					<rect x="272.3" y="333.4" style="fill:#F5F5F5;" width="2.6" height="2.6"/>
					<rect x="272.3" y="342.2" style="fill:#F5F5F5;" width="2.6" height="2.6"/>
					<rect x="272.3" y="346.6" style="fill:#F5F5F5;" width="2.6" height="2.6"/>
					<rect x="272.3" y="351" style="fill:#F5F5F5;" width="2.6" height="2.6"/>
					<rect x="272.3" y="355.5" style="fill:#F5F5F5;" width="2.6" height="2.6"/>
					<rect x="268.1" y="262.7" style="fill:#F5F5F5;" width="2.6" height="2.6"/>
					<rect x="268.1" y="267.1" style="fill:#F5F5F5;" width="2.6" height="2.6"/>
					<rect x="268.1" y="271.6" style="fill:#F5F5F5;" width="2.6" height="2.6"/>
					<rect x="268.1" y="276" style="fill:#F5F5F5;" width="2.6" height="2.6"/>
					<rect x="268.1" y="280.4" style="fill:#F5F5F5;" width="2.6" height="2.6"/>
					<rect x="268.1" y="284.8" style="fill:#F5F5F5;" width="2.6" height="2.6"/>
					<rect x="268.1" y="289.2" style="fill:#F5F5F5;" width="2.6" height="2.6"/>
					<rect x="268.1" y="293.6" style="fill:#F5F5F5;" width="2.6" height="2.6"/>
					<rect x="268.1" y="298.1" style="fill:#F5F5F5;" width="2.6" height="2.6"/>
					<rect x="268.1" y="302.5" style="fill:#F5F5F5;" width="2.6" height="2.6"/>
					<rect x="268.1" y="306.9" style="fill:#F5F5F5;" width="2.6" height="2.6"/>
					<rect x="268.1" y="311.3" style="fill:#F5F5F5;" width="2.6" height="2.6"/>
					<rect x="268.1" y="315.7" style="fill:#F5F5F5;" width="2.6" height="2.6"/>
					<rect x="268.1" y="320.1" style="fill:#F5F5F5;" width="2.6" height="2.6"/>
					<rect x="268.1" y="329" style="fill:#F5F5F5;" width="2.6" height="2.6"/>
					<rect x="268.1" y="337.8" style="fill:#F5F5F5;" width="2.6" height="2.6"/>
					<rect x="268.1" y="342.2" style="fill:#F5F5F5;" width="2.6" height="2.6"/>
					<rect x="268.1" y="346.6" style="fill:#F5F5F5;" width="2.6" height="2.6"/>
					<rect x="268.1" y="351" style="fill:#F5F5F5;" width="2.6" height="2.6"/>
					<rect x="268.1" y="355.5" style="fill:#F5F5F5;" width="2.6" height="2.6"/>
					<rect x="293.5" y="287.9" style="fill:#F5F5F5;" width="2.6" height="2.6"/>
					<rect x="293.5" y="292.3" style="fill:#F5F5F5;" width="2.6" height="2.6"/>
					<rect x="293.5" y="296.7" style="fill:#F5F5F5;" width="2.6" height="2.6"/>
					<rect x="293.5" y="301.2" style="fill:#F5F5F5;" width="2.6" height="2.6"/>
					<rect x="293.5" y="305.6" style="fill:#F5F5F5;" width="2.6" height="2.6"/>
					<rect x="293.5" y="310" style="fill:#F5F5F5;" width="2.6" height="2.6"/>
					<rect x="293.5" y="323.2" style="fill:#F5F5F5;" width="2.6" height="2.6"/>
					<rect x="293.5" y="327.7" style="fill:#F5F5F5;" width="2.6" height="2.6"/>
					<rect x="293.5" y="332.1" style="fill:#F5F5F5;" width="2.6" height="2.6"/>
					<rect x="293.5" y="336.5" style="fill:#F5F5F5;" width="2.6" height="2.6"/>
					<rect x="293.5" y="340.9" style="fill:#F5F5F5;" width="2.6" height="2.6"/>
					<rect x="293.5" y="345.3" style="fill:#F5F5F5;" width="2.6" height="2.6"/>
					<rect x="293.5" y="349.7" style="fill:#F5F5F5;" width="2.6" height="2.6"/>
					<rect x="289.4" y="287.9" style="fill:#F5F5F5;" width="2.6" height="2.6"/>
					<rect x="289.4" y="292.3" style="fill:#F5F5F5;" width="2.6" height="2.6"/>
					<rect x="289.4" y="296.7" style="fill:#F5F5F5;" width="2.6" height="2.6"/>
					<rect x="289.4" y="301.2" style="fill:#F5F5F5;" width="2.6" height="2.6"/>
					<rect x="289.4" y="305.6" style="fill:#F5F5F5;" width="2.6" height="2.6"/>
					<rect x="289.4" y="310" style="fill:#F5F5F5;" width="2.6" height="2.6"/>
					<rect x="289.4" y="323.2" style="fill:#F5F5F5;" width="2.6" height="2.6"/>
					<rect x="289.4" y="327.7" style="fill:#F5F5F5;" width="2.6" height="2.6"/>
					<rect x="289.4" y="332.1" style="fill:#F5F5F5;" width="2.6" height="2.6"/>
					<rect x="289.4" y="336.5" style="fill:#F5F5F5;" width="2.6" height="2.6"/>
					<rect x="289.4" y="340.9" style="fill:#F5F5F5;" width="2.6" height="2.6"/>
					<rect x="289.4" y="345.3" style="fill:#F5F5F5;" width="2.6" height="2.6"/>
					<rect x="289.4" y="354.1" style="fill:#F5F5F5;" width="2.6" height="2.6"/>
					<rect x="150.4" y="268.5" style="fill:#F5F5F5;" width="2.6" height="2.6"/>
					<rect x="150.4" y="272.9" style="fill:#F5F5F5;" width="2.6" height="2.6"/>
					<rect x="150.4" y="277.3" style="fill:#F5F5F5;" width="2.6" height="2.6"/>
					<rect x="150.4" y="281.7" style="fill:#F5F5F5;" width="2.6" height="2.6"/>
					<rect x="150.4" y="286.1" style="fill:#F5F5F5;" width="2.6" height="2.6"/>
					<rect x="150.4" y="290.5" style="fill:#F5F5F5;" width="2.6" height="2.6"/>
					<rect x="150.4" y="295" style="fill:#F5F5F5;" width="2.6" height="2.6"/>
					<rect x="150.4" y="299.4" style="fill:#F5F5F5;" width="2.6" height="2.6"/>
					<rect x="150.4" y="303.8" style="fill:#F5F5F5;" width="2.6" height="2.6"/>
					<rect x="150.4" y="308.2" style="fill:#F5F5F5;" width="2.6" height="2.6"/>
					<rect x="150.4" y="312.6" style="fill:#F5F5F5;" width="2.6" height="2.6"/>
					<rect x="150.4" y="321.5" style="fill:#F5F5F5;" width="2.6" height="2.6"/>
					<rect x="150.4" y="325.9" style="fill:#F5F5F5;" width="2.6" height="2.6"/>
					<rect x="150.4" y="330.3" style="fill:#F5F5F5;" width="2.6" height="2.6"/>
					<rect x="150.4" y="334.7" style="fill:#F5F5F5;" width="2.6" height="2.6"/>
					<rect x="150.4" y="339.1" style="fill:#F5F5F5;" width="2.6" height="2.6"/>
					<rect x="150.4" y="343.5" style="fill:#F5F5F5;" width="2.6" height="2.6"/>
					<rect x="150.4" y="348" style="fill:#F5F5F5;" width="2.6" height="2.6"/>
					<rect x="150.4" y="352.4" style="fill:#F5F5F5;" width="2.6" height="2.6"/>
					<rect x="146.2" y="268.5" style="fill:#F5F5F5;" width="2.6" height="2.6"/>
					<rect x="146.2" y="272.9" style="fill:#F5F5F5;" width="2.6" height="2.6"/>
					<rect x="146.2" y="277.3" style="fill:#F5F5F5;" width="2.6" height="2.6"/>
					<rect x="146.2" y="281.7" style="fill:#F5F5F5;" width="2.6" height="2.6"/>
					<rect x="146.2" y="286.1" style="fill:#F5F5F5;" width="2.6" height="2.6"/>
					<rect x="146.2" y="290.5" style="fill:#F5F5F5;" width="2.6" height="2.6"/>
					<rect x="146.2" y="295" style="fill:#F5F5F5;" width="2.6" height="2.6"/>
					<rect x="146.2" y="299.4" style="fill:#F5F5F5;" width="2.6" height="2.6"/>
					<rect x="146.2" y="303.8" style="fill:#F5F5F5;" width="2.6" height="2.6"/>
					<rect x="146.2" y="308.2" style="fill:#F5F5F5;" width="2.6" height="2.6"/>
					<rect x="146.2" y="312.6" style="fill:#F5F5F5;" width="2.6" height="2.6"/>
					<rect x="146.2" y="317" style="fill:#F5F5F5;" width="2.6" height="2.6"/>
					<rect x="146.2" y="321.5" style="fill:#F5F5F5;" width="2.6" height="2.6"/>
					<rect x="146.2" y="325.9" style="fill:#F5F5F5;" width="2.6" height="2.6"/>
					<rect x="146.2" y="330.3" style="fill:#F5F5F5;" width="2.6" height="2.6"/>
					<rect x="146.2" y="334.7" style="fill:#F5F5F5;" width="2.6" height="2.6"/>
					<rect x="146.2" y="339.1" style="fill:#F5F5F5;" width="2.6" height="2.6"/>
					<rect x="146.2" y="343.5" style="fill:#F5F5F5;" width="2.6" height="2.6"/>
					<rect x="146.2" y="348" style="fill:#F5F5F5;" width="2.6" height="2.6"/>
					<rect x="146.2" y="352.4" style="fill:#F5F5F5;" width="2.6" height="2.6"/>
					<rect x="171" y="285.7" style="fill:#F5F5F5;" width="2.6" height="2.6"/>
					<rect x="171" y="290.1" style="fill:#F5F5F5;" width="2.6" height="2.6"/>
					<rect x="171" y="294.5" style="fill:#F5F5F5;" width="2.6" height="2.6"/>
					<rect x="171" y="298.9" style="fill:#F5F5F5;" width="2.6" height="2.6"/>
					<rect x="171" y="303.3" style="fill:#F5F5F5;" width="2.6" height="2.6"/>
					<rect x="171" y="307.7" style="fill:#F5F5F5;" width="2.6" height="2.6"/>
					<rect x="171" y="312.2" style="fill:#F5F5F5;" width="2.6" height="2.6"/>
					<rect x="171" y="316.6" style="fill:#F5F5F5;" width="2.6" height="2.6"/>
					<rect x="171" y="321" style="fill:#F5F5F5;" width="2.6" height="2.6"/>
					<rect x="171" y="325.4" style="fill:#F5F5F5;" width="2.6" height="2.6"/>
					<rect x="166.8" y="285.7" style="fill:#F5F5F5;" width="2.6" height="2.6"/>
					<rect x="166.8" y="290.1" style="fill:#F5F5F5;" width="2.6" height="2.6"/>
					<rect x="166.8" y="294.5" style="fill:#F5F5F5;" width="2.6" height="2.6"/>
					<rect x="166.8" y="298.9" style="fill:#F5F5F5;" width="2.6" height="2.6"/>
					<rect x="166.8" y="303.3" style="fill:#F5F5F5;" width="2.6" height="2.6"/>
					<rect x="166.8" y="307.7" style="fill:#F5F5F5;" width="2.6" height="2.6"/>
					<rect x="166.8" y="312.2" style="fill:#F5F5F5;" width="2.6" height="2.6"/>
					<rect x="166.8" y="316.6" style="fill:#F5F5F5;" width="2.6" height="2.6"/>
					<rect x="166.8" y="321" style="fill:#F5F5F5;" width="2.6" height="2.6"/>
				</g>
			</g>
			<g>
				<rect x="189.9" y="153.5" style="fill:#F5F5F5;" width="4.4" height="210.9"/>
				<rect x="273.1" y="153.5" style="fill:#F5F5F5;" width="4.4" height="210.9"/>
				<rect x="356.2" y="153.5" style="fill:#F5F5F5;" width="4.4" height="210.9"/>
			</g>
		</g>
		<g>
			<g>
				<path style="fill:#F0F0F0;" d="M300.7,343.5h12.6v-0.8c0-1.6-1.8-3-4-2.9l-4.9,0.2c-2,0.1-3.6,1.3-3.6,2.9V343.5z"/>
				<g>
					<path style="fill:#E7E7E7;" d="M325.6,344h16.6l2.6-23.2c0-0.9-0.8-1.6-1.6-1.6h-11.2c-0.9,0-1.6,0.7-1.6,1.6L325.6,344z"/>
					<path style="fill:#E7E7E7;" d="M300.2,285h4.2l4.7,43.9h-4.2c-0.7,0-1.3-0.6-1.4-1.2l-4.4-41.4
						C299.1,285.5,299.6,285,300.2,285z"/>
					<path style="fill:#ECECEC;" d="M306.7,328.9H369c0.7,0,1.2-0.6,1.1-1.2l-4.4-41.4c-0.1-0.7-0.7-1.2-1.4-1.2H302
						c-0.7,0-1.2,0.6-1.1,1.2l4.4,41.4C305.4,328.3,306,328.9,306.7,328.9z"/>
					<path style="fill:#FAFAFA;" d="M307.8,324.8h58.7c0.6,0,1-0.5,1-1.1l-3.8-36.1c-0.1-0.6-0.6-1.1-1.2-1.1h-58.7
						c-0.6,0-1,0.5-1,1.1l3.8,36.1C306.7,324.3,307.2,324.8,307.8,324.8z"/>
					<path style="fill:#E7E7E7;" d="M325,342.1h20.5c0.5,0,0.9,0.4,0.9,0.9v0c0,0.5-0.4,0.9-0.9,0.9H325c-0.5,0-0.9-0.4-0.9-0.9v0
						C324.1,342.5,324.5,342.1,325,342.1z"/>
				</g>
				
					<rect x="274.6" y="343.4" transform="matrix(-1 -1.224647e-16 1.224647e-16 -1 599.9055 694.5082)" style="fill:#E7E7E7;" width="50.7" height="7.6"/>
				<g>
					<path style="fill:#E7E7E7;" d="M415.9,428.9h1.3c0.2,0,0.3-0.1,0.3-0.3l2-77.5l-5.8,0l2,77.5
						C415.6,428.7,415.7,428.9,415.9,428.9z"/>
				</g>
				<g>
					<polygon style="fill:#F0F0F0;" points="461,428.9 463.9,428.9 455.7,351.1 449.8,351.1 					"/>
				</g>
				<polygon style="fill:#E7E7E7;" points="272.6,428.9 272.6,428.9 283.8,351.1 278,351.1 269.7,428.9 				"/>
				
					<rect x="310.8" y="343.4" transform="matrix(-1 -1.224647e-16 1.224647e-16 -1 769.9014 694.5082)" style="fill:#F5F5F5;" width="148.2" height="7.6"/>
				<polygon style="fill:#F0F0F0;" points="315.5,428.9 318.8,428.9 318.8,428.9 320.1,351.1 314.2,351.1 				"/>
				<g>
					<g>
						<path style="fill:#F5F5F5;" d="M362.8,342.1h1.6c0.2,0,0.3-0.1,0.3-0.3v-1.6c0-0.2-0.1-0.3-0.3-0.3h-1.1
							c-0.1,0-0.3,0.1-0.3,0.2l-0.4,1.6C362.5,341.9,362.6,342.1,362.8,342.1z"/>
						<path style="fill:#F5F5F5;" d="M360.7,342.1h1.6c0.2,0,0.3-0.1,0.3-0.3v-1.6c0-0.2-0.1-0.3-0.3-0.3h-1.1
							c-0.1,0-0.3,0.1-0.3,0.2l-0.4,1.6C360.3,341.9,360.5,342.1,360.7,342.1z"/>
						<path style="fill:#F5F5F5;" d="M358.5,342.1h1.6c0.2,0,0.3-0.1,0.3-0.3v-1.6c0-0.2-0.1-0.3-0.3-0.3H359
							c-0.1,0-0.3,0.1-0.3,0.2l-0.4,1.6C358.2,341.9,358.3,342.1,358.5,342.1z"/>
						<path style="fill:#F5F5F5;" d="M356.4,342.1h1.6c0.2,0,0.3-0.1,0.3-0.3v-1.6c0-0.2-0.1-0.3-0.3-0.3h-1.1
							c-0.1,0-0.3,0.1-0.3,0.2l-0.4,1.6C356,341.9,356.2,342.1,356.4,342.1z"/>
						<path style="fill:#F5F5F5;" d="M354.2,342.1h1.6c0.2,0,0.3-0.1,0.3-0.3v-1.6c0-0.2-0.1-0.3-0.3-0.3h-1.1
							c-0.1,0-0.3,0.1-0.3,0.2l-0.4,1.6C353.9,341.9,354,342.1,354.2,342.1z"/>
						<path style="fill:#F5F5F5;" d="M352.1,342.1h1.6c0.2,0,0.3-0.1,0.3-0.3v-1.6c0-0.2-0.1-0.3-0.3-0.3h-1.1
							c-0.1,0-0.3,0.1-0.3,0.2l-0.4,1.6C351.7,341.9,351.9,342.1,352.1,342.1z"/>
						<path style="fill:#F5F5F5;" d="M349.9,342.1h1.6c0.2,0,0.3-0.1,0.3-0.3v-1.6c0-0.2-0.1-0.3-0.3-0.3h-1.1
							c-0.1,0-0.3,0.1-0.3,0.2l-0.4,1.6C349.6,341.9,349.7,342.1,349.9,342.1z"/>
						<path style="fill:#F5F5F5;" d="M347.8,342.1h1.6c0.2,0,0.3-0.1,0.3-0.3v-1.6c0-0.2-0.1-0.3-0.3-0.3h-1.1
							c-0.1,0-0.3,0.1-0.3,0.2l-0.4,1.6C347.5,341.9,347.6,342.1,347.8,342.1z"/>
						<path style="fill:#F5F5F5;" d="M345.6,342.1h1.6c0.2,0,0.3-0.1,0.3-0.3v-1.6c0-0.2-0.1-0.3-0.3-0.3h-1.1
							c-0.1,0-0.3,0.1-0.3,0.2l-0.4,1.6C345.3,341.9,345.5,342.1,345.6,342.1z"/>
						<path style="fill:#F5F5F5;" d="M343.5,342.1h1.6c0.2,0,0.3-0.1,0.3-0.3v-1.6c0-0.2-0.1-0.3-0.3-0.3h-1.1
							c-0.1,0-0.3,0.1-0.3,0.2l-0.4,1.6C343.2,341.9,343.3,342.1,343.5,342.1z"/>
						<path style="fill:#F5F5F5;" d="M341.4,342.1h1.6c0.2,0,0.3-0.1,0.3-0.3v-1.6c0-0.2-0.1-0.3-0.3-0.3h-1.1
							c-0.1,0-0.3,0.1-0.3,0.2l-0.4,1.6C341,341.9,341.2,342.1,341.4,342.1z"/>
						<path style="fill:#F5F5F5;" d="M339.2,342.1h1.6c0.2,0,0.3-0.1,0.3-0.3v-1.6c0-0.2-0.1-0.3-0.3-0.3h-1.1
							c-0.1,0-0.3,0.1-0.3,0.2l-0.4,1.6C338.9,341.9,339,342.1,339.2,342.1z"/>
						<path style="fill:#F5F5F5;" d="M337.1,342.1h1.6c0.2,0,0.3-0.1,0.3-0.3v-1.6c0-0.2-0.1-0.3-0.3-0.3h-1.1
							c-0.1,0-0.3,0.1-0.3,0.2l-0.4,1.6C336.7,341.9,336.9,342.1,337.1,342.1z"/>
						<path style="fill:#F5F5F5;" d="M334.9,342.1h1.6c0.2,0,0.3-0.1,0.3-0.3v-1.6c0-0.2-0.1-0.3-0.3-0.3h-1.1
							c-0.1,0-0.3,0.1-0.3,0.2l-0.4,1.6C334.6,341.9,334.7,342.1,334.9,342.1z"/>
						<path style="fill:#F5F5F5;" d="M332.8,342.1h1.6c0.2,0,0.3-0.1,0.3-0.3v-1.6c0-0.2-0.1-0.3-0.3-0.3h-1.1
							c-0.1,0-0.3,0.1-0.3,0.2l-0.4,1.6C332.4,341.9,332.6,342.1,332.8,342.1z"/>
					</g>
					
						<rect x="331.2" y="340.9" transform="matrix(-1 -1.224647e-16 1.224647e-16 -1 697.1354 684.4606)" style="fill:#ECECEC;" width="34.7" height="2.6"/>
				</g>
			</g>
		</g>
		<g>
			<path style="fill:#E1E1E1;" d="M392.5,358.1h53.7c2.6,0,4.7,2.1,4.7,4.7v3.5h-63v-3.5C387.9,360.2,390,358.1,392.5,358.1z"/>
			<path style="fill:#E1E1E1;" d="M448.9,412.9l-20.2-2v-28.4h-8v28.4l-20.3,2c-2,0.2-3.5,1.9-3.5,3.9v3h27h1.5h27v-3
				C452.4,414.8,450.9,413.1,448.9,412.9z"/>
			<path style="fill:#E1E1E1;" d="M404.2,423.6c0,2.9-2.3,5.2-5.2,5.2c-2.9,0-5.2-2.3-5.2-5.2s2.3-5.2,5.2-5.2
				C401.9,418.4,404.2,420.7,404.2,423.6z"/>
			<path style="fill:#E1E1E1;" d="M445,423.6c0,2.9,2.3,5.2,5.2,5.2s5.2-2.3,5.2-5.2s-2.3-5.2-5.2-5.2S445,420.7,445,423.6z"/>
			<path style="fill:#E7E7E7;" d="M426.2,388.6h-3c-2.1,0-3.9-1.7-3.9-3.9v-21.4H430v21.4C430,386.9,428.3,388.6,426.2,388.6z"/>
			<path style="fill:#ECECEC;" d="M414,358.6c2.8-10.6,9.1-37.9,10.4-74c0.2-5.6,4.8-10,10.4-10h18.6c5.7,0,10.4,4.6,10.4,10.3
				c0.1,17-1.1,51.7-10.7,79.9l-35.5-1.3C415.2,363.5,413.4,361,414,358.6z"/>
			<g>
				<path style="fill:#E7E7E7;" d="M419,363c0,0,9.6-34,11.1-77.1c0.2-5.1,4.4-9.2,9.6-9.2H457c5.3,0,9.6,4.3,9.6,9.5
					c0.1,15.7-1,50.8-9.9,76.8H419z"/>
				<path style="fill:#E7E7E7;" d="M426.4,338.2c0,0-20.4-4.1-40.1-2.1c-19.7,2,9.3,27.8,9.3,27.8h4.1c0,0-15.4-16.3-14.5-20.4
					c0.9-4.1,39.6,1.3,39.6,1.3L426.4,338.2z"/>
				<path style="fill:#E1E1E1;" d="M456.7,363h-33.4c0,0,9.6-34,11.2-77.1c0.2-5.1,4.4-9.2,9.6-9.2h13c5.3,0,9.6,4.3,9.6,9.5
					C466.6,301.8,465.5,336.9,456.7,363z"/>
			</g>
			<g>
				<path style="fill:#E1E1E1;" d="M387.5,362.2h68c1,0,1.9,0.8,1.9,1.9v0.3c0,1-0.8,1.9-1.9,1.9h-68c-1,0-1.9-0.8-1.9-1.9V364
					C385.6,363,386.5,362.2,387.5,362.2z"/>
			</g>
		</g>
	</g>
	<ellipse id="_x3C_Path_x3E__359_" style="fill:#F5F5F5;" cx="288" cy="463" rx="193.9" ry="11.3"/>
	<g>
		<path style="fill:#1A2E35;" d="M305.8,432.8h-143c-4,0-7.2-3.2-7.2-7.2V211.7c0-4,3.2-7.2,7.2-7.2h143c4,0,7.2,3.2,7.2,7.2v213.8
			C313,429.5,309.8,432.8,305.8,432.8z"/>
		<path style="opacity:0.4;fill:#FFFFFF;" d="M305.8,432.8h-143c-4,0-7.2-3.2-7.2-7.2V211.7c0-4,3.2-7.2,7.2-7.2h143
			c4,0,7.2,3.2,7.2,7.2v213.8C313,429.5,309.8,432.8,305.8,432.8z"/>
		<rect x="169.1" y="221.2" style="opacity:0.2;" width="136.4" height="202.7"/>
		<path style="fill:#1A2E35;" d="M238.5,201.5c0-2.3-1.9-4.2-4.2-4.2c-2.3,0-4.2,1.9-4.2,4.2h-30c-1.2,0-2.1,0.9-2.1,2.1v21.8h72.5
			v-21.8c0-1.2-0.9-2.1-2.1-2.1H238.5z M234.3,199.3c1.2,0,2.2,1,2.2,2.2c0,1.2-1,2.2-2.2,2.2c-1.2,0-2.2-1-2.2-2.2
			C232.1,200.3,233.1,199.3,234.3,199.3z"/>
		<g>
			<g>
				<rect x="166.1" y="218.2" style="fill:#007CFF;" width="136.4" height="202.7"/>
				<rect x="166.1" y="218.2" style="opacity:0.7;fill:#FFFFFF;" width="136.4" height="202.7"/>
			</g>
			<g>
				<g style="opacity:0.4;">
					<rect x="187.6" y="240.6" width="93.4" height="5"/>
				</g>
				<g style="opacity:0.4;">
					<rect x="197.6" y="258.4" width="83.4" height="2"/>
				</g>
				<g style="opacity:0.4;">
					<rect x="187.6" y="266.1" width="93.4" height="2"/>
				</g>
				<g style="opacity:0.4;">
					<rect x="187.6" y="273.9" width="93.4" height="2"/>
				</g>
				<g style="opacity:0.4;">
					<rect x="187.6" y="281.6" width="93.4" height="2"/>
				</g>
				<g style="opacity:0.4;">
					<rect x="187.6" y="289.4" width="93.4" height="2"/>
				</g>
				<g style="opacity:0.4;">
					<rect x="187.6" y="297.1" width="93.4" height="2"/>
				</g>
				<g style="opacity:0.4;">
					<rect x="187.6" y="304.9" width="43.3" height="2"/>
				</g>
				<g style="opacity:0.4;">
					<path d="M203.9,336.4h-16.3v-16.3h16.3V336.4z M189.6,334.4h12.3v-12.3h-12.3V334.4z"/>
				</g>
				<g style="opacity:0.4;">
					<g>
						<rect x="209.3" y="324.2" width="71.7" height="2"/>
					</g>
					<g>
						<rect x="209.3" y="330.3" width="48.9" height="2"/>
					</g>
				</g>
				<g style="opacity:0.4;">
					<path d="M203.9,366.4h-16.3v-16.3h16.3V366.4z M189.6,364.4h12.3v-12.3h-12.3V364.4z"/>
				</g>
				<g style="opacity:0.4;">
					<g>
						<rect x="209.3" y="354.2" width="71.7" height="2"/>
					</g>
					<g>
						<rect x="209.3" y="360.3" width="48.9" height="2"/>
					</g>
				</g>
				<g style="opacity:0.4;">
					<path d="M203.9,396.5h-16.3v-16.3h16.3V396.5z M189.6,394.5h12.3v-12.3h-12.3V394.5z"/>
				</g>
				<g style="opacity:0.4;">
					<g>
						<rect x="209.3" y="384.3" width="71.7" height="2"/>
					</g>
					<g>
						<rect x="209.3" y="390.3" width="48.9" height="2"/>
					</g>
				</g>
				<g>
					<polygon style="fill:#007CFF;" points="194,332.9 191.1,328.8 192.7,327.7 194.2,329.7 198.9,324.5 200.4,325.9 					"/>
				</g>
				<g>
					<polygon style="fill:#007CFF;" points="194,362.9 191.1,358.9 192.7,357.7 194.2,359.7 198.9,354.6 200.4,355.9 					"/>
				</g>
				<g>
					<polygon style="fill:#007CFF;" points="194,392.9 191.1,388.9 192.7,387.7 194.2,389.7 198.9,384.6 200.4,385.9 					"/>
				</g>
			</g>
		</g>
		<g style="opacity:0.2;">
			<path d="M259.5,231.4H211c-1.8,0-3.2-1.5-3-3.3l1.3-13c0.2-1.8,1.8-3.3,3.6-3.3h48.5c1.8,0,3.2,1.5,3,3.3l-1.3,13
				C263,229.9,261.4,231.4,259.5,231.4z M212.8,213.8c-0.7,0-1.4,0.6-1.4,1.3l-1.3,13c-0.1,0.7,0.5,1.3,1.2,1.3h48.5
				c0.7,0,1.4-0.6,1.4-1.3l1.3-13c0.1-0.7-0.5-1.3-1.2-1.3H212.8z"/>
		</g>
		<g>
			<path style="fill:#FFFFFF;" d="M258.5,230.4H210c-1.8,0-3.3-1.5-3.3-3.3v-13c0-1.8,1.5-3.3,3.3-3.3h48.5c1.8,0,3.3,1.5,3.3,3.3
				v13C261.9,228.9,260.4,230.4,258.5,230.4z M210,212.8c-0.7,0-1.3,0.6-1.3,1.3v13c0,0.7,0.6,1.3,1.3,1.3h48.5
				c0.7,0,1.3-0.6,1.3-1.3v-13c0-0.7-0.6-1.3-1.3-1.3H210z"/>
		</g>
		<g>
			<path style="fill:#1A2E35;" d="M253.4,215.9h-38.2c-0.8,0-1.5-0.7-1.5-1.5v-5.2c0-0.8,0.7-1.5,1.5-1.5h38.2
				c0.8,0,1.5,0.7,1.5,1.5v5.2C254.9,215.2,254.2,215.9,253.4,215.9z"/>
			<path style="opacity:0.1;fill:#FFFFFF;" d="M253.4,215.9h-38.2c-0.8,0-1.5-0.7-1.5-1.5v-5.2c0-0.8,0.7-1.5,1.5-1.5h38.2
				c0.8,0,1.5,0.7,1.5,1.5v5.2C254.9,215.2,254.2,215.9,253.4,215.9z"/>
		</g>
	</g>
	<g>
		<path style="fill:#007CFF;" d="M141.8,441.8c0,0,4.8-10.4-0.7-20.6s-7-12.6-3.5-14.7c3.5-2.1,5,8.2,5,8.2s2.9-7.1,0.5-14.5
			c-2.4-7.4-3.9-19.4-0.6-20.7c3.3-1.3,0.6,15,3.5,20.6c0,0,2.4-6.2,2.8-12.1c0.4-5.9-0.2-15.4,2.4-17.8c2.6-2.4,4.3-0.7,1.7,12.4
			c-2.6,13.1-2.5,23.8-2.5,23.8s5.6-17.2,9.4-17.7c3.8-0.5,3.8,5.1,0.5,9.9c-3.2,4.8-9.5,13.5-10.5,17.9c0,0,6.2-12.9,11.8-9
			c5.6,4-4.8,11.8-9.5,14.6c-4.6,2.8-7.9,20.5-7.9,20.5L141.8,441.8z"/>
		<path style="opacity:0.2;enable-background:new    ;" d="M141.8,441.8c0,0,4.8-10.4-0.7-20.6s-7-12.6-3.5-14.7
			c3.5-2.1,5,8.2,5,8.2s2.9-7.1,0.5-14.5c-2.4-7.4-3.9-19.4-0.6-20.7c3.3-1.3,0.6,15,3.5,20.6c0,0,2.4-6.2,2.8-12.1
			c0.4-5.9-0.2-15.4,2.4-17.8c2.6-2.4,4.3-0.7,1.7,12.4c-2.6,13.1-2.5,23.8-2.5,23.8s5.6-17.2,9.4-17.7c3.8-0.5,3.8,5.1,0.5,9.9
			c-3.2,4.8-9.5,13.5-10.5,17.9c0,0,6.2-12.9,11.8-9c5.6,4-4.8,11.8-9.5,14.6c-4.6,2.8-7.9,20.5-7.9,20.5L141.8,441.8z"/>
		<path style="fill:#007CFF;" d="M145.5,446.1c0,0-4.6-10.4,0.9-20.6c5.5-10.1,7.2-12.5,3.7-14.7s-5.1,8.1-5.1,8.1
			s-2.8-7.1-0.3-14.5c2.5-7.4,4.2-19.4,0.9-20.7c-3.3-1.3-0.8,15-3.7,20.5c0,0-2.3-6.2-2.6-12.2c-0.3-5.9,0.4-15.4-2.2-17.9
			c-2.6-2.5-4.3-0.8-1.9,12.3c2.4,13.1,2.2,23.8,2.2,23.8s-5.4-17.3-9.2-17.8c-3.8-0.6-3.8,5-0.7,9.9c3.2,4.9,9.3,13.6,10.3,18.1
			c0,0-6-13-11.6-9.1c-5.6,3.9,4.7,11.8,9.3,14.7c4.6,2.9,7.6,20.6,7.6,20.6L145.5,446.1z"/>
		<g>
			<polygon style="fill:#1A2E35;" points="124.2,438.6 162.4,438.6 159.3,466 127.3,466 			"/>
		</g>
	</g>
	<g>
		<g>
			<g>
				<rect x="294.4" y="425" style="fill:#007CFF;" width="58.6" height="41"/>
				<rect x="294.4" y="425" style="opacity:0.2;fill:#FFFFFF;" width="58.6" height="41"/>
				<polygon style="opacity:0.2;" points="309.1,425 294.4,425 294.4,466 353,466 309.1,464.7 				"/>
				<rect x="299.5" y="425" style="opacity:0.7;fill:#FFFFFF;" width="3.6" height="2.3"/>
				<rect x="299.5" y="463.7" style="opacity:0.7;fill:#FFFFFF;" width="3.6" height="2.3"/>
			</g>
			<g>
				<g>
					<g>
						<polygon style="fill:#1A2E35;" points="347.4,436.9 347.4,436.9 345.5,441.6 344.8,443.4 343.5,441 340.9,441.9 343.5,435.3 
							345.1,436 347.3,436.8 						"/>
						<g style="opacity:0.2;">
							<path style="fill:#FFFFFF;" d="M344.8,442.5l-1.1-2l-2.2,0.7l2.2-5.7l3.3,1.3L344.8,442.5z M343.8,440.4l1.1,1.9l2.1-5.4
								l-3.2-1.3l-2.1,5.4L343.8,440.4z"/>
						</g>
					</g>
					<path style="opacity:0.2;" d="M347.4,436.9l-1.9,4.7c-1.1-2.6-1.2-5.2-1.2-5.2l0.8-0.5L347.4,436.9L347.4,436.9z"/>
					<g>
						<polygon style="fill:#1A2E35;" points="347,443.4 348.3,441 350.9,441.9 348.3,435.3 344.4,436.9 						"/>
						<g style="opacity:0.2;">
							<path style="fill:#FFFFFF;" d="M344.7,436.9l3.3-1.3l2.2,5.7l-2.2-0.7l-1.1,2L344.7,436.9z M350.1,441.1l-2.1-5.4l-3.2,1.3
								l2.1,5.4l1.1-1.9L350.1,441.1z"/>
						</g>
					</g>
				</g>
				<g>
					<polygon style="fill:#007CFF;" points="345.9,427.6 346.4,427.3 346.7,427.7 347.3,427.4 347.6,427.9 348.1,427.8 348.3,428.3 
						348.9,428.2 349,428.8 349.6,428.8 349.6,429.4 350.2,429.6 350.1,430.1 350.6,430.4 350.4,430.9 350.9,431.3 350.6,431.8 
						351,432.2 350.7,432.6 351,433.1 350.5,433.5 350.8,434 350.3,434.3 350.4,434.8 349.9,435 349.9,435.6 349.3,435.7 
						349.3,436.3 348.7,436.3 348.5,436.8 348,436.7 347.7,437.2 347.2,437 346.8,437.5 346.3,437.1 345.9,437.5 345.5,437.1 
						345,437.5 344.6,437 344.1,437.2 343.8,436.7 343.3,436.8 343.1,436.3 342.5,436.3 342.5,435.7 341.9,435.6 341.9,435 
						341.4,434.8 341.5,434.3 341,434 341.3,433.5 340.8,433.1 341.1,432.6 340.8,432.2 341.2,431.8 340.9,431.3 341.4,430.9 
						341.2,430.4 341.7,430.1 341.6,429.6 342.2,429.4 342.2,428.8 342.8,428.8 342.9,428.2 343.5,428.3 343.7,427.8 344.2,427.9 
						344.5,427.4 345,427.7 345.4,427.3 					"/>
					<path style="opacity:0.2;" d="M350.3,432.4c0,2.4-2,4.4-4.4,4.4c-2.4,0-4.4-2-4.4-4.4s2-4.4,4.4-4.4
						C348.3,428,350.3,430,350.3,432.4z"/>
					<g>
						<path style="fill:#007CFF;" d="M343.8,432.6l1-0.1c0,0,0.2-0.8,0.1-2.4c0,0,0.4-0.1,0.5,0c0.2,0,0.4,1.8,0.4,1.8
							s1.9-0.3,2-0.2c0.1,0,0.1,0.3,0.1,0.5c0,0.1-0.1,0.2-0.2,0.3l-0.1,0l0,1.8c0,0.1-0.1,0.3-0.2,0.3l-1.8,0.1
							c-0.2,0-0.3,0-0.5-0.1l-0.2-0.1l-1.1,0.2L343.8,432.6z"/>
						<path style="opacity:0.7;fill:#FFFFFF;enable-background:new    ;" d="M343.8,432.6l1-0.1c0,0,0.2-0.8,0.1-2.4
							c0,0,0.4-0.1,0.5,0c0.2,0,0.4,1.8,0.4,1.8s1.9-0.3,2-0.2c0.1,0,0.1,0.3,0.1,0.5c0,0.1-0.1,0.2-0.2,0.3l-0.1,0l0,1.8
							c0,0.1-0.1,0.3-0.2,0.3l-1.8,0.1c-0.2,0-0.3,0-0.5-0.1l-0.2-0.1l-1.1,0.2L343.8,432.6z"/>
					</g>
				</g>
			</g>
		</g>
		<polygon style="opacity:0.2;" points="309.1,425 293.9,441.6 293.9,425 		"/>
		<g>
			<g>
				<rect x="273.7" y="384" style="fill:#007CFF;" width="58.6" height="41"/>
				<rect x="273.7" y="384" style="opacity:0.2;fill:#FFFFFF;" width="58.6" height="41"/>
				<polygon style="opacity:0.2;" points="288.4,384 273.7,384 273.7,425 332.3,425 288.4,423.7 				"/>
				<rect x="278.8" y="384" style="opacity:0.7;fill:#FFFFFF;" width="3.6" height="2.3"/>
				<rect x="278.8" y="422.7" style="opacity:0.7;fill:#FFFFFF;" width="3.6" height="2.3"/>
			</g>
			<g>
				<g>
					<g>
						<polygon style="fill:#1A2E35;" points="326.7,395.9 326.7,396 324.8,400.7 324.1,402.5 322.8,400.1 320.2,400.9 322.8,394.4 
							324.4,395 326.6,395.9 						"/>
						<g style="opacity:0.2;">
							<path style="fill:#FFFFFF;" d="M324.1,401.6l-1.1-2l-2.2,0.7l2.2-5.7l3.3,1.3L324.1,401.6z M323.1,399.4l1.1,1.9l2.1-5.4
								l-3.2-1.3l-2.1,5.4L323.1,399.4z"/>
						</g>
					</g>
					<path style="opacity:0.2;" d="M326.7,396l-1.9,4.7c-1.1-2.6-1.2-5.2-1.2-5.2l0.8-0.5L326.7,396L326.7,396z"/>
					<g>
						<polygon style="fill:#1A2E35;" points="326.3,402.5 327.6,400.1 330.2,400.9 327.6,394.4 323.7,395.9 						"/>
						<g style="opacity:0.2;">
							<path style="fill:#FFFFFF;" d="M324,395.9l3.3-1.3l2.2,5.7l-2.2-0.7l-1.1,2L324,395.9z M329.4,400.1l-2.1-5.4l-3.2,1.3
								l2.1,5.4l1.1-1.9L329.4,400.1z"/>
						</g>
					</g>
				</g>
				<g>
					<polygon style="fill:#007CFF;" points="325.2,386.7 325.7,386.3 326,386.8 326.6,386.5 326.9,387 327.4,386.8 327.6,387.4 
						328.2,387.3 328.3,387.9 328.9,387.9 328.9,388.5 329.5,388.6 329.4,389.2 329.9,389.4 329.7,390 330.2,390.3 329.9,390.8 
						330.3,391.2 330,391.7 330.3,392.1 329.8,392.5 330.1,393 329.6,393.3 329.7,393.9 329.2,394.1 329.2,394.7 328.6,394.7 
						328.6,395.3 328,395.3 327.8,395.9 327.3,395.7 327,396.3 326.5,396 326.1,396.5 325.6,396.2 325.2,396.6 324.8,396.2 
						324.3,396.5 323.9,396 323.4,396.3 323.1,395.7 322.6,395.9 322.4,395.3 321.8,395.3 321.8,394.7 321.2,394.7 321.2,394.1 
						320.7,393.9 320.8,393.3 320.3,393 320.6,392.5 320.1,392.1 320.4,391.7 320.1,391.2 320.5,390.8 320.2,390.3 320.7,390 
						320.5,389.4 321,389.2 320.9,388.6 321.5,388.5 321.5,387.9 322.1,387.9 322.2,387.3 322.8,387.4 323,386.8 323.5,387 
						323.8,386.5 324.3,386.8 324.7,386.3 					"/>
					<path style="opacity:0.2;" d="M329.6,391.5c0,2.4-2,4.4-4.4,4.4c-2.4,0-4.4-2-4.4-4.4c0-2.4,2-4.4,4.4-4.4
						C327.6,387,329.6,389,329.6,391.5z"/>
					<g>
						<path style="fill:#007CFF;" d="M323.1,391.6l1-0.1c0,0,0.2-0.8,0.1-2.4c0,0,0.4-0.1,0.5,0c0.2,0,0.4,1.8,0.4,1.8
							s1.9-0.3,2-0.2c0.1,0,0.1,0.3,0.1,0.5c0,0.1-0.1,0.2-0.2,0.3l-0.1,0l0,1.8c0,0.1-0.1,0.3-0.2,0.3l-1.8,0.1
							c-0.2,0-0.3,0-0.5-0.1l-0.2-0.1l-1.1,0.2L323.1,391.6z"/>
						<path style="opacity:0.7;fill:#FFFFFF;enable-background:new    ;" d="M323.1,391.6l1-0.1c0,0,0.2-0.8,0.1-2.4
							c0,0,0.4-0.1,0.5,0c0.2,0,0.4,1.8,0.4,1.8s1.9-0.3,2-0.2c0.1,0,0.1,0.3,0.1,0.5c0,0.1-0.1,0.2-0.2,0.3l-0.1,0l0,1.8
							c0,0.1-0.1,0.3-0.2,0.3l-1.8,0.1c-0.2,0-0.3,0-0.5-0.1l-0.2-0.1l-1.1,0.2L323.1,391.6z"/>
					</g>
				</g>
			</g>
		</g>
		<g>
			<g>
				<rect x="239.8" y="425" style="fill:#007CFF;" width="58.6" height="41"/>
				<rect x="239.8" y="425" style="opacity:0.2;fill:#FFFFFF;" width="58.6" height="41"/>
				<polygon style="opacity:0.2;" points="254.5,425 239.8,425 239.8,466 298.4,466 254.5,464.7 				"/>
				<rect x="245" y="425" style="opacity:0.7;fill:#FFFFFF;" width="3.6" height="2.3"/>
				<rect x="245" y="463.7" style="opacity:0.7;fill:#FFFFFF;" width="3.6" height="2.3"/>
			</g>
			<g>
				<g>
					<g>
						<polygon style="fill:#1A2E35;" points="292.8,436.9 292.8,436.9 291,441.6 290.3,443.4 289,441 286.4,441.9 288.9,435.3 
							290.6,436 292.7,436.8 						"/>
						<g style="opacity:0.2;">
							<path style="fill:#FFFFFF;" d="M290.3,442.5l-1.1-2l-2.2,0.7l2.2-5.7l3.3,1.3L290.3,442.5z M289.2,440.4l1.1,1.9l2.1-5.4
								l-3.2-1.3l-2.1,5.4L289.2,440.4z"/>
						</g>
					</g>
					<path style="opacity:0.2;" d="M292.8,436.9l-1.9,4.7c-1.1-2.6-1.2-5.2-1.2-5.2l0.8-0.5L292.8,436.9L292.8,436.9z"/>
					<g>
						<polygon style="fill:#1A2E35;" points="292.4,443.4 293.7,441 296.3,441.9 293.7,435.3 289.8,436.9 						"/>
						<g style="opacity:0.2;">
							<path style="fill:#FFFFFF;" d="M290.2,436.9l3.3-1.3l2.2,5.7l-2.2-0.7l-1.1,2L290.2,436.9z M295.6,441.1l-2.1-5.4l-3.2,1.3
								l2.1,5.4l1.1-1.9L295.6,441.1z"/>
						</g>
					</g>
				</g>
				<g>
					<polygon style="fill:#007CFF;" points="291.3,427.6 291.8,427.3 292.2,427.7 292.7,427.4 293,427.9 293.6,427.8 293.8,428.3 
						294.4,428.2 294.5,428.8 295.1,428.8 295.1,429.4 295.6,429.6 295.5,430.1 296.1,430.4 295.9,430.9 296.4,431.3 296.1,431.8 
						296.5,432.2 296.1,432.6 296.4,433.1 296,433.5 296.2,434 295.7,434.3 295.9,434.8 295.3,435 295.4,435.6 294.8,435.7 
						294.7,436.3 294.1,436.3 294,436.8 293.4,436.7 293.1,437.2 292.6,437 292.3,437.5 291.8,437.1 291.3,437.5 290.9,437.1 
						290.4,437.5 290.1,437 289.5,437.2 289.3,436.7 288.7,436.8 288.5,436.3 288,436.3 287.9,435.7 287.3,435.6 287.4,435 
						286.8,434.8 287,434.3 286.4,434 286.7,433.5 286.2,433.1 286.6,432.6 286.2,432.2 286.6,431.8 286.3,431.3 286.8,430.9 
						286.6,430.4 287.1,430.1 287,429.6 287.6,429.4 287.6,428.8 288.2,428.8 288.3,428.2 288.9,428.3 289.1,427.8 289.7,427.9 
						290,427.4 290.5,427.7 290.9,427.3 					"/>
					<path style="opacity:0.2;" d="M295.8,432.4c0,2.4-2,4.4-4.4,4.4s-4.4-2-4.4-4.4s2-4.4,4.4-4.4S295.8,430,295.8,432.4z"/>
					<g>
						<path style="fill:#007CFF;" d="M289.3,432.6l1-0.1c0,0,0.2-0.8,0.1-2.4c0,0,0.4-0.1,0.5,0c0.2,0,0.4,1.8,0.4,1.8
							s1.9-0.3,2-0.2c0.1,0,0.1,0.3,0.1,0.5c0,0.1-0.1,0.2-0.2,0.3l-0.1,0l0,1.8c0,0.1-0.1,0.3-0.2,0.3l-1.8,0.1
							c-0.2,0-0.3,0-0.5-0.1l-0.2-0.1l-1.1,0.2L289.3,432.6z"/>
						<path style="opacity:0.7;fill:#FFFFFF;enable-background:new    ;" d="M289.3,432.6l1-0.1c0,0,0.2-0.8,0.1-2.4
							c0,0,0.4-0.1,0.5,0c0.2,0,0.4,1.8,0.4,1.8s1.9-0.3,2-0.2c0.1,0,0.1,0.3,0.1,0.5c0,0.1-0.1,0.2-0.2,0.3l-0.1,0l0,1.8
							c0,0.1-0.1,0.3-0.2,0.3l-1.8,0.1c-0.2,0-0.3,0-0.5-0.1l-0.2-0.1l-1.1,0.2L289.3,432.6z"/>
					</g>
				</g>
			</g>
		</g>
	</g>
	<g>
		<g>
			<g>
				<polygon style="fill:#1A2E35;" points="314.6,248.3 314.5,248.5 303.7,275.8 299.7,286.1 292.1,272.4 277.1,277.2 292,239.4 
					301.5,243.2 314,248.1 				"/>
				<g style="opacity:0.2;">
					<path style="fill:#FFFFFF;" d="M299.8,281.1l-6.5-11.8l-12.8,4.2l12.9-32.7l19.3,7.6L299.8,281.1z M293.5,268.7l6.2,11.2
						l12.3-31.2l-18.4-7.2l-12.3,31.2L293.5,268.7z"/>
				</g>
			</g>
			<path style="opacity:0.2;" d="M314.5,248.5l-10.8,27.3c-6.5-14.9-7-30-7-30l4.8-2.7l12.5,4.9L314.5,248.5z"/>
			<g>
				<polygon style="fill:#1A2E35;" points="312.1,286.1 319.7,272.4 334.6,277.2 319.7,239.4 297.1,248.3 				"/>
				<g style="opacity:0.2;">
					<path style="fill:#FFFFFF;" d="M299,248.4l19.3-7.6l12.9,32.7l-12.8-4.2l-6.5,11.8L299,248.4z M330.4,272.7l-12.3-31.2
						l-18.4,7.2l12.3,31.2l6.2-11.2L330.4,272.7z"/>
				</g>
			</g>
		</g>
		<g>
			<polygon style="fill:#007CFF;" points="305.9,194.9 308.5,192.8 310.8,195.3 313.8,193.7 315.5,196.6 318.8,195.6 320,198.8 
				323.4,198.3 324,201.7 327.4,201.8 327.4,205.2 330.7,206 330.1,209.4 333.2,210.7 332.1,213.9 334.9,215.8 333.2,218.7 
				335.6,221.1 333.4,223.6 335.4,226.4 332.7,228.5 334.2,231.6 331.2,233.2 332.1,236.5 328.9,237.6 329.1,241 325.8,241.5 
				325.4,244.8 322.1,244.7 321.1,248 317.8,247.2 316.3,250.3 313.2,249 311.2,251.7 308.3,249.9 305.9,252.2 303.4,249.9 
				300.5,251.7 298.5,249 295.4,250.3 293.9,247.2 290.6,248 289.7,244.7 286.3,244.8 285.9,241.5 282.6,241 282.9,237.6 
				279.7,236.5 280.5,233.2 277.6,231.6 279,228.5 276.4,226.4 278.3,223.6 276.1,221.1 278.6,218.7 276.8,215.8 279.7,213.9 
				278.5,210.7 281.6,209.4 281,206 284.3,205.2 284.4,201.8 287.7,201.7 288.4,198.3 291.7,198.8 293,195.6 296.2,196.6 
				297.9,193.7 300.9,195.3 303.2,192.8 			"/>
			
				<ellipse transform="matrix(0.7071 -0.7071 0.7071 0.7071 -67.7253 281.437)" style="opacity:0.2;" cx="305.9" cy="222.5" rx="25.6" ry="25.6"/>
			<g>
				<path style="fill:#007CFF;" d="M293.9,223.4l6-0.5c0,0,1.1-4.3,0.4-13.7c0,0,2.1-0.4,3.1-0.2c1,0.2,2.1,10.6,2.1,10.6
					s10.8-1.5,11.4-1.1c0.4,0.3,0.6,1.9,0.7,3c0.1,0.7-0.4,1.3-1,1.4l-0.4,0.1l0.2,10.4c0,0.8-0.6,1.5-1.4,1.5l-10.1,0.8
					c-1,0.1-2-0.1-2.9-0.7l-1.2-0.7l-6.2,0.9L293.9,223.4z"/>
				<path style="opacity:0.7;fill:#FFFFFF;enable-background:new    ;" d="M293.9,223.4l6-0.5c0,0,1.1-4.3,0.4-13.7
					c0,0,2.1-0.4,3.1-0.2c1,0.2,2.1,10.6,2.1,10.6s10.8-1.5,11.4-1.1c0.4,0.3,0.6,1.9,0.7,3c0.1,0.7-0.4,1.3-1,1.4l-0.4,0.1
					l0.2,10.4c0,0.8-0.6,1.5-1.4,1.5l-10.1,0.8c-1,0.1-2-0.1-2.9-0.7l-1.2-0.7l-6.2,0.9L293.9,223.4z"/>
			</g>
		</g>
	</g>
	<g>
		<g>
			<path style="fill:#FD897B;" d="M355.6,250.4l-8.6-4.5l5.1-6.8c0,0,6.5,2.3,6.6,8L355.6,250.4z"/>
			<polygon style="fill:#FD897B;" points="343.1,240.2 348.1,236 352.1,239.1 347,245.9 			"/>
		</g>
		<path style="fill:#007CFF;" d="M393.7,237.4c-1.5,0.3-3.2,1-4.6,1.8c-1.4,0.9-2.6,1.9-3.5,2.8c-1.9,1.8-3.3,3.6-4.8,5.4
			c-2.8,3.5-5.4,6.9-8,10.3c-0.5-0.3-0.9-0.6-1.4-0.9c-0.8-0.6-1.6-1.2-2.5-1.8c-3.3-2.6-6.6-5.4-10-8.2l-4.1,3.5
			c2.5,3.8,5.2,7.4,8.3,10.8c1.6,1.7,3.2,3.4,5.5,5c0.6,0.4,1.2,0.8,2,1.2c0.4,0.2,0.9,0.4,1.5,0.6c0.6,0.2,1.4,0.3,2.6,0.2
			c0.3,0,0.6-0.1,0.9-0.2c0.3-0.1,0.7-0.2,1-0.4c0.7-0.3,1.3-0.8,1.8-1.3l0.7-0.8l1.1-1.2c3-3.3,5.9-6.7,8.7-9.9
			c1.4-1.6,2.8-3.2,4.1-4.4c0.6-0.6,1.2-1.1,1.6-1.3c0.5-0.3,0.8-0.4,1.4-0.6L393.7,237.4z"/>
		<path style="opacity:0.7;fill:#FFFFFF;" d="M396.2,248c-0.6,0.2-1,0.4-1.4,0.6c-0.4,0.3-1,0.7-1.6,1.3c-0.5,0.5-1.1,1.1-1.7,1.7
			c-0.8,0.8-1.6,1.8-2.4,2.7c-1.8,2-3.6,4.1-5.4,6.2c-1.1,1.2-2.2,2.5-3.3,3.7l-1.1,1.2l-0.7,0.8c-0.5,0.5-1.2,1-1.8,1.3
			c-0.4,0.2-0.7,0.3-1,0.4c-0.3,0.1-0.6,0.1-0.9,0.2c-1.1,0.1-1.9-0.1-2.6-0.2c-0.6-0.2-1.1-0.4-1.5-0.6c-0.8-0.4-1.5-0.8-2-1.2
			c-2.2-1.6-3.9-3.3-5.5-5c-3.1-3.4-5.8-7-8.3-10.8l4.1-3.5c3.3,2.8,6.7,5.6,9.9,8.2c0.8,0.6,1.7,1.2,2.5,1.8
			c0.5,0.3,0.9,0.7,1.4,0.9c2.6-3.4,5.2-6.8,8-10.3c1.4-1.8,2.9-3.5,4.8-5.4c0.9-0.9,2.1-1.9,3.5-2.8c1.4-0.9,3.1-1.5,4.6-1.8
			L396.2,248z"/>
		<path style="opacity:0.1;" d="M391.5,251.6c-0.8,0.8-1.6,1.8-2.4,2.7c-1.8,2-3.6,4.1-5.4,6.2c0.9-8.2,6.8-11.6,6.8-11.6
			C390.9,249.7,391.3,250.6,391.5,251.6z"/>
		<path style="fill:#007CFF;" d="M433.5,239.6C433.5,239.7,433.4,239.7,433.5,239.6c-2.1,6-3.5,12.9-4.4,19.9
			c-0.7,5.5-1.1,11-1.3,16c-0.2,5.1-0.3,9.8-0.2,13.4c0,4.7,0.2,7.6,0.2,7.6h-40.3c-5.7-40.9,5.8-59.3,5.8-59.3s4.2-0.9,9.2-1.1
			c0.6,0,1.3-0.1,2-0.1c4.3-0.1,11.4,0.5,16.3,1.1c1,0.1,2.1,0.3,3.1,0.4C428.9,238.4,433.5,239.6,433.5,239.6z"/>
		<path style="opacity:0.7;fill:#FFFFFF;" d="M433.5,239.6C433.5,239.7,433.4,239.7,433.5,239.6c-0.9,2.7-1.7,5.5-2.4,8.4
			c-0.7,3-1.2,6.1-1.7,9.3c-0.1,0.7-0.2,1.4-0.3,2.2c-0.5,3.6-0.8,7.1-1,10.5c-0.1,1.9-0.2,3.7-0.3,5.5c-0.1,3.2-0.2,6.2-0.2,8.8
			c0,1.6,0,3.2,0,4.6c0,4.7,0.2,7.6,0.2,7.6h-40.3c-5.7-40.9,5.8-59.3,5.8-59.3s4.2-0.9,9.2-1.1c0.6-0.1,1.3-0.1,2-0.1
			c4.3-0.1,11.4,0.5,16.3,1.1c1,0.1,2.1,0.3,3.1,0.4C428.9,238.4,433.5,239.6,433.5,239.6z"/>
		<path d="M357.4,463.5c0,0,13.4-4,14.4-9.2c0.1-0.5,0.5-0.9,1.1-0.8l9.7,1.6c0.5,0.1,0.9,0.4,1,0.9l3,9.5l-2.8,0.1l-1-1.4l-1.2,1.4
			c-15,0.5-21.4,0.5-24.4-0.3C356.7,464,357.4,463.5,357.4,463.5z"/>
		<path d="M411.4,463.5c0,0,13.4-4,14.4-9.2c0.1-0.5,0.5-0.9,1.1-0.8l9.7,1.6c0.5,0.1,0.9,0.4,1,0.9l3,9.5l-2.8,0.1l-1-1.4l-1.2,1.4
			c-15,0.5-21.4,0.5-24.4-0.3C410.8,464,411.4,463.5,411.4,463.5z"/>
		<g>
			<path style="fill:#1A2E35;" d="M414.9,298.3C414.9,298.3,414.9,298.3,414.9,298.3c-0.1,0.2-2.5,7.8-5.7,18.6
				c-0.2,0.6-0.4,1.3-0.6,1.9c-1.5,5.2-3.2,11-4.9,17c-2.1,7.4-4.2,15.1-6,22.5c-2.7,10.7-4.8,20.8-5.7,28
				c-2.8,23.8-8.3,70.7-8.3,70.7l-12.6-3.2c0,0-2.3-50.8,0.1-75.1c1.5-15.4,8.4-46.8,12.9-66.4c2.3-10,4-16.9,4-16.9l14.5,1.5
				L414.9,298.3z"/>
		</g>
		<path style="opacity:0.2;" d="M397.6,358.4c3.4-13.5,7.5-28.1,10.9-39.6l-2.7-6.1C399,320.4,396.6,345,397.6,358.4z"/>
		<g>
			<path style="fill:#1A2E35;" d="M438.3,456.4l-14,1.4c0,0-16.2-47.1-18.2-71.7c-0.9-10.7-1.8-31.4-2.4-50.2
				c-0.5-13.7-0.8-26.4-1-33.4c-0.1-3.5-0.1-5.5-0.1-5.5l12.4,1.3l13.3,0.4c0,0,0.6,3.1,0.4,16c-0.3,20-1,55.3-0.6,74.2
				C428.5,413.4,438.3,456.4,438.3,456.4z"/>
		</g>
		<g>
			<path style="fill:#FD897B;" d="M417.2,220.1l-9.9,8.6c1.1,4.1-0.5,7.9-2.5,8.6l1.5,4.1l12.2-4.7
				C415.4,233.5,416.3,225.3,417.2,220.1z"/>
			<path style="opacity:0.2;" d="M413.2,223.6l-5.8,5.1c0.3,1,0.5,1.9,0.6,2.9c2.2-0.3,5.3-2.8,5.5-5.2
				C413.5,225.2,413.4,224.1,413.2,223.6z"/>
			<path style="fill:#007CFF;" d="M417.5,234.3c0,0-7.6,2.4-8.6,3c-1.1,0.6-2.3,3.6-2.3,3.6s0.8-3.1,0.4-4.9
				c-0.4-1.8-1.2-1.8-1.2-1.8l-1.9,4c0,0-0.4,3.4,2.7,3.9c3.1,0.5,12.6-5.2,12.6-5.2L417.5,234.3z"/>
			<path style="opacity:0.6;fill:#FFFFFF;" d="M417.5,234.3c0,0-7.6,2.4-8.6,3c-1.1,0.6-2.3,3.6-2.3,3.6s0.8-3.1,0.4-4.9
				c-0.4-1.8-1.2-1.8-1.2-1.8l-1.9,4c0,0-0.4,3.4,2.7,3.9c3.1,0.5,12.6-5.2,12.6-5.2L417.5,234.3z"/>
		</g>
		<g>
			<path style="fill:#1A2E35;" d="M399.5,205.5c-1.8,2.1,0.3,4.8,0.2,6.9c-0.1,2.1-0.4,4.7,2.2,1.9
				C404.5,211.5,402.3,202.6,399.5,205.5z"/>
			<path style="fill:#FF8B7B;" d="M417.9,214.5c-0.9,6.9,0,8.1-3.7,11.3c-5.6,4.9-14.3,5.4-15.1-1.7c-0.7-6.4-0.6-17.8,6.4-20.1
				C412.4,201.9,418.8,207.7,417.9,214.5z"/>
			<path style="fill:#1A2E35;" d="M416.9,219.2c-3.1,1.9-4.1-2.5-3.9-2.8c0.9-1.5,0.9-2.7-0.2-5.6c-1.1-2.8,4.6-6.1,8.7-4.9
				c3.8,1.1,0,4.1,0.4,6.6C422.8,216.8,419.4,217.7,416.9,219.2z"/>
			<path style="fill:#FFFFFF;" d="M401.4,222c0,0,2-0.5,7.5-0.8c-0.6,1.6-1.8,2.9-4.6,3C401.4,224.3,401.4,222,401.4,222z"/>
			<path style="fill:#FF8B7B;" d="M420.8,219.4c-0.8,1.6-2.1,2.7-3.4,3.2c-1.9,0.7-2.8-1.2-2.2-3.2c0.5-1.8,2.1-4.4,4-4.2
				C421,215.3,421.7,217.5,420.8,219.4z"/>
			<path style="fill:#1A2E35;" d="M409.5,214.7c-0.1,0.6-0.3,0.6-0.7,0.6c-0.4,0-0.7-0.1-0.7-0.7c0.1-0.6,0.4-1,0.8-1
				C409.3,213.6,409.6,214.1,409.5,214.7z"/>
			<path style="fill:#1A2E35;" d="M402.3,214.7c-0.1,0.6-0.3,0.6-0.7,0.6c-0.4,0-0.7-0.1-0.7-0.7c0.1-0.6,0.4-1,0.8-1
				C402.1,213.6,402.3,214.1,402.3,214.7z"/>
			<path style="fill:#FF5551;" d="M403.4,214.5c0,0-1.1,2.6-2.3,3.8c0.8,0.8,2.2,0.5,2.2,0.5L403.4,214.5z"/>
			<path style="fill:#1A2E35;" d="M410.8,212.1c0.1,0,0.1,0,0.2-0.1c0.2-0.1,0.2-0.3,0.1-0.5c-1.2-1.5-2.8-1.4-2.9-1.4
				c-0.2,0-0.3,0.2-0.3,0.4c0,0.2,0.2,0.3,0.4,0.3l0,0c0.1,0,1.3-0.1,2.3,1.1C410.5,212.1,410.7,212.1,410.8,212.1z"/>
			<path style="fill:#1A2E35;" d="M398.8,213.3c0.1,0,0.2,0,0.3-0.1c1.1-1.1,2.3-0.8,2.4-0.8c0.2,0,0.4-0.1,0.4-0.3
				c0-0.2-0.1-0.4-0.3-0.4c-0.1,0-1.6-0.4-3,0.9c-0.1,0.1-0.1,0.4,0,0.5C398.7,213.2,398.8,213.3,398.8,213.3z"/>
			<path style="fill:#1A2E35;" d="M407.1,206.7c0,0-5.2,2.3-7.5-2.2c-2.3-4.5,3.9-7.3,3.9-7.3s-0.8,1.6,0,3.2c0,0,1-3.3,5.4-2.2
				c4.4,1.1,11.3,2.4,12.7,4.7c1.3,2,0.3,3.8,0.3,3.8l-7.1,1.7C414.8,208.4,412,204,407.1,206.7z"/>
		</g>
		<path style="fill:#1A2E35;" d="M387,293.1l-0.3,7.7l41.9,6.8c0-6.6-1-15.2-1-15.2L387,293.1z"/>
		<g>
			<g>
				<polygon style="fill:#1A2E35;" points="427.3,296.3 428.2,296.3 427.9,293.5 427.1,293.5 				"/>
				<polygon style="fill:#1A2E35;" points="395.4,296.8 412.7,296.5 412.6,293.8 395.3,294.1 				"/>
				<polygon style="fill:#1A2E35;" points="394,294.1 386.7,294.2 386.7,297 394.1,296.9 				"/>
				<polygon style="fill:#1A2E35;" points="425.8,293.5 413.9,293.7 414.1,296.5 426,296.3 				"/>
			</g>
			<g style="opacity:0.2;">
				<polygon style="fill:#FFFFFF;" points="427.3,296.3 428.2,296.3 427.9,293.5 427.1,293.5 				"/>
				<polygon style="fill:#FFFFFF;" points="395.4,296.8 412.7,296.5 412.6,293.8 395.3,294.1 				"/>
				<polygon style="fill:#FFFFFF;" points="394,294.1 386.7,294.2 386.7,297 394.1,296.9 				"/>
				<polygon style="fill:#FFFFFF;" points="425.8,293.5 413.9,293.7 414.1,296.5 426,296.3 				"/>
			</g>
			<g>
				<path style="fill:none;stroke:#FFFFFF;stroke-width:0.75;stroke-miterlimit:10;" d="M400.6,294.5l0.1,1.7c0,0.3,0.2,0.5,0.5,0.5
					l4.3,0c0.3,0,0.5-0.2,0.5-0.5l-0.1-1.8c0-0.3-0.2-0.5-0.5-0.5l-4.3,0.1C400.8,294,400.6,294.2,400.6,294.5z"/>
				
					<line style="fill:none;stroke:#FFFFFF;stroke-width:0.75;stroke-linecap:round;stroke-linejoin:round;stroke-miterlimit:10;" x1="404.1" y1="295.2" x2="405.4" y2="295.2"/>
			</g>
		</g>
		<path style="opacity:0.1;" d="M431.1,248.1c-0.7,3-1.2,6.1-1.7,9.3c-1.4-3.9-0.8-8.5-0.8-8.5C429.5,248.3,430.3,248,431.1,248.1z"
			/>
		<path style="opacity:0.1;" d="M428.1,270.1c-0.1,1.9-0.2,3.7-0.3,5.5c-0.1,3.2-0.2,6.2-0.2,8.8c-4.2-1.8-11.9-5.2-12.8-7.9
			c-1.2-3.8,0.8-5.5,0.8-5.5S423.5,270.9,428.1,270.1z"/>
		<g>
			<path style="fill:#FD897B;" d="M409.6,269.3l-2.1,0.6c-1.1,0.3-1.8,1.4-1.7,2.5l0.3,2.8c0.1,1,0.9,1.9,1.9,2l1.3,0.2
				c0,0,4.3,2.8,8.3-1.2l0.1-4.6l-6.6-2.4C410.6,269.2,410.1,269.2,409.6,269.3z"/>
			<path style="fill:#FD897B;" d="M415.6,271.6c0,0-2-3.7-2.1-5.9c-0.1-2.2-2,0.4-1,2c0.9,1.6-0.7,2.7-0.7,2.7L415.6,271.6z"/>
		</g>
		<g>
			<path style="fill:#007CFF;" d="M445.3,270.6l-0.1-0.5l-0.1-0.4l-0.1-0.4l-0.2-0.8c-0.8-4.5-1.7-9-2.9-13.5
				c-0.6-2.3-1.2-4.6-2.1-7c-0.5-1.2-1-2.4-1.8-3.9c-0.4-0.7-0.9-1.5-1.8-2.4c-0.4-0.4-1-0.9-1.7-1.4c-0.7-0.4-1.6-0.8-2.5-1
				c0,0-2.4,1.1-3.2,4.7c-0.7,3.2-0.5,5.3-0.3,5.6c0.3,0.5,0.7,1.4,1,2.3c0.7,1.8,1.4,3.9,2,5.9c1.2,4.1,2.4,8.3,3.5,12.6
				c-0.5,0.1-1.1,0.3-1.7,0.4c-0.9,0.2-1.9,0.3-3,0.4c-4.1,0.4-8.6,0.5-13,0.5l-0.8,5.3c4.6,1.3,9.1,2.2,14,2.5
				c1.2,0.1,2.5,0.1,3.8,0c1.3-0.1,2.7-0.2,4.2-0.6c0.8-0.2,1.6-0.5,2.5-1c0.9-0.5,2-1.2,3-2.7c0.5-0.7,0.8-1.5,1-2.4
				C445.4,272.2,445.4,271.4,445.3,270.6z"/>
			<path style="opacity:0.7;fill:#FFFFFF;" d="M445.3,270.6l-0.1-0.5l-0.1-0.4l-0.1-0.4l-0.2-0.8c-0.8-4.5-1.7-9-2.9-13.5
				c-0.6-2.3-1.2-4.6-2.1-7c-0.5-1.2-1-2.4-1.8-3.9c-0.4-0.7-0.9-1.5-1.8-2.4c-0.4-0.4-1-0.9-1.7-1.4c-0.7-0.4-1.6-0.8-2.5-1
				c0,0-2.4,1.1-3.2,4.7c-0.7,3.2-0.5,5.3-0.3,5.6c0.3,0.5,0.7,1.4,1,2.3c0.7,1.8,1.4,3.9,2,5.9c1.2,4.1,2.4,8.3,3.5,12.6
				c-0.5,0.1-1.1,0.3-1.7,0.4c-0.9,0.2-1.9,0.3-3,0.4c-4.1,0.4-8.6,0.5-13,0.5l-0.8,5.3c4.6,1.3,9.1,2.2,14,2.5
				c1.2,0.1,2.5,0.1,3.8,0c1.3-0.1,2.7-0.2,4.2-0.6c0.8-0.2,1.6-0.5,2.5-1c0.9-0.5,2-1.2,3-2.7c0.5-0.7,0.8-1.5,1-2.4
				C445.4,272.2,445.4,271.4,445.3,270.6z"/>
		</g>
	</g>
</g>
</svg>
