<svg xmlns="http://www.w3.org/2000/svg" width="27.028" height="26.86" viewBox="0 0 27.028 26.86">
  <g id="Group_20115" data-name="Group 20115" transform="translate(-768.074 -348.074)">
    <path id="Path_72392" data-name="Path 72392" d="M780.532,348.074h2.112c.027.064.086.048.135.052a12.925,12.925,0,0,1,5.714,1.851,13.373,13.373,0,0,1,6.46,9.609,4.95,4.95,0,0,0,.149.946V362.7a2.454,2.454,0,0,0-.12.71A13.551,13.551,0,0,1,783.9,374.9c-.177.031-.2-.01-.2-.171q.006-4.513,0-9.027c0-.179.057-.217.223-.215.862.008,1.724,0,2.587,0,.368,0,.36,0,.412-.353.161-1.093.317-2.186.5-3.275.044-.258-.024-.285-.25-.283-1.082.01-2.164,0-3.246.006-.132,0-.23.01-.227-.184.012-.809-.011-1.619.011-2.428a1.862,1.862,0,0,1,1.788-1.994,16.816,16.816,0,0,1,1.9-.038c.143,0,.22-.013.218-.194-.009-.985-.007-1.971,0-2.956,0-.143-.044-.207-.184-.224a15.049,15.049,0,0,0-3.781-.162,4.544,4.544,0,0,0-2.962,1.5,5.131,5.131,0,0,0-1.2,3.375c-.026,1.02-.01,2.041,0,3.062,0,.193-.041.252-.244.25-.985-.012-1.971,0-2.956-.009-.174,0-.243.029-.241.225q.015,1.729,0,3.458c0,.187.05.234.234.232.968-.009,1.936,0,2.9-.01.233,0,.305.048.3.3-.01,2.956-.006,5.912-.006,8.868v.28c-.236-.042-.452-.073-.664-.119A13.551,13.551,0,0,1,768.273,363.9a7.867,7.867,0,0,0-.2-1.205v-2.217c.064-.026.049-.085.055-.135.049-.463.115-.924.2-1.382a13.541,13.541,0,0,1,11.255-10.742A4.554,4.554,0,0,0,780.532,348.074Z" fill="#1877f1"/>
  </g>
</svg>
