<?xml version="1.0" encoding="utf-8"?>
<!-- Generator: Adobe Illustrator 29.1.0, SVG Export Plug-In . SVG Version: 9.03 Build 55587)  -->
<svg version="1.1" xmlns="http://www.w3.org/2000/svg" xmlns:xlink="http://www.w3.org/1999/xlink" x="0px" y="0px"
	 viewBox="0 0 500 500" style="enable-background:new 0 0 500 500;" xml:space="preserve">
<g id="Background_Complete">
	<g>
		<rect y="382.4" style="fill:#EBEBEB;" width="500" height="0.2"/>
		<rect x="428.2" y="398.5" style="fill:#EBEBEB;" width="21.7" height="0.2"/>
		<rect x="310.6" y="393.3" style="fill:#EBEBEB;" width="34.1" height="0.2"/>
		<rect x="396.6" y="389.2" style="fill:#EBEBEB;" width="44.5" height="0.2"/>
		<rect x="161.9" y="394.2" style="fill:#EBEBEB;" width="11.1" height="0.2"/>
		<rect x="114.6" y="394.2" style="fill:#EBEBEB;" width="38.4" height="0.2"/>
		<rect x="66.3" y="390" style="fill:#EBEBEB;" width="27.7" height="0.2"/>
		<path style="fill:#EBEBEB;" d="M237,337.8H43.9c-3.1,0-5.7-2.6-5.7-5.7V60.7c0-3.1,2.6-5.7,5.7-5.7H237c3.1,0,5.7,2.6,5.7,5.7
			v271.4C242.7,335.2,240.2,337.8,237,337.8z M43.9,55.2c-3,0-5.5,2.4-5.5,5.5v271.4c0,3,2.4,5.5,5.5,5.5H237c3,0,5.5-2.4,5.5-5.5
			V60.7c0-3-2.4-5.5-5.5-5.5H43.9z"/>
		<path style="fill:#EBEBEB;" d="M453.3,337.8H260.2c-3.1,0-5.7-2.6-5.7-5.7V60.7c0-3.1,2.6-5.7,5.7-5.7h193.1
			c3.1,0,5.7,2.6,5.7,5.7v271.4C459,335.2,456.5,337.8,453.3,337.8z M260.2,55.2c-3,0-5.5,2.4-5.5,5.5v271.4c0,3,2.4,5.5,5.5,5.5
			h193.1c3,0,5.5-2.4,5.5-5.5V60.7c0-3-2.4-5.5-5.5-5.5H260.2z"/>
	</g>
	<g>
		<g>
			<g>
				<g>
					<g>
						<path style="fill:#F0F0F0;" d="M390.4,303.9L390.4,303.9c-0.4,0-0.8,0-1.1,0c-8,0.6-14.5,8.3-15,17.7
							c-0.1,2.2,0.1,4.2,0.5,6.2c1.9,8.1,2.5,16.4,2.5,24.8v24.3c0,1.8,1.2,3.2,2.7,3.2h10.4h-1.8h45.1v-76.2H390.4z"/>
						<path style="fill:#FAFAFA;" d="M449.9,322.9c0-10.9-7.9-19.7-17.4-19c-8,0.6-14.5,8.3-15,17.7c-0.1,2.2,0.1,4.2,0.5,6.2
							c1.9,8.1,2.5,16.4,2.5,24.8v24.3c0,1.8,1.2,3.2,2.7,3.2h20.8c1.5,0,2.7-1.4,2.7-3.2v-25.7c0-7.8,0.7-15.7,2.5-23.2
							C449.7,326.3,449.9,324.6,449.9,322.9z"/>
					</g>
					<rect x="354.7" y="337" style="fill:#F5F5F5;" width="56.6" height="43.1"/>
					<path style="fill:#E6E6E6;" d="M361.7,238.4h-62.2c-7.3,0-12.8,5.9-12.1,13.3l8.1,92.6h88.8l-8.1-92.6
						C375.5,244.3,369,238.4,361.7,238.4z"/>
					<path style="fill:#F5F5F5;" d="M369.6,238.4h-56c-7.2,0-12.6,5.9-12,13.1l8.1,92.8H392l-8.1-92.8
						C383.2,244.2,376.8,238.4,369.6,238.4z"/>
					<path style="fill:#EBEBEB;" d="M411.3,335.4h-52.9c-0.5,0-0.9,0.4-0.9,0.9v8.6c0,0.5,0.4,0.9,0.9,0.9h52.9
						c1.6,0,2.8-1.3,2.8-2.8v-4.6C414.1,336.7,412.8,335.4,411.3,335.4z"/>
					<path style="fill:#E6E6E6;" d="M432.3,382.4h-131c-1.2,0-2.1-1-2.1-2.1v-0.2h135.3v0.2C434.5,381.4,433.5,382.4,432.3,382.4z"
						/>
				</g>
				<g>
					<path style="fill:#F0F0F0;" d="M300,303.9L300,303.9c-0.4,0-0.8,0-1.1,0c-8,0.6-14.5,8.3-15,17.7c-0.1,2.2,0.1,4.2,0.5,6.2
						c1.9,8.1,2.5,16.4,2.5,24.8v24.3c0,1.8,1.2,3.2,2.7,3.2H300h10.4h45.1v-76.2H300z"/>
					<path style="fill:#FAFAFA;" d="M371.7,322.9c0-10.9-7.9-19.7-17.4-19c-8,0.6-14.5,8.3-15,17.7c-0.1,2.2,0.1,4.2,0.5,6.2
						c1.9,8.1,2.5,16.4,2.5,24.8v24.3c0,1.8,1.2,3.2,2.7,3.2h20.8c1.5,0,2.7-1.4,2.7-3.2v-25.7c0-7.8,0.7-15.7,2.5-23.2
						C371.5,326.3,371.7,324.6,371.7,322.9z"/>
				</g>
			</g>
			<g>
				<rect x="389.1" y="352.2" style="fill:#F0F0F0;" width="51.7" height="30.2"/>
				<path style="fill:#E6E6E6;" d="M441.2,350.6h-52.4c-1.2,0-2.1,0.9-2.1,2.1v6c0,1.2,0.9,2.1,2.1,2.1h52.4c1.2,0,2.1-0.9,2.1-2.1
					v-6C443.3,351.6,442.4,350.6,441.2,350.6z"/>
			</g>
		</g>
		<g>
			<g>
				<rect x="103.5" y="247.1" style="fill:#E6E6E6;" width="13.2" height="51.2"/>
				<polygon style="fill:#F0F0F0;" points="204.4,298.3 108.7,298.3 102.1,238.4 197.8,238.4 				"/>
				<polygon style="fill:#F5F5F5;" points="209.1,298.3 112,298.3 105.4,238.4 202.5,238.4 				"/>
				<polygon style="fill:#FFFFFF;" points="115.3,293.6 109.7,243.1 199.2,243.1 204.8,293.6 				"/>
				<path style="fill:#F5F5F5;" d="M130.3,281.3l-0.2-2.1c-1.4-12.7,6.5-23.9,16.8-23.9l0,0l0.2,2.1
					C148.5,270,140.6,281.3,130.3,281.3L130.3,281.3z"/>
				<path style="fill:#F5F5F5;" d="M149.9,281.3l-0.2-2.1c-1.4-12.7,6.5-23.9,16.8-23.9h0l0.2,2.1
					C168.1,270,160.2,281.3,149.9,281.3L149.9,281.3z"/>
				<path style="fill:#F5F5F5;" d="M169.5,281.3l-0.2-2.1c-1.4-12.7,6.5-23.9,16.8-23.9l0,0l0.2,2.1
					C187.6,270,179.7,281.3,169.5,281.3L169.5,281.3z"/>
			</g>
			<g>
				<g>
					<rect x="216.7" y="298.3" style="fill:#E6E6E6;" width="56.7" height="84.1"/>
					<polygon style="fill:#F0F0F0;" points="267.7,382.4 273.4,382.4 273.4,366.2 261.8,366.2 					"/>
					<rect x="57.9" y="298.3" style="fill:#E6E6E6;" width="56.7" height="84.1"/>
					<rect x="109.6" y="298.3" style="fill:#F0F0F0;" width="163.9" height="74.2"/>
					<polygon style="fill:#F0F0F0;" points="115.3,382.4 109.6,382.4 109.6,366.2 121.3,366.2 					"/>
					<rect x="114" y="302.9" style="fill:#E6E6E6;" width="155" height="29.9"/>
					<path style="fill:#F0F0F0;" d="M201.8,312.2h-20.7c-9,0-17.6-3.7-23.7-10.2l0,0h68.2l0,0C219.4,308.5,210.8,312.2,201.8,312.2z
						"/>
					<rect x="114" y="337.7" style="fill:#E6E6E6;" width="155" height="29.9"/>
					<path style="fill:#F0F0F0;" d="M201.8,347h-20.7c-9,0-17.6-3.7-23.7-10.2l0,0h68.2l0,0C219.4,343.3,210.8,347,201.8,347z"/>
				</g>
			</g>
		</g>
		<g>
			<rect x="62.8" y="81.3" style="fill:#E6E6E6;" width="364.8" height="124"/>
			<rect x="64.5" y="81.3" style="fill:#F0F0F0;" width="366.7" height="124"/>
			<rect x="62.8" y="205.3" style="fill:#E6E6E6;" width="364.8" height="6.7"/>
			<rect x="70.5" y="205.3" style="fill:#F0F0F0;" width="366.7" height="6.7"/>
			
				<rect x="190.9" y="-35" transform="matrix(-1.836970e-16 1 -1 -1.836970e-16 391.0778 -104.5714)" style="fill:#FAFAFA;" width="113.8" height="356.5"/>
			<polygon style="fill:#FFFFFF;" points="375,200.2 383.2,86.3 397.3,86.3 389.1,200.2 			"/>
			<polygon style="fill:#FFFFFF;" points="95.7,200.2 103.9,86.3 117.9,86.3 109.8,200.2 			"/>
			<path style="fill:#F0F0F0;" d="M71.9,142.2c-0.2,0-0.4-0.2-0.4-0.4V89.6c0-0.2,0.2-0.4,0.4-0.4c0.2,0,0.4,0.2,0.4,0.4v52.2
				C72.3,142,72.1,142.2,71.9,142.2z"/>
			<polygon style="fill:#FFFFFF;" points="392.1,200.2 400.3,86.3 405.8,86.3 397.6,200.2 			"/>
			
				<rect x="368.9" y="142.9" transform="matrix(-1.836970e-16 1 -1 -1.836970e-16 569.0259 -282.5196)" style="fill:#E6E6E6;" width="113.8" height="0.6"/>
			<polygon style="opacity:0.5;fill:#E0E0E0;" points="432.4,95.5 67.6,95.5 67.1,88.3 431.9,88.3 			"/>
			<polygon style="opacity:0.5;fill:#E0E0E0;" points="432.4,107.4 67.6,107.4 67.1,100.2 431.9,100.2 			"/>
			<polygon style="opacity:0.5;fill:#E0E0E0;" points="432.4,119.3 67.6,119.3 67.1,112.1 431.9,112.1 			"/>
			<polygon style="opacity:0.5;fill:#E0E0E0;" points="432.4,131.2 67.6,131.2 67.1,124 431.9,124 			"/>
			<polygon style="opacity:0.5;fill:#E0E0E0;" points="432.4,143.1 67.6,143.1 67.1,135.9 431.9,135.9 			"/>
			<polygon style="opacity:0.5;fill:#E0E0E0;" points="432.4,155 67.6,155 67.1,147.8 431.9,147.8 			"/>
		</g>
	</g>
</g>
<g id="Background_Simple" style="display:none;">
	<g style="display:inline;">
		<path style="fill:#407BFF;" d="M57,149.9c-6.2-49.9,26.4-77.7,67.5-71.3c19.7,3.1,41.3,27.6,60.2,34.8c24.7,9.4,47.4,3.8,71.7,5.5
			c60.5,4.3,57.4,28.8,95.1,65.4c26.5,25.7,72.7,28.8,84.4,69.7c14.3,50-41.3,66.6-81.3,54.6c-45.9-13.7-64.2,42.9-134.9,27.9
			C150.1,321.7,65.3,225,57,149.9z"/>
		<path style="opacity:0.9;fill:#FFFFFF;" d="M57,149.9c-6.2-49.9,26.4-77.7,67.5-71.3c19.7,3.1,41.3,27.6,60.2,34.8
			c24.7,9.4,47.4,3.8,71.7,5.5c60.5,4.3,57.4,28.8,95.1,65.4c26.5,25.7,72.7,28.8,84.4,69.7c14.3,50-41.3,66.6-81.3,54.6
			c-45.9-13.7-64.2,42.9-134.9,27.9C150.1,321.7,65.3,225,57,149.9z"/>
	</g>
</g>
<g id="Shadow_1_">
	<ellipse id="_x3C_Path_x3E__217_" style="fill:#F5F5F5;" cx="250" cy="416.2" rx="193.9" ry="11.3"/>
</g>
<g id="Post">
	<g>
		<g>
			<rect x="153.4" y="109.3" style="fill:#407BFF;" width="8.2" height="1"/>
			<rect x="118.1" y="109.3" style="fill:#407BFF;" width="28.2" height="1"/>
			<path style="fill:#407BFF;" d="M112.6,266.7h201.3c4.6,0,7.9-3.7,7.5-8.3L309.2,121c-0.4-4.6-4.5-8.3-9-8.3H98.9
				c-4.6,0-7.9,3.7-7.5,8.3l12.2,137.4C104,262.9,108,266.7,112.6,266.7z"/>
			<g>
				<g>
					<path style="fill:#407BFF;" d="M113.2,266.7h201.3c4.6,0,7.9-3.7,7.5-8.3L309.8,121c-0.4-4.6-4.5-8.3-9-8.3H99.5
						c-4.6,0-7.9,3.7-7.5,8.3l12.2,137.4C104.6,262.9,108.7,266.7,113.2,266.7z"/>
					<path style="opacity:0.2;" d="M113.2,266.7h201.3c4.6,0,7.9-3.7,7.5-8.3L309.8,121c-0.4-4.6-4.5-8.3-9-8.3H99.5
						c-4.6,0-7.9,3.7-7.5,8.3l12.2,137.4C104.6,262.9,108.7,266.7,113.2,266.7z"/>
				</g>
				<path style="fill:#407BFF;" d="M301.2,116.9H99.9c-0.2,0-0.5,0-0.7,0c-5.1,0.4-4,8.3,1.2,8.3h201.6c5.2,0,5-7.8-0.2-8.3
					C301.6,116.9,301.4,116.9,301.2,116.9z"/>
				<path style="fill:#FAFAFA;" d="M103.5,123.4c-1.3,0-2.4-1.1-2.6-2.4c-0.1-0.6,0.1-1.3,0.6-1.7c0.4-0.5,1-0.7,1.7-0.7
					c1.3,0,2.4,1.1,2.6,2.4c0.1,0.6-0.1,1.3-0.6,1.7C104.7,123.2,104.1,123.4,103.5,123.4z M103.1,119.6c-0.4,0-0.7,0.1-0.9,0.4
					c-0.2,0.3-0.3,0.6-0.3,1c0.1,0.8,0.8,1.4,1.6,1.4c0.4,0,0.7-0.1,0.9-0.4c0.2-0.3,0.3-0.6,0.3-1l0,0
					C104.6,120.3,103.9,119.6,103.1,119.6z"/>
				<path style="fill:#FAFAFA;" d="M109.9,123.4c-1.3,0-2.4-1.1-2.6-2.4c-0.1-0.6,0.1-1.3,0.6-1.7c0.4-0.5,1-0.7,1.7-0.7
					c1.3,0,2.4,1.1,2.6,2.4l0,0c0.1,0.6-0.1,1.3-0.6,1.7C111.2,123.2,110.6,123.4,109.9,123.4z M109.6,119.6c-0.4,0-0.7,0.1-0.9,0.4
					c-0.2,0.3-0.3,0.6-0.3,1c0.1,0.8,0.8,1.4,1.6,1.4c0.4,0,0.7-0.1,0.9-0.4c0.2-0.3,0.3-0.6,0.3-1l0,0
					C111.1,120.3,110.4,119.6,109.6,119.6z"/>
				<path style="fill:#FAFAFA;" d="M116.4,123.4c-1.3,0-2.4-1.1-2.6-2.4c-0.1-0.6,0.1-1.3,0.6-1.7c0.4-0.5,1-0.7,1.7-0.7
					c1.3,0,2.4,1.1,2.6,2.4l0,0c0.1,0.6-0.1,1.3-0.6,1.7C117.6,123.2,117,123.4,116.4,123.4z M116,119.6c-0.4,0-0.7,0.1-0.9,0.4
					c-0.2,0.3-0.3,0.6-0.3,1c0.1,0.8,0.8,1.4,1.6,1.4c0.4,0,0.7-0.1,0.9-0.4c0.2-0.3,0.3-0.6,0.3-1l0,0
					C117.5,120.3,116.8,119.6,116,119.6z"/>
			</g>
			<path style="fill:#FFFFFF;" d="M116.4,253H309c1.7,0,2.9-1.3,2.7-3l-10.1-113c-0.1-1.7-1.6-3-3.3-3H105.8c-1.7,0-2.9,1.3-2.7,3
				l10.1,113C113.2,251.6,114.7,253,116.4,253z"/>
		</g>
		<g>
			<path style="fill:#263238;" d="M183.3,342.8c2.7,8.2-1,14.8-9.2,14.8c45.4,0,90.9,0,136.3,0c8.2,0,11.8-6.6,9.2-14.8
				C274.1,342.8,228.7,342.8,183.3,342.8z"/>
			<g>
				<g>
					<path style="fill:#407BFF;" d="M124.9,142.4c29.2,66.8,6.6,133.6,28.7,200.4c0,0,0,0,0,0c2.7,8.2,12.3,14.8,20.5,14.8
						c8.2,0,11.8-6.6,9.2-14.8c40.5,0,81,0,121.4,0c-22.1-66.8,0.5-133.6-28.7-200.4C225.6,142.4,175.3,142.4,124.9,142.4z"/>
					<path style="opacity:0.8;fill:#FFFFFF;" d="M124.9,142.4c29.2,66.8,6.6,133.6,28.7,200.4c0,0,0,0,0,0
						c2.7,8.2,12.3,14.8,20.5,14.8c8.2,0,11.8-6.6,9.2-14.8c40.5,0,81,0,121.4,0c-22.1-66.8,0.5-133.6-28.7-200.4
						C225.6,142.4,175.3,142.4,124.9,142.4z"/>
				</g>
				<g>
					<path style="fill:#407BFF;" d="M189.3,193c-12.2,0-24.5,0-36.8,0c-1.7-12.2-4.3-24.5-8.4-36.8c12.2,0,24.5,0,36.8,0
						C185,168.5,187.6,180.8,189.3,193z"/>
					<path style="opacity:0.6;fill:#407BFF;" d="M288.3,332.6c-27.3,0-54.7,0-82,0c-3.6-13.4-5.5-26.7-6.7-40.1c27.3,0,54.7,0,82,0
						C282.8,305.8,284.8,319.2,288.3,332.6z"/>
					<g style="opacity:0.8;">
						<path style="fill:#407BFF;" d="M269.4,160.4c-27.3,0-54.7,0-82,0c-0.4-1.4-0.9-2.7-1.3-4.1c27.3,0,54.7,0,82,0
							C268.5,157.6,268.9,159,269.4,160.4z"/>
						<path style="fill:#407BFF;" d="M272.3,171c-27.3,0-54.7,0-82,0c-0.3-1.4-0.7-2.7-1-4.1c27.3,0,54.7,0,82,0
							C271.6,168.2,272,169.6,272.3,171z"/>
						<path style="fill:#407BFF;" d="M256.1,181.6c-21.2,0-42.4,0-63.6,0c-0.3-1.4-0.5-2.7-0.8-4.1c21.2,0,42.4,0,63.6,0
							C255.6,178.9,255.9,180.2,256.1,181.6z"/>
					</g>
					<g style="opacity:0.2;">
						<path style="fill:#407BFF;" d="M277.9,206.3c-27.3,0-54.7,0-82,0c-0.1-0.9-0.2-1.8-0.3-2.7c27.3,0,54.7,0,82,0
							C277.8,204.5,277.9,205.4,277.9,206.3z"/>
						<path style="fill:#407BFF;" d="M278.5,213.3c-27.3,0-54.7,0-82,0c-0.1-0.9-0.1-1.8-0.2-2.7c27.3,0,54.7,0,82,0
							C278.4,211.5,278.4,212.4,278.5,213.3z"/>
						<path style="fill:#407BFF;" d="M256.1,220.2c-19.7,0-39.5,0-59.2,0c0-0.9-0.1-1.8-0.1-2.7c19.7,0,39.5,0,59.2,0
							C256,218.5,256.1,219.4,256.1,220.2z"/>
						<path style="fill:#407BFF;" d="M279.2,227.2c-27.3,0-54.7,0-82,0c0-0.9-0.1-1.8-0.1-2.7c27.3,0,54.7,0,82,0
							C279.2,225.5,279.2,226.3,279.2,227.2z"/>
						<path style="fill:#407BFF;" d="M279.5,234.2c-27.3,0-54.7,0-82,0c0-0.9-0.1-1.8-0.1-2.7c27.3,0,54.7,0,82,0
							C279.4,232.4,279.4,233.3,279.5,234.2z"/>
						<path style="fill:#407BFF;" d="M216.4,241.2c-6.2,0-12.5,0-18.7,0c0-0.9,0-1.8-0.1-2.7c6.2,0,12.5,0,18.7,0
							C216.3,239.4,216.4,240.3,216.4,241.2z"/>
						<path style="fill:#407BFF;" d="M279.8,248.2c-27.3,0-54.7,0-82,0c0-0.9,0-1.8-0.1-2.7c27.3,0,54.7,0,82,0
							C279.8,246.4,279.8,247.3,279.8,248.2z"/>
						<path style="fill:#407BFF;" d="M280,255.2c-27.3,0-54.7,0-82,0c0-0.9,0-1.8-0.1-2.7c27.3,0,54.7,0,82,0
							C279.9,253.4,279.9,254.3,280,255.2z"/>
						<path style="fill:#407BFF;" d="M280.1,262.2c-27.3,0-54.7,0-82,0c0-0.9,0-1.8-0.1-2.7c27.3,0,54.7,0,82,0
							C280.1,260.4,280.1,261.3,280.1,262.2z"/>
						<path style="fill:#407BFF;" d="M280.3,269.2c-27.3,0-54.7,0-82,0c0-0.9-0.1-1.8-0.1-2.7c27.3,0,54.7,0,82,0
							C280.3,267.4,280.3,268.3,280.3,269.2z"/>
						<path style="fill:#407BFF;" d="M280.6,276.2c-27.3,0-54.7,0-82,0c0-0.9-0.1-1.8-0.1-2.7c27.3,0,54.7,0,82,0
							C280.5,274.4,280.6,275.3,280.6,276.2z"/>
						<path style="fill:#407BFF;" d="M233.6,283.2c-11.5,0-23.1,0-34.6,0c-0.1-0.9-0.1-1.8-0.2-2.7c11.5,0,23.1,0,34.6,0
							C233.5,281.4,233.5,282.3,233.6,283.2z"/>
					</g>
				</g>
			</g>
		</g>
	</g>
</g>
<g id="Character_1_">
	<g>
		<path style="fill:#FF8B7B;" d="M368.3,162.9c0.9,1.1,1.7,2.1,2.4,3.1c0.8,1,1.5,2.1,2.3,3.2c1.5,2.1,2.9,4.3,4.2,6.6
			c1.3,2.3,2.6,4.5,3.7,6.9c1.1,2.4,2.2,4.8,3,7.5l0.3,1l0.1,0.2l0.1,0.4c0.1,0.3,0.2,0.6,0.2,0.9c0.2,1.2,0.2,2.3,0.1,3.2
			c-0.2,1.9-0.8,3.4-1.4,4.8c-1.2,2.8-2.7,5-4.3,7.2c-3.2,4.3-6.7,7.9-10.6,11.4l-4.1-3.7c2.7-4,5.3-8.1,7.5-12.2c1.1-2,2-4.1,2.6-6
			c0.3-0.9,0.4-1.8,0.4-2.4c0-0.3,0-0.5-0.1-0.5c0,0,0,0,0,0c0,0,0,0.1,0,0l-0.1-0.2l-0.3-0.8c-1.7-4.1-4.1-8.2-6.6-12.2
			c-1.3-2-2.6-4-4-5.9c-1.3-1.9-2.8-3.9-4.1-5.7L368.3,162.9z"/>
		<path style="fill:#FF8B7B;" d="M366.8,214.4l-6.7,1.9l5.3,6.2c0,0,4.5-2.1,4.1-5.7L366.8,214.4z"/>
		<polygon style="fill:#FF8B7B;" points="355.3,221.7 361.4,226.6 365.5,222.6 360.1,216.4 		"/>
		<path style="fill:#263238;" d="M331.3,130.7c0,0.6-0.3,1.1-0.7,1.1s-0.7-0.5-0.7-1.1c0-0.6,0.3-1.1,0.7-1.1
			S331.3,130.1,331.3,130.7z"/>
		<path style="fill:#A02724;" d="M331.1,131.8c0,0-1.3,3.4-2.8,5.1c1,1,2.8,0.5,2.8,0.5V131.8z"/>
		<path style="fill:#263238;" d="M333.4,127.4c-0.1,0-0.1,0-0.2-0.1c-1.3-0.9-2.5-0.5-2.5-0.5c-0.2,0.1-0.4,0-0.5-0.2
			c-0.1-0.2,0-0.4,0.2-0.4c0.1,0,1.6-0.6,3.1,0.5c0.2,0.1,0.2,0.3,0.1,0.5C333.6,127.4,333.5,127.4,333.4,127.4z"/>
		<path style="fill:#FF8B7B;" d="M350.5,137.5c-1.1,5.4-2.1,15.2,1.7,18.8c0,0-1.5,5.5-11.5,5.5c-11,0-5.2-5.5-5.2-5.5
			c6-1.4,5.8-5.9,4.8-10.1L350.5,137.5z"/>
		<path style="fill:#407BFF;" d="M353.5,158.2c0.8-1.7,1.7-3.7-0.1-4.3c-2-0.7-12.8-1.4-16.5-0.1c-3.7,1.3-2.7,4.8-2.7,4.8
			L353.5,158.2z"/>
		<path style="fill:#407BFF;" d="M388.3,395c-0.6,0.5-1.2,0.9-1.7,0.8c-0.2,0-0.4-0.2-0.5-0.6c0-0.2,0-0.5,0.2-0.7
			c0.7-0.9,3.1-1.1,3.2-1.1c0.1,0,0.1,0,0.2,0.1c0,0.1,0,0.1,0,0.2C389.4,393.9,388.8,394.5,388.3,395z M386.7,394.5
			c-0.1,0-0.1,0.1-0.1,0.2c-0.1,0.1-0.1,0.2-0.1,0.4c0.1,0.3,0.2,0.4,0.3,0.4c0.5,0.1,1.7-0.9,2.4-1.7
			C388.3,393.9,387.2,394.1,386.7,394.5z"/>
		<path style="fill:#407BFF;" d="M389.6,393.7C389.5,393.7,389.5,393.7,389.6,393.7c-0.9,0.2-3.1-0.1-3.5-0.8
			c-0.1-0.1-0.2-0.4,0.1-0.7c0.2-0.2,0.4-0.3,0.7-0.3c1.1,0,2.6,1.5,2.7,1.5C389.6,393.4,389.6,393.5,389.6,393.7
			C389.6,393.6,389.6,393.6,389.6,393.7z M386.5,392.3C386.5,392.4,386.5,392.4,386.5,392.3c-0.2,0.2-0.2,0.3-0.1,0.4
			c0.2,0.4,1.7,0.7,2.7,0.7c-0.5-0.4-1.4-1.2-2.2-1.2C386.7,392.2,386.6,392.2,386.5,392.3z"/>
		<path style="fill:#407BFF;" d="M333.2,409.1c-0.9,0-1.9-0.1-2.2-0.6c-0.1-0.1-0.2-0.4,0-0.8c0.1-0.2,0.3-0.3,0.6-0.4
			c1.2-0.3,3.8,1.1,3.9,1.2c0.1,0,0.1,0.1,0.1,0.2c0,0.1-0.1,0.1-0.1,0.1C335,409,334.1,409.1,333.2,409.1z M332,407.7
			c-0.1,0-0.2,0-0.3,0c-0.2,0-0.3,0.1-0.3,0.2c-0.1,0.2-0.1,0.3,0,0.4c0.3,0.5,2.2,0.5,3.6,0.3C334.2,408.3,332.9,407.7,332,407.7z"
			/>
		<path style="fill:#407BFF;" d="M335.4,408.9C335.4,408.9,335.3,408.9,335.4,408.9c-1-0.4-2.7-2-2.6-2.8c0-0.2,0.2-0.4,0.6-0.5
			c0.4,0,0.7,0.1,1,0.3c0.9,0.8,1.1,2.7,1.1,2.8c0,0.1,0,0.1-0.1,0.2C335.5,408.9,335.4,408.9,335.4,408.9z M333.6,405.9
			c0,0-0.1,0-0.1,0c-0.3,0-0.3,0.2-0.3,0.2c-0.1,0.5,1.1,1.7,2,2.3c-0.1-0.6-0.4-1.8-1-2.3C334,406,333.8,405.9,333.6,405.9z"/>
		<polygon style="fill:#FF8B7B;" points="343.5,408.7 336.1,408.7 335.4,391.7 342.7,391.7 		"/>
		<polygon style="fill:#FF8B7B;" points="397,391.5 389.9,393.4 382,377.8 389.1,376 		"/>
		<path style="fill:#263238;" d="M389.3,392.5l6.3-5.3c0.2-0.2,0.6-0.2,0.8,0l5.3,4c0.6,0.4,0.6,1.3,0,1.7c-2.2,1.8-3.4,2.6-6.2,5
			c-1.7,1.4-6.8,6.4-9.2,8.4c-2.3,2-4.6-0.1-3.8-1.1c3.5-4.6,5.8-9.1,6.1-11.5C388.8,393.2,389,392.8,389.3,392.5z"/>
		<path style="fill:#263238;" d="M336.2,407.9h8c0.3,0,0.6,0.2,0.6,0.5l1.5,6.5c0.2,0.7-0.4,1.3-1.1,1.3c-2.9,0-7.1-0.2-10.7-0.2
			c-4.3,0-6.1,0.2-11.1,0.2c-3,0-3.9-3-2.6-3.3c5.7-1.3,8.6-1.4,13.6-4.5C334.9,408.1,335.5,407.9,336.2,407.9z"/>
		<path style="fill:#FF8B7B;" d="M325.9,172.6c-2.4,4.3-5,8.4-7.7,12.5c-2.7,4.1-5.6,8-8.8,11.9c-0.4,0.5-0.8,1-1.2,1.4l-0.6,0.7
			l-0.3,0.4l-0.5,0.5c-1.4,1.4-2.8,2.3-4.2,3c-2.7,1.3-5.3,2.1-7.8,2.6c-5.1,1.1-10,1.5-15.1,1.4l-0.5-5.5c4.5-1.2,9-2.5,13.2-4.1
			c2-0.8,4-1.7,5.5-2.7c0.7-0.5,1.3-1,1.5-1.4l0.8-1.2c0.3-0.5,0.7-0.9,1-1.4c2.7-3.8,5.2-7.7,7.7-11.7c2.5-4,5-8,7.4-12
			L325.9,172.6z"/>
		<path style="fill:#263238;" d="M365.9,158c6.9,1.6,14.8,20.4,14.8,20.4l-13.8,9.5c0,0-5.2-7.3-9.1-15.5
			C353.6,163.7,358.8,156.4,365.9,158z"/>
		<path style="opacity:0.3;" d="M360.9,170l6.5,17.4l-0.6,0.4c0,0-2.8-4-5.9-9.3V170z"/>
		<path style="fill:#263238;" d="M324.7,158.4c0,0-7.8,8.8-0.4,63.5c11.8,0,33.5,0,39.3,0c0.3-6-3.5-35.5,2.3-63.9
			c0,0-6.7-1.4-13.2-1.7c-5-0.2-12.3-0.4-16.7,0C330.2,156.9,324.7,158.4,324.7,158.4z"/>
		<path style="opacity:0.3;" d="M329.1,174.2c-0.1,0.2-1,9-7.8,16.8c-0.2-3.5-0.2-6.7-0.2-9.5L329.1,174.2z"/>
		<path style="fill:#263238;" d="M332.5,164.3c1,7-12.7,24.7-12.7,24.7l-13.8-9.5c0,0,3.8-9.8,10.3-16.2
			C323.6,156,331.4,156.8,332.5,164.3z"/>
		<path style="fill:#FF8B7B;" d="M279.6,201.5l-7.7-0.9l0.2,9.4c0,0,6.1,0.5,9.4-3.7L279.6,201.5z"/>
		<polygon style="fill:#FF8B7B;" points="264.2,202.8 267.2,210.4 272.1,209.9 271.9,200.6 		"/>
		<g>
			<polygon style="opacity:0.2;" points="335.4,391.7 335.8,401.3 343.2,401.3 342.7,391.7 			"/>
			<polygon style="opacity:0.2;" points="389.1,376 382,377.8 386.4,386.4 393.2,384 			"/>
		</g>
		<path style="fill:#FF8B7B;" d="M351.1,129.4c-0.4,7.3-0.3,11.6-4,15.3c-5.5,5.6-14.5,2.3-16.2-5c-1.6-6.5-0.6-17.3,6.6-20.2
			C344.4,116.7,351.5,122.2,351.1,129.4z"/>
		<path style="fill:#263238;" d="M338,132.8c-3.8-0.8-2.4-5.4-1.5-6.8c-1.3-0.2-1.7-2.1-0.7-3c-1.6,0-5.7-0.3-5.5-5.1
			c0.2-4.8,3.2-4.2,4.3-1.5c0.7-2.5,3.7-5.4,7.9-4.4c4.2,1.1,0.5,3.2,0.5,3.2s9.1-1.8,7.8,2.8c3.9,0.2,9.7,3.9,6.8,7
			c1.7,3.4,1.4,5.7-0.7,6.6c-0.7,4.1-5.1,11.8-8.3,11.8C345.9,143.6,338.2,139.9,338,132.8z"/>
		<path style="fill:#FF8B7B;" d="M341.2,131.4c-0.3,1.9-1.4,3.6-2.6,4.6c-1.8,1.6-3.3,0.3-3.4-1.9c0-2,0.8-5.1,2.9-5.9
			C340.2,127.6,341.6,129.3,341.2,131.4z"/>
		<path style="fill:#407BFF;" d="M338.2,221.9c0,0,8.3,56.1,12.9,77.2c5,23,30.5,84.7,30.5,84.7l12.8-4.1c0,0-18.4-55.6-21.3-78.4
			c-3.1-24.8-9.6-79.3-9.6-79.3H338.2z"/>
		<path style="fill:#263238;" d="M378.9,381c-0.1,0,2.9,4.5,2.9,4.5l14.4-4.7l-1.7-4.3L378.9,381z"/>
		<path style="opacity:0.3;" d="M343.5,241.9c9.6,1.9,8.6,37.8,7.5,56.3c-2.8-13.1-6.8-38.2-9.6-56.1
			C342,241.8,342.7,241.7,343.5,241.9z"/>
		<path style="fill:#407BFF;" d="M324.3,221.9c0,0-3.5,54.9-2.7,77.3c0.8,23.3,11.4,99.6,11.4,99.6h12.4c0,0-2-74.9-1.5-97.8
			c0.6-24.9,6.1-79.1,6.1-79.1H324.3z"/>
		<path style="fill:#263238;" d="M330.6,393.8c-0.1,0,0.7,5.2,0.7,5.2h15.1l0.4-4.6L330.6,393.8z"/>
	</g>
</g>
</svg>
