<svg xmlns="http://www.w3.org/2000/svg" width="29.182" height="29.183" viewBox="0 0 29.182 29.183">
  <g id="Group_20116" data-name="Group 20116" transform="translate(-768.074 -348.074)">
    <path id="Path_72393" data-name="Path 72393" d="M783.805,377.257h-2.28a3.5,3.5,0,0,0-.827-.128,14.644,14.644,0,0,1-12.466-12.3,3.9,3.9,0,0,0-.159-.964v-2.394c.071-.027.053-.091.059-.145.053-.5.124-1,.218-1.492a14.621,14.621,0,0,1,12.15-11.6,5.923,5.923,0,0,0,1.082-.159h2.223c.02.058.071.051.117.055a13.922,13.922,0,0,1,6.2,2A14.436,14.436,0,0,1,797.1,360.5a5.334,5.334,0,0,0,.16,1.021v2.337a2.229,2.229,0,0,0-.124.739A14.643,14.643,0,0,1,784.8,377.1,4.615,4.615,0,0,0,783.805,377.257Zm-.373-15.956c0-.2,0-.382,0-.566-.009-.394-.162-.548-.559-.551q-.983-.007-1.966,0c-.411,0-.569.162-.57.572q0,4.316,0,8.632c0,.411.161.571.568.573.617,0,1.234,0,1.852,0,.533,0,.659-.123.659-.646,0-1.453,0-2.906,0-4.359a2.889,2.889,0,0,1,.4-1.521,1.507,1.507,0,0,1,1.613-.714,1.357,1.357,0,0,1,1.165,1.028,4.327,4.327,0,0,1,.165,1.379q0,2.108,0,4.216c0,.475.139.616.6.617q.983,0,1.966,0c.428,0,.579-.152.579-.584q0-2.407,0-4.815a8.45,8.45,0,0,0-.174-1.754,3.172,3.172,0,0,0-1.767-2.464,3.905,3.905,0,0,0-4.442.922C783.512,361.277,783.492,361.279,783.432,361.3Zm-7.558,3.789q0,2.136,0,4.272c0,.431.172.6.607.6q.911,0,1.822,0c.485,0,.652-.165.652-.648q0-4.243,0-8.486c0-.47-.166-.641-.628-.643q-.911,0-1.823,0c-.473,0-.63.161-.631.635Q775.872,362.953,775.874,365.089Zm-.453-7.723a1.992,1.992,0,1,0,1.984-2A1.989,1.989,0,0,0,775.421,357.366Z" transform="translate(0 0)" fill="#0b69c6"/>
    <path id="Path_72398" data-name="Path 72398" d="M932.452,506.386c.06-.022.08-.023.09-.034a3.9,3.9,0,0,1,4.442-.922,3.172,3.172,0,0,1,1.767,2.464,8.458,8.458,0,0,1,.174,1.754q0,2.407,0,4.814c0,.432-.151.583-.579.584q-.983,0-1.966,0c-.464,0-.6-.142-.6-.617q0-2.108,0-4.216a4.322,4.322,0,0,0-.165-1.379,1.357,1.357,0,0,0-1.165-1.028,1.508,1.508,0,0,0-1.613.714,2.891,2.891,0,0,0-.4,1.521c-.006,1.453,0,2.906,0,4.359,0,.523-.126.646-.659.646-.617,0-1.234,0-1.852,0-.407,0-.568-.162-.568-.573q0-4.316,0-8.632c0-.411.159-.57.57-.572q.983-.006,1.966,0c.4,0,.55.157.559.551C932.456,506,932.452,506.188,932.452,506.386Z" transform="translate(-149.02 -145.085)" fill="#fdfdfe"/>
    <path id="Path_72399" data-name="Path 72399" d="M870.66,512.228q0-2.136,0-4.272c0-.474.158-.632.631-.635q.911,0,1.823,0c.462,0,.628.173.628.643q0,4.243,0,8.486c0,.483-.166.647-.652.648q-.911,0-1.822,0c-.435,0-.606-.169-.607-.6Q870.658,514.364,870.66,512.228Z" transform="translate(-94.787 -147.139)" fill="#fdfdfe"/>
    <path id="Path_72400" data-name="Path 72400" d="M864.708,446.037a1.992,1.992,0,1,1,1.991,1.99A1.986,1.986,0,0,1,864.708,446.037Z" transform="translate(-89.287 -88.671)" fill="#fcfdfe"/>
  </g>
</svg>
