<svg xmlns="http://www.w3.org/2000/svg" width="19.7" height="20.186" viewBox="0 0 19.7 20.186">
  <g id="Group_20114" data-name="Group 20114" transform="translate(-511.131 -81.703)">
    <path id="Path_72389" data-name="Path 72389" d="M511.166,101.889c-.035-.088.048-.121.087-.166q3.7-4.3,7.4-8.6a.269.269,0,0,0,.022-.4q-3.714-5.387-7.414-10.783c-.044-.064-.087-.13-.132-.2.04-.059.1-.03.143-.03,1.852,0,3.7,0,5.557,0a.267.267,0,0,1,.251.137q2.436,3.555,4.879,7.105c.036.053.075.1.125.176l.993-1.152q2.614-3.039,5.225-6.082a.474.474,0,0,1,.417-.185c.483.013.966,0,1.486,0l-1.252,1.457q-2.981,3.465-5.965,6.927a.23.23,0,0,0-.012.343q3.883,5.64,7.757,11.287c.036.053.089.1.1.167h-5.872a.63.63,0,0,0-.036-.068Q522.3,98,519.681,94.182c-.086-.126-.125-.093-.2,0q-1.975,2.3-3.954,4.6-1.334,1.553-2.663,3.109Zm17.281-1.254a.874.874,0,0,0-.041-.082q-6.086-8.708-12.171-17.418a.257.257,0,0,0-.242-.121c-.781,0-1.563,0-2.344,0-.047,0-.1-.027-.148.029.04.06.078.12.119.178l9.187,13.142q1.437,2.056,2.875,4.112c.045.065.069.157.182.156C526.716,100.634,527.568,100.635,528.447,100.635Z" fill="#020202"/>
    <path id="Path_72390" data-name="Path 72390" d="M589.835,653.614q1.331-1.555,2.663-3.109,1.976-2.3,3.954-4.6c.079-.092.118-.124.2,0q2.617,3.822,5.242,7.639a.631.631,0,0,1,.036.068Z" transform="translate(-76.975 -551.725)" fill="#fefefe"/>
    <path id="Path_72391" data-name="Path 72391" d="M633.913,158.884c-.879,0-1.731,0-2.583,0-.112,0-.136-.092-.182-.156q-1.44-2.054-2.875-4.112l-9.187-13.142c-.041-.059-.079-.119-.119-.178.045-.056.1-.029.148-.029.781,0,1.563,0,2.344,0a.257.257,0,0,1,.242.121q6.083,8.71,12.171,17.418A.856.856,0,0,1,633.913,158.884Z" transform="translate(-105.466 -58.249)" fill="#fdfdfd"/>
  </g>
</svg>
