<?xml version="1.0" encoding="utf-8"?>
<!-- Generator: Adobe Illustrator 29.1.0, SVG Export Plug-In . SVG Version: 9.03 Build 55587)  -->
<svg version="1.1" id="Layer_1" xmlns="http://www.w3.org/2000/svg" xmlns:xlink="http://www.w3.org/1999/xlink" x="0px" y="0px"
	 viewBox="0 0 576 576" style="enable-background:new 0 0 576 576;" xml:space="preserve">
<g>
	<linearGradient id="SVGID_1_" gradientUnits="userSpaceOnUse" x1="583.8606" y1="651.2496" x2="175.3128" y2="143.8588">
		<stop  offset="0" style="stop-color:#DAE3FE"/>
		<stop  offset="1" style="stop-color:#E9EFFD"/>
	</linearGradient>
	<path style="fill:url(#SVGID_1_);" d="M471.5,451.2c-9.4,9.9-18.3,16.3-25.3,21.3c-82.5,59.2-180,41.9-200.8,37.7
		c-30.6-6.2-89.8-18.2-132.6-68.6c-64.7-76.1-54.7-196.1-4.4-275.3c9.2-14.5,57.7-94.9,156.3-107.8c59.7-7.8,129.3,7.9,179.7,50.1
		C550.1,197.3,542.6,376.3,471.5,451.2z"/>
	<g>
		<path style="fill:#91B3FA;" d="M497.4,55.8c0.7-2-1.7-3.7-3.4-2.4c-17.5,13-60.4,53.1-59.8,131.7c0.8,98.6-23.5,131.8-51.2,150.6
			c0,0,35.8-6.2,61.7-39.8C508.3,213.5,485.7,92.1,497.4,55.8z"/>
		<path style="fill:#FFFFFF;" d="M482,84.8c-3.2,10.6-6.2,21.3-8.8,32c-2.7,10.7-5,21.6-7,32.4c-1.9,10.9-3.7,21.8-5,32.8
			c-1.3,11-2.2,22-3,33c-0.9,11-1.7,22.2-3.7,33.3c-2,11.1-5.3,22.1-10.5,32.1c-1.3,2.5-2.7,5-4.1,7.4c-1.4,2.4-3,4.8-4.6,7.1
			c-3.2,4.6-6.7,9.1-10.6,13.2c-7.7,8.3-16.6,15.4-26.3,21.2c-1,0.6-2.3,0.3-2.9-0.7c-0.6-1-0.3-2.3,0.7-2.9l0,0
			c2.3-1.5,4.6-3,6.8-4.6c1.1-0.8,2.2-1.6,3.3-2.4c1.1-0.8,2.2-1.7,3.2-2.5c4.2-3.4,8.2-7.2,11.8-11.2c7.3-8,13.5-17.1,18.5-26.7
			c2.4-4.8,4.5-9.8,6.2-15c1.7-5.2,3-10.4,4-15.8c2-10.7,2.9-21.8,3.9-32.8c1-11,2-22.1,3.5-33.2c0.7-5.5,1.6-11,2.5-16.5
			c0.5-2.7,1-5.5,1.5-8.2c0.5-2.7,1.1-5.5,1.6-8.2c2.3-10.9,4.9-21.7,7.8-32.4c3-10.7,6.3-21.3,10-31.8c0.1-0.3,0.4-0.5,0.7-0.4
			C481.9,84.2,482,84.5,482,84.8z"/>
	</g>
	<g>
		<g>
			<path style="fill:#BDD0FB;" d="M414.9,392.5c0.4,3.9,4.7,6.2,8.2,4.3c19.2-10.3,71-44.2,85.3-118.1
				c12.1-62.4,24.6-95.1,31.3-109.5c1.4-3.1-1.9-6.1-4.8-4.5C502.2,182.5,400.4,250.1,414.9,392.5z"/>
			<path style="fill:#FFFFFF;" d="M420.1,393.8c0.1,0.1,0.1,0.1,0.2,0.2c0.7,0.5,1.6,0.4,2.2-0.3c0.6-0.8,57.9-78.5,78.6-164.5
				c0.2-0.8-0.3-1.7-1.1-1.9c-0.8-0.2-1.7,0.3-1.9,1.1c-20.6,85.4-77.5,162.6-78.1,163.4C419.5,392.5,419.6,393.3,420.1,393.8z"/>
		</g>
	</g>
	<g>
		
			<linearGradient id="SVGID_00000098214975147123347410000007815875074909908628_" gradientUnits="userSpaceOnUse" x1="158.4081" y1="307.8524" x2="451.8636" y2="307.8524">
			<stop  offset="0" style="stop-color:#09005D"/>
			<stop  offset="1" style="stop-color:#1A0F91"/>
		</linearGradient>
		<path style="fill:url(#SVGID_00000098214975147123347410000007815875074909908628_);" d="M163.8,111.1
			c-1.7,69.8-7.3,310.6-4.7,396c0.3,9,7.5,16.3,16.6,16.6c44.7,1.5,173.4,5.2,246.5,2.1c15.2-0.6,27.3-13,27.7-28.2
			c1.5-73.3,4.9-279.4-3.1-373.8c-1-11.3-9.8-20.3-21.1-21.5c-48.7-4.9-178-16.8-241.2-12.7C173,90.3,164.1,99.7,163.8,111.1z"/>
		
			<linearGradient id="SVGID_00000116199405408409004330000017512719215856896956_" gradientUnits="userSpaceOnUse" x1="173.7811" y1="294.294" x2="436.4907" y2="294.294">
			<stop  offset="0" style="stop-color:#4F52FF"/>
			<stop  offset="1" style="stop-color:#4042E2"/>
		</linearGradient>
		<path style="fill:url(#SVGID_00000116199405408409004330000017512719215856896956_);" d="M182,132.8
			c-2.4,57.2-10.1,247.4-7.7,317.7c0.4,10.3,8.5,18.6,18.7,19.2c42.3,2.5,150.7,7.9,212.8,3c11.2-0.9,19.9-9.9,20.5-21.1
			c3.1-58.3,12.2-235.5,9.8-305c-0.4-11.1-9-20.2-20-21.2c-45.7-4.1-163.2-13.9-215.9-11C190.2,114.9,182.4,122.9,182,132.8z"/>
		<path style="opacity:0.5;fill:#FFFFFF;" d="M274.3,101.8L274.3,101.8c0,2.1,1.7,3.9,3.8,4c10.6,0.6,40.3,2.1,53.6,2.9
			c2.6,0.2,4.7-2.2,4.2-4.8l-0.1-0.4c-0.3-1.8-1.8-3.1-3.6-3.2c-9-0.8-36.1-3.1-54.1-2.5C276,97.8,274.3,99.6,274.3,101.8z"/>
	</g>
	<path style="fill:#91B3FA;" d="M397.4,318.5H207.3c-6.8,0-12.4-6.3-12.4-14.1V148c0-10.4,7.6-18.7,16.7-18.4l189.4,7.1
		c16.1,1.2,15.8,18.4,15.8,30.7l0,129.1C416.9,308.6,408.2,318.5,397.4,318.5z"/>
	<g style="opacity:0.86;">
		<path style="fill:#FFFFFF;" d="M398,193.3H283.3c-3.3,0-6.1-2.7-6.1-6.1v0c0-3.3,2.7-6.1,6.1-6.1H398c3.3,0,6.1,2.7,6.1,6.1v0
			C404.1,190.6,401.3,193.3,398,193.3z"/>
		<path style="fill:#FFFFFF;" d="M398,216H283.3c-3.3,0-6.1-2.7-6.1-6.1v0c0-3.3,2.7-6.1,6.1-6.1H398c3.3,0,6.1,2.7,6.1,6.1v0
			C404.1,213.3,401.3,216,398,216z"/>
	</g>
	<g style="opacity:0.86;">
		<path style="fill:#FFFFFF;" d="M397.4,267.4H282.8c-3.3,0-6.1-2.7-6.1-6.1l0,0c0-3.3,2.7-6.1,6.1-6.1h114.7c3.3,0,6.1,2.7,6.1,6.1
			l0,0C403.5,264.6,400.8,267.4,397.4,267.4z"/>
		<path style="fill:#FFFFFF;" d="M397.4,290.1H282.8c-3.3,0-6.1-2.7-6.1-6.1v0c0-3.3,2.7-6.1,6.1-6.1h114.7c3.3,0,6.1,2.7,6.1,6.1
			l0,0C403.5,287.4,400.8,290.1,397.4,290.1z"/>
	</g>
	<path style="opacity:0.86;fill:#FFFFFF;" d="M349.2,158.2H272c-3.3,0-6.1-2.7-6.1-6.1v0c0-3.3,2.7-6.1,6.1-6.1h77.2
		c3.3,0,6.1,2.7,6.1,6.1v0C355.3,155.4,352.6,158.2,349.2,158.2z"/>
	<g>
		<path style="opacity:0.7;fill:#FFFFFF;" d="M244.1,231.3h-8c-15.7,0-28.5-12.8-28.5-28.5v-8c0-15.7,12.8-28.5,28.5-28.5h8
			c15.7,0,28.5,12.8,28.5,28.5v8C272.7,218.5,259.9,231.3,244.1,231.3z"/>
		<g>
			
				<linearGradient id="SVGID_00000103240361767141081580000016340643726111949446_" gradientUnits="userSpaceOnUse" x1="233.8117" y1="137.854" x2="244.2631" y2="255.7221">
				<stop  offset="0" style="stop-color:#FF928E"/>
				<stop  offset="1" style="stop-color:#FE7062"/>
			</linearGradient>
			<path style="fill:url(#SVGID_00000103240361767141081580000016340643726111949446_);" d="M223.9,189.1
				c2.5,17.8,11.6,26.2,23.9,30l7.1-5.7c-13-5.2-22.1-14.6-25.9-29.4L223.9,189.1z"/>
			
				<linearGradient id="SVGID_00000111877857556381088760000010912727411851950995_" gradientUnits="userSpaceOnUse" x1="247.8087" y1="136.613" x2="258.2602" y2="254.481">
				<stop  offset="0" style="stop-color:#FF928E"/>
				<stop  offset="1" style="stop-color:#FE7062"/>
			</linearGradient>
			<path style="fill:url(#SVGID_00000111877857556381088760000010912727411851950995_);" d="M247.4,218.9c7.5,1.2,8.4,1.3,14.5-2.8
				c0.7-0.5,0.8-1.5,0.1-2l-10.8-9.2c-0.4-0.4-1.1-0.2-1.3,0.3l-1.8,3.9L247.4,218.9z"/>
			
				<linearGradient id="SVGID_00000138538607212094437660000004142978383688168587_" gradientUnits="userSpaceOnUse" x1="226.4336" y1="138.5083" x2="236.885" y2="256.3764">
				<stop  offset="0" style="stop-color:#FF928E"/>
				<stop  offset="1" style="stop-color:#FE7062"/>
			</linearGradient>
			<path style="fill:url(#SVGID_00000138538607212094437660000004142978383688168587_);" d="M223.7,189.6c-0.7-6.9-0.6-7.9,3.6-13.6
				c0.5-0.7,1.5-0.7,2,0l8.7,11.3c0.3,0.4,0.2,1.1-0.4,1.3l-4,1.6l-9,0.2C224.1,190.3,223.7,190,223.7,189.6z"/>
		</g>
	</g>
	<g>
		<path style="opacity:0.7;fill:#FFFFFF;" d="M243.3,303.7h-10.3c-15.7,0-28.5-12.8-28.5-28.5v-10.3c0-15.7,12.8-28.5,28.5-28.5
			h10.3c15.7,0,28.5,12.8,28.5,28.5v10.3C271.8,290.9,259,303.7,243.3,303.7z"/>
		<g>
			<g>
				<g>
					
						<linearGradient id="SVGID_00000093858611621739569080000016258799607911698366_" gradientUnits="userSpaceOnUse" x1="236.5642" y1="303.4171" x2="238.8772" y2="248.2926">
						<stop  offset="0" style="stop-color:#FF928E"/>
						<stop  offset="1" style="stop-color:#FE7062"/>
					</linearGradient>
					<circle style="fill:url(#SVGID_00000093858611621739569080000016258799607911698366_);" cx="238.4" cy="260.5" r="17.9"/>
					
						<linearGradient id="SVGID_00000135688201295156877060000003200671862690383775_" gradientUnits="userSpaceOnUse" x1="236.5401" y1="303.4161" x2="238.853" y2="248.2917">
						<stop  offset="0" style="stop-color:#FF928E"/>
						<stop  offset="1" style="stop-color:#FE7062"/>
					</linearGradient>
					<path style="fill:url(#SVGID_00000135688201295156877060000003200671862690383775_);" d="M256.2,259.5h-17.9h-17.9
						c0,0-1.4,9.9,14.6,37.2c0.7,1.2,2,1.9,3.4,1.9c1.4,0,2.7-0.7,3.4-1.9C257.7,269.5,256.2,259.5,256.2,259.5z"/>
				</g>
				<g>
					
						<linearGradient id="SVGID_00000041976153936052551930000004691614993736535979_" gradientUnits="userSpaceOnUse" x1="231.6497" y1="236.722" x2="250.4574" y2="304.1609">
						<stop  offset="0" style="stop-color:#FF928E"/>
						<stop  offset="1" style="stop-color:#FE7062"/>
					</linearGradient>
					<path style="fill:url(#SVGID_00000041976153936052551930000004691614993736535979_);" d="M238.4,299.2v0.1h0
						c-1.6,0-3-0.9-3.8-2.2c-9.3-15.9-12.8-26-14-31.6c-0.3-1.3-0.6-2.6-0.6-3.9c-0.1-1.3,0-1.9,0-2l0-0.3
						c0.7-9.6,8.7-17.1,18.4-17.1c9.8,0,17.9,7.6,18.4,17.3c0,0.1,0,0.4,0,1l0,0.1c0,1.8-0.2,3.5-0.7,5.2
						c-1.3,5.6-4.7,15.6-13.9,31.3C241.4,298.4,240,299.2,238.4,299.2z M220.9,260.4c0,0.3,0,0.7,0.1,1.2l0,0
						c0.1,1.2,0.3,2.4,0.6,3.7l0,0c1.2,5.6,4.6,15.5,13.9,31.3c0.6,1,1.7,1.6,2.9,1.7l0,0.5v-0.5c1.1,0,2.3-0.6,2.9-1.7
						c9.1-15.6,12.5-25.4,13.8-31l0,0c0.5-1.6,0.6-3.2,0.6-4.9l-0.1-0.1v0c0-0.5,0.1-0.8,0.1-0.9l0,0c-0.5-9.2-8.1-16.3-17.3-16.3
						c-9.2,0-16.8,7.3-17.4,16.5L220.9,260.4L220.9,260.4z"/>
				</g>
				
					<ellipse transform="matrix(0.9871 -0.1602 0.1602 0.9871 -38.6411 41.554)" style="opacity:0.8;fill:#FFFFFF;" cx="238.4" cy="260.5" rx="10.3" ry="10.3"/>
				<g>
					
						<linearGradient id="SVGID_00000131326392568867857740000013857673236117004720_" gradientUnits="userSpaceOnUse" x1="253.0578" y1="244.6495" x2="315.8921" y2="176.8039">
						<stop  offset="0" style="stop-color:#FEBBBA"/>
						<stop  offset="1" style="stop-color:#FF928E"/>
					</linearGradient>
					<path style="fill:url(#SVGID_00000131326392568867857740000013857673236117004720_);" d="M238.4,271.4c-6,0-10.9-4.9-10.9-10.9
						c0-6,4.9-10.9,10.9-10.9c6,0,10.9,4.9,10.9,10.9C249.3,266.5,244.4,271.4,238.4,271.4z M238.4,250.7c-5.4,0-9.8,4.4-9.8,9.8
						c0,5.4,4.4,9.8,9.8,9.8c5.4,0,9.8-4.4,9.8-9.8C248.2,255.1,243.8,250.7,238.4,250.7z"/>
				</g>
			</g>
			<g>
				<path style="opacity:0.8;fill:#FFFFFF;" d="M228.6,249.7c0,0-0.1,0-0.1-0.1c-0.1-0.1-0.1-0.2,0-0.2c2.9-2.5,6.6-3.9,10.5-3.9
					c0.1,0,0.2,0.1,0.2,0.2c0,0.1-0.1,0.2-0.2,0.2c-3.8,0-7.4,1.3-10.2,3.8C228.7,249.7,228.6,249.7,228.6,249.7z"/>
			</g>
			<g>
				<path style="opacity:0.8;fill:#FFFFFF;" d="M223.1,261.7c-0.1,0-0.2-0.1-0.2-0.2c0-3,0.8-5.9,2.4-8.5c0.1-0.1,0.2-0.1,0.2-0.1
					c0.1,0.1,0.1,0.2,0.1,0.2c-1.5,2.5-2.3,5.3-2.3,8.3C223.2,261.7,223.2,261.7,223.1,261.7z"/>
			</g>
		</g>
	</g>
	<g>
		
			<linearGradient id="SVGID_00000171691412039343212980000006354042164527447726_" gradientUnits="userSpaceOnUse" x1="13427.7803" y1="429.4668" x2="13322.4619" y2="544.0237" gradientTransform="matrix(1 9.500000e-03 -9.500000e-03 1 -13262.1533 -48.5882)">
			<stop  offset="0" style="stop-color:#09005D"/>
			<stop  offset="1" style="stop-color:#1A0F91"/>
		</linearGradient>
		<path style="fill:url(#SVGID_00000171691412039343212980000006354042164527447726_);" d="M128.2,516.7c0,0-1.1,6.2-1.7,12.3
			c-0.2,2.4,1.6,4.5,4,4.6c8.1,0.4,25.5,1.2,31.8,1c0.9,0,1.6-1,1.2-1.9c-0.3-0.7-0.8-1.3-1.6-1.7l-28.6-13.5L128.2,516.7z"/>
		
			<linearGradient id="SVGID_00000094604159583976508810000005883924387375079095_" gradientUnits="userSpaceOnUse" x1="13393.5957" y1="437.974" x2="13402.9502" y2="437.974" gradientTransform="matrix(1 9.500000e-03 -9.500000e-03 1 -13262.1533 -48.5882)">
			<stop  offset="0" style="stop-color:#FEBBBA"/>
			<stop  offset="1" style="stop-color:#FF928E"/>
		</linearGradient>
		<path style="fill:url(#SVGID_00000094604159583976508810000005883924387375079095_);" d="M127.3,513l0.8,7.4c0,0,5,2.4,8.5-0.2
			l-2-8.3L127.3,513z"/>
		
			<linearGradient id="SVGID_00000109719944986179233070000015994162911613302957_" gradientUnits="userSpaceOnUse" x1="78.0427" y1="577.4584" x2="148.0617" y2="365.7541">
			<stop  offset="0" style="stop-color:#09005D"/>
			<stop  offset="1" style="stop-color:#1A0F91"/>
		</linearGradient>
		<path style="fill:url(#SVGID_00000109719944986179233070000015994162911613302957_);" d="M129.3,374.2c-0.4,1.9-3,96.2,6.7,138.6
			c0.2,0.7-0.2,1.4-0.9,1.7c-1.6,0.6-4.6,1.5-8.2,1.6c-1.1,0-2.1-0.7-2.4-1.8c-2.8-9.8-16.1-59.1-17.5-106.1c-1.5-52.5,0-1.8,0-1.8
			l1.5-32.4L129.3,374.2z"/>
		
			<linearGradient id="SVGID_00000057118154486109501170000017964856573977765560_" gradientUnits="userSpaceOnUse" x1="13404.1543" y1="407.7419" x2="13298.8311" y2="522.3037" gradientTransform="matrix(1 9.500000e-03 -9.500000e-03 1 -13262.1533 -48.5882)">
			<stop  offset="0" style="stop-color:#09005D"/>
			<stop  offset="1" style="stop-color:#1A0F91"/>
		</linearGradient>
		<path style="fill:url(#SVGID_00000057118154486109501170000017964856573977765560_);" d="M95.1,519.6c0,0-1.8,3.1-3.5,11.4
			c-0.3,1.5,0.7,2.9,2.2,3.1c2.7,0.3,6.8,0.7,10.1,0.7c1.5,0,2.7-1.3,2.6-2.8c-0.3-3-1.4-8-4.9-11.9L95.1,519.6z"/>
		
			<linearGradient id="SVGID_00000068652598436244037240000007480638124055314052_" gradientUnits="userSpaceOnUse" x1="13359.8799" y1="437.4929" x2="13367.9561" y2="437.4929" gradientTransform="matrix(1 9.500000e-03 -9.500000e-03 1 -13262.1533 -48.5882)">
			<stop  offset="0" style="stop-color:#FEBBBA"/>
			<stop  offset="1" style="stop-color:#FF928E"/>
		</linearGradient>
		<path style="fill:url(#SVGID_00000068652598436244037240000007480638124055314052_);" d="M93.6,510l1.9,11.2c0,0,2,1.5,6,0.5
			l-0.9-12L93.6,510z"/>
		
			<linearGradient id="SVGID_00000064313119998470560650000001982591090353495709_" gradientUnits="userSpaceOnUse" x1="54.9803" y1="569.8307" x2="124.9994" y2="358.1262">
			<stop  offset="0" style="stop-color:#09005D"/>
			<stop  offset="1" style="stop-color:#1A0F91"/>
		</linearGradient>
		<path style="fill:url(#SVGID_00000064313119998470560650000001982591090353495709_);" d="M89.4,376.7c-8.7,49.7,0.6,123,3.9,137.4
			c0.2,0.9,0.9,1.6,1.8,1.7c1.5,0.3,4,0.5,6.5-0.2c0.8-0.2,1.4-1,1.5-1.9c0.6-11.6,0.4-82.7,8.4-110.8c0.4-1.4,1.3-2.7,2.5-3.5
			l15-10.5l1.3-17.1L89.4,376.7z"/>
		<g>
			
				<linearGradient id="SVGID_00000069373228170119822500000011907265685995317151_" gradientUnits="userSpaceOnUse" x1="-2380.739" y1="-1923.2697" x2="-2469.2039" y2="-1797.511" gradientTransform="matrix(-1 0 0 1 -3837.6558 0)">
				<stop  offset="0" style="stop-color:#FF928E"/>
				<stop  offset="1" style="stop-color:#FE7062"/>
			</linearGradient>
			<path style="fill:url(#SVGID_00000069373228170119822500000011907265685995317151_);" d="M142.8,282.9c-24.7-0.6-52,6-52,6
				c-7.8,42.9-2.2,92.5-2.2,92.5c19.1,5.2,40.7-2.7,40.7-2.7c3.4-17.9,18.7-68.4,18.7-68.4c12.1-1.4,22.1-4.8,30.3-9.3
				c-6.2-7.3-9-16.5-10.3-22C159.3,281.7,150.4,283.1,142.8,282.9z"/>
			
				<linearGradient id="SVGID_00000021111022859881471640000013521200930022750398_" gradientUnits="userSpaceOnUse" x1="13432.1025" y1="193.9091" x2="13479.8975" y2="193.9091" gradientTransform="matrix(1 9.500000e-03 -9.500000e-03 1 -13262.1533 -48.5882)">
				<stop  offset="0" style="stop-color:#FEBBBA"/>
				<stop  offset="1" style="stop-color:#FF928E"/>
			</linearGradient>
			<path style="fill:url(#SVGID_00000021111022859881471640000013521200930022750398_);" d="M216.2,247.2c-2.4-3-5.5-1.6-5.5-1.6
				c-3.8,15.3-23,27.6-42.6,33.5c1.2,5.5,4.1,14.7,10.3,22C211,283.1,216.2,247.2,216.2,247.2z"/>
		</g>
		<g>
			
				<linearGradient id="SVGID_00000176012788854537077960000000223117987779084727_" gradientUnits="userSpaceOnUse" x1="230.8778" y1="184.1106" x2="211.6559" y2="262.0966">
				<stop  offset="0" style="stop-color:#FEBBBA"/>
				<stop  offset="1" style="stop-color:#FF928E"/>
			</linearGradient>
			<path style="fill:url(#SVGID_00000176012788854537077960000000223117987779084727_);" d="M215.6,247.9c0.2,0.8-2.7,2-4.4-1.3
				c0-1.6-0.9-8.4,0-9.7c5.1-6.8,15-15.3,15-15.3c1.6,1.6,0.3,3.2,0.3,3.2l-4.8,4.9c1,1.8,2.2,3.3,2.7,5.5c0.4,1.6,0.1,3.4-0.7,4.9
				c-0.8,1.5-2,3.4-3.1,4.9C218.4,247.9,215.6,247.9,215.6,247.9z"/>
			
				<linearGradient id="SVGID_00000026126063872271438610000000556707947257916306_" gradientUnits="userSpaceOnUse" x1="221.3356" y1="208.9337" x2="208.1549" y2="296.8051">
				<stop  offset="0" style="stop-color:#FEBBBA"/>
				<stop  offset="1" style="stop-color:#FF928E"/>
			</linearGradient>
			<path style="fill:url(#SVGID_00000026126063872271438610000000556707947257916306_);" d="M219.5,232.9l-4.4,3.6l-1.4,3.6l3.8,4.3
				c0,0,1.4-7.2,2.3-8.8C220.9,234.2,220.4,233.4,219.5,232.9z"/>
		</g>
		
			<linearGradient id="SVGID_00000065056200285903460590000006552385584412547248_" gradientUnits="userSpaceOnUse" x1="-2357.6743" y1="-1907.046" x2="-2446.1389" y2="-1781.2874" gradientTransform="matrix(-1 0 0 1 -3837.6558 0)">
			<stop  offset="0" style="stop-color:#FF928E"/>
			<stop  offset="1" style="stop-color:#FE7062"/>
		</linearGradient>
		<path style="fill:url(#SVGID_00000065056200285903460590000006552385584412547248_);" d="M100,312.9l-9.3-24
			c0,0-23.2,15.5-27.2,35.3c4.4,0.4,12.3,1.6,20,5.6C85.4,320.4,100,312.9,100,312.9z"/>
		
			<linearGradient id="SVGID_00000118354804349230523090000006441844149952003002_" gradientUnits="userSpaceOnUse" x1="13327.5156" y1="261.6038" x2="13388" y2="261.6038" gradientTransform="matrix(1 9.500000e-03 -9.500000e-03 1 -13262.1533 -48.5882)">
			<stop  offset="0" style="stop-color:#FEBBBA"/>
			<stop  offset="1" style="stop-color:#FF928E"/>
		</linearGradient>
		<path style="fill:url(#SVGID_00000118354804349230523090000006441844149952003002_);" d="M120,335.6c0,0-26.1,14.4-34.7,1.8
			c-1.8-2.6-2.2-5.2-1.7-7.7c-7.7-4-15.7-5.2-20-5.6c-1.2,6-0.7,12.4,2.8,18.8c15,28.2,57-1,57-1L120,335.6z"/>
		
			<linearGradient id="SVGID_00000127020110817511502420000007711786587086621105_" gradientUnits="userSpaceOnUse" x1="13373.9609" y1="196.9441" x2="13397.876" y2="196.9441" gradientTransform="matrix(1 9.500000e-03 -9.500000e-03 1 -13262.1533 -48.5882)">
			<stop  offset="0" style="stop-color:#FEBBBA"/>
			<stop  offset="1" style="stop-color:#FF928E"/>
		</linearGradient>
		<path style="fill:url(#SVGID_00000127020110817511502420000007711786587086621105_);" d="M118,262.6l-8.1,22.7
			c-0.1,0.4,0,0.8,0.4,1c2.1,1.2,9.8,4.7,19.2-1.1c1-0.6,1.6-1.6,1.8-2.7l2.7-19.7L118,262.6z"/>
		<g>
			
				<linearGradient id="SVGID_00000036950406387520164380000016193056559114842297_" gradientUnits="userSpaceOnUse" x1="4078.2075" y1="6893.3184" x2="4069.2712" y2="6863.8442" gradientTransform="matrix(0.7523 -0.6588 0.6588 0.7523 -7469.6704 -2238.6438)">
				<stop  offset="0" style="stop-color:#FEBBBA"/>
				<stop  offset="1" style="stop-color:#FF928E"/>
			</linearGradient>
			<path style="fill:url(#SVGID_00000036950406387520164380000016193056559114842297_);" d="M135.3,241.7c0,0,8.5,16.3,7.3,22.9
				c-1.2,6.6-11.9,6-21.2,0.6l-6.4-17.6L135.3,241.7z"/>
			
				<linearGradient id="SVGID_00000018229771872954569050000010476970856472765103_" gradientUnits="userSpaceOnUse" x1="4070.1458" y1="6841.9639" x2="4077.6208" y2="6884.5996" gradientTransform="matrix(0.7523 -0.6588 0.6588 0.7523 -7469.6704 -2238.6438)">
				<stop  offset="0" style="stop-color:#09005D"/>
				<stop  offset="1" style="stop-color:#1A0F91"/>
			</linearGradient>
			<path style="fill:url(#SVGID_00000018229771872954569050000010476970856472765103_);" d="M121.9,256.5c0.4-0.2,0.5-0.6,0.3-1
				c-0.7-1.1-2-3.2-2.4-5.1c0,0-1.5-1,4-2.3c5.5-1.3,13.7-3.2,15.5-7.9c1.7-4.6-2.6-16.1-9.7-7c-0.3,0.3-0.8,0.3-1.1,0
				c-1.1-1.5-4.1-4.7-8.4-2.8c-4,1.7-4.4,4.6-4.4,6.1c0,0.4-0.4,0.8-0.8,0.7c-2-0.4-6.8-0.8-9.1,4.1c-1.9,4-0.7,6.3,0.4,7.5
				c0.3,0.4,0.2,1-0.3,1.1c-1.3,0.4-3,1.5-2.9,4.6c0.2,4.3,4.9,3.9,6.3,3.7c0.2,0,0.4,0,0.6,0.2c1.1,1.3,6.3,6.8,12,7.5
				c0.5,0.1,0.9-0.4,0.7-0.9l-2.4-7.1c-0.1-0.3,0.1-0.7,0.4-0.8L121.9,256.5z"/>
			
				<linearGradient id="SVGID_00000111880812479558525990000008187797988364436412_" gradientUnits="userSpaceOnUse" x1="4069.0725" y1="6893.1812" x2="4061.0322" y2="6866.6621" gradientTransform="matrix(0.7523 -0.6588 0.6588 0.7523 -7469.6704 -2238.6438)">
				<stop  offset="0" style="stop-color:#FEBBBA"/>
				<stop  offset="1" style="stop-color:#FF928E"/>
			</linearGradient>
			<path style="fill:url(#SVGID_00000111880812479558525990000008187797988364436412_);" d="M122.9,257.5c0,0-6.1-4.3-6.6-0.7
				c-0.5,3.5,5.5,5.2,8.5,3.9L122.9,257.5z"/>
		</g>
		<g>
			<g>
				
					<linearGradient id="SVGID_00000116215560329247748290000002488993063430132903_" gradientUnits="userSpaceOnUse" x1="13118.5576" y1="301.1954" x2="13151.9326" y2="440.2576" gradientTransform="matrix(1 0 0 1 -12978.9785 0)">
					<stop  offset="0" style="stop-color:#09005D"/>
					<stop  offset="1" style="stop-color:#1A0F91"/>
				</linearGradient>
				<path style="fill:url(#SVGID_00000116215560329247748290000002488993063430132903_);" d="M114.6,358.4l14.2-49.6
					c0.2-0.6,0.6-1,1.2-1c2.6-0.3,10-1.1,18.6-1.9c10.4-0.9,22.4-1.6,29.6-1c1,0.1,1.6,1.2,1.2,2.1c-4.1,8.3-20.9,41.9-29.3,53
					c-0.3,0.4-0.7,0.6-1.2,0.6l-32.9-0.3C115.1,360.2,114.4,359.3,114.6,358.4z"/>
				
					<linearGradient id="SVGID_00000083049569114684572910000003296638371594909571_" gradientUnits="userSpaceOnUse" x1="13095.6885" y1="337.9847" x2="13114.5977" y2="337.9847" gradientTransform="matrix(1 0 0 1 -12978.9785 0)">
					<stop  offset="0" style="stop-color:#FEBBBA"/>
					<stop  offset="1" style="stop-color:#FF928E"/>
				</linearGradient>
				<path style="fill:url(#SVGID_00000083049569114684572910000003296638371594909571_);" d="M118.1,346.4c0,0-2-8.1-1.2-11
					c0.8-2.9,2.3-6.6,7.5-5.8c5.2,0.8,11.2,3,11.2,3s-0.3,3.8-4.2,2.5l2.4,1.9c0,0-0.3,3-3.7,1.4l2.3,2.5c0,0-1.4,2.5-3.9,0.9
					C126.1,340.2,125,347.4,118.1,346.4z"/>
			</g>
		</g>
	</g>
	<path style="fill:#91B3FA;" d="M386.5,462.2l-178.3-5.6c-7.4-0.2-13.2-6.2-13.2-13.5v-94.8c0-8.6,7-15.5,15.7-15.5H401
		c6.8,0,12.2,5.6,11.9,12.3l-3.6,96C408.9,453.1,398.7,462.6,386.5,462.2z"/>
	<g>
		<g>
			
				<linearGradient id="SVGID_00000069388649551150518830000000581553003514190007_" gradientUnits="userSpaceOnUse" x1="274.3639" y1="482.8105" x2="307.3213" y2="389.142">
				<stop  offset="0" style="stop-color:#FF928E"/>
				<stop  offset="1" style="stop-color:#FE7062"/>
			</linearGradient>
			<path style="fill:url(#SVGID_00000069388649551150518830000000581553003514190007_);" d="M365.7,443.6H242.3c-5,0-9-3.7-9-8.3
				v-73.5c0-4.4,3.7-8,8.5-8.2l128.2-6.5c5.4-0.3,9.8,3.8,9.5,8.7l-4.8,80.1C374.5,440.2,370.5,443.6,365.7,443.6z"/>
			<g>
				
					<linearGradient id="SVGID_00000097484327592738743000000001308703863470350990_" gradientUnits="userSpaceOnUse" x1="298.6936" y1="396.487" x2="321.2435" y2="242.1074">
					<stop  offset="0" style="stop-color:#FF928E"/>
					<stop  offset="1" style="stop-color:#FE7062"/>
				</linearGradient>
				<path style="fill:url(#SVGID_00000097484327592738743000000001308703863470350990_);" d="M306.9,399.3l67.5-51.4
					c-1.3-0.6-2.8-0.9-4.4-0.8l-128.2,6.5c-2.2,0.1-4.2,0.9-5.7,2.2l50.5,43C292.1,403.5,301.1,403.7,306.9,399.3z"/>
			</g>
		</g>
		<path style="fill:#FFFFFF;" d="M297.5,396.7c-3.4,0-6.7-1.1-9.4-3.3l-19-15.4c-0.6-0.5-0.6-1.2-0.1-1.7c0.5-0.5,1.3-0.6,1.9-0.1
			l19,15.4c4,3.3,9.9,3.5,14.3,0.7l9.9-6.5c0.6-0.4,1.4-0.3,1.9,0.3c0.4,0.6,0.3,1.3-0.3,1.7l-9.9,6.5
			C303.3,395.9,300.4,396.7,297.5,396.7z"/>
		<path style="fill:#FFFFFF;" d="M262.9,372.7c-0.3,0-0.6-0.1-0.9-0.3l-2.6-2.1c-0.6-0.5-0.6-1.2-0.1-1.7c0.5-0.5,1.3-0.6,1.9-0.1
			l2.6,2.1c0.6,0.5,0.6,1.2,0.1,1.7C263.6,372.5,263.3,372.7,262.9,372.7z"/>
	</g>
</g>
</svg>
