<svg xmlns="http://www.w3.org/2000/svg" width="72" height="72" viewBox="0 0 72 72">
  <g id="Group_20156" data-name="Group 20156" transform="translate(-925 -318)">
    <circle id="Ellipse_387" data-name="Ellipse 387" cx="36" cy="36" r="36" transform="translate(925 318)" fill="#c90000" opacity="0.21"/>
    <g id="Group_20155" data-name="Group 20155">
      <path id="Path_72364" data-name="Path 72364" d="M833.4,495.826a1.272,1.272,0,0,1-.9-1.1c-.038-.479-.069-.959-.1-1.439q-.358-5.289-.715-10.578-.164-2.411-.336-4.822c-.011-.149.028-.194.167-.178a1.145,1.145,0,0,0,.133,0q8.857,0,17.715-.007c.262,0,.319.059.3.319-.165,2.112-.315,4.225-.469,6.338q-.171,2.344-.34,4.688c-.14,1.909-.278,3.818-.424,5.726a1.2,1.2,0,0,1-.912,1.052Zm9.084-9.488q0,2.684,0,5.367a.772.772,0,0,0,.966.8.811.811,0,0,0,.577-.883q0-5.274,0-10.547a1.428,1.428,0,0,0-.006-.187.772.772,0,0,0-1.537.131Q842.484,483.682,842.487,486.338Zm-5.5,0v3.391c0,.668-.006,1.335,0,2a.77.77,0,0,0,.969.776.8.8,0,0,0,.574-.856q0-5.3,0-10.6a1.306,1.306,0,0,0,0-.16.774.774,0,0,0-1.54.161Q836.982,483.7,836.984,486.339Z" transform="translate(120.488 -125.147)" fill="#fb0005"/>
      <path id="Path_72365" data-name="Path 72365" d="M904.548,348.06a.861.861,0,0,1,.6.942c-.022.5-.01,1,0,1.494,0,.144-.031.2-.188.2q-4.364-.007-8.729,0c-.158,0-.19-.056-.188-.2.007-.5.021-1,0-1.494a.862.862,0,0,1,.6-.942Z" transform="translate(60.408 -4.744)" fill="#fb0005"/>
      <path id="Path_72366" data-name="Path 72366" d="M817.166,410.158c-3.544,0-7.089,0-10.633.008-.282,0-.339-.081-.324-.339.033-.568-.049-1.142.04-1.706a1.744,1.744,0,0,1,1.7-1.488c.08,0,.16,0,.24,0h17.954a1.8,1.8,0,0,1,1.976,1.966c0,.427-.018.856.007,1.282.015.251-.076.284-.3.284Q822.5,410.153,817.166,410.158Z" transform="translate(143.834 -59.139)" fill="#fb0106"/>
    </g>
  </g>
</svg>
