<svg xmlns="http://www.w3.org/2000/svg" width="25.237" height="31.684" viewBox="0 0 25.237 31.684">
  <g id="Group_871" data-name="Group 871" transform="translate(-4.567 -3.861)">
    <g id="Group_847" data-name="Group 847" transform="translate(4.567 1.75)">
      <g id="Group_108" data-name="Group 108" transform="translate(1.229 16.571)">
        <g id="Group_103" data-name="Group 103" transform="translate(0 7.776)">
          <path id="Path_110" data-name="Path 110" d="M5.9,28.049l.028.686,9.2,5.349L15.1,33.4Z" transform="translate(-5.895 -28.049)" fill="#eff0f2"/>
        </g>
        <g id="Group_104" data-name="Group 104" transform="translate(9.205 5.349)">
          <path id="Path_111" data-name="Path 111" d="M15.838,33.2l.028.686L29.334,26.11l-.028-.686Z" transform="translate(-15.838 -25.428)" fill="#a6b1bb"/>
        </g>
        <g id="Group_105" data-name="Group 105">
          <path id="Path_112" data-name="Path 112" d="M5.9,27.426l9.2,5.349L28.567,25l-9.2-5.349Z" transform="translate(-5.895 -19.65)" fill="#dedde5"/>
        </g>
        <g id="Group_106" data-name="Group 106" transform="translate(0.604 0.403)">
          <path id="Path_113" data-name="Path 113" d="M6.548,27.458l.5.289,8.1,4.657L27.51,25.32l.5-.288-8.6-4.946Z" transform="translate(-6.548 -20.086)" fill="#99a4ac"/>
        </g>
        <g id="Group_107" data-name="Group 107" transform="translate(1.107 0.98)">
          <path id="Path_114" data-name="Path 114" d="M7.09,27.793l8.1,4.657,12.36-7.084-8.1-4.657Z" transform="translate(-7.09 -20.709)" fill="#2f373c"/>
        </g>
      </g>
      <g id="Group_351" data-name="Group 351" transform="translate(0.948 9.822)">
        <g id="Group_346" data-name="Group 346" transform="translate(0 7.959)">
          <path id="Path_307" data-name="Path 307" d="M5.591,20.958l.029.7,9.422,5.475-.029-.7Z" transform="translate(-5.591 -20.958)" fill="#eff0f2"/>
        </g>
        <g id="Group_347" data-name="Group 347" transform="translate(9.422 5.475)">
          <path id="Path_308" data-name="Path 308" d="M15.769,26.234l.029.7,13.786-7.959-.029-.7Z" transform="translate(-15.769 -18.275)" fill="#a6b1bb"/>
        </g>
        <g id="Group_348" data-name="Group 348">
          <path id="Path_309" data-name="Path 309" d="M5.591,20.319l9.422,5.475L28.8,17.836,19.377,12.36Z" transform="translate(-5.591 -12.36)" fill="#dedde5"/>
        </g>
        <g id="Group_349" data-name="Group 349" transform="translate(0.619 0.413)">
          <path id="Path_310" data-name="Path 310" d="M6.259,20.352l.514.3,8.289,4.767,12.654-7.252.514-.3-8.8-5.063Z" transform="translate(-6.259 -12.806)" fill="#99a4ac"/>
        </g>
        <g id="Group_350" data-name="Group 350" transform="translate(1.133 1.003)">
          <path id="Path_311" data-name="Path 311" d="M6.815,20.7,15.1,25.463l12.654-7.252-8.29-4.767Z" transform="translate(-6.815 -13.444)" fill="#2f373c"/>
        </g>
      </g>
      <g id="Group_356" data-name="Group 356" transform="translate(0.076 10.307)">
        <g id="Group_355" data-name="Group 355">
          <g id="Group_352" data-name="Group 352" transform="translate(0 0.558)">
            <path id="Path_312" data-name="Path 312" d="M5.467,13.942l-.817-.456.039,16.388.817.543Z" transform="translate(-4.649 -13.486)" fill="#21292d"/>
          </g>
          <g id="Group_353" data-name="Group 353">
            <path id="Path_313" data-name="Path 313" d="M6.278,13.339l-.817-.456-.811.558.817.456Z" transform="translate(-4.649 -12.883)" fill="#4a494a"/>
          </g>
          <g id="Group_354" data-name="Group 354" transform="translate(0.817 0.456)">
            <path id="Path_314" data-name="Path 314" d="M5.532,13.934l.039,16.475.811-.558L6.344,13.376Z" transform="translate(-5.532 -13.376)" fill="#181b1d"/>
          </g>
        </g>
      </g>
      <g id="Group_361" data-name="Group 361" transform="translate(23.57 7.892)">
        <g id="Group_360" data-name="Group 360">
          <g id="Group_357" data-name="Group 357" transform="translate(0 0.558)">
            <path id="Path_315" data-name="Path 315" d="M30.845,11.333l-.817-.456.039,16.389.817.543Z" transform="translate(-30.027 -10.877)" fill="#21292d"/>
          </g>
          <g id="Group_358" data-name="Group 358">
            <path id="Path_316" data-name="Path 316" d="M31.656,10.731l-.817-.456-.811.558.817.456Z" transform="translate(-30.027 -10.275)" fill="#4a494a"/>
          </g>
          <g id="Group_359" data-name="Group 359" transform="translate(0.817 0.456)">
            <path id="Path_317" data-name="Path 317" d="M30.91,11.325,30.949,27.8l.811-.558-.039-16.475Z" transform="translate(-30.91 -10.767)" fill="#181b1d"/>
          </g>
        </g>
      </g>
      <g id="Group_603" data-name="Group 603" transform="translate(9.391 16.306)">
        <g id="Group_602" data-name="Group 602">
          <g id="Group_599" data-name="Group 599" transform="translate(0 0.558)">
            <path id="Path_510" data-name="Path 510" d="M15.528,20.423l-.817-.456.039,16.388.817.543Z" transform="translate(-14.711 -19.967)" fill="#21292d"/>
          </g>
          <g id="Group_600" data-name="Group 600">
            <path id="Path_511" data-name="Path 511" d="M16.34,19.82l-.817-.456-.811.558.817.456Z" transform="translate(-14.711 -19.364)" fill="#4a494a"/>
          </g>
          <g id="Group_601" data-name="Group 601" transform="translate(0.817 0.456)">
            <path id="Path_512" data-name="Path 512" d="M15.594,20.415l.039,16.475.811-.558-.039-16.475Z" transform="translate(-15.594 -19.857)" fill="#181b1d"/>
          </g>
        </g>
      </g>
      <g id="Group_609" data-name="Group 609" transform="translate(0 2.111)">
        <g id="Group_604" data-name="Group 604" transform="translate(0 8.637)">
          <path id="Path_513" data-name="Path 513" d="M4.567,13.361l.031.762,10.225,5.942-.031-.763Z" transform="translate(-4.567 -13.361)" fill="#eff0f2"/>
        </g>
        <g id="Group_605" data-name="Group 605" transform="translate(10.225 5.942)">
          <path id="Path_514" data-name="Path 514" d="M15.612,19.087l.031.763L30.6,11.212l-.031-.763Z" transform="translate(-15.612 -10.449)" fill="#a6b1bb"/>
        </g>
        <g id="Group_606" data-name="Group 606">
          <path id="Path_515" data-name="Path 515" d="M4.567,12.668,14.792,18.61l14.96-8.637L19.528,4.031Z" transform="translate(-4.567 -4.031)" fill="#dedde5"/>
        </g>
        <g id="Group_607" data-name="Group 607" transform="translate(0.671 0.448)">
          <path id="Path_516" data-name="Path 516" d="M5.292,12.7l.558.321,9,5.174,13.732-7.869.558-.32L19.581,4.514Z" transform="translate(-5.292 -4.514)" fill="#99a4ac"/>
        </g>
        <g id="Group_608" data-name="Group 608" transform="translate(1.229 1.088)">
          <path id="Path_517" data-name="Path 517" d="M5.9,13.076l9,5.174,13.722-7.87-9-5.174Z" transform="translate(-5.895 -5.206)" fill="#2f373c"/>
        </g>
      </g>
    </g>
  </g>
</svg>
