<svg xmlns="http://www.w3.org/2000/svg" width="21.637" height="21.644" viewBox="0 0 21.637 21.644">
  <g id="Group_866" data-name="Group 866" transform="translate(-453 -554.509)">
    <path id="Path_731" data-name="Path 731" d="M444.732,224.341c-.031.092-.059.184-.092.274a1.768,1.768,0,0,1-1.122,1.125c-1.8.607-3.6,1.219-5.408,1.8a1.806,1.806,0,0,1-2.4-1.774c-.005-.273,0-.547,0-.839h-.251c-.866,0-1.733-.022-2.6.005a2.5,2.5,0,0,1-2.558-2.476c-.005-.437-.007-.873,0-1.31a.694.694,0,0,1,.68-.736.7.7,0,0,1,.686.754c0,.423,0,.845,0,1.268a1.1,1.1,0,0,0,1.071,1.134c.978.023,1.957.006,2.969.006v-.294q0-6.772,0-13.544a1.835,1.835,0,0,1,1.267-1.866c.186-.064.374-.122.56-.184.3-.1.593-.2.885-.331-.031,0-.061-.007-.092-.007q-2.736,0-5.472,0a1.124,1.124,0,0,0-1.162.879,1.289,1.289,0,0,0-.026.293c0,.43,0,.859,0,1.289a.7.7,0,0,1-.672.7.673.673,0,0,1-.685-.661,9.98,9.98,0,0,1,.045-1.812,2.389,2.389,0,0,1,1.927-2,.823.823,0,0,0,.11-.045h10.818a1.868,1.868,0,0,1,1.035.592,7.686,7.686,0,0,1,.487.887Zm-7.654-6.633c0,2.669.009,5.338-.009,8.007a.516.516,0,0,0,.715.514c1.72-.587,3.447-1.153,5.171-1.728a.518.518,0,0,0,.425-.592q0-7.986.006-15.971a.511.511,0,0,0-.736-.523c-1.7.587-3.419,1.147-5.13,1.717-.367.122-.442.225-.442.612Q437.078,213.725,437.078,217.708Z" transform="translate(29.905 348.509)" fill="#9199a8"/>
    <path id="Path_732" data-name="Path 732" d="M260,337.747a.894.894,0,0,1,.918-.472c2.134.015,4.267.007,6.4.007h.267c-.078-.085-.125-.142-.177-.193-.667-.667-1.338-1.331-2-2a.683.683,0,1,1,.978-.95q1.192,1.2,2.389,2.391c.309.309.619.615.927.925a.665.665,0,0,1,0,1.007q-1.657,1.659-3.318,3.315a.683.683,0,1,1-.968-.958q.99-1,1.986-1.988c.052-.052.1-.108.18-.195h-.266c-2.134,0-4.267-.008-6.4.007a.9.9,0,0,1-.919-.472Z" transform="translate(193 226.017)" fill="#9199a8"/>
  </g>
</svg>
