<svg xmlns="http://www.w3.org/2000/svg" width="50" height="50" viewBox="0 0 50 50">
  <g id="Group_20048" data-name="Group 20048" transform="translate(-1026 -949)">
    <circle id="Ellipse_406" data-name="Ellipse 406" cx="25" cy="25" r="25" transform="translate(1026 949)" fill="#707070" opacity="0.11"/>
    <g id="Group_18619" data-name="Group 18619" transform="translate(267.1 610.198)">
      <path id="Path_11" data-name="Path 11" d="M782.663,348.074h2.473c.031.075.1.056.159.061a15.136,15.136,0,0,1,6.691,2.167,15.661,15.661,0,0,1,7.565,11.253,5.809,5.809,0,0,0,.174,1.108V365.2a2.879,2.879,0,0,0-.14.831A15.869,15.869,0,0,1,786.6,379.494c-.208.037-.236-.012-.236-.2q.007-5.286,0-10.571c0-.21.067-.254.262-.252,1.01.009,2.019,0,3.029,0,.431,0,.422,0,.482-.413.188-1.28.371-2.56.587-3.835.051-.3-.029-.334-.293-.332-1.267.012-2.534,0-3.8.007-.154,0-.269.011-.266-.215.014-.948-.013-1.9.013-2.843a2.18,2.18,0,0,1,2.094-2.335,19.7,19.7,0,0,1,2.222-.045c.168,0,.258-.015.256-.227-.011-1.154-.009-2.308,0-3.462,0-.167-.052-.242-.216-.262a17.622,17.622,0,0,0-4.427-.19,5.322,5.322,0,0,0-3.469,1.753,6.008,6.008,0,0,0-1.406,3.952c-.03,1.194-.012,2.39,0,3.585,0,.226-.048.3-.285.293-1.154-.014-2.308,0-3.462-.01-.2,0-.284.034-.282.263q.017,2.024,0,4.049c0,.219.059.274.274.272,1.133-.011,2.267,0,3.4-.011.273,0,.358.056.357.347-.011,3.462-.007,6.924-.007,10.386v.328c-.277-.049-.529-.086-.778-.14a15.869,15.869,0,0,1-12.342-12.78,9.211,9.211,0,0,0-.233-1.411v-2.6c.075-.031.058-.1.064-.158.057-.543.134-1.082.237-1.618a15.857,15.857,0,0,1,13.18-12.58A5.326,5.326,0,0,0,782.663,348.074Z" fill="#1877f1"/>
    </g>
  </g>
</svg>
