<svg xmlns="http://www.w3.org/2000/svg" width="43.93" height="43.927" viewBox="0 0 43.93 43.927">
  <g id="Group_18818" data-name="Group 18818" transform="translate(-768.031 -348.072)">
    <path id="Path_72051" data-name="Path 72051" d="M809.255,391.994h-38.6c-.017-.065-.069-.076-.126-.092a3.2,3.2,0,0,1-2.355-2.355c-.016-.057-.027-.109-.092-.126V363.256A2.759,2.759,0,0,1,769.1,362.2q7.764-5.335,15.52-10.683c1.688-1.158,3.339-2.371,5.082-3.447h.686c.3.183.6.353.889.551q9.91,6.824,19.82,13.648a2.2,2.2,0,0,1,.907,1.071V389.42c-.145.084-.117.246-.162.372a3.155,3.155,0,0,1-1.84,1.956C809.757,391.846,809.5,391.913,809.255,391.994Zm-38.428-15.4q0,5.96,0,11.921c0,.617.111.732.712.732,1.458,0,2.916-.012,4.373.009.344.005.413-.1.411-.422-.013-2.7-.008-5.4-.007-8.1a1.374,1.374,0,0,1,1.526-1.54c1.472,0,2.944-.013,4.416.008.363.005.482-.066.479-.461-.019-2.973-.011-5.946-.01-8.919,0-1.117.5-1.608,1.624-1.609h11.36c1.148,0,1.64.491,1.64,1.639,0,2.987,0,5.975-.006,8.962,0,.294.069.389.377.386,1.486-.016,2.973-.009,4.459-.007a1.394,1.394,0,0,1,1.582,1.573c0,2.687.009,5.375-.01,8.062,0,.369.1.436.447.431,1.415-.021,2.83-.009,4.245-.009.73,0,.808-.078.808-.809q0-11.814.007-23.628a.766.766,0,0,0-.373-.725q-9.246-6.352-18.474-12.73a.542.542,0,0,0-.74,0q-9.263,6.4-18.545,12.777a.62.62,0,0,0-.311.585Q770.836,370.655,770.827,376.595Zm19.209,2.565c1.415,0,2.83-.007,4.245.006.262,0,.335-.064.334-.331q-.016-3.774,0-7.548c0-.252-.046-.346-.324-.339-.857.02-1.715.016-2.573,0-.241,0-.323.059-.309.306.02.356.013.715,0,1.072a1.37,1.37,0,0,1-2.74.011c-.011-.343-.018-.687,0-1.029.016-.265-.044-.369-.341-.361q-1.243.034-2.487,0c-.3-.008-.381.066-.379.372q.02,3.731,0,7.462c0,.348.117.387.413.384C787.263,379.152,788.649,379.16,790.036,379.16Zm-6.172,10.089c1.5,0,3-.005,4.5.005.238,0,.31-.058.309-.3q-.014-3.344,0-6.689c0-.229-.041-.321-.3-.316q-1.307.025-2.615,0c-.267-.005-.294.1-.293.324a6.422,6.422,0,0,1-.034,1.283,1.36,1.36,0,0,1-2.7-.184c-.016-.357-.02-.715,0-1.071.014-.266-.046-.375-.347-.369-1,.02-2,.018-3,0-.264,0-.332.064-.33.329q.017,3.323,0,6.646c0,.279.069.354.35.351C780.891,389.241,782.377,389.248,783.863,389.248Zm12.314,0c1.5,0,3-.008,4.5.007.285,0,.349-.079.347-.353q-.017-3.323,0-6.646c0-.269-.072-.331-.333-.327-.986.016-1.973.023-2.958,0-.342-.009-.414.111-.388.416a8.727,8.727,0,0,1,0,.9,1.382,1.382,0,0,1-1.337,1.436,1.411,1.411,0,0,1-1.4-1.425,8.308,8.308,0,0,1,0-.986c.024-.283-.089-.326-.339-.321-.843.015-1.687.021-2.529,0-.3-.008-.34.1-.339.363q.014,3.3,0,6.6c0,.289.085.348.356.345C793.234,389.242,794.706,389.248,796.178,389.248Z" transform="translate(-0.046 0)" fill="#010101"/>
    <path id="Path_72054" data-name="Path 72054" d="M1127.937,712.03c.248-.081.5-.147.743-.246a3.155,3.155,0,0,0,1.84-1.956c.045-.126.017-.288.162-.372,0,.786-.008,1.573.006,2.359,0,.185-.036.223-.22.22C1129.624,712.023,1128.781,712.03,1127.937,712.03Z" transform="translate(-318.727 -320.037)" fill="#f9f9f9"/>
    <path id="Path_72055" data-name="Path 72055" d="M768.036,709.457c.065.017.076.07.092.126a3.2,3.2,0,0,0,2.355,2.355c.057.016.109.027.126.092-.786,0-1.573-.008-2.359.006-.185,0-.223-.035-.22-.22C768.044,711.03,768.036,710.243,768.036,709.457Z" transform="translate(0 -320.037)" fill="#f9f9f9"/>
    <path id="Path_72056" data-name="Path 72056" d="M792.016,400.873q0-5.939-.007-11.878a.62.62,0,0,1,.311-.585q9.28-6.379,18.545-12.777a.542.542,0,0,1,.74,0q9.228,6.379,18.474,12.73a.766.766,0,0,1,.373.725q-.014,11.814-.007,23.628c0,.731-.078.809-.808.809-1.415,0-2.83-.012-4.245.009-.344.005-.449-.062-.447-.431.019-2.687.011-5.374.01-8.062a1.394,1.394,0,0,0-1.582-1.573c-1.487,0-2.973-.009-4.459.007-.307,0-.378-.092-.377-.386.01-2.987.007-5.975.006-8.962,0-1.148-.492-1.639-1.64-1.639h-11.36c-1.127,0-1.624.492-1.624,1.609,0,2.973-.009,5.946.01,8.919,0,.395-.116.466-.479.461-1.472-.021-2.944-.012-4.416-.008a1.374,1.374,0,0,0-1.526,1.54c0,2.7-.006,5.4.007,8.1,0,.325-.067.427-.411.422-1.458-.022-2.916-.009-4.373-.009-.6,0-.712-.115-.712-.732Q792.016,406.833,792.016,400.873Z" transform="translate(-21.235 -24.278)" fill="#fdfdfd"/>
    <path id="Path_72057" data-name="Path 72057" d="M924.572,556.213c-1.386,0-2.773-.008-4.159.006-.3,0-.416-.037-.413-.384q.027-3.731,0-7.462c0-.306.083-.38.379-.372q1.243.032,2.487,0c.3-.008.357.1.341.361-.021.342-.013.686,0,1.029a1.37,1.37,0,0,0,2.74-.01c.01-.357.018-.716,0-1.072-.014-.246.068-.31.309-.306.857.015,1.715.018,2.573,0,.278-.006.325.087.324.339q-.013,3.774,0,7.548c0,.267-.073.333-.334.331C927.4,556.206,925.987,556.213,924.572,556.213Z" transform="translate(-134.581 -177.053)" fill="#fefefe"/>
    <path id="Path_72058" data-name="Path 72058" d="M868.794,651.294c-1.486,0-2.973-.008-4.459.007-.281,0-.351-.072-.35-.351q.018-3.323,0-6.646c0-.265.066-.334.33-.329,1,.016,2,.019,3,0,.3-.006.361.1.347.369-.018.356-.015.715,0,1.071a1.36,1.36,0,0,0,2.7.184,6.422,6.422,0,0,0,.034-1.283c0-.222.026-.33.293-.324q1.307.027,2.615,0c.256,0,.3.087.3.316q-.012,3.344,0,6.689c0,.246-.07.305-.309.3C871.8,651.288,870.295,651.294,868.794,651.294Z" transform="translate(-84.977 -262.045)" fill="#fefefe"/>
    <path id="Path_72059" data-name="Path 72059" d="M976.708,651.281c-1.472,0-2.944-.007-4.416.006-.271,0-.357-.056-.356-.345q.02-3.3,0-6.6c0-.259.037-.371.339-.363.843.024,1.686.017,2.529,0,.25,0,.363.038.339.321a8.308,8.308,0,0,0,0,.986,1.411,1.411,0,0,0,1.4,1.425,1.382,1.382,0,0,0,1.337-1.436,8.744,8.744,0,0,0,0-.9c-.025-.3.046-.424.388-.416.985.026,1.972.018,2.958,0,.26,0,.334.058.332.327q-.018,3.323,0,6.646c0,.275-.062.356-.347.353C979.71,651.273,978.209,651.281,976.708,651.281Z" transform="translate(-180.576 -262.033)" fill="#fefefe"/>
  </g>
</svg>
