<svg xmlns="http://www.w3.org/2000/svg" width="50" height="50" viewBox="0 0 50 50">
  <g id="Group_20049" data-name="Group 20049" transform="translate(-960 -949)">
    <circle id="Ellipse_405" data-name="Ellipse 405" cx="25" cy="25" r="25" transform="translate(960 949)" fill="#707070" opacity="0.11"/>
    <g id="Group_18618" data-name="Group 18618" transform="translate(204.533 613.532)">
      <path id="Path_2" data-name="Path 2" d="M971.56,515.283a8.664,8.664,0,0,0,1.88-1.565,7.735,7.735,0,0,0,1.311-2.092.257.257,0,0,0,.041-.2H969.3c-.706,0-1-.3-1-1.008q0-1.472,0-2.945a.835.835,0,0,1,.933-.93q4.953,0,9.9,0a.855.855,0,0,1,.971.809,2.563,2.563,0,0,0,.114.632v1.8c-.067.033-.043.1-.049.15-.037.3-.061.6-.111.892a12.036,12.036,0,0,1-3.118,6.335,11.8,11.8,0,0,1-2.947,2.32c-.05-.083-.1-.165-.151-.249Z" transform="translate(-187.291 -148.244)" fill="#177ee5"/>
      <path id="Path_3" data-name="Path 3" d="M773.959,446.63a8.866,8.866,0,0,0-.819,2.116,7.485,7.485,0,0,0,.721,5.265c.037.07.066.145.1.218l-4.189,2.421a.523.523,0,0,1-.061-.072,12.338,12.338,0,0,1-1.495-4.258,3.645,3.645,0,0,0-.142-.87v-2c.057-.026.045-.08.049-.126a11.782,11.782,0,0,1,.447-2.379,10.684,10.684,0,0,1,1.2-2.742Z" transform="translate(-0.069 -89.959)" fill="#fed401"/>
      <path id="Path_4" data-name="Path 4" d="M798.368,356.739l-4.19-2.423a.462.462,0,0,1,.032-.09,12.382,12.382,0,0,1,8.838-6.009,6.823,6.823,0,0,0,.972-.143h.925v4.866a7.64,7.64,0,0,0-6.453,3.623C798.455,356.624,798.41,356.681,798.368,356.739Z" transform="translate(-24.478 -0.068)" fill="#fe4b26"/>
      <path id="Path_5" data-name="Path 5" d="M794.217,600.971l4.189-2.421a9.2,9.2,0,0,0,1.417,1.746,7.562,7.562,0,0,0,5.038,2.04c.04,0,.081.005.121.008q0,2.433,0,4.866h-1.022a2.063,2.063,0,0,0-.653-.109,12.4,12.4,0,0,1-7.63-4.081A9.7,9.7,0,0,1,794.217,600.971Z" transform="translate(-24.515 -234.28)" fill="#13b247"/>
      <path id="Path_6" data-name="Path 6" d="M960,352.94v-4.866h.974a6.676,6.676,0,0,0,.967.144,12.411,12.411,0,0,1,6.235,2.922.789.789,0,0,1,.054,1.17q-1.152,1.186-2.338,2.339a.8.8,0,0,1-1.142-.011,7.61,7.61,0,0,0-3.02-1.482A11.486,11.486,0,0,0,960,352.94Z" transform="translate(-179.533 -0.068)" fill="#d83f22"/>
      <path id="Path_10" data-name="Path 10" d="M966.237,645.393a6.6,6.6,0,0,1-1.387.717,11.776,11.776,0,0,1-3.778.93c-.039,0-.082,0-.1.047H960q0-2.433,0-4.866a8.71,8.71,0,0,0,2.62-.488c.407-.153.784-.366,1.182-.537l2.283,3.948C966.134,645.228,966.186,645.31,966.237,645.393Z" transform="translate(-179.533 -274.157)" fill="#10993e"/>
    </g>
  </g>
</svg>
