<svg xmlns="http://www.w3.org/2000/svg" width="29.181" height="29.17" viewBox="0 0 29.181 29.17">
  <g id="Group_20117" data-name="Group 20117" transform="translate(-791.285 -371.441)">
    <path id="Path_72402" data-name="Path 72402" d="M968.255,371.855a4.25,4.25,0,0,1,1.382.077,13.529,13.529,0,0,1,2.625.629,14.43,14.43,0,0,1,9.381,10.1,11.21,11.21,0,0,1,.461,2.991c-.169.02-.249-.111-.345-.207q-6.654-6.651-13.306-13.3C968.371,372.057,968.26,371.992,968.255,371.855Z" transform="translate(-161.663 -0.349)" fill="#9a03d3"/>
    <path id="Path_72403" data-name="Path 72403" d="M933.321,371.506c.005.137.116.2.2.283q6.651,6.654,13.306,13.3c.1.1.176.228.345.207a11.485,11.485,0,0,1-.2,3.128c-.018.082-.024.166-.036.249-.161-.009-.234-.145-.33-.24q-2.778-2.772-5.554-5.548c-.1-.1-.169-.23-.329-.242a6.911,6.911,0,0,0-.3-1.412,5.018,5.018,0,0,0-4.442-3.329c-.013-.16-.147-.233-.243-.33q-2.679-2.684-5.363-5.365a1.142,1.142,0,0,1-.36-.523,8.247,8.247,0,0,1,2.762-.2A4.78,4.78,0,0,0,933.321,371.506Z" transform="translate(-126.728 0)" fill="#af0ac2"/>
    <path id="Path_72404" data-name="Path 72404" d="M805.337,570.174a14.543,14.543,0,0,1-13.017-13.016.45.45,0,0,1,.367.166q6.24,6.244,12.484,12.483A.447.447,0,0,1,805.337,570.174Z" transform="translate(-0.945 -169.653)" fill="#fdc622"/>
    <path id="Path_72405" data-name="Path 72405" d="M809.417,519.951a11.016,11.016,0,0,1-2.53.36.411.411,0,0,0-.163-.365q-7.377-7.372-14.75-14.749a.411.411,0,0,0-.365-.162,10.934,10.934,0,0,1,.361-2.53c.162.006.236.141.333.236q2.715,2.71,5.427,5.421c.1.1.169.231.329.243,0,.151.01.3.011.453a5.02,5.02,0,0,0,3.312,4.69,6.305,6.305,0,0,0,2.2.312c.011.161.146.234.242.33q2.689,2.694,5.381,5.384C809.31,519.68,809.442,519.771,809.417,519.951Z" transform="translate(-0.296 -119.728)" fill="#fd9c3b"/>
    <path id="Path_72406" data-name="Path 72406" d="M791.313,531.709a.411.411,0,0,1,.365.162q7.373,7.377,14.75,14.749a.411.411,0,0,1,.163.365,10.977,10.977,0,0,1-2.2-.061.447.447,0,0,0-.166-.367q-6.245-6.239-12.484-12.483a.45.45,0,0,0-.367-.166A11.123,11.123,0,0,1,791.313,531.709Z" transform="translate(0 -146.402)" fill="#fdb62b"/>
    <path id="Path_72407" data-name="Path 72407" d="M966.962,638.038a11,11,0,0,1-2.477,1.224c-.007-.162-.142-.235-.238-.331q-2.4-2.4-4.8-4.8c-.1-.1-.244-.19-.218-.372l3.434,0c0,.137.112.2.193.285q1.893,1.9,3.789,3.789C966.739,637.919,966.815,638.034,966.962,638.038Z" transform="translate(-153.418 -239.627)" fill="#fd5d5e"/>
    <path id="Path_72408" data-name="Path 72408" d="M869.354,384.679a10.841,10.841,0,0,1,2.458-1.26c-.024.181.116.268.22.371q2.34,2.343,4.682,4.685c.1.1.245.189.221.371l-3.432.028c0-.15-.117-.225-.206-.315q-1.831-1.833-3.664-3.664A.725.725,0,0,0,869.354,384.679Z" transform="translate(-71.316 -10.942)" fill="#d014a6"/>
    <path id="Path_72409" data-name="Path 72409" d="M1059.079,548.091a11.593,11.593,0,0,1-1.177,2.333c-.146-.014-.214-.137-.3-.226q-1.818-1.812-3.632-3.627c-.1-.1-.17-.23-.333-.232q.009-1.686.018-3.371c.181-.023.267.117.371.221q2.343,2.34,4.685,4.682C1058.812,547.975,1058.9,548.116,1059.079,548.091Z" transform="translate(-239.657 -156.689)" fill="#d014a6"/>
    <path id="Path_72410" data-name="Path 72410" d="M801.875,486.441c-.16-.012-.233-.147-.329-.243q-2.715-2.709-5.427-5.421c-.1-.1-.17-.231-.332-.237a8.7,8.7,0,0,1,.64-2.08c.1.084.2.163.29.254q2.394,2.39,4.786,4.783c.1.1.19.245.372.22Q801.875,485.08,801.875,486.441Z" transform="translate(-4.111 -97.764)" fill="#fd784f"/>
    <path id="Path_72411" data-name="Path 72411" d="M932.546,633.8c-.026.182.115.268.218.372q2.4,2.4,4.8,4.8c.1.1.23.169.237.331a8.5,8.5,0,0,1-1.945.587c.025-.18-.108-.271-.213-.376q-2.691-2.692-5.381-5.384c-.1-.1-.231-.169-.242-.33Z" transform="translate(-126.731 -239.662)" fill="#fd784f"/>
    <path id="Path_72412" data-name="Path 72412" d="M811.47,439.243a9.881,9.881,0,0,1,1.3-2.011c0,.136.106.205.188.287q1.675,1.677,3.352,3.352c.081.081.148.191.285.192a5.557,5.557,0,0,0-.384,1.815c.01.323-.007.648-.011.972-.149-.007-.217-.131-.306-.219q-2.07-2.065-4.137-4.132C811.668,439.407,811.567,439.328,811.47,439.243Z" transform="translate(-18.439 -60.101)" fill="#fd426e"/>
    <path id="Path_72413" data-name="Path 72413" d="M1044.81,581.976c.163,0,.238.136.333.232q1.818,1.812,3.632,3.627c.089.089.156.211.3.226a10.194,10.194,0,0,1-1.288,1.749c-.151,0-.218-.13-.306-.218q-1.569-1.564-3.135-3.132c-.1-.1-.194-.24-.375-.214A5.981,5.981,0,0,0,1044.81,581.976Z" transform="translate(-230.834 -192.325)" fill="#e71b93"/>
    <path id="Path_72414" data-name="Path 72414" d="M851.493,397.989a.725.725,0,0,1,.279.216q1.833,1.831,3.664,3.664c.09.09.206.165.206.315a6.054,6.054,0,0,0-2.127.769c-.544-.446-1.008-.974-1.505-1.467-.743-.737-1.472-1.488-2.207-2.234A9.394,9.394,0,0,1,851.493,397.989Z" transform="translate(-53.455 -24.252)" fill="#e71b93"/>
    <path id="Path_72415" data-name="Path 72415" d="M803.9,460.488c.1.084.2.164.289.254q2.069,2.065,4.136,4.132c.089.088.157.212.306.219q0,1.1,0,2.205c-.182.025-.268-.116-.372-.22q-2.394-2.391-4.786-4.783c-.091-.091-.193-.17-.29-.254A7.275,7.275,0,0,1,803.9,460.488Z" transform="translate(-10.87 -81.345)" fill="#fd5d5e"/>
    <path id="Path_72416" data-name="Path 72416" d="M902.864,383.818c.024-.181-.117-.267-.221-.371q-2.34-2.343-4.682-4.685c-.1-.1-.244-.19-.219-.371a6.394,6.394,0,0,1,1.426-.476c0,.164.133.24.229.336q2.595,2.6,5.193,5.2c.1.1.245.19.222.371Z" transform="translate(-97.246 -5.914)" fill="#c610ae"/>
    <path id="Path_72417" data-name="Path 72417" d="M1059.271,527.574c-.181.024-.268-.116-.371-.219q-2.343-2.34-4.685-4.682c-.1-.1-.19-.245-.371-.221v-1.945c.148.01.217.133.305.221q2.574,2.569,5.144,5.142a.717.717,0,0,0,.456.279A6.635,6.635,0,0,1,1059.271,527.574Z" transform="translate(-239.849 -136.172)" fill="#c610ae"/>
    <path id="Path_72418" data-name="Path 72418" d="M1059.717,508.338a.717.717,0,0,1-.456-.279q-2.571-2.572-5.144-5.142c-.089-.089-.158-.211-.305-.221q0-.843,0-1.686c.16.012.233.147.329.242q2.778,2.773,5.554,5.548c.1.1.168.231.33.24A5.523,5.523,0,0,1,1059.717,508.338Z" transform="translate(-239.817 -118.361)" fill="#bc0eb6"/>
    <path id="Path_72419" data-name="Path 72419" d="M919.9,380.525c.023-.182-.118-.267-.221-.371q-2.6-2.6-5.193-5.2c-.1-.1-.23-.172-.229-.336a5.393,5.393,0,0,1,1.363-.312,1.142,1.142,0,0,0,.36.523q2.682,2.682,5.363,5.365c.1.1.231.169.244.33Z" transform="translate(-112.333 -2.621)" fill="#bc0eb6"/>
    <path id="Path_72420" data-name="Path 72420" d="M830.343,427.475c-.137,0-.2-.11-.285-.192q-1.678-1.674-3.352-3.352c-.082-.082-.187-.152-.188-.288a7.956,7.956,0,0,1,1.116-1.286q1.774,1.761,3.545,3.524a.543.543,0,0,1,.077.171A6.643,6.643,0,0,0,830.343,427.475Z" transform="translate(-32.185 -46.513)" fill="#fa2183"/>
    <path id="Path_72421" data-name="Path 72421" d="M1023.986,621.644a7.6,7.6,0,0,1-1.214,1.055.4.4,0,0,1-.268-.163l-3.6-3.617a7.183,7.183,0,0,0,1.452-.962.7.7,0,0,1,.105.073q1.7,1.7,3.4,3.4C1023.922,621.489,1023.99,621.546,1023.986,621.644Z" transform="translate(-207.93 -225.194)" fill="#fa2183"/>
    <path id="Path_72422" data-name="Path 72422" d="M1000.7,629.076l3.6,3.617a.4.4,0,0,0,.268.163,6.985,6.985,0,0,1-1.3.907c-.148,0-.223-.119-.313-.208q-1.9-1.893-3.789-3.789c-.082-.082-.191-.148-.193-.285A7.1,7.1,0,0,0,1000.7,629.076Z" transform="translate(-189.724 -235.351)" fill="#fd426e"/>
    <path id="Path_72423" data-name="Path 72423" d="M843.042,417.128a.539.539,0,0,0-.077-.171q-1.77-1.765-3.545-3.524a5.668,5.668,0,0,1,.9-.845c.735.745,1.464,1.5,2.207,2.233.5.493.962,1.021,1.505,1.467Z" transform="translate(-43.971 -37.588)" fill="#f21e8a"/>
    <path id="Path_72424" data-name="Path 72424" d="M1039.325,612.714c0-.1-.065-.155-.125-.215q-1.7-1.7-3.4-3.4a.713.713,0,0,0-.105-.073l.716-.842c.18-.026.27.109.375.214q1.568,1.566,3.135,3.132c.088.088.156.214.306.218A6.428,6.428,0,0,1,1039.325,612.714Z" transform="translate(-223.269 -216.264)" fill="#f21e8a"/>
    <path id="Path_72425" data-name="Path 72425" d="M881.554,460.18l-.716.842a7.181,7.181,0,0,1-1.452.962,7.1,7.1,0,0,1-1.724.4l-3.435,0H871.7a6.306,6.306,0,0,1-2.2-.312,5.02,5.02,0,0,1-3.312-4.69c0-.151-.008-.3-.011-.453q0-1.362,0-2.724v-2.205c0-.324.021-.648.011-.972a5.56,5.56,0,0,1,.384-1.815,6.648,6.648,0,0,1,.912-1.422l.989-.84a6.054,6.054,0,0,1,2.127-.769l3.432-.028h1.945l1.686,0a5.018,5.018,0,0,1,4.442,3.329,6.907,6.907,0,0,1,.3,1.412q0,.843,0,1.686v1.945q-.009,1.686-.018,3.372A5.979,5.979,0,0,1,881.554,460.18ZM877.6,448,876.237,448h-2.53c-.925,0-1.85-.014-2.774,0a1.963,1.963,0,0,0-.927.233,2.5,2.5,0,0,0-1.155.8,2.889,2.889,0,0,0-.842,2.07l0,2.271q0,1.491,0,2.981c0,.366-.022.733-.008,1.1a3.123,3.123,0,0,0,1.81,2.811,4.785,4.785,0,0,0,2.408.3h2.788l2.594,0a2.9,2.9,0,0,0,1.942-.839,2.468,2.468,0,0,0,.743-1.022,3.932,3.932,0,0,0,.161-.385,7.536,7.536,0,0,0,.128-2.218q0-1.88,0-3.76,0-.681-.005-1.362A3.155,3.155,0,0,0,877.6,448Z" transform="translate(-68.413 -68.259)" fill="#fefcfd"/>
    <path id="Path_72426" data-name="Path 72426" d="M953.21,467.367h2.53c.013.04.014.093.041.12.551.545,1.067,1.126,1.661,1.628,0,.615.25.849.893.843,0,.11.078.171.146.238l1.36,1.36c.067.067.127.148.237.148q0,1.88,0,3.76c-.137,0-.2-.115-.283-.2q-.721-.716-1.438-1.437a.7.7,0,0,0-.4-.248,4.205,4.205,0,0,0-2.6-3.783c.019-.153-.094-.232-.184-.322l-1.761-1.762C953.308,467.619,953.188,467.533,953.21,467.367Z" transform="translate(-147.917 -87.629)" fill="#d014a6"/>
    <path id="Path_72427" data-name="Path 72427" d="M887.336,532.452q0-1.491,0-2.982c.166-.023.253.1.351.2q.814.814,1.629,1.627c.082.082.15.191.289.188a4.321,4.321,0,0,0,2.662,2.822c-.024.156.1.231.184.32q.843.847,1.689,1.691c.1.1.217.185.194.35h-2.788c.02-.15-.08-.236-.172-.329q-1.856-1.854-3.71-3.71C887.573,532.531,887.487,532.431,887.336,532.452Z" transform="translate(-87.743 -144.358)" fill="#fd5d5e"/>
    <path id="Path_72428" data-name="Path 72428" d="M914.131,467.3c-.023.166.1.252.2.35l1.761,1.762c.09.09.2.169.184.322a4.229,4.229,0,0,0-3.622.244.765.765,0,0,0-.224-.273q-.9-.907-1.811-1.811a.439.439,0,0,1-.184-.359,1.964,1.964,0,0,1,.927-.233C912.281,467.289,913.206,467.3,914.131,467.3Z" transform="translate(-108.838 -87.565)" fill="#e71b93"/>
    <path id="Path_72429" data-name="Path 72429" d="M887.2,563.944c.15-.02.236.08.329.172q1.854,1.856,3.71,3.71c.092.092.192.178.172.328a4.784,4.784,0,0,1-2.408-.3,3.124,3.124,0,0,1-1.81-2.811C887.181,564.677,887.2,564.31,887.2,563.944Z" transform="translate(-87.609 -175.85)" fill="#fd784f"/>
    <path id="Path_72430" data-name="Path 72430" d="M1001.321,539.241a.7.7,0,0,1,.4.248q.717.721,1.438,1.437c.082.081.147.192.283.2a7.533,7.533,0,0,1-.128,2.218,3.926,3.926,0,0,1-.161.385.732.732,0,0,1-.436-.254q-.876-.882-1.758-1.758c-.082-.081-.146-.192-.281-.2A4.557,4.557,0,0,0,1001.321,539.241Z" transform="translate(-191.285 -153.286)" fill="#e71b93"/>
    <path id="Path_72431" data-name="Path 72431" d="M887.361,481.381a2.889,2.889,0,0,1,.842-2.07q1.069,1.054,2.138,2.107c.1.1.175.225.336.23a4.777,4.777,0,0,0-1.027,1.755c-.146,0-.227-.112-.317-.2l-1.623-1.623C887.613,481.48,887.526,481.36,887.361,481.381Z" transform="translate(-87.766 -98.54)" fill="#fa2183"/>
    <path id="Path_72432" data-name="Path 72432" d="M978.24,577.543a2.9,2.9,0,0,1-1.942.839c-.007-.135-.116-.2-.2-.282q-.839-.844-1.682-1.684c-.1-.1-.22-.18-.2-.347a5.01,5.01,0,0,0,1.6-.928C976.669,575.9,977.456,576.721,978.24,577.543Z" transform="translate(-167.112 -186.082)" fill="#fa2183"/>
    <path id="Path_72433" data-name="Path 72433" d="M946.9,585.407c-.024.166.1.25.2.347q.84.842,1.682,1.684c.081.082.19.147.2.282l-2.594,0c.023-.165-.1-.252-.194-.35q-.845-.845-1.689-1.69c-.089-.089-.208-.164-.184-.32.086.009.145.074.233.093A4.766,4.766,0,0,0,946.9,585.407Z" transform="translate(-139.788 -195.419)" fill="#fd426e"/>
    <path id="Path_72434" data-name="Path 72434" d="M887.338,503.221c.165-.022.252.1.35.2l1.623,1.623c.091.09.171.2.317.2a4.646,4.646,0,0,0-.024,2.259c-.139,0-.207-.106-.289-.188q-.816-.812-1.629-1.627c-.1-.1-.185-.219-.351-.2Q887.337,504.357,887.338,503.221Z" transform="translate(-87.743 -120.38)" fill="#fd426e"/>
    <path id="Path_72435" data-name="Path 72435" d="M899.573,473.223c-.161,0-.239-.134-.337-.23q-1.071-1.052-2.138-2.107a2.505,2.505,0,0,1,1.154-.8.439.439,0,0,0,.184.359q.908.9,1.812,1.811a.764.764,0,0,1,.224.273Z" transform="translate(-96.661 -90.115)" fill="#f21e8a"/>
    <path id="Path_72436" data-name="Path 72436" d="M995.158,568.727c-.785-.821-1.572-1.641-2.418-2.4l.687-.835c.135.01.2.12.281.2q.882.876,1.758,1.758a.732.732,0,0,0,.436.254A2.468,2.468,0,0,1,995.158,568.727Z" transform="translate(-184.03 -177.267)" fill="#f21e8a"/>
    <path id="Path_72437" data-name="Path 72437" d="M998.242,467.436a3.155,3.155,0,0,1,2.969,2.969c-.194-.025-.306-.173-.442-.29-.262-.224-.436-.548-.776-.683-.054-.578-.263-.775-.843-.794.022-.181-.13-.257-.223-.37C998.7,467.99,998.342,467.819,998.242,467.436Z" transform="translate(-189.056 -87.692)" fill="#bc0eb6"/>
    <path id="Path_72438" data-name="Path 72438" d="M1013,490.517c.34.135.514.459.776.683.136.117.248.264.442.29l.005,1.362c-.109,0-.169-.081-.237-.148l-1.36-1.36c-.067-.068-.146-.129-.145-.238A.922.922,0,0,0,1013,490.517Z" transform="translate(-202.064 -108.777)" fill="#c610ae"/>
    <path id="Path_72439" data-name="Path 72439" d="M983.854,467.374c.1.383.458.554.685.832.092.113.244.188.223.37a.815.815,0,0,0-.569.54c-.594-.5-1.11-1.083-1.661-1.628-.027-.027-.028-.079-.041-.12Z" transform="translate(-174.668 -87.63)" fill="#c610ae"/>
    <path id="Path_72440" data-name="Path 72440" d="M919.749,498.424l-.687.835a5.01,5.01,0,0,1-1.6.928,4.766,4.766,0,0,1-2.354.049c-.088-.019-.147-.084-.233-.093a4.322,4.322,0,0,1-2.662-2.822,4.647,4.647,0,0,1,.024-2.259,4.776,4.776,0,0,1,1.026-1.755l.9-.693a4.162,4.162,0,0,1,6.224,3.539A4.556,4.556,0,0,1,919.749,498.424Zm-4.169-4.611a2.011,2.011,0,0,0-1.173.7,2.27,2.27,0,0,0-.659,1.969,2.433,2.433,0,0,0,2.216,2.214,2.259,2.259,0,0,0,1.892-.589,2.069,2.069,0,0,0,.779-1.242,2.481,2.481,0,0,0-3.055-3.056Z" transform="translate(-110.352 -110.199)" fill="#fefcfd"/>
    <path id="Path_72441" data-name="Path 72441" d="M1002.162,481.874a.815.815,0,0,1,.569-.54c.58.019.789.216.843.794a.922.922,0,0,1-.519.588C1002.411,482.722,1002.164,482.488,1002.162,481.874Z" transform="translate(-192.637 -100.388)" fill="#fefcfd"/>
    <path id="Path_72442" data-name="Path 72442" d="M931.068,522.289a2.27,2.27,0,0,1,.659-1.969c.076.09.146.185.229.268q1.493,1.5,2.988,2.992c.1.1.227.173.232.334a2.259,2.259,0,0,1-1.892.589c.016-.112-.057-.178-.126-.246l-1.843-1.843C931.246,522.345,931.18,522.272,931.068,522.289Z" transform="translate(-127.672 -136.002)" fill="#fa2183"/>
    <path id="Path_72443" data-name="Path 72443" d="M942.37,516.483c-.005-.161-.136-.238-.232-.334q-1.493-1.5-2.988-2.992c-.083-.083-.153-.178-.229-.268a2.012,2.012,0,0,1,1.173-.7c0,.123.089.19.164.266l2.626,2.626c.075.075.142.166.266.164A2.069,2.069,0,0,1,942.37,516.483Z" transform="translate(-134.866 -128.571)" fill="#f21e8a"/>
    <path id="Path_72444" data-name="Path 72444" d="M955.536,514.038c-.123,0-.19-.089-.266-.164l-2.626-2.626c-.075-.075-.166-.142-.164-.266a2.481,2.481,0,0,1,3.055,3.056Z" transform="translate(-147.253 -127.368)" fill="#e71b93"/>
    <path id="Path_72445" data-name="Path 72445" d="M931.307,543.055c.112-.016.178.056.247.125l1.843,1.843c.069.069.142.135.126.246A2.433,2.433,0,0,1,931.307,543.055Z" transform="translate(-127.911 -156.769)" fill="#fd426e"/>
  </g>
</svg>
