<svg xmlns="http://www.w3.org/2000/svg" width="21.565" height="20.564" viewBox="0 0 21.565 20.564">
  <g id="Group_10" data-name="Group 10" transform="translate(-112 -543.996)">
    <g id="Group_861" data-name="Group 861" transform="translate(109.187 541.496)">
      <g id="Group_849" data-name="Group 849" transform="translate(2.813 4.321)">
        <path id="Path_710" data-name="Path 710" d="M3.589,7.436a.777.777,0,0,1,0-1.553H20.863a.776.776,0,1,1,0,1.553Z" transform="translate(-2.813 -5.715)" fill="#d3d3d2"/>
        <path id="Path_711" data-name="Path 711" d="M3.941,7.15a.777.777,0,0,1,0-1.553H21.215a.776.776,0,1,1,0,1.553Z" transform="translate(-2.958 -5.597)" fill="#477ca3"/>
        <path id="Path_712" data-name="Path 712" d="M4.292,7a.276.276,0,1,1,0-.553H21.566a.276.276,0,1,1,0,.553Z" transform="translate(-3.309 -5.948)" fill="#989898"/>
      </g>
      <g id="Group_860" data-name="Group 860" transform="translate(4.027 2.504)">
        <path id="Rectangle_302" data-name="Rectangle 302" d="M0,0H14.651V14.549A2.641,2.641,0,0,1,12.01,17.19H1.867A1.867,1.867,0,0,1,0,15.323Z" transform="translate(1.765 3.37)" fill="#6aacbe"/>
        <path id="Path_713" data-name="Path 713" d="M5.988,2.5A1.109,1.109,0,0,0,4.879,3.613h0V5.371H7.066V2.5Z" transform="translate(-4.879 -2.504)" fill="#56929f"/>
        <path id="Path_714" data-name="Path 714" d="M7.264,3.613V5.874h.422V2.5H6.607a1.1,1.1,0,0,0-.226.024,1.11,1.11,0,0,1,.883,1.089Z" transform="translate(-5.498 -2.504)" fill="#6aacbe"/>
        <path id="Path_715" data-name="Path 715" d="M21.3,2.5H6.713A1.109,1.109,0,0,1,7.822,3.613V21.741a1.107,1.107,0,0,0,1.107,1.108H22.407V3.612A1.108,1.108,0,0,0,21.3,2.5Z" transform="translate(-5.635 -2.504)" fill="#dbf0f5"/>
        <path id="Path_716" data-name="Path 716" d="M24,34.055l-.122-.122-.26.26-.261-.26-.26.26-.26-.26-.26.26-.261-.26-.26.26-.26-.26-.26.26-.261-.26-.26.26-.26-.26-.26.26-.261-.26-.26.26-.26-.26-.26.26-.261-.26-.26.26-.26-.26-.26.26-.261-.26-.26.26-.26-.26-.261.26-.26-.26-.26.26-.26-.26-.261.26-.26-.26-.26.26-.26-.26-.261.26-.26-.26-.26.26-.26-.26-.261.26-.26-.26-.26.26-.26-.26-.261.26-.26-.26-.26.26-.26-.26-.261.26-.26-.26-.26.26-.26-.26-.261.26-.26-.26v1.143a1.107,1.107,0,0,1-.279.734H24Z" transform="translate(-7.229 -15.466)" fill="#d3d3d2" opacity="0.3"/>
        <path id="Path_717" data-name="Path 717" d="M25.911,32.855l-.26-.261-.261.261-.26-.261-.26.261-.26-.261-.261.261-.26-.261-.26.261-.26-.261-.261.261-.26-.261-.26.261-.26-.261-.261.261L22,32.594l-.26.261-.26-.261-.261.261-.26-.261-.26.261-.26-.261-.261.261-.26-.261-.26.261-.26-.261-.261.261-.26-.261-.26.261-.261-.261-.26.261-.26-.261-.26.261-.261-.261-.26.261-.26-.261-.26.261-.261-.261-.26.261-.26-.261-.26.261-.261-.261-.26.261-.26-.261-.26.261-.261-.261-.26.261-.26-.261-.26.261-.261-.261-.26.261-.26-.261-.26.261-.261-.261-.26.261-.26-.261v1.555a1.109,1.109,0,0,1-1.109,1.109H25.064a1.107,1.107,0,0,0,1.107-1.108V32.594Z" transform="translate(-7.188 -14.914)" fill="#6aacbe"/>
        <g id="Group_859" data-name="Group 859" transform="translate(4.074 1.711)">
          <g id="Group_853" data-name="Group 853" transform="translate(0.138)">
            <g id="Group_850" data-name="Group 850">
              <text id="_--------------------------------------" data-name="--------------------------------------" transform="translate(0.139 3.436)" fill="#5b5b5b" font-size="1" font-family="SegoeUI-Light, Segoe UI" font-weight="300"><tspan x="0" y="0">--------------------------------------</tspan></text>
              <text id="_---------------------------------------2" data-name="--------------------------------------" transform="translate(0.139 1)" fill="#5b5b5b" font-size="1" font-family="SegoeUI-Light, Segoe UI" font-weight="300"><tspan x="0" y="0">--------------------------------------</tspan></text>
            </g>
            <text id="_---------------------------------------3" data-name="--------------------------------------" transform="translate(0.139 13.977)" fill="#5b5b5b" font-size="1" font-family="SegoeUI-Light, Segoe UI" font-weight="300"><tspan x="0" y="0">--------------------------------------</tspan></text>
            <text id="_---------------------------------------4" data-name="--------------------------------------" transform="translate(0.139 11.487)" fill="#5b5b5b" font-size="1" font-family="SegoeUI-Light, Segoe UI" font-weight="300"><tspan x="0" y="0">--------------------------------------</tspan></text>
            <g id="Group_851" data-name="Group 851" transform="translate(1.746 0.816)">
              <text id="RECEIPT" transform="translate(1.985 1)" fill="#5b5b5b" font-size="1" font-family="SegoeUI-Light, Segoe UI" font-weight="300"><tspan x="0" y="0">RECEIPT</tspan></text>
              <text id="_" data-name="***" transform="translate(0.296 1.132)" fill="#5b5b5b" font-size="1" font-family="SegoeUI-Light, Segoe UI" font-weight="300"><tspan x="0" y="0">***</tspan></text>
              <text id="_2" data-name="***" transform="translate(6.205 1.132)" fill="#5b5b5b" font-size="1" font-family="SegoeUI-Light, Segoe UI" font-weight="300"><tspan x="0" y="0">***</tspan></text>
            </g>
            <text id="THANK_YOU_FOR_SHOPPING_" data-name="THANK YOU FOR SHOPPING!" transform="translate(1.285 15.355)" fill="#5b5b5b" font-size="1" font-family="SegoeUI-Light, Segoe UI" font-weight="300"><tspan x="0" y="0">THANK YOU FOR SHOPPING!</tspan></text>
            <g id="Group_852" data-name="Group 852" transform="translate(0.16 11.278)">
              <text id="TOTAL" transform="translate(-0.451 1)" fill="#5b5b5b" font-size="1" font-family="SegoeUI-Light, Segoe UI" font-weight="300"><tspan x="0" y="0">TOTAL</tspan></text>
            </g>
          </g>
          <g id="Group_858" data-name="Group 858" transform="translate(0 4.039)">
            <g id="Group_854" data-name="Group 854" transform="translate(5.78 0.002)">
              <text id="_--------" data-name="--------" transform="translate(-0.076 2.062)" fill="#5b5b5b" font-size="1" font-family="SegoeUI-Light, Segoe UI" font-weight="300"><tspan x="0" y="0">--------</tspan></text>
              <text id="_---------2" data-name="--------" transform="translate(-0.076 3.125)" fill="#5b5b5b" font-size="1" font-family="SegoeUI-Light, Segoe UI" font-weight="300"><tspan x="0" y="0">--------</tspan></text>
              <text id="_---------3" data-name="--------" transform="translate(-0.076 4.187)" fill="#5b5b5b" font-size="1" font-family="SegoeUI-Light, Segoe UI" font-weight="300"><tspan x="0" y="0">--------</tspan></text>
              <text id="_---------4" data-name="--------" transform="translate(-0.076 5.249)" fill="#5b5b5b" font-size="1" font-family="SegoeUI-Light, Segoe UI" font-weight="300"><tspan x="0" y="0">--------</tspan></text>
              <text id="_---------5" data-name="--------" transform="translate(-0.076 6.311)" fill="#5b5b5b" font-size="1" font-family="SegoeUI-Light, Segoe UI" font-weight="300"><tspan x="0" y="0">--------</tspan></text>
              <text id="_---------6" data-name="--------" transform="translate(-0.076 1)" fill="#5b5b5b" font-size="1" font-family="SegoeUI-Light, Segoe UI" font-weight="300"><tspan x="0" y="0">--------</tspan></text>
            </g>
            <g id="Group_857" data-name="Group 857">
              <g id="Group_855" data-name="Group 855">
                <rect id="Rectangle_303" data-name="Rectangle 303" width="5.249" height="0.375" fill="#5b5b5b"/>
                <rect id="Rectangle_304" data-name="Rectangle 304" width="5.249" height="0.375" transform="translate(0 1.083)" fill="#5b5b5b"/>
                <rect id="Rectangle_305" data-name="Rectangle 305" width="5.249" height="0.375" transform="translate(0 2.166)" fill="#5b5b5b"/>
                <rect id="Rectangle_306" data-name="Rectangle 306" width="5.249" height="0.375" transform="translate(0 3.25)" fill="#5b5b5b"/>
                <rect id="Rectangle_307" data-name="Rectangle 307" width="5.249" height="0.375" transform="translate(0 4.333)" fill="#5b5b5b"/>
                <rect id="Rectangle_308" data-name="Rectangle 308" width="5.249" height="0.375" transform="translate(0 5.416)" fill="#5b5b5b"/>
              </g>
              <g id="Group_856" data-name="Group 856" transform="translate(8.843)">
                <rect id="Rectangle_309" data-name="Rectangle 309" width="1.878" height="0.375" fill="#5b5b5b"/>
                <rect id="Rectangle_310" data-name="Rectangle 310" width="1.878" height="0.375" transform="translate(0 1.083)" fill="#5b5b5b"/>
                <rect id="Rectangle_311" data-name="Rectangle 311" width="1.878" height="0.375" transform="translate(0 2.166)" fill="#5b5b5b"/>
                <rect id="Rectangle_312" data-name="Rectangle 312" width="1.878" height="0.375" transform="translate(0 3.25)" fill="#5b5b5b"/>
                <rect id="Rectangle_313" data-name="Rectangle 313" width="1.878" height="0.375" transform="translate(0 4.333)" fill="#5b5b5b"/>
                <rect id="Rectangle_314" data-name="Rectangle 314" width="1.878" height="0.375" transform="translate(0 5.416)" fill="#5b5b5b"/>
              </g>
            </g>
          </g>
        </g>
      </g>
    </g>
  </g>
</svg>
