<svg xmlns="http://www.w3.org/2000/svg" width="50" height="50" viewBox="0 0 50 50">
  <g id="Group_20046" data-name="Group 20046" transform="translate(-1191 -971)">
    <circle id="Ellipse_408" data-name="Ellipse 408" cx="25" cy="25" r="25" transform="translate(1191 971)" fill="#707070" opacity="0.11"/>
    <g id="Group_18621" data-name="Group 18621" transform="translate(432.709 632.709)">
      <path id="Path_14" data-name="Path 14" d="M784.479,378.508H782.1a3.653,3.653,0,0,0-.862-.134,15.272,15.272,0,0,1-13-12.83,4.064,4.064,0,0,0-.166-1.005v-2.5c.074-.029.056-.1.062-.151.055-.522.129-1.04.227-1.556a15.247,15.247,0,0,1,12.67-12.1,6.179,6.179,0,0,0,1.128-.166h2.318c.021.06.074.054.122.058a14.519,14.519,0,0,1,6.464,2.085,15.054,15.054,0,0,1,7.275,10.82,5.568,5.568,0,0,0,.167,1.065v2.437a2.325,2.325,0,0,0-.129.77,15.271,15.271,0,0,1-12.863,13.035A4.814,4.814,0,0,0,784.479,378.508Zm-.389-16.64c0-.207,0-.4,0-.59-.009-.411-.169-.572-.583-.575q-1.025-.007-2.05,0c-.428,0-.594.169-.594.6q0,4.5,0,9c0,.429.168.6.592.6.644,0,1.287,0,1.931,0,.556,0,.687-.128.687-.674,0-1.515,0-3.03,0-4.546a3.015,3.015,0,0,1,.422-1.586,1.572,1.572,0,0,1,1.682-.745,1.416,1.416,0,0,1,1.215,1.073,4.512,4.512,0,0,1,.172,1.438q0,2.2,0,4.4c0,.5.145.642.628.643q1.025,0,2.05,0c.447,0,.6-.158.6-.609q0-2.511,0-5.021a8.82,8.82,0,0,0-.182-1.829,3.308,3.308,0,0,0-1.843-2.57,4.073,4.073,0,0,0-4.632.962C784.174,361.843,784.153,361.845,784.09,361.867Zm-7.882,3.951q0,2.227,0,4.455c0,.45.179.624.633.626q.95,0,1.9,0c.506,0,.68-.172.68-.676q0-4.425,0-8.85c0-.491-.173-.668-.655-.671q-.95-.005-1.9,0c-.493,0-.657.168-.658.662Q776.206,363.591,776.208,365.818Zm-.472-8.054a2.077,2.077,0,1,0,2.069-2.081A2.074,2.074,0,0,0,775.736,357.764Z" transform="translate(0 0)" fill="#0b69c6"/>
      <path id="Path_19" data-name="Path 19" d="M932.585,506.441c.063-.023.084-.024.094-.035a4.072,4.072,0,0,1,4.632-.962,3.308,3.308,0,0,1,1.843,2.57,8.82,8.82,0,0,1,.182,1.829q0,2.511,0,5.021c0,.45-.157.608-.6.609q-1.025,0-2.05,0c-.484,0-.628-.148-.629-.643q0-2.2,0-4.4a4.509,4.509,0,0,0-.172-1.438,1.415,1.415,0,0,0-1.215-1.072,1.572,1.572,0,0,0-1.682.745,3.015,3.015,0,0,0-.422,1.586c-.006,1.515,0,3.03,0,4.546,0,.546-.131.674-.687.674-.644,0-1.287,0-1.931,0-.424,0-.592-.168-.592-.6q0-4.5,0-9c0-.428.166-.594.594-.6q1.025-.007,2.05,0c.415,0,.574.164.583.575C932.589,506.042,932.585,506.234,932.585,506.441Z" transform="translate(-148.495 -144.574)" fill="#fdfdfe"/>
      <path id="Path_20" data-name="Path 20" d="M870.66,512.438q0-2.227,0-4.455c0-.494.164-.659.658-.662q.95,0,1.9,0c.482,0,.655.18.655.671q0,4.425,0,8.85c0,.5-.174.675-.68.676q-.95,0-1.9,0c-.453,0-.632-.176-.633-.626Q870.658,514.666,870.66,512.438Z" transform="translate(-94.453 -146.62)" fill="#fdfdfe"/>
      <path id="Path_21" data-name="Path 21" d="M864.708,446.122a2.077,2.077,0,1,1,4.155-.007,2.077,2.077,0,1,1-4.155.007Z" transform="translate(-88.972 -88.358)" fill="#fcfdfe"/>
    </g>
  </g>
</svg>
