<svg xmlns="http://www.w3.org/2000/svg" width="21.003" height="21.009" viewBox="0 0 21.003 21.009">
  <g id="Group_863" data-name="Group 863" transform="translate(-69.563 -31.828)">
    <path id="Path_718" data-name="Path 718" d="M79.305,41.568c0-.064.007-.1.007-.141q0-4.417,0-8.836a.736.736,0,0,0-.792-.762q-4.078,0-8.156,0a.736.736,0,0,0-.8.8V52.036a.737.737,0,0,0,.787.791c.687,0,1.376-.026,2.062.009a.833.833,0,0,0,.909-.9c-.015-5.1-.009-10.2-.009-15.3v-.294h4.5v5.229Zm5.256,9.751a2.4,2.4,0,0,1,.615-1.522.538.538,0,0,0,.131-.321q.011-3.164,0-6.327a.745.745,0,0,0-.828-.82H74.076v8.987H74.8A2.269,2.269,0,0,1,77,49.084a2.16,2.16,0,0,1,1.437.474,2.3,2.3,0,0,1,.879,1.761Zm6-3.721H86.075v1.618a2.163,2.163,0,0,1,2.035.288,2.271,2.271,0,0,1,.958,1.824c.265,0,.514,0,.763,0a.734.734,0,0,0,.73-.729c.005-.46,0-.921,0-1.381Zm-4.488-.783h4.492c-.463-.685-.89-1.353-1.362-1.989a.824.824,0,0,0-.551-.237c-.45-.034-.9-.011-1.358-.011H86.074Zm-9.02,3.013a1.5,1.5,0,1,0,1.508,1.486A1.486,1.486,0,0,0,77.054,49.828Zm9.751,0a1.5,1.5,0,1,0,1.507,1.487A1.488,1.488,0,0,0,86.805,49.828Z" fill="#9199a8"/>
    <path id="Path_719" data-name="Path 719" d="M79.305,41.568H77.816V36.339h-4.5v.294c0,5.1-.006,10.2.009,15.3a.833.833,0,0,1-.909.9c-.686-.035-1.375-.007-2.062-.009a.737.737,0,0,1-.787-.791V32.63a.736.736,0,0,1,.8-.8q4.079,0,8.156,0a.736.736,0,0,1,.792.762q0,4.417,0,8.836C79.312,41.465,79.308,41.5,79.305,41.568Z" fill="#9199a8"/>
    <path id="Path_720" data-name="Path 720" d="M84.561,51.319H79.317a2.3,2.3,0,0,0-.879-1.761A2.16,2.16,0,0,0,77,49.084a2.269,2.269,0,0,0-2.2,2.231h-.726V42.328H84.484a.745.745,0,0,1,.828.82q0,3.164,0,6.327a.538.538,0,0,1-.131.321A2.4,2.4,0,0,0,84.561,51.319Z" fill="#9199a8"/>
    <path id="Path_721" data-name="Path 721" d="M90.562,47.6v1.619c0,.46,0,.921,0,1.381a.734.734,0,0,1-.73.729c-.249,0-.5,0-.763,0A2.271,2.271,0,0,0,88.11,49.5a2.163,2.163,0,0,0-2.035-.288V47.6Z" fill="#9199a8"/>
    <path id="Path_722" data-name="Path 722" d="M86.074,46.815V44.578h1.221c.453,0,.908-.023,1.358.011a.824.824,0,0,1,.551.237c.472.636.9,1.3,1.362,1.989Z" fill="#9199a8"/>
    <path id="Path_723" data-name="Path 723" d="M77.054,49.828a1.5,1.5,0,1,1-1.491,1.5A1.487,1.487,0,0,1,77.054,49.828Z" fill="#9199a8"/>
    <path id="Path_724" data-name="Path 724" d="M86.805,49.828a1.5,1.5,0,1,1-1.492,1.5A1.487,1.487,0,0,1,86.805,49.828Z" fill="#9199a8"/>
  </g>
</svg>
