<svg width="103" height="35" viewBox="0 0 103 35" fill="none" xmlns="http://www.w3.org/2000/svg">
<path d="M1.83 28V13H6.39L6.54 15.91C7.02 14.85 7.69 14.05 8.55 13.51C9.43 12.97 10.44 12.7 11.58 12.7C12.7 12.7 13.67 12.95 14.49 13.45C15.31 13.95 15.92 14.69 16.32 15.67C16.64 15.01 17.05 14.46 17.55 14.02C18.07 13.58 18.66 13.25 19.32 13.03C19.98 12.81 20.66 12.7 21.36 12.7C22.36 12.7 23.24 12.9 24 13.3C24.76 13.68 25.36 14.27 25.8 15.07C26.26 15.85 26.49 16.83 26.49 18.01V28H21.39V19.18C21.39 18.22 21.2 17.55 20.82 17.17C20.46 16.79 19.97 16.6 19.35 16.6C18.85 16.6 18.39 16.73 17.97 16.99C17.57 17.23 17.26 17.6 17.04 18.1C16.82 18.6 16.71 19.23 16.71 19.99V28H11.61V19.18C11.61 18.22 11.42 17.55 11.04 17.17C10.66 16.79 10.17 16.6 9.57 16.6C9.11 16.6 8.67 16.72 8.25 16.96C7.85 17.2 7.53 17.58 7.29 18.1C7.05 18.6 6.93 19.26 6.93 20.08V28H1.83ZM37.2122 12.7C38.7922 12.7 40.1722 13.01 41.3522 13.63C42.5522 14.23 43.4822 15.12 44.1422 16.3C44.8222 17.46 45.1622 18.86 45.1622 20.5C45.1622 22.14 44.8222 23.55 44.1422 24.73C43.4822 25.89 42.5522 26.78 41.3522 27.4C40.1722 28 38.7922 28.3 37.2122 28.3C35.6722 28.3 34.3022 28 33.1022 27.4C31.9022 26.78 30.9622 25.89 30.2822 24.73C29.6222 23.55 29.2922 22.14 29.2922 20.5C29.2922 18.86 29.6222 17.46 30.2822 16.3C30.9622 15.12 31.9022 14.23 33.1022 13.63C34.3022 13.01 35.6722 12.7 37.2122 12.7ZM37.2122 16.33C36.6322 16.33 36.1322 16.47 35.7122 16.75C35.2922 17.03 34.9722 17.48 34.7522 18.1C34.5322 18.72 34.4222 19.52 34.4222 20.5C34.4222 21.48 34.5322 22.28 34.7522 22.9C34.9722 23.5 35.2922 23.95 35.7122 24.25C36.1322 24.53 36.6322 24.67 37.2122 24.67C37.8122 24.67 38.3222 24.53 38.7422 24.25C39.1622 23.95 39.4822 23.5 39.7022 22.9C39.9222 22.28 40.0322 21.48 40.0322 20.5C40.0322 19.52 39.9222 18.72 39.7022 18.1C39.4822 17.48 39.1622 17.03 38.7422 16.75C38.3222 16.47 37.8122 16.33 37.2122 16.33ZM55.1712 12.7C56.7512 12.7 58.1312 13.01 59.3112 13.63C60.5112 14.23 61.4412 15.12 62.1012 16.3C62.7812 17.46 63.1212 18.86 63.1212 20.5C63.1212 22.14 62.7812 23.55 62.1012 24.73C61.4412 25.89 60.5112 26.78 59.3112 27.4C58.1312 28 56.7512 28.3 55.1712 28.3C53.6312 28.3 52.2612 28 51.0612 27.4C49.8612 26.78 48.9212 25.89 48.2412 24.73C47.5812 23.55 47.2512 22.14 47.2512 20.5C47.2512 18.86 47.5812 17.46 48.2412 16.3C48.9212 15.12 49.8612 14.23 51.0612 13.63C52.2612 13.01 53.6312 12.7 55.1712 12.7ZM55.1712 16.33C54.5912 16.33 54.0912 16.47 53.6712 16.75C53.2512 17.03 52.9312 17.48 52.7112 18.1C52.4912 18.72 52.3812 19.52 52.3812 20.5C52.3812 21.48 52.4912 22.28 52.7112 22.9C52.9312 23.5 53.2512 23.95 53.6712 24.25C54.0912 24.53 54.5912 24.67 55.1712 24.67C55.7712 24.67 56.2812 24.53 56.7012 24.25C57.1212 23.95 57.4412 23.5 57.6612 22.9C57.8812 22.28 57.9912 21.48 57.9912 20.5C57.9912 19.52 57.8812 18.72 57.6612 18.1C57.4412 17.48 57.1212 17.03 56.7012 16.75C56.2812 16.47 55.7712 16.33 55.1712 16.33ZM68.5402 11.26C67.5002 11.26 66.7402 11.07 66.2602 10.69C65.8002 10.29 65.5702 9.67 65.5702 8.83C65.5702 7.97 65.8002 7.35 66.2602 6.97C66.7402 6.57 67.5002 6.37 68.5402 6.37C69.5602 6.37 70.3102 6.57 70.7902 6.97C71.2702 7.35 71.5102 7.97 71.5102 8.83C71.5102 9.67 71.2702 10.29 70.7902 10.69C70.3102 11.07 69.5602 11.26 68.5402 11.26ZM71.0902 13V28H65.9902V13H71.0902ZM80.9906 8.23V22.66C80.9906 23.38 81.1606 23.9 81.5006 24.22C81.8606 24.52 82.3506 24.67 82.9706 24.67C83.4506 24.67 83.8606 24.62 84.2006 24.52C84.5606 24.4 84.8806 24.23 85.1606 24.01L85.7006 27.16C85.2006 27.52 84.5706 27.8 83.8106 28C83.0506 28.2 82.2706 28.3 81.4706 28.3C80.3306 28.3 79.3406 28.14 78.5006 27.82C77.6806 27.5 77.0406 26.99 76.5806 26.29C76.1406 25.59 75.9106 24.66 75.8906 23.5V9.64L80.9906 8.23ZM85.4606 13V16.63H73.3106V13H85.4606Z" fill="#1877F2"/>
<path d="M103 23C103 25.7614 100.761 28 98 28C95.2386 28 93 25.7614 93 23C93 20.2386 95.2386 18 98 18C100.761 18 103 20.2386 103 23Z" fill="#1877F2"/>
</svg>
