<svg xmlns="http://www.w3.org/2000/svg" width="23.012" height="23" viewBox="0 0 23.012 23">
  <g id="Group_886" data-name="Group 886" transform="translate(-350.808 129.22)">
    <path id="Path_1246" data-name="Path 1246" d="M366.906-125.381a3.5,3.5,0,0,1,2.564-3.726,3.462,3.462,0,0,1,3.855,1.586,3.474,3.474,0,0,1-.665,4.33c.216.361.412.745.662,1.09a2.811,2.811,0,0,1,.493,1.766c-.023,4.519-.012,9.039-.012,13.557,0,.462-.1.558-.56.558h-17.27c-.475,0-.566-.092-.566-.576v-.957c-.48,0-.94-.006-1.4,0a1.8,1.8,0,0,1-1.166-.359,2.006,2.006,0,0,0-1.383-.416c-.589.027-.65-.055-.65-.654v-6.874c0-.4.112-.508.509-.513.583-.008,1.166,0,1.746-.037a2.455,2.455,0,0,0,1.561-.752,3.1,3.1,0,0,0,.746-.794,2.675,2.675,0,0,0,.036-1.017v-1.917a.765.765,0,0,1,.1-.359c.729-1.227,1.467-2.449,2.2-3.675a.5.5,0,0,1,.489-.267q4.2.007,8.408,0Zm6.116,18.388v-13.771h-5.734v4.089c0,.366-.122.491-.483.491h-4.383c-.38,0-.5-.119-.5-.5v-4.081H356.2V-117c.276-.277.521-.528.773-.772a.369.369,0,0,1,.26-.137.369.369,0,0,1,.277.1,1.6,1.6,0,0,1,.749,1.23,1.6,1.6,0,0,1-.544,1.334c-.2.177-.384.369-.624.6h3.285a1.149,1.149,0,0,1,1.146.93,3.8,3.8,0,0,1,.006.655,1.141,1.141,0,0,1,.778,1.091,1.162,1.162,0,0,1-.813,1.125.878.878,0,0,0,.009.1,1.143,1.143,0,0,1-.2,1.03,1.143,1.143,0,0,1-.956.431h-.379a1.189,1.189,0,0,1-.213,1.109,1.189,1.189,0,0,1-1.044.431c-.4-.038-.8-.007-1.2-.007h-1.321V-107ZM351.585-109.3a2.923,2.923,0,0,1,1.746.583,1.49,1.49,0,0,0,.7.193c1.573.016,3.145.009,4.719.009.293,0,.485-.152.489-.379s-.185-.387-.5-.389h-1.245c-.379,0-.546-.115-.549-.376s.164-.388.537-.388h2.874a.4.4,0,0,0,.417-.376.4.4,0,0,0-.4-.388h-2.922a.981.981,0,0,1-.215-.01.378.378,0,0,1-.286-.413.375.375,0,0,1,.136-.258.375.375,0,0,1,.28-.082h3.616a1.238,1.238,0,0,0,.216-.006.381.381,0,0,0,.341-.349.35.35,0,0,0-.27-.377.918.918,0,0,0-.281-.034h-3.593c-.294,0-.461-.155-.446-.406.013-.227.173-.357.448-.357h2.946a.406.406,0,0,0,.3-.1.406.406,0,0,0,.136-.283.423.423,0,0,0-.419-.381h-4.047c-.2,0-.387-.016-.479-.231s.018-.376.169-.525c.421-.415.84-.83,1.253-1.254a.7.7,0,0,0,.235-.538.7.7,0,0,0-.257-.527c-.678.683-1.353,1.374-2.039,2.053a3.376,3.376,0,0,1-2.5,1.019h-1.1Zm21.453-16.448a2.7,2.7,0,0,0-2.665-2.7,2.7,2.7,0,0,0-2.7,2.692,2.7,2.7,0,0,0,2.667,2.674,2.7,2.7,0,0,0,2.7-2.667Zm-16.543,4.191c.073,0,.117.01.162.01H361.8c.155,0,.209-.049.227-.2.025-.2.077-.39.116-.585.151-.755.3-1.511.453-2.272a.886.886,0,0,0-.109-.016q-2.01,0-4.021.006a.359.359,0,0,0-.247.162c-.544.89-1.079,1.787-1.615,2.682-.037.064-.068.127-.113.211Zm10.013,4.6v-3.8h-3.8v3.8Zm-.076-4.6c-.2-.983-.384-1.943-.584-2.9a.248.248,0,0,0-.18-.149c-.711-.011-1.421-.009-2.131,0a.216.216,0,0,0-.165.115c-.2.973-.392,1.949-.587,2.937Zm6.3,0-.7-1.178c-.091.043-.168.08-.245.115a3.289,3.289,0,0,1-1.867.279,3.425,3.425,0,0,1-2.766-2.131.321.321,0,0,0-.2-.137,1.65,1.65,0,0,0-.337-.005c.2.972.392,1.907.568,2.845.034.185.1.227.276.227,1.676,0,3.352,0,5.029,0,.062-.007.131-.012.24-.017Zm-21.145,6.9c.472,0,.926.02,1.379,0a2.337,2.337,0,0,0,1.346-.5c.291-.234.53-.536.828-.758.4-.3.238-.681.273-1.1-.083.077-.12.108-.152.142a3.452,3.452,0,0,1-2.64,1.086c-.341-.007-.682,0-1.033,0Z" fill="#2669a2"/>
    <path id="Path_1247" data-name="Path 1247" d="M374.463-108.25c-.133.147-.258.3-.4.44a.382.382,0,0,1-.283.138.382.382,0,0,1-.29-.121.379.379,0,0,1-.109-.283.379.379,0,0,1,.133-.272q.544-.558,1.1-1.1a.377.377,0,0,1,.294-.147.377.377,0,0,1,.3.139q.558.542,1.1,1.1a.383.383,0,0,1,.14.282.383.383,0,0,1-.118.291.387.387,0,0,1-.294.11.387.387,0,0,1-.279-.145,2.7,2.7,0,0,0-.458-.4v3.538c0,.267-.117.424-.328.452-.255.034-.435-.144-.436-.44v-3.541Z" transform="translate(-4.941 -4.296)" fill="#2669a2"/>
    <path id="Path_1248" data-name="Path 1248" d="M374.993-124.9c.459-.461.873-.892,1.309-1.3a.594.594,0,0,1,.417-.155.364.364,0,0,1,.286.246.364.364,0,0,1-.086.368c-.542.564-1.1,1.115-1.658,1.66a.35.35,0,0,1-.262.108.35.35,0,0,1-.256-.121q-.417-.4-.813-.812a.372.372,0,0,1-.115-.269.372.372,0,0,1,.115-.269.375.375,0,0,1,.278-.123.375.375,0,0,1,.277.123C374.65-125.282,374.806-125.1,374.993-124.9Z" transform="translate(-5.035 -0.625)" fill="#2669a2"/>
  </g>
</svg>
