<svg xmlns="http://www.w3.org/2000/svg" width="24.48" height="24.433" viewBox="0 0 24.48 24.433">
  <g id="Group_864" data-name="Group 864" transform="translate(7 107)">
    <path id="Path_725" data-name="Path 725" d="M180.272-107a7.567,7.567,0,0,1,.7.546c.753.734,1.494,1.479,2.233,2.228a.829.829,0,0,1-.208,1.387,1.44,1.44,0,0,1-.44.084c-.165.014-.332,0-.533,0v.341q0,9.607,0,19.213a1.92,1.92,0,0,1-.023.332.327.327,0,0,1-.346.3q-1.625,0-3.25,0a.327.327,0,0,1-.346-.3,1.92,1.92,0,0,1-.023-.332q0-9.595,0-19.189v-.341c-.284-.021-.554-.018-.816-.065a.813.813,0,0,1-.515-1.248,1.84,1.84,0,0,1,.217-.253c.72-.722,1.435-1.449,2.166-2.16a7.589,7.589,0,0,1,.7-.545Zm1.014,23.707v-.331q0-9.6,0-19.193c0-.08,0-.16,0-.239.017-.29.14-.421.431-.434.262-.011.526,0,.789,0,.083,0,.165-.014.3-.026a1.246,1.246,0,0,0-.127-.207q-1.213-1.22-2.43-2.437a.262.262,0,0,0-.429,0c-.8.808-1.611,1.612-2.413,2.42a.925.925,0,0,0-.117.208.6.6,0,0,0,.11.033c.247,0,.494.006.741.006.552,0,.643.09.643.634q0,9.62,0,19.241v.325Z" transform="translate(-174.793)" fill="#9199a8"/>
    <path id="Path_726" data-name="Path 726" d="M-7,5.552a1.137,1.137,0,0,1,1.227-.725c1.1.029,2.2.007,3.3.01a.8.8,0,0,1,.779.491.787.787,0,0,1-.131.889,2.4,2.4,0,0,1-.249.257c-.084.073-.179.133-.277.2C-.982,8.048.338,9.364,1.652,10.686a3.407,3.407,0,0,1,.419.518,1.971,1.971,0,0,1,.289,1.115q.005,5.545,0,11.09c0,.379-.126.5-.5.5q-1.506,0-3.012,0c-.346,0-.479-.123-.479-.472q-.005-2.653,0-5.306c0-.319.135-.486.371-.485s.367.17.368.488q0,2.366,0,4.732v.305h2.5c0-.085.011-.17.011-.255,0-3.513,0-7.027.005-10.54a1.6,1.6,0,0,0-.506-1.21C-.245,9.82-1.6,8.458-2.956,7.1c-.316-.316-.315-.46,0-.777.169-.169.341-.335.5-.51a.744.744,0,0,0,.094-.178.541.541,0,0,0-.182-.076q-1.721-.007-3.442,0c-.2,0-.3.11-.3.316,0,1.139,0,2.279,0,3.418a.641.641,0,0,0,.064.19.618.618,0,0,0,.18-.082c.2-.192.393-.4.595-.588a.38.38,0,0,1,.622,0q1.76,1.755,3.516,3.515A1.4,1.4,0,0,1-.89,13.334c.007,1.052,0,2.1,0,3.155,0,.28-.143.439-.365.441s-.356-.152-.372-.435c0-.064,0-.127,0-.191,0-.948-.007-1.9,0-2.844a.954.954,0,0,0-.3-.742c-1.015-1-2.02-2.014-3.027-3.023a2.766,2.766,0,0,1-.181-.239c-.144.176-.244.321-.367.444a.836.836,0,0,1-1.455-.23A.329.329,0,0,0-7,9.616Z" transform="translate(0 -106.48)" fill="#9199a8"/>
    <path id="Path_727" data-name="Path 727" d="M318.52,106.652a2.685,2.685,0,0,1-.448.5.76.76,0,0,1-.98-.145c-.14-.129-.263-.277-.416-.439l-.647.729a2.178,2.178,0,0,1-.163.175.351.351,0,0,1-.494.018.325.325,0,0,1-.048-.473q.518-.625,1.072-1.22c.161-.173.354-.149.549.035s.392.4.6.588a.77.77,0,0,0,.2.1.8.8,0,0,0,.064-.215q.006-1.685,0-3.37c0-.251-.079-.336-.326-.337q-1.7-.006-3.394,0a.657.657,0,0,0-.206.076.778.778,0,0,0,.1.178c.175.185.359.362.538.543.267.271.267.437,0,.709-1.363,1.364-2.721,2.732-4.093,4.087a1.638,1.638,0,0,0-.521,1.253c.014,1.952.006,3.9.006,5.856,0,.086,0,.173,0,.275h2.508v-.269c0-1.434,0-2.868,0-4.3a1.694,1.694,0,0,1,.453-1.217c.5-.539.97-1.1,1.459-1.645.071-.08.175-.188.26-.185a.6.6,0,0,1,.386.155c.133.14.067.314-.054.451-.462.527-.913,1.065-1.395,1.573a1.3,1.3,0,0,0-.374.984c.018,1.537.008,3.075.007,4.613,0,.476-.1.573-.571.573h-2.94c-.344,0-.478-.128-.478-.475q0-3.251,0-6.5a2.152,2.152,0,0,1,.671-1.579c1.273-1.263,2.537-2.534,3.805-3.8.062-.062.134-.113.252-.211-.167-.143-.311-.256-.442-.381a.819.819,0,0,1-.24-.972.837.837,0,0,1,.859-.519c1.068,0,2.136.02,3.2-.007a1.158,1.158,0,0,1,1.253.723Z" transform="translate(-301.04 -198.878)" fill="#9199a8"/>
  </g>
</svg>
