<svg xmlns="http://www.w3.org/2000/svg" xmlns:xlink="http://www.w3.org/1999/xlink" width="85.092" height="45.806" viewBox="0 0 85.092 45.806">
  <defs>
    <linearGradient id="linear-gradient" x1="0.161" y1="0.5" x2="0.847" y2="0.5" gradientUnits="objectBoundingBox">
      <stop offset="0" stop-color="#045cb8"/>
      <stop offset="1" stop-color="#047adb"/>
    </linearGradient>
  </defs>
  <g id="Group_883" data-name="Group 883" transform="translate(-714 -286.194)">
    <g id="Group_864" data-name="Group 864" transform="translate(561.493 181.766)">
      <path id="Path_724" data-name="Path 724" d="M189.7,157.613c.118.016.239.016.358.025h6.713c.119-.008.24-.008.358-.025a2.633,2.633,0,0,0,.69-.194,2.63,2.63,0,0,0-.338-4.944c-.115-.032-.234-.049-.351-.073l-.358-.025h-6.713a2.636,2.636,0,0,0-1.366.383,2.63,2.63,0,0,0,1.008,4.853Z" transform="translate(-19.6 -26.91)" fill="#ff9305"/>
      <path id="Path_725" data-name="Path 725" d="M154.775,109.664c.119.016.239.016.358.024h6.713c.119-.008.239-.008.358-.024a2.634,2.634,0,0,0,.689-.193,2.63,2.63,0,0,0-.338-4.945c-.115-.032-.234-.049-.351-.073l-.358-.025h-6.713a2.628,2.628,0,0,0-1.367.383,2.63,2.63,0,0,0,1.008,4.853Z" transform="translate(0 0)" fill="#ff9305"/>
      <path id="Path_726" data-name="Path 726" d="M162.2,152.475c-.115-.032-.234-.049-.351-.073l-.358-.025h-3.629a2.639,2.639,0,0,0-1.367.383,2.63,2.63,0,0,0,1.008,4.853c.119.016.239.016.358.025h3.629c.119-.008.24-.008.358-.025a2.643,2.643,0,0,0,.69-.194,2.63,2.63,0,0,0-.338-4.944Z" transform="translate(-1.529 -26.91)" fill="#ff9305"/>
      <path id="Path_727" data-name="Path 727" d="M192.111,196.93c-.115-.032-.234-.049-.351-.073l-.358-.025h-3.629a2.624,2.624,0,0,0-1.366.383,2.63,2.63,0,0,0,1.008,4.853c.118.016.239.016.358.024H191.4c.119-.008.24-.008.358-.024a2.633,2.633,0,0,0,.69-.193,2.63,2.63,0,0,0-.338-4.945Z" transform="translate(-18.317 -51.859)" fill="#ff9305"/>
      <path id="Path_728" data-name="Path 728" d="M237.6,116.854c0-.021,0-.043,0-.064a1.9,1.9,0,0,0-.016-.194,2.06,2.06,0,0,0-.525-1.09,1.586,1.586,0,0,0-.347-.293c-.03-.021-.061-.042-.093-.062l-.038-.026L218.513,104.7c-.092-.044-.181-.1-.276-.133a2.046,2.046,0,0,0-.6-.136c-.092,0-.184,0-.276,0l-.07,0H173.084a2.624,2.624,0,0,0-1.366.383,2.63,2.63,0,0,0,1.008,4.853c.118.016.239.016.358.024H185.3l.438.041c.09.017.18.032.268.057a2.63,2.63,0,0,1,.338,4.945,2.633,2.633,0,0,1-.69.193c-.118.016-.239.016-.358.025H155.134a2.633,2.633,0,0,0-1.367.383,2.63,2.63,0,0,0,1.008,4.853c.119.016.239.016.358.025h36.312l.438.041c.09.017.18.032.268.057a2.63,2.63,0,0,1,.338,4.945,2.643,2.643,0,0,1-.69.194c-.118.016-.239.016-.358.024h-5.395a2.638,2.638,0,0,0-1.367.383,2.63,2.63,0,0,0,1.008,4.853c.119.016.239.016.358.025H199.36a2.118,2.118,0,0,0,2.118-2.118v-7.467a.4.4,0,0,1,.6-.345l9.318,5.38a8.088,8.088,0,0,1,4.043,7v4.706a3.893,3.893,0,0,1-5.839,3.371l-7.649-4.426a1.059,1.059,0,0,1-.513-.7,2.112,2.112,0,0,0-2.075-1.681H166.08a2.638,2.638,0,0,0-1.366.383,2.63,2.63,0,0,0,1.008,4.853c.119.016.239.016.358.025h22.451l.438.041c.09.017.18.032.268.057a2.63,2.63,0,0,1,.338,4.945,2.617,2.617,0,0,1-.689.193c-.119.016-.239.016-.358.025H181.9a2.625,2.625,0,0,0-1.366.383,2.63,2.63,0,0,0,1.008,4.853c.118.016.239.016.358.024h35.453l.042,0,.094,0c.049,0,.1,0,.147-.005s.108-.011.161-.019a2.07,2.07,0,0,0,.434-.117c.051-.02.1-.044.149-.068l.02-.008a2.49,2.49,0,0,0,.444-.251l17.725-10.233c.084-.058.173-.109.253-.173a2.053,2.053,0,0,0,.772-1.6V116.9C237.6,116.885,237.6,116.869,237.6,116.854Zm-19.411-7.609,12.728,7.349a.355.355,0,0,1,0,.615l-2.5,1.442a1.383,1.383,0,0,1-1.382,0l-12.668-7.314a.4.4,0,0,1,0-.693l2.423-1.4A1.4,1.4,0,0,1,218.186,109.245ZM216.8,124.561l-12.668-7.314a.4.4,0,0,1,0-.693l2.423-1.4a1.4,1.4,0,0,1,1.4,0l12.728,7.349a.355.355,0,0,1,0,.615l-2.5,1.442A1.383,1.383,0,0,1,216.8,124.561Zm16.7,11.465a.944.944,0,0,1-.472.818l-12.069,6.968a.945.945,0,0,1-1.417-.818V129.058a.945.945,0,0,1,.472-.818l3.251-1.877c0,2.417,0,5.861.007,7.587a.625.625,0,0,0,.935.541l5.067-2.886a1,1,0,0,0,.506-.871V122.6l2.3-1.33a.944.944,0,0,1,1.417.818Z" transform="translate(0 0)" fill="url(#linear-gradient)"/>
    </g>
  </g>
</svg>
