<svg xmlns="http://www.w3.org/2000/svg" width="22.331" height="20.76" viewBox="0 0 22.331 20.76">
  <g id="Group_884" data-name="Group 884" transform="translate(-219.221 117.016)">
    <path id="Path_1241" data-name="Path 1241" d="M241.552-107.072a3.068,3.068,0,0,1-.765,1.269q-1.686,2.013-3.362,4.035a3.649,3.649,0,0,1-2.874,1.362q-2.844.03-5.689,0a2.53,2.53,0,0,0-1.968,1,.288.288,0,0,0-.044.18,2.078,2.078,0,0,1-.639,1.544l-1.233,1.233a.454.454,0,0,1-.375.2.454.454,0,0,1-.375-.2l-4.8-4.79c-.076-.076-.138-.165-.207-.249v-.305c.526-.528,1.044-1.066,1.582-1.582a1.88,1.88,0,0,1,1.268-.5.236.236,0,0,0,.235-.144,5.169,5.169,0,0,1,3.517-2.749,1.5,1.5,0,0,0,.159-.054v-9.629c0-.424.136-.56.56-.56H237.5c.419,0,.556.139.556.564v8.336c.145-.134.283-.246.4-.375a1.716,1.716,0,0,1,1.751-.567,1.681,1.681,0,0,1,1.3,1.326c0,.018.025.032.038.048Zm-5.684,1.135c.4-.366.787-.726,1.18-1.079a.441.441,0,0,0,.147-.362q-.006-4.262,0-8.523v-.226H226.87v9.187h.429a5.7,5.7,0,0,1,2,.358,1.253,1.253,0,0,0,.4.075c1.6,0,3.2,0,4.8,0a2.42,2.42,0,0,1,.39.029A1.706,1.706,0,0,1,235.868-105.937Zm-9.326,5.625a1.037,1.037,0,0,0,.083-.07,3.032,3.032,0,0,1,2.281-.894c1.838.018,3.677.007,5.515,0a2.939,2.939,0,0,0,2.052-.766,8.162,8.162,0,0,0,.7-.8q1.633-1.958,3.264-3.918a.873.873,0,0,0,.23-.722.823.823,0,0,0-.6-.7.844.844,0,0,0-.9.24c-.878.91-1.753,1.822-2.64,2.724a.687.687,0,0,0-.217.53,1.694,1.694,0,0,1-1.565,1.664c-1.329.03-2.659.013-3.989.008a.426.426,0,0,1-.327-.169.426.426,0,0,1-.073-.361.448.448,0,0,1,.493-.337h3.684a.871.871,0,0,0,.733-.339.871.871,0,0,0,.14-.8.9.9,0,0,0-.908-.61h-4.73a2.634,2.634,0,0,1-.871-.152,4.934,4.934,0,0,0-4.176.392,3.986,3.986,0,0,0-1.584,1.682Zm-1.92,2.964c.324-.323.663-.651.991-.99a1.145,1.145,0,0,0,.355-.829,1.145,1.145,0,0,0-.355-.829c-.17-.179-.349-.35-.523-.525-.7-.7-1.4-1.412-2.114-2.111a1.143,1.143,0,0,0-.845-.373,1.143,1.143,0,0,0-.844.373c-.171.167-.337.341-.511.506s-.341.306-.48.431Z" fill="#2669a2"/>
    <path id="Path_1242" data-name="Path 1242" d="M229.408-113.468c-.353-.1-.507-.36-.374-.635a.415.415,0,0,1,.4-.251h.806a.442.442,0,0,1,.492.362.442.442,0,0,1-.079.33.442.442,0,0,1-.289.177c-.019.006-.037.015-.08.033.017.379.005.766.059,1.144a1.719,1.719,0,0,0,1.69,1.441,1.722,1.722,0,0,0,1.714-1.439c.054-.378.042-.766.06-1.157a.488.488,0,0,1-.444-.355.431.431,0,0,1,.079-.37.431.431,0,0,1,.341-.165c.284-.007.567,0,.85,0a.432.432,0,0,1,.461.372.437.437,0,0,1-.336.491.981.981,0,0,1-.1.022v.892A2.632,2.632,0,0,1,232.3-110a2.6,2.6,0,0,1-2.818-2.145,12.075,12.075,0,0,1-.074-1.323Z" fill="#2669a2"/>
    <path id="Path_1243" data-name="Path 1243" d="M229.394-103.531a.424.424,0,0,1-.123.313.424.424,0,0,1-.313.125.44.44,0,0,1-.439-.441.459.459,0,0,1,.432-.434.436.436,0,0,1,.313.126.436.436,0,0,1,.13.311Z" fill="#2669a2"/>
  </g>
</svg>
