<svg xmlns="http://www.w3.org/2000/svg" width="23.103" height="23.113" viewBox="0 0 23.103 23.113">
  <g id="Group_885" data-name="Group 885" transform="translate(-276.536 121.506)">
    <path id="Path_1244" data-name="Path 1244" d="M299.639-121.094V-98.8l-.406.407H297.97a.682.682,0,0,1-.413-.726c.021-.448,0-.9,0-1.353h-4.924c0,.452-.013.887,0,1.321a.735.735,0,0,1-.4.758h-1.309a.679.679,0,0,1-.381-.565c0-.8,0-1.609,0-2.414a.33.33,0,0,1,.085-.251.33.33,0,0,1,.243-.107.334.334,0,0,1,.349.29.908.908,0,0,1,.01.2v2.168h.692v-21.744h-.692v17.6a.572.572,0,0,1-.046.326.489.489,0,0,1-.335.189c-.1,0-.209-.134-.282-.233-.042-.057-.026-.16-.026-.242v-1.489c0-.076-.009-.152-.015-.239a.373.373,0,0,0-.072.031c-.035.028-.068.059-.1.089a6.82,6.82,0,0,1-5.661,1.766,6.784,6.784,0,0,1-4.758-2.876.449.449,0,0,0-.42-.221c-.714.014-1.429-.01-2.143.011a.818.818,0,0,1-.841-.417v-6.86a.682.682,0,0,1,.722-.417c.782.017,1.565.01,2.346,0a.421.421,0,0,0,.269-.14c.264-.3.5-.623.769-.912a6.524,6.524,0,0,1,1.925-1.394.344.344,0,0,1,.29-.05.344.344,0,0,1,.223.193c.084.181.012.335-.2.463-.4.244-.8.476-1.176.747a4.73,4.73,0,0,0-1.074,1.1h4.345a.565.565,0,0,1,.481.154.565.565,0,0,1,.166.476c.009.519,0,1.038,0,1.557,0,.079.008.159.012.246h.822v-.546a.532.532,0,0,1,.313-.529.526.526,0,0,1,.611.069q1.138,1,2.263,2a.527.527,0,0,1,.19.4.527.527,0,0,1-.178.4c-.751.682-1.514,1.351-2.278,2.02a.524.524,0,0,1-.612.065.526.526,0,0,1-.308-.509c0-.185,0-.371,0-.556h-.835v1.687c0,.523-.22.74-.741.74h-4.259c.1.129.17.224.249.311a6.169,6.169,0,0,0,5.334,2.128,6.073,6.073,0,0,0,4.211-2.171.527.527,0,0,0,.121-.319q.01-3.789,0-7.58a.5.5,0,0,0-.107-.3,6.206,6.206,0,0,0-5.126-2.216c-.32.01-.639.083-.96.12-.238.028-.389-.073-.423-.269a.338.338,0,0,1,.322-.4,6.917,6.917,0,0,1,6.072,1.66l.224.191v-5.755a.784.784,0,0,1,.389-.789h1.309a.674.674,0,0,1,.4.666c-.008.165,0,.331,0,.5v.92h4.924c0-.461.016-.911-.005-1.359a.68.68,0,0,1,.413-.725h1.263Zm-17.522,14.3v-6.3h-1.394c0,.307.005.6,0,.892a.464.464,0,0,1-.138.36.464.464,0,0,1-.362.132h-.992c-.453,0-.6-.15-.6-.612v-.773h-1.4v6.3Zm16.831,7.714v-21.726h-.7V-99.08Zm-16.12-7.72h2.09v-6.293h-2.09Zm14.718-1.737v-3.171h-1.094c-.281,0-.438-.123-.44-.338s.148-.338.434-.339h1.1v-.711h-4.889v.711h2.088a.343.343,0,0,1,.26.087.343.343,0,0,1,.113.249.348.348,0,0,1-.115.25.348.348,0,0,1-.26.088c-.4,0-.8,0-1.2,0-.053,0-.106.011-.2.021Zm0-8.43-4.22,3.166h4.22Zm-4.893,10.873v3.156l4.208-3.156Zm0-2.107h4.2l-4.2-3.151Zm.7,5.6h4.2v-3.145Zm-.7-11.544,4.19-3.144h-4.19Zm-7,3.486v1.4a.323.323,0,0,0,.063.02h.878c.395,0,.546.155.548.544v.465l1.947-1.725-1.947-1.719v.463c0,.389-.154.541-.548.544-.312.009-.618.006-.946.006Zm11.906,3.168h-4.9v.688h4.9Zm-.01-10.517v-.685h-4.89v.685Zm-4.9,16.81h4.906v-.678h-4.906Zm-13.31-11.9v.694h.683v-.694Z" fill="#2669a2"/>
    <path id="Path_1245" data-name="Path 1245" d="M285.232-105.918a.327.327,0,0,1-.093.244.327.327,0,0,1-.243.1.342.342,0,0,1-.344-.34.351.351,0,0,1,.331-.334.336.336,0,0,1,.245.092.336.336,0,0,1,.1.24Z" transform="translate(-1.017 -1.934)" fill="#2669a2"/>
  </g>
</svg>
