<svg xmlns="http://www.w3.org/2000/svg" xmlns:xlink="http://www.w3.org/1999/xlink" width="52.037" height="42.596" viewBox="0 0 52.037 42.596">
  <defs>
    <linearGradient id="linear-gradient" x1="0.684" y1="-0.114" x2="0.553" y2="0.249" gradientUnits="objectBoundingBox">
      <stop offset="0" stop-color="#f48120"/>
      <stop offset="0.575" stop-color="#a43818"/>
      <stop offset="1" stop-color="#8a1404"/>
    </linearGradient>
    <linearGradient id="linear-gradient-2" x1="-0.676" y1="0.351" x2="0.892" y2="0.516" xlink:href="#linear-gradient"/>
    <linearGradient id="linear-gradient-3" x1="0.889" y1="-0.299" x2="0.331" y2="0.504" gradientUnits="objectBoundingBox">
      <stop offset="0" stop-color="#f6921e"/>
      <stop offset="0.575" stop-color="#e66020"/>
      <stop offset="1" stop-color="#d83b20"/>
    </linearGradient>
    <linearGradient id="linear-gradient-4" x1="0.619" y1="-0.16" x2="0.447" y2="0.803" xlink:href="#linear-gradient-3"/>
    <radialGradient id="radial-gradient" cx="0.191" cy="-0.108" r="0.986" gradientTransform="translate(0.001)" gradientUnits="objectBoundingBox">
      <stop offset="0" stop-color="#ffcb40"/>
      <stop offset="0.307" stop-color="#f8ad37"/>
      <stop offset="0.971" stop-color="#e66321"/>
      <stop offset="1" stop-color="#e66020"/>
    </radialGradient>
    <radialGradient id="radial-gradient-2" cx="1.013" cy="0.009" r="0.771" gradientTransform="matrix(1, 0, 0, 1, 0, 0)" xlink:href="#radial-gradient"/>
    <linearGradient id="linear-gradient-5" x1="0.978" y1="-0.727" x2="0.391" y2="0.376" xlink:href="#linear-gradient-3"/>
    <linearGradient id="linear-gradient-6" x1="0.752" y1="0.027" x2="0.393" y2="0.701" xlink:href="#linear-gradient-3"/>
    <linearGradient id="linear-gradient-7" x1="0.966" y1="0.651" x2="-1.679" y2="-0.27" gradientUnits="objectBoundingBox">
      <stop offset="0" stop-color="#fff6b6"/>
      <stop offset="0.328" stop-color="#f6921e"/>
      <stop offset="0.769" stop-color="#e66020"/>
      <stop offset="1" stop-color="#d83b20"/>
    </linearGradient>
    <linearGradient id="linear-gradient-8" x1="0.82" y1="0.981" x2="-0.851" y2="-1.429" xlink:href="#linear-gradient-7"/>
    <linearGradient id="linear-gradient-9" x1="0.8" y1="0.003" x2="0.636" y2="0.202" gradientUnits="objectBoundingBox">
      <stop offset="0" stop-color="#fff"/>
      <stop offset="0.044" stop-color="#fefaf6"/>
      <stop offset="0.114" stop-color="#fdefdf"/>
      <stop offset="0.201" stop-color="#fcddba"/>
      <stop offset="0.302" stop-color="#fac486"/>
      <stop offset="0.413" stop-color="#f7a444"/>
      <stop offset="0.473" stop-color="#f6921e"/>
      <stop offset="0.78" stop-color="#c85123"/>
      <stop offset="1" stop-color="#9d1b0f"/>
    </linearGradient>
    <linearGradient id="linear-gradient-10" x1="-0.723" y1="0.394" x2="1.464" y2="0.535" xlink:href="#linear-gradient-9"/>
    <radialGradient id="radial-gradient-3" cx="0.5" cy="0.5" r="0.735" gradientTransform="matrix(0.674, 0.671, -0.092, 0.112, -1.92, -3.164)" gradientUnits="objectBoundingBox">
      <stop offset="0.15" stop-color="#fff"/>
      <stop offset="0.282" stop-color="#c2c2c2"/>
      <stop offset="0.425" stop-color="#878787"/>
      <stop offset="0.564" stop-color="#575757"/>
      <stop offset="0.694" stop-color="#313131"/>
      <stop offset="0.813" stop-color="#161616"/>
      <stop offset="0.919" stop-color="#050505"/>
      <stop offset="1"/>
    </radialGradient>
    <radialGradient id="radial-gradient-4" r="0.501" gradientTransform="matrix(0.207, 1, -0.977, 0.004, -26.438, 24.182)" xlink:href="#radial-gradient-3"/>
  </defs>
  <g id="Group_5" data-name="Group 5" transform="translate(-888.963 -454.702)">
    <g id="Group_940" data-name="Group 940" transform="translate(611.022 279.006)">
      <path id="Path_871" data-name="Path 871" d="M331.556,203.114c-4.722-1.953-5.817-.973-27.5,4.848l2.847,1.229c17.98-4.827,17.471-4.537,18.408-4.659,9.283-1.215,14.828,9.663,8.922,16.744a10.184,10.184,0,0,1-5.246,3.311c-5.5,1.473-4.932.833-4.992,3.7.025-.966,1.348-1.074,5.828-2.275C340.979,223.012,342.109,207.478,331.556,203.114Z" transform="translate(-20.385 -20.69)" fill="url(#linear-gradient)"/>
      <path id="Path_872" data-name="Path 872" d="M351.4,286.77c-1.351,2.352-.616,3.409,2.383,14.6l1.236-1.7c-2.439-9.1-3.969-12.9-.98-15.089a4.862,4.862,0,0,0-2.639,2.189Z" transform="translate(-56.844 -84.997)" fill="url(#linear-gradient-2)"/>
      <path id="Path_873" data-name="Path 873" d="M326.6,242.412c-.521.039-.42.05-22.628,6.017,0,13.563-.193,13.615.588,15.461,2.334,5.525,7.858,4.557,12.687,4.557-3-11.187-3.734-12.243-2.383-14.6,1.466-2.538,3.672-2.471,12.153-4.957,1.085-.315,3.161-.795,3.084-3.28a3.333,3.333,0,0,0-3.5-3.2Z" transform="translate(-20.31 -52.079)" fill="url(#linear-gradient-3)"/>
      <g id="Group_931" data-name="Group 931" transform="translate(283.623 175.697)">
        <path id="Path_874" data-name="Path 874" d="M337.071,175.725a7.474,7.474,0,0,1,7.465,7.476v25.7a7.466,7.466,0,0,1-4.56,6.881c-1.8.759-1.943.584-13.736.584-1.281-4.714-1.869-6.85-2.114-7.924-.36-1.575-.238-1.624,2.643-2.366,3.3-.85,6.364-1.4,9.09-4.669,4.991-5.981,3.4-15.733-4.463-18.985-4.722-1.953-5.817-.973-27.5,4.848,0-3.378-.819-8.681,4.561-10.959C310.365,175.5,308.992,175.725,337.071,175.725Z" transform="translate(-303.849 -175.697)" fill="url(#linear-gradient-4)"/>
      </g>
      <g id="Group_932" data-name="Group 932" transform="translate(284.618 191.3)">
        <path id="Path_875" data-name="Path 875" d="M316.878,271.009c-3.861,0-6.542-.68-7.959-4.032-.542-1.274-.553-1.435-.525-8.516,0-1.578.011-3.49.014-5.82,5.624-1.512,9.768-2.628,12.835-3.455,7.949-2.142,8.6-2.313,8.887-2.335.049,0,.1-.007.146-.007a2.377,2.377,0,0,1,2.318,2.265c.045,1.5-.9,1.893-2.23,2.275l-.157.046c-1.988.581-3.658,1.032-5,1.393-4.525,1.214-6.4,1.719-7.721,4.011-1.313,2.275-.935,3.644.878,10.2.319,1.127.679,2.425,1.082,3.927-.217,0-.438.007-.655.015C318.155,270.991,317.512,271.009,316.878,271.009Z" transform="translate(-308.385 -246.844)" fill="url(#radial-gradient)"/>
      </g>
      <g id="Group_933" data-name="Group 933" transform="translate(284.592 176.67)">
        <path id="Path_876" data-name="Path 876" d="M335.116,218.871c-1.3,0-2.835-.008-4.68-.011l-.059-.218c-1.078-3.98-1.624-5.975-1.848-6.955a5.206,5.206,0,0,1-.116-.6,15.233,15.233,0,0,1,2.051-.609l.767-.192c3-.756,6.111-1.541,8.831-4.8a13.437,13.437,0,0,0,2.691-11.778,12.635,12.635,0,0,0-7.532-8.726,10.61,10.61,0,0,0-4.343-.994c-2.622,0-6.038.942-14.291,3.213-2.349.644-5.083,1.4-8.292,2.265-.084-3.308-.161-7.046,3.99-8.8l.168-.074c.9-.384,1.089-.465,7.865-.465,1.558,0,3.455.007,5.768.01,3.655.007,8.351.017,14.438.017a6.507,6.507,0,0,1,6.5,6.5v25.7a6.486,6.486,0,0,1-3.973,5.985c-1.046.445-1.368.528-5.281.528C337.016,218.878,336.145,218.874,335.116,218.871Z" transform="translate(-308.271 -180.132)" fill="url(#radial-gradient-2)"/>
      </g>
      <g id="Group_934" data-name="Group 934" transform="translate(285.227 191.909)">
        <path id="Path_877" data-name="Path 877" d="M311.644,268.9c-.6-1.422-.473-1.285-.462-13.633.378-.1,20.875-5.653,21.263-5.653a1.781,1.781,0,0,1,1.712,1.677c.028.987-.4,1.271-1.793,1.67-8.848,2.545-11.439,2.615-13.234,5.729-1.634,2.835-.868,4.449,1.7,13.844C316.4,272.65,313.2,272.59,311.644,268.9Z" transform="translate(-311.163 -249.619)" fill="url(#linear-gradient-5)"/>
      </g>
      <g id="Group_935" data-name="Group 935" transform="translate(285.202 177.28)">
        <path id="Path_878" data-name="Path 878" d="M333.07,220.427c-1.12-4.12-1.579-5.807-1.8-6.773,3.6-1.113,7.832-1.3,11.421-5.6,5.719-6.853,3.72-17.826-5.071-21.456-5.17-2.142-6.822-1.086-26.566,4.253-.066-3.689.423-6.083,3.8-7.526,1.323-.567,1.3-.388,27.833-.388a5.9,5.9,0,0,1,5.887,5.894v25.7a5.879,5.879,0,0,1-3.6,5.424C343.6,220.546,343.6,220.437,333.07,220.427Z" transform="translate(-311.049 -182.914)" fill="url(#linear-gradient-6)"/>
      </g>
      <g id="Group_936" data-name="Group 936" transform="translate(285.227 191.94)" opacity="0.25">
        <path id="Path_879" data-name="Path 879" d="M312.53,270.523c2.065-2,4.091-4.032,6.1-6.094-.6-2.692-.469-3.941.5-5.621,1.477-2.565,3.5-3.065,9.111-4.585q2.037-2.216,4.042-4.459c-1.907.424-20.742,5.523-21.1,5.621-.011,12.348-.141,12.212.462,13.633a6.313,6.313,0,0,0,.885,1.505Z" transform="translate(-311.163 -249.764)" fill="url(#linear-gradient-7)"/>
      </g>
      <g id="Group_937" data-name="Group 937" transform="translate(285.202 177.28)" opacity="0.25">
        <path id="Path_880" data-name="Path 880" d="M337.621,186.6a13.561,13.561,0,0,1,2.768,1.536q2.058-2.452,4.1-4.914a5.72,5.72,0,0,0-1.792-.283c-26.531,0-26.511-.179-27.833.388-3.381,1.443-3.871,3.837-3.8,7.526C330.8,185.516,332.451,184.46,337.621,186.6Z" transform="translate(-311.049 -182.914)" fill="url(#linear-gradient-8)"/>
      </g>
      <g id="Group_938" data-name="Group 938" transform="translate(283.667 181.261)">
        <path id="Path_881" data-name="Path 881" d="M326.338,236.187c-2.335-8.4-2.306-8.162-2.348-8.785-.091-1.613,3.133-1.334,7.333-3.031,8.289-3.167,10.3-15.974,1.617-21.134-5.365-3.1-6.437-1.84-28.792,3.882l-.1-.042V207c22.2-6.339,23.766-7.341,29.175-4.247,8.89,5.163,7.213,18.694-1.74,22a48.45,48.45,0,0,1-5.4,1.533c-2.216.6-2,.57-1.317,3.259.032.112.684,2.664,1.691,6.612Z" transform="translate(-304.049 -201.066)" fill="url(#linear-gradient-9)"/>
      </g>
      <path id="Path_882" data-name="Path 882" d="M353.567,284.319c-5,2.431-3.495,4.893-.3,16.571l-.1.278H353c-2.348-9.025-4.956-13.543-.986-16.132a8.9,8.9,0,0,1,1.553-.717Z" transform="translate(-56.228 -84.801)" fill="url(#linear-gradient-10)"/>
      <path id="Path_883" data-name="Path 883" d="M428.141,200.883c-.308.343,1.282,2.288,3.557,4.346s4.367,3.446,4.676,3.1-1.281-2.285-3.554-4.345S428.45,200.541,428.141,200.883Z" transform="translate(-117.231 -19.622)" fill="url(#radial-gradient-3)"/>
      <path id="Path_884" data-name="Path 884" d="M349,290.809c-.251.009-.409,1.5-.356,3.342s.3,3.317.55,3.312.411-1.5.36-3.339S349.253,290.8,349,290.809Z" transform="translate(-55.189 -89.867)" fill="url(#radial-gradient-4)"/>
      <g id="Group_939" data-name="Group 939" transform="translate(277.941 214.444)" opacity="0.4">
        <path id="Path_885" data-name="Path 885" d="M329.978,354.726c-.016,1.035-11.679,1.686-26.048,1.45s-26-1.265-25.989-2.3,11.68-1.687,26.048-1.452S330,353.69,329.978,354.726Z" transform="translate(-277.941 -352.376)" fill="#929497" opacity="0"/>
        <path id="Path_886" data-name="Path 886" d="M330.818,354.807c-.016,1.022-11.532,1.664-25.72,1.432s-25.677-1.249-25.661-2.27,11.533-1.666,25.719-1.434S330.836,353.784,330.818,354.807Z" transform="translate(-279.11 -352.463)" fill="#909295" opacity="0.02"/>
        <path id="Path_887" data-name="Path 887" d="M331.658,354.888c-.016,1.009-11.385,1.643-25.391,1.414s-25.349-1.233-25.333-2.242,11.385-1.644,25.391-1.416S331.676,353.878,331.658,354.888Z" transform="translate(-280.278 -352.549)" fill="#8e8f92" opacity="0.039"/>
        <path id="Path_888" data-name="Path 888" d="M332.5,354.969c-.016,1-11.237,1.622-25.062,1.4s-25.021-1.217-25.006-2.212,11.239-1.623,25.062-1.4S332.515,353.972,332.5,354.969Z" transform="translate(-281.445 -352.636)" fill="#8b8d90" opacity="0.059"/>
        <path id="Path_889" data-name="Path 889" d="M333.337,355.05c-.015.983-11.09,1.6-24.733,1.377s-24.693-1.2-24.678-2.183,11.091-1.6,24.734-1.379S333.355,354.066,333.337,355.05Z" transform="translate(-282.613 -352.722)" fill="#898b8e" opacity="0.078"/>
        <path id="Path_890" data-name="Path 890" d="M334.177,355.131c-.015.97-10.943,1.579-24.4,1.359s-24.365-1.186-24.35-2.154,10.944-1.58,24.406-1.361S334.194,354.16,334.177,355.131Z" transform="translate(-283.781 -352.808)" fill="#87898b" opacity="0.098"/>
        <path id="Path_891" data-name="Path 891" d="M335.018,355.212c-.015.957-10.8,1.558-24.076,1.341s-24.037-1.17-24.023-2.126,10.8-1.559,24.077-1.343S335.034,354.255,335.018,355.212Z" transform="translate(-284.95 -352.895)" fill="#858689" opacity="0.118"/>
        <path id="Path_892" data-name="Path 892" d="M335.857,355.293c-.014.944-10.648,1.537-23.747,1.322s-23.709-1.154-23.7-2.1,10.65-1.538,23.749-1.324S335.874,354.349,335.857,355.293Z" transform="translate(-286.118 -352.981)" fill="#838487" opacity="0.137"/>
        <path id="Path_893" data-name="Path 893" d="M336.7,355.375c-.014.931-10.5,1.515-23.419,1.3s-23.381-1.138-23.367-2.067,10.5-1.517,23.42-1.306S336.713,354.443,336.7,355.375Z" transform="translate(-287.286 -353.068)" fill="#818284" opacity="0.157"/>
        <path id="Path_894" data-name="Path 894" d="M337.537,355.455c-.014.918-10.354,1.494-23.09,1.286s-23.053-1.122-23.04-2.038,10.356-1.5,23.092-1.288S337.553,354.537,337.537,355.455Z" transform="translate(-288.454 -353.154)" fill="#7e7f82" opacity="0.176"/>
        <path id="Path_895" data-name="Path 895" d="M338.377,355.537c-.014.9-10.207,1.473-22.762,1.268s-22.725-1.106-22.712-2.01,10.209-1.474,22.763-1.269S338.392,354.631,338.377,355.537Z" transform="translate(-289.622 -353.241)" fill="#7c7d80" opacity="0.196"/>
        <path id="Path_896" data-name="Path 896" d="M339.217,355.618c-.014.892-10.059,1.452-22.433,1.249s-22.4-1.09-22.384-1.98,10.061-1.453,22.435-1.251S339.233,354.726,339.217,355.618Z" transform="translate(-290.79 -353.327)" fill="#7a7b7d" opacity="0.216"/>
        <path id="Path_897" data-name="Path 897" d="M340.057,355.7c-.013.879-9.912,1.431-22.1,1.231s-22.069-1.074-22.056-1.951,9.914-1.431,22.107-1.232S340.072,354.82,340.057,355.7Z" transform="translate(-291.958 -353.414)" fill="#78787b" opacity="0.235"/>
        <path id="Path_898" data-name="Path 898" d="M340.9,355.78c-.013.865-9.765,1.409-21.776,1.213s-21.741-1.058-21.729-1.922,9.767-1.41,21.778-1.214S340.912,354.914,340.9,355.78Z" transform="translate(-293.126 -353.5)" fill="#767679" opacity="0.255"/>
        <path id="Path_899" data-name="Path 899" d="M341.736,355.861c-.013.852-9.617,1.388-21.447,1.2s-21.413-1.042-21.4-1.893,9.62-1.389,21.45-1.2S341.751,355.008,341.736,355.861Z" transform="translate(-294.294 -353.587)" fill="#747476" opacity="0.275"/>
        <path id="Path_900" data-name="Path 900" d="M342.576,355.942c-.013.84-9.47,1.367-21.118,1.176s-21.087-1.026-21.074-1.865,9.473-1.367,21.122-1.177S342.591,355.1,342.576,355.942Z" transform="translate(-295.462 -353.673)" fill="#717274" opacity="0.294"/>
        <path id="Path_901" data-name="Path 901" d="M343.416,356.023c-.012.826-9.323,1.345-20.79,1.158s-20.759-1.01-20.746-1.835,9.326-1.346,20.793-1.159S343.431,355.2,343.416,356.023Z" transform="translate(-296.631 -353.76)" fill="#6f6f72" opacity="0.314"/>
        <path id="Path_902" data-name="Path 902" d="M344.256,356.1c-.012.813-9.176,1.324-20.461,1.14s-20.431-.994-20.418-1.806,9.179-1.325,20.465-1.141S344.27,355.291,344.256,356.1Z" transform="translate(-297.799 -353.846)" fill="#6d6d6f" opacity="0.333"/>
        <path id="Path_903" data-name="Path 903" d="M345.1,356.185c-.012.8-9.028,1.3-20.132,1.121s-20.1-.978-20.091-1.777,9.031-1.3,20.136-1.123S345.11,355.385,345.1,356.185Z" transform="translate(-298.967 -353.933)" fill="#6b6b6d" opacity="0.353"/>
        <path id="Path_904" data-name="Path 904" d="M345.935,356.266c-.012.787-8.881,1.282-19.8,1.1s-19.775-.962-19.763-1.748,8.885-1.282,19.808-1.1S345.949,355.479,345.935,356.266Z" transform="translate(-300.135 -354.019)" fill="#69686b" opacity="0.373"/>
        <path id="Path_905" data-name="Path 905" d="M346.776,356.347c-.011.774-8.734,1.26-19.475,1.085s-19.448-.946-19.435-1.719,8.737-1.261,19.479-1.086S346.79,355.573,346.776,356.347Z" transform="translate(-301.303 -354.106)" fill="#666668" opacity="0.392"/>
        <path id="Path_906" data-name="Path 906" d="M347.616,356.429c-.011.761-8.586,1.239-19.146,1.066s-19.12-.931-19.107-1.69,8.59-1.24,19.151-1.068S347.629,355.667,347.616,356.429Z" transform="translate(-302.471 -354.192)" fill="#646466" opacity="0.412"/>
        <path id="Path_907" data-name="Path 907" d="M348.455,356.51c-.011.748-8.439,1.218-18.817,1.048s-18.792-.915-18.78-1.661,8.443-1.218,18.822-1.049S348.469,355.761,348.455,356.51Z" transform="translate(-303.639 -354.279)" fill="#626264" opacity="0.431"/>
        <path id="Path_908" data-name="Path 908" d="M349.3,356.591c-.011.735-8.292,1.2-18.489,1.03s-18.464-.9-18.452-1.632,8.3-1.2,18.494-1.031S349.308,355.856,349.3,356.591Z" transform="translate(-304.807 -354.365)" fill="#605f61" opacity="0.451"/>
        <path id="Path_909" data-name="Path 909" d="M350.135,356.672c-.012.722-8.145,1.175-18.16,1.012s-18.136-.883-18.125-1.6,8.149-1.176,18.166-1.013S350.146,355.95,350.135,356.672Z" transform="translate(-305.975 -354.451)" fill="#5e5d5f" opacity="0.471"/>
        <path id="Path_910" data-name="Path 910" d="M350.975,356.753c-.011.709-8,1.154-17.831.993s-17.808-.867-17.8-1.574,8-1.154,17.837-.994S350.987,356.044,350.975,356.753Z" transform="translate(-307.144 -354.538)" fill="#5c5b5d" opacity="0.49"/>
        <path id="Path_911" data-name="Path 911" d="M351.815,356.834c-.011.7-7.85,1.133-17.5.975s-17.48-.851-17.469-1.545,7.854-1.133,17.509-.976S351.826,356.138,351.815,356.834Z" transform="translate(-308.312 -354.624)" fill="#59585a" opacity="0.51"/>
        <path id="Path_912" data-name="Path 912" d="M352.655,356.915c-.011.683-7.7,1.112-17.174.957s-17.153-.835-17.142-1.516,7.707-1.112,17.18-.957S352.666,356.232,352.655,356.915Z" transform="translate(-309.479 -354.711)" fill="#575658" opacity="0.529"/>
        <path id="Path_913" data-name="Path 913" d="M353.494,357c-.011.67-7.556,1.09-16.845.939s-16.825-.819-16.814-1.487,7.56-1.09,16.852-.939S353.5,356.326,353.494,357Z" transform="translate(-310.647 -354.797)" fill="#555456" opacity="0.549"/>
        <path id="Path_914" data-name="Path 914" d="M354.334,357.077c-.01.657-7.408,1.069-16.517.92s-16.5-.8-16.486-1.458,7.413-1.069,16.524-.921S354.345,356.421,354.334,357.077Z" transform="translate(-311.815 -354.884)" fill="#535153" opacity="0.569"/>
        <path id="Path_915" data-name="Path 915" d="M355.174,357.158c-.01.644-7.261,1.048-16.188.9s-16.169-.787-16.158-1.429,7.266-1.048,16.2-.9S355.185,356.515,355.174,357.158Z" transform="translate(-312.984 -354.97)" fill="#514f51" opacity="0.588"/>
        <path id="Path_916" data-name="Path 916" d="M356.014,357.239c-.01.63-7.114,1.027-15.859.884s-15.841-.771-15.831-1.4,7.119-1.027,15.867-.884S356.024,356.609,356.014,357.239Z" transform="translate(-314.152 -355.057)" fill="#4f4d4f" opacity="0.608"/>
        <path id="Path_917" data-name="Path 917" d="M356.854,357.32c-.01.617-6.966,1.005-15.531.866s-15.513-.755-15.5-1.371,6.971-1.005,15.538-.866S356.864,356.7,356.854,357.32Z" transform="translate(-315.32 -355.143)" fill="#4c4b4c" opacity="0.627"/>
        <path id="Path_918" data-name="Path 918" d="M357.694,357.4c-.01.6-6.819.984-15.2.847s-15.185-.739-15.176-1.342,6.825-.984,15.21-.848S357.7,356.8,357.694,357.4Z" transform="translate(-316.488 -355.23)" fill="#4a484a" opacity="0.647"/>
        <path id="Path_919" data-name="Path 919" d="M358.533,357.483c-.009.591-6.672.963-14.873.829s-14.86-.724-14.848-1.312,6.677-.963,14.882-.829S358.543,356.891,358.533,357.483Z" transform="translate(-317.656 -355.316)" fill="#484648" opacity="0.667"/>
        <path id="Path_920" data-name="Path 920" d="M359.374,357.564c-.009.578-6.525.942-14.545.811s-14.53-.707-14.52-1.284,6.53-.941,14.553-.811S359.383,356.986,359.374,357.564Z" transform="translate(-318.824 -355.403)" fill="#464445" opacity="0.686"/>
        <path id="Path_921" data-name="Path 921" d="M360.213,357.645c-.009.565-6.377.92-14.216.793s-14.2-.691-14.193-1.255,6.383-.92,14.225-.793S360.222,357.08,360.213,357.645Z" transform="translate(-319.992 -355.489)" fill="#444143" opacity="0.706"/>
        <path id="Path_922" data-name="Path 922" d="M361.053,357.726c-.009.552-6.23.9-13.887.774s-13.874-.675-13.865-1.226,6.236-.9,13.9-.774S361.062,357.174,361.053,357.726Z" transform="translate(-321.16 -355.576)" fill="#413f41" opacity="0.725"/>
        <path id="Path_923" data-name="Path 923" d="M361.893,357.807c-.009.539-6.083.878-13.559.756s-13.546-.659-13.537-1.2,6.089-.877,13.568-.756S361.9,357.268,361.893,357.807Z" transform="translate(-322.328 -355.662)" fill="#3f3d3e" opacity="0.745"/>
        <path id="Path_924" data-name="Path 924" d="M362.733,357.888c-.008.526-5.935.857-13.23.738s-13.218-.644-13.209-1.168,5.942-.856,13.239-.738S362.742,357.362,362.733,357.888Z" transform="translate(-323.497 -355.749)" fill="#3d3b3c" opacity="0.765"/>
        <path id="Path_925" data-name="Path 925" d="M363.573,357.969c-.008.513-5.788.835-12.9.72s-12.89-.628-12.882-1.139,5.794-.835,12.911-.719S363.581,357.457,363.573,357.969Z" transform="translate(-324.665 -355.835)" fill="#3b383a" opacity="0.784"/>
        <path id="Path_926" data-name="Path 926" d="M364.413,358.05c-.008.5-5.641.814-12.572.7s-12.562-.612-12.554-1.11,5.647-.814,12.583-.7S364.421,357.551,364.413,358.05Z" transform="translate(-325.833 -355.921)" fill="#393637" opacity="0.804"/>
        <path id="Path_927" data-name="Path 927" d="M365.252,358.131c-.008.487-5.494.793-12.244.683s-12.235-.6-12.227-1.081,5.5-.792,12.254-.682S365.26,357.645,365.252,358.131Z" transform="translate(-327.001 -356.008)" fill="#373435" opacity="0.824"/>
        <path id="Path_928" data-name="Path 928" d="M366.092,358.212c-.007.474-5.346.772-11.915.665s-11.907-.58-11.9-1.052,5.353-.771,11.926-.664S366.1,357.739,366.092,358.212Z" transform="translate(-328.169 -356.094)" fill="#343133" opacity="0.843"/>
        <path id="Path_929" data-name="Path 929" d="M366.933,358.293c-.007.461-5.2.75-11.586.646s-11.579-.564-11.571-1.023,5.206-.75,11.6-.646S366.94,357.833,366.933,358.293Z" transform="translate(-329.337 -356.181)" fill="#322f30" opacity="0.863"/>
        <path id="Path_930" data-name="Path 930" d="M367.772,358.374c-.007.448-5.052.729-11.258.628s-11.251-.548-11.244-.994,5.059-.728,11.269-.627S367.779,357.927,367.772,358.374Z" transform="translate(-330.505 -356.267)" fill="#302d2e" opacity="0.882"/>
        <path id="Path_931" data-name="Path 931" d="M368.612,358.456c-.007.435-4.9.708-10.929.61s-10.923-.532-10.916-.965,4.912-.707,10.94-.609S368.619,358.022,368.612,358.456Z" transform="translate(-331.673 -356.354)" fill="#2e2a2c" opacity="0.902"/>
        <path id="Path_932" data-name="Path 932" d="M369.452,358.536c-.007.422-4.757.687-10.6.591s-10.6-.516-10.588-.936,4.765-.686,10.612-.591S369.458,358.116,369.452,358.536Z" transform="translate(-332.841 -356.44)" fill="#2c2829" opacity="0.922"/>
        <path id="Path_933" data-name="Path 933" d="M370.291,358.618c-.006.409-4.61.665-10.272.573s-10.267-.5-10.261-.907,4.617-.664,10.284-.573S370.3,358.21,370.291,358.618Z" transform="translate(-334.009 -356.527)" fill="#2a2627" opacity="0.941"/>
        <path id="Path_934" data-name="Path 934" d="M371.132,358.7c-.006.4-4.463.644-9.943.555s-9.939-.484-9.933-.878,4.47-.643,9.955-.554S371.138,358.3,371.132,358.7Z" transform="translate(-335.178 -356.613)" fill="#272425" opacity="0.961"/>
        <path id="Path_935" data-name="Path 935" d="M371.971,358.78c-.006.382-4.315.623-9.614.537s-9.612-.468-9.605-.849,4.323-.622,9.627-.536S371.977,358.4,371.971,358.78Z" transform="translate(-336.345 -356.7)" fill="#252122" opacity="0.98"/>
        <path id="Path_936" data-name="Path 936" d="M372.811,358.861c0,.37-4.168.6-9.285.518s-9.278-.452-9.278-.82,4.176-.6,9.3-.518S372.819,358.492,372.811,358.861Z" transform="translate(-337.513 -356.786)" fill="#231f20"/>
      </g>
    </g>
  </g>
</svg>
