<svg xmlns="http://www.w3.org/2000/svg" width="26.305" height="26.302" viewBox="0 0 26.305 26.302">
  <g id="Group_888" data-name="Group 888" transform="translate(-530.413 131.919)">
    <path id="Path_1252" data-name="Path 1252" d="M546.128-131.915c.984.547,1.967,1.1,2.953,1.639q3.582,1.97,7.169,3.929a.781.781,0,0,1,.464.794c-.021,1.1-.006,2.208-.009,3.312a.509.509,0,0,1-.416.538.507.507,0,0,1-.574-.326.87.87,0,0,1-.032-.277q0-1.155,0-2.311v-.286l-.5.276c-.742.407-1.48.819-2.227,1.216a.346.346,0,0,0-.215.356c.009.932,0,1.866.008,2.8a.7.7,0,0,1-.406.7c-.665.35-1.318.723-1.978,1.083-.481.262-.848.039-.85-.516V-121.5c-.1.049-.17.078-.235.113-.869.477-1.736.956-2.607,1.427a.312.312,0,0,0-.191.317q.007,4.8,0,9.6c0,.065.009.131.016.225.088-.043.155-.072.219-.107l8.766-4.8a.346.346,0,0,0,.2-.36c-.008-.976,0-1.952,0-2.927,0-.379.191-.6.512-.6s.512.221.513.6v3.389a.6.6,0,0,1-.334.582q-5.056,2.772-10.109,5.551a.6.6,0,0,1-.629,0c-.619-.347-1.242-.684-1.864-1.025-.082-.044-.165-.085-.267-.137-.041.075-.079.137-.112.2a6.854,6.854,0,0,1-6.616,3.82,6.774,6.774,0,0,1-2.417-.625c-.355-.165-.49-.442-.353-.733s.427-.366.786-.211a5.58,5.58,0,0,0,6.093-.76,5.449,5.449,0,0,0,1.966-5.925,5.486,5.486,0,0,0-4.587-4.267,5.763,5.763,0,0,0-4.431,1,5.763,5.763,0,0,0-2.334,3.9,5.827,5.827,0,0,0,.468,3.23.964.964,0,0,1,.068.535.433.433,0,0,1-.441.327.5.5,0,0,1-.508-.32,6.789,6.789,0,0,1-.621-2.076,2.074,2.074,0,0,0-.053-.219v-1.335a.732.732,0,0,0,.048-.142,6.608,6.608,0,0,1,2.754-4.7,19.1,19.1,0,0,1,1.925-1.1l.052.063v-6.642a.688.688,0,0,1,.4-.674q3.989-2.179,7.971-4.373c.738-.406,1.471-.822,2.205-1.235Zm-9.888,12.683a1.165,1.165,0,0,0,.183-.008,6.752,6.752,0,0,1,2.642.189,6.833,6.833,0,0,1,4.836,8.157.263.263,0,0,0,0,.215.263.263,0,0,0,.161.143c.388.2.765.417,1.147.626.061.033.128.055.212.09.006-.1.013-.156.013-.215v-9.6a.336.336,0,0,0-.212-.334q-4.371-2.393-8.738-4.8c-.077-.042-.158-.076-.25-.12Zm.563-6.554c.068.044.1.068.139.089q4.423,2.43,8.849,4.853a.427.427,0,0,0,.343-.009c.494-.253.977-.527,1.463-.794l1.345-.743-1.718-.945q-3.627-1.991-7.257-3.978a.376.376,0,0,0-.3-.035c-.946.506-1.886,1.027-2.867,1.562Zm18.3.014c-.072-.046-.107-.07-.144-.091q-4.424-2.43-8.852-4.854a.421.421,0,0,0-.343.016c-.837.446-1.665.906-2.5,1.363-.059.032-.113.071-.188.118l2.757,1.515,6.2,3.4a.384.384,0,0,0,.3.046c.924-.493,1.835-1,2.774-1.513Zm-3.952,2.169-1.1-.606q-3.932-2.16-7.864-4.316c-.076-.042-.191-.1-.25-.07-.355.176-.7.373-1.083.585l2.4,1.32q3.267,1.8,6.536,3.587c.088.049.224.107.295.072.355-.169.685-.361,1.071-.569Zm.535.894a3.292,3.292,0,0,1-.455.241.943.943,0,0,0-.6.432.943.943,0,0,0-.1.734,12.472,12.472,0,0,1,.013,1.547c.384-.21.727-.394,1.064-.586a.194.194,0,0,0,.082-.141c.011-.725.009-1.45.009-2.228Z" fill="#2669a2"/>
    <path id="Path_1253" data-name="Path 1253" d="M537.1-105.545c.148.155.26.26.358.377a.5.5,0,0,1-.023.7.488.488,0,0,1-.342.158.488.488,0,0,1-.353-.133q-.658-.629-1.287-1.288a.461.461,0,0,1-.143-.337.461.461,0,0,1,.148-.335q.62-.649,1.269-1.271a.5.5,0,0,1,.7,0,.5.5,0,0,1,.164.351.5.5,0,0,1-.137.363,2.81,2.81,0,0,1-.356.289l.051.077c.071,0,.142.015.213.015h2.694a2.359,2.359,0,0,1,2.42,2.146,2.381,2.381,0,0,1-.572,1.753,2.381,2.381,0,0,1-1.653.819c-.632.019-1.265.008-1.9,0a.5.5,0,0,1-.39-.134.5.5,0,0,1-.156-.382.5.5,0,0,1,.161-.378.5.5,0,0,1,.389-.13c.582,0,1.164.011,1.745-.006a1.283,1.283,0,0,0,1.22-.788,1.276,1.276,0,0,0-.17-1.374,1.156,1.156,0,0,0-.9-.49C539.222-105.558,538.189-105.545,537.1-105.545Z" transform="translate(-1.549 -7.623)" fill="#2669a2"/>
    <path id="Path_1254" data-name="Path 1254" d="M534.147-97.132a.5.5,0,0,1-.162.362.5.5,0,0,1-.375.13.516.516,0,0,1-.487-.522.5.5,0,0,1,.156-.364.5.5,0,0,1,.372-.136.5.5,0,0,1,.361.159A.5.5,0,0,1,534.147-97.132Z" transform="translate(-0.857 -10.835)" fill="#2669a2"/>
    <path id="Path_1255" data-name="Path 1255" d="M567.883-115.464a.5.5,0,0,1,.367.147.5.5,0,0,1,.146.367.509.509,0,0,1-.154.365.509.509,0,0,1-.369.144.51.51,0,0,1-.5-.506.5.5,0,0,1,.144-.368.5.5,0,0,1,.366-.149Z" transform="translate(-11.692 -5.204)" fill="#2669a2"/>
  </g>
</svg>
