<svg xmlns="http://www.w3.org/2000/svg" width="171.763" height="58.046" viewBox="0 0 171.763 58.046">
  <g id="Group_19635" data-name="Group 19635" transform="translate(-828.958 -2196.29)">
    <path id="Path_72452" data-name="Path 72452" d="M1000.721,2211.025l-17.927,38.587s-24.822-3.218-36.314-3.218-56.08,2.758-65.733,5.516-14.25,3.677-20.226,0-25.282-17.927-28.5-19.766c-2.847-1.628-4.073-6.665-2.094-8.447a2.465,2.465,0,0,1,.945-.517,4.6,4.6,0,0,0,.587-.217h.006c2.867-1.321,4.712-5.759,8.37-5.759,1.979,0,3.064.166,4.1.032a4.155,4.155,0,0,0,.543-.1l.051-.013a10.191,10.191,0,0,0,3.115-1.532s19.766-13.79,39.072-16.548,46.427-2.758,55.62-2.758,29.419,2.758,39.992,5.516a51.642,51.642,0,0,1,13.829,6.052A43.693,43.693,0,0,1,1000.721,2211.025Z" fill="#ed9d67"/>
    <path id="Path_72453" data-name="Path 72453" d="M1000.721,2241.072l-12.66,27.249-5.267,11.338s-24.822-3.218-36.314-3.218-56.08,2.758-65.733,5.516-14.25,3.677-20.226,0c-1.2-.741-2.943-1.909-4.986-3.32-8.108-5.592-20.94-14.978-23.514-16.446-2.847-1.628-4.073-6.665-2.094-8.446,0,0,1.585,4.315,4.656,3.393s13.136-4,14.216-3.911,1.506.862,2.22,1.245,1.375.333,1.592-.111a2.5,2.5,0,0,0-.688-2.425c-.83-.981,20.862,9.162,20.862,9.162a93.975,93.975,0,0,0,9.334,2.643,75.686,75.686,0,0,0,13.643.977c3.527,0,5.224-.22,6.742-1.3s7.5-5.638,11-5.8,13.166,4.806,17.8,5.956,12.567,1.7,14.716,2.145,5.554,1.248,7.508,1.111,6.229-2.669,7.814-3.1,7.082-1.92,10.279-2.958,6.337-1.088,7.737-1.7a32.587,32.587,0,0,0,12.771-9.921c1.993-2.352,5.383-6.905,6.6-7.79S1000.721,2241.072,1000.721,2241.072Z" transform="translate(0 -30.047)" fill="#cc7743"/>
    <path id="Path_72454" data-name="Path 72454" d="M859.687,2277.211s-13.217,4.466-13.846,4.651-1.019,1.043-.463,2.474,5.405,5.513,7.95,7.165,3.864-5.542,5.321-5.345,2.492,6.235,3.106,9.059.024-10.619.447-11.835c.444-1.277,2.088-1.721,2.088,0a41.311,41.311,0,0,0,3.245,14.248c1.608,2.707,3.709,4.533,3.218,2.3s-6.3-18.732-4.331-16.991c.9.794,5.157,8.75,8.1,12.476,3.505,4.439,11.3,10.111,8.225,6.239s-10.938-15.938-10.66-17.882,2.447-1.174,4.831-.722a45.025,45.025,0,0,1,5.262,1.448l-4.651-3.724s-13.049-5.165-12.66-4.193.944,2.472,0,3.138c-.808.57-2.452.033-3.419-.372S859.687,2277.211,859.687,2277.211Z" transform="translate(-10.887 -54.03)" fill="#a35e35"/>
    <path id="Path_72455" data-name="Path 72455" d="M1059.36,2252.953c-1.658-.268-9.332,8.536-14.49,10.908a54.716,54.716,0,0,1-15.264,4.031c-2,.008-5.553,5.711-15.77,4.3a107.362,107.362,0,0,0-19.767-1.114c-2.221.15-5.108-3.182-6.552-4.07s-8.44-3-12.216-1.777-9.106,8.551-15.436,8.218-15.881-3.062-18.213-3.585-16.1-4.582-18.657-6.662.44-3.513.44-3.513l15.107,4.987,25.431.111,15.2-4.442,23.113,4.553,32.265-2.039,24.258-15.49,3.668-1.8Z" transform="translate(-62.685 -33.219)" fill="#a35e35"/>
    <path id="Path_72456" data-name="Path 72456" d="M904.969,2270.02a102.639,102.639,0,0,0,12.582,4.341c2.813.656,10.18,4.272,15.066,4.654s8.773-.592,11.439-.592,7.245-2.211,10.735-4.062,5.034-4.3,9.106-2.9,8.967,4.984,13.252,5.849,14.215,2.306,18.138,2.742,8.218-.891,12.29-2.964,11.4-2,14.585-3.554a50.219,50.219,0,0,0,10.94-7.579c2.461-2.49,5.224-7.677,5.224-7.677l-1.8.3-11.622,10.518-7.4,3.405-13.326,3.954-17.991.785-11.993-3.628-12.29-6-9.4,3.184-8.07,5.656-13.853-.554-14.724-5.4-18.824-7.811.476,3.743S901.174,2268.418,904.969,2270.02Z" transform="translate(-45.876 -41.781)" fill="#ed9d67"/>
    <path id="Path_72457" data-name="Path 72457" d="M862.773,2259.292a54.692,54.692,0,0,1-8.5,3.448c-3.664.983-3.79-2.384-2.386-2.976a23.327,23.327,0,0,1,4.44-1.454c1.692-.382,7.752-1.711,10.108-1.544s6.455,2.642,6.455,2.642l18.387,8.619,9.423,3.448h13.348s11.87-9.54,15.312-9.007,6.2,2.659,9.7,4,10.564,4.371,13.451,5.111a50.4,50.4,0,0,0,12.017.96,58.844,58.844,0,0,0,14.363-2.443,86.915,86.915,0,0,0,14.067-6.369c3.48-1.956,13.476-10.444,13.476-10.444a63.7,63.7,0,0,1-3.8,7.318c-1.518,2.2-8,6.034-10.553,6.978s-9.321,2.533-11.565,3.332-6.439,3.612-13.1,4.072a58.136,58.136,0,0,1-20.582-2.961c-4.968-1.815-12.991-5.794-16.139-5.849s-10.335,4.439-15.621,6.737-22.879-1.661-25.178-2.58-14.25-5.442-14.25-5.442-4.383-1.954-5.993-2.787S865.608,2258.142,862.773,2259.292Z" transform="translate(-14.893 -38.409)" fill="#a35e35"/>
    <path id="Path_72458" data-name="Path 72458" d="M921.748,2218.54c-2.8-1.22,11.821-6.129,14.1-6.129s6.91-.153,8.887,0,7.14-4.392,12.258-5.516,33.164-2.145,38.612-2.145,13.842,2.523,18.08,3.064,11.973.983,14.4,1.839,5.976,3.907,7.815,6.186c2.224,2.757-9.086,1.391-15.749-.444s-16.695-2.8-20.565-2.371c-4.9.536-10.7,2.6-15.488,3.242s-17.233-.816-22.647-.177-16.519,3.971-19.784,4.29a66.539,66.539,0,0,1-10.113,0C928.274,2220.134,924.551,2219.76,921.748,2218.54Z" transform="translate(-62.3 -5.702)" fill="#fab083"/>
    <path id="Path_72459" data-name="Path 72459" d="M1002.571,2240.239a2.679,2.679,0,0,1-2.871,2.043c-1.645.031-3.167,1.981-5.516,4.6a55.07,55.07,0,0,1-8.964,7.649,72.024,72.024,0,0,1-15.629,6.831,50.272,50.272,0,0,1-14.709,2.528,38.677,38.677,0,0,1-12.411-1.609c-4.607-1.456-20.608-10.845-23.67-10.489s-11.195,9.354-14.463,10.489-10.24.7-12.819.321-4.886-1.036-9.954-3.768a79.41,79.41,0,0,0,9.584,1.695,34.77,34.77,0,0,0,8.8-.546c3.042-.638,5.882-2.353,3.907-3.2s-7.125-.594-7.125-.594-8.136.593-11.377.594-6.106-1-9.078-1.628-5.564-1.975-8.951-3.53-7.625-4.386-10.328-4.609-11.6,1.61-13.437,2.11a15.483,15.483,0,0,0-4.154,2.03,12.187,12.187,0,0,1-2.758,1.023c2.867-1.321,4.712-5.759,8.37-5.759,1.979,0,3.064.166,4.1.032,0,0,7.285-1.984,9.232-1.641s11.352,5.286,13.937,6.436a32.245,32.245,0,0,0,9.04,2.452,91.332,91.332,0,0,0,15.629,0c4.457-.575,16.931-4.137,20-4.443s8.449-.537,12.641,1.3,24.484,3.448,29.189,3.141,16.134-.022,20-1.3c5.779-1.917,11.283-6.691,13.79-9.423C995.517,2239.767,1003.016,2238.906,1002.571,2240.239Z" transform="translate(-5.185 -29.214)" fill="#fab083"/>
    <path id="Path_72460" data-name="Path 72460" d="M1043.005,2325.067l-5.267,11.339s-24.822-3.218-36.314-3.218-56.08,2.758-65.733,5.517-14.25,3.677-20.226,0c-1.2-.741-2.943-1.909-4.986-3.32,0,0,8.51,3.167,11.268,3.32s8.121-.811,10.113-3.32,3.984-2.656,7.048-2.656,16.855-1.072,23.9-2.758,9.96-1.379,21.145-1.532,25.435-.919,30.492-1.839,10.113-2.146,16.548.613C1035.133,2328.987,1040.036,2326.829,1043.005,2325.067Z" transform="translate(-54.944 -86.793)" fill="#a35e35"/>
  </g>
</svg>
