<svg xmlns="http://www.w3.org/2000/svg" width="29.51" height="22.845" viewBox="0 0 29.51 22.845">
  <g id="Group_887" data-name="Group 887" transform="translate(-454.065 122.905)">
    <path id="Path_1249" data-name="Path 1249" d="M454.065-113.614a.907.907,0,0,1,.809-.311c1.728.009,3.457,0,5.186,0h.373c.006-.125.016-.226.016-.327,0-1.239.005-2.478,0-3.717a.477.477,0,0,1,.351-.513q5.376-2.151,10.741-4.328a1.134,1.134,0,0,1,.932.01q5.4,2.218,10.8,4.413a.439.439,0,0,1,.3.461q-.008,6.339,0,12.678a.6.6,0,0,1-.411.62l-10.912,4.519a.789.789,0,0,1-.546,0q-5.461-2.249-10.913-4.519a.6.6,0,0,1-.406-.624c.007-.661,0-1.322,0-2.028h-4.53a1.189,1.189,0,0,1-.287-.015.485.485,0,0,1-.4-.461.462.462,0,0,1,.335-.509,1.191,1.191,0,0,1,.368-.045h4.5v-1.738h-1.833c-.41,0-.664-.208-.656-.527s.247-.5.645-.5h1.837v-1.739h-5.378a1.1,1.1,0,0,1-.92-.4Zm28.478-3.564c-.1.036-.154.052-.2.074l-9.632,4c-.2.083-.2.21-.2.378v11.4c.115-.039.2-.061.273-.093q4.777-1.984,9.555-3.964a.363.363,0,0,0,.249-.412q-.025-5.545-.039-11.092Zm-21.12,9.9c0,.529.009,1.026,0,1.523a.342.342,0,0,0,.25.382q4.75,1.967,9.5,3.947c.085.036.174.065.285.105.007-.1.017-.174.017-.247q0-5.6.006-11.2c0-.21-.1-.273-.259-.341q-4.737-1.963-9.471-3.933c-.092-.038-.188-.069-.3-.109v3.305h.505c.163,0,.326-.006.489,0a.506.506,0,0,1,.417.217.506.506,0,0,1,.058.467.562.562,0,0,1-.578.344h-.89v1.735h4.769a.522.522,0,0,1,.4.129.522.522,0,0,1,.176.382.545.545,0,0,1-.552.518c-.076.006-.153,0-.23,0h-4.56v1.738h.338c.567,0,1.133,0,1.7,0a.5.5,0,0,1,.388.126.5.5,0,0,1,.165.374.513.513,0,0,1-.157.389.513.513,0,0,1-.4.142h-.345Zm.874-10.687a1.321,1.321,0,0,0,.134.082c1.343.56,2.686,1.123,4.035,1.671a.589.589,0,0,0,.4-.029q3.8-1.6,7.6-3.206c.55-.233,1.1-.469,1.694-.722-.089-.045-.128-.068-.169-.085-1.279-.514-2.558-1.031-3.841-1.536a.522.522,0,0,0-.348.015c-.9.352-1.8.715-2.7,1.076Zm19.418.016c-1.393-.559-2.714-1.1-4.041-1.616a.561.561,0,0,0-.375.038q-4.525,1.911-9.046,3.835c-.073.031-.142.073-.243.125.073.036.1.054.139.068,1.227.515,2.452,1.034,3.685,1.537a.584.584,0,0,0,.4-.024q3.45-1.43,6.894-2.875C479.965-117.211,480.8-117.564,481.715-117.949Z" fill="#2669a2"/>
    <path id="Path_1250" data-name="Path 1250" d="M475.449-104.526a.9.9,0,0,1,.809-.888.912.912,0,0,1,.829.9.883.883,0,0,1-.825.867.9.9,0,0,1-.813-.879Z" fill="#2669a2"/>
    <path id="Path_1251" data-name="Path 1251" d="M474.924-103.775a.868.868,0,0,1-.81.881.885.885,0,0,1-.825-.871.892.892,0,0,1,.812-.889.9.9,0,0,1,.823.879Z" fill="#2669a2"/>
  </g>
</svg>
