<?xml version="1.0" encoding="utf-8"?>
<!-- Generator: Adobe Illustrator 29.1.0, SVG Export Plug-In . SVG Version: 9.03 Build 55587)  -->
<svg version="1.1" id="Layer_1" xmlns="http://www.w3.org/2000/svg" xmlns:xlink="http://www.w3.org/1999/xlink" x="0px" y="0px"
	 viewBox="0 0 576 576" style="enable-background:new 0 0 576 576;" xml:space="preserve">
<g>
	<linearGradient id="SVGID_1_" gradientUnits="userSpaceOnUse" x1="533.175" y1="597.7403" x2="186.4801" y2="167.1668">
		<stop  offset="0" style="stop-color:#DAE3FE"/>
		<stop  offset="1" style="stop-color:#E9EFFD"/>
	</linearGradient>
	<path style="fill:url(#SVGID_1_);" d="M437.8,427.9c-8,8.4-15.5,13.8-21.5,18.1c-70,50.2-152.8,35.6-170.4,32
		c-26-5.3-76.2-15.5-112.5-58.2c-54.9-64.6-46.4-166.4-3.8-233.6c7.8-12.3,49-80.5,132.7-91.5c50.7-6.6,109.7,6.7,152.5,42.6
		C504.5,212.5,498.1,364.4,437.8,427.9z"/>
	<g>
		<path style="fill:#91B3FA;" d="M256.7,420.2c0,0-58.3-182.1-161.3-208.5c-1.8-0.5-3.6,0.9-3.7,2.8
			C91.4,236.4,97,353.1,256.7,420.2z"/>
		<path style="opacity:0.56;fill:#FFFFFF;" d="M113.1,241.2c4.8,7.9,10,15.6,15.2,23.3c2.6,3.8,5.2,7.7,7.9,11.5
			c2.7,3.8,5.3,7.6,8.1,11.3c2.8,3.7,5.5,7.5,8.2,11.2l8.4,11.1c5.7,7.3,11.5,14.6,17.4,21.7c5.8,7.2,11.9,14.2,18,21.3l9.3,10.4
			c1.6,1.7,3.1,3.5,4.7,5.2l4.8,5c3.2,3.4,6.4,6.7,9.6,10.1l9.9,9.8c1.6,1.6,3.3,3.3,4.9,4.9l5.1,4.8l10.1,9.5l0,0
			c0.3,0.3,0.3,0.7,0,1c-0.3,0.3-0.7,0.3-1,0c-13.7-12.5-27.3-25.3-40-38.9l-4.8-5c-1.6-1.7-3.1-3.4-4.7-5.2l-9.4-10.3
			c-6-7.1-12.2-14-18.1-21.3c-11.8-14.3-23.2-29.1-34-44.2c-2.7-3.8-5.4-7.6-8-11.4c-2.6-3.8-5.3-7.7-7.9-11.5
			c-5.1-7.8-10.2-15.6-14.9-23.6c-0.2-0.3-0.1-0.7,0.2-0.9C112.5,240.8,112.9,240.9,113.1,241.2L113.1,241.2z"/>
	</g>
	<g>
		<path style="fill:#BDD0FB;" d="M251.1,372.3c0,0-3.9-172.8-96.3-279.9c-1.2-1.4-3.4-1.1-4.2,0.6
			C138.3,119.4,68.2,289.5,251.1,372.3z"/>
		<path style="opacity:0.56;fill:#FFFFFF;" d="M158.1,142.4c1.1,10,2.7,19.9,4.6,29.8c1.9,9.9,4,19.7,6.5,29.5
			c2.5,9.7,5.1,19.4,8.2,29c3,9.6,6.2,19.1,9.9,28.4c3.6,9.4,7.5,18.6,11.8,27.7c0.5,1.1,1,2.3,1.6,3.4l1.7,3.4
			c1.1,2.2,2.2,4.5,3.4,6.7l3.5,6.6l0.9,1.7l0.9,1.6l1.9,3.3c2.4,4.4,5.1,8.6,7.7,12.9c1.3,2.1,2.7,4.2,4.1,6.3l2.1,3.2
			c0.7,1,1.4,2.1,2.2,3.1l4.3,6.2l4.5,6l2.3,3l2.4,2.9l4.7,5.9l0,0c0.2,0.3,0.2,0.8-0.1,1c-0.3,0.2-0.7,0.2-1-0.1
			c-13.8-14.8-26-31.1-36.3-48.6l-1.9-3.3l-1-1.6l-0.9-1.7l-3.7-6.7c-1.2-2.2-2.3-4.5-3.5-6.8l-1.7-3.4c-0.6-1.1-1.1-2.3-1.6-3.4
			c-4.5-9.1-8.4-18.5-12.1-27.9c-7.3-18.9-13.1-38.4-17.6-58.2c-2.3-9.9-4.1-19.8-5.7-29.8c-0.8-5-1.4-10-2-15.1
			c-0.6-5-1-10.1-1.3-15.1c0-0.4,0.3-0.7,0.7-0.7C157.7,141.8,158.1,142,158.1,142.4L158.1,142.4z"/>
	</g>
	<g>
		<g>
			
				<linearGradient id="SVGID_00000181087501035324631360000003560958517004833451_" gradientUnits="userSpaceOnUse" x1="191.4113" y1="485.1429" x2="429.6313" y2="66.5963">
				<stop  offset="0" style="stop-color:#09005D"/>
				<stop  offset="1" style="stop-color:#1A0F91"/>
			</linearGradient>
			<path style="fill:url(#SVGID_00000181087501035324631360000003560958517004833451_);" d="M185.6,110.4
				c-1.3,61.7-5.5,274.5-3.5,350c0.2,8,5.7,14.4,12.5,14.7c33.8,1.3,157.6,4.6,212.9,1.9c11.5-0.6,20.7-11.5,20.9-24.9
				c1.1-64.8,3.7-246.9-2.3-330.4c-0.7-10-7.4-18-16-19c-36.8-4.3-161.2-14.8-208.9-11.2C192.6,92.1,185.8,100.3,185.6,110.4z"/>
			
				<linearGradient id="SVGID_00000091730154503388735080000014375275373208186298_" gradientUnits="userSpaceOnUse" x1="369.8173" y1="185.6092" x2="-141.7019" y2="839.9684">
				<stop  offset="0" style="stop-color:#4F52FF"/>
				<stop  offset="1" style="stop-color:#4042E2"/>
			</linearGradient>
			<path style="fill:url(#SVGID_00000091730154503388735080000014375275373208186298_);" d="M200.7,129.4
				c-1.8,49.8-7.6,215.5-5.7,276.8c0.3,9,6.3,16.2,13.9,16.7c31.5,2.2,138.9,6.9,185.1,2.6c8.3-0.8,14.8-8.6,15.3-18.4
				c2.3-50.8,9.1-205.1,7.3-265.7c-0.3-9.7-6.7-17.6-14.9-18.4c-34.1-3.6-148.2-12.1-187.4-9.6C206.8,113.8,201,120.7,200.7,129.4z"
				/>
			<path style="fill:#7D97F4;" d="M279.5,103.6L279.5,103.6c0,1.9,1.3,3.5,2.9,3.6c8,0.5,30.5,1.9,40.5,2.6c2,0.1,3.5-1.9,3.2-4.2
				l-0.1-0.4c-0.3-1.6-1.4-2.7-2.7-2.9c-6.8-0.7-27.3-2.7-40.9-2.2C280.8,100.2,279.5,101.7,279.5,103.6z"/>
		</g>
		<path style="fill:#7D97F4;" d="M222.8,414c-6.8-0.2-12.2-5.8-12.2-12.6V289.8c0-7.1,5.9-12.9,13.1-12.6l165.9,1
			c6.2,0,11.3,5.1,11.3,11.3l0,113c0,6.3-5.1,11.5-11.5,11.5H222.8z"/>
		<path style="fill:#91B3FA;" d="M400.8,259.8c0,5.6-4.6,10.2-10.3,10.1L220.3,267c-5.4-0.2-9.8-4.7-9.8-10.1v-118
			c0-5.7,4.7-10.3,10.4-10.1l170,5.7c5.5,0.2,9.8,4.7,9.8,10.1L400.8,259.8z"/>
		<path style="opacity:0.77;fill:#FFFFFF;" d="M385.2,160h-79.4c-2.2,0-4-1.8-4-4v0c0-2.2,1.8-4,4-4h79.4c2.2,0,4,1.8,4,4l0,0
			C389.2,158.2,387.4,160,385.2,160z"/>
		<path style="opacity:0.77;fill:#FFFFFF;" d="M385.2,173.5h-79.4c-2.2,0-4-1.8-4-4v0c0-2.2,1.8-4,4-4h79.4c2.2,0,4,1.8,4,4v0
			C389.2,171.7,387.4,173.5,385.2,173.5z"/>
		<g>
			<path style="fill:#BDD0FB;" d="M380.9,401.9H232c-4.5,0-8.2-3.5-8.3-7.8l-3.1-99.1c-0.1-4.5,3.6-8.3,8.3-8.3h152.1
				c4.6,0,8.3,3.6,8.3,8.1v99.1C389.2,398.3,385.5,401.9,380.9,401.9z"/>
			<path style="fill:#FFFFFF;" d="M380.7,402.6h-149c-4.9,0-8.9-3.7-9-8.5l-3.1-99.1c-0.1-2.3,0.8-4.6,2.5-6.3
				c1.7-1.8,4.1-2.8,6.6-2.8h152.1c5,0,9,3.9,9,8.8v99.1C389.7,398.7,385.7,402.6,380.7,402.6z M228.6,287.4c-2.1,0-4.1,0.8-5.5,2.3
				c-1.4,1.4-2.1,3.3-2.1,5.3l3.1,99.1c0.1,4,3.5,7.1,7.6,7.1h149c4.2,0,7.6-3.3,7.6-7.4v-99.1c0-4.1-3.4-7.4-7.6-7.4H228.6z"/>
			
				<rect x="206.2" y="343.3" transform="matrix(3.912387e-03 -1 1 3.912387e-03 -80.9273 606.7644)" style="fill:#FFFFFF;" width="115.8" height="1.4"/>
			
				<rect x="293.8" y="343.3" transform="matrix(3.912349e-03 -1 1 3.912349e-03 6.3159 694.3495)" style="fill:#FFFFFF;" width="115.8" height="1.4"/>
			
				<rect x="325.9" y="249.7" transform="matrix(6.519886e-03 -1 1 6.519886e-03 12.4866 636.6668)" style="fill:#FFFFFF;" width="1.4" height="124.7"/>
			<rect x="264" y="346.9" style="fill:#FFFFFF;" width="125" height="1.4"/>
			<rect x="264.2" y="375.1" style="fill:#FFFFFF;" width="125" height="1.4"/>
		</g>
		<g>
			<path style="fill:#FFFFFF;" d="M381.6,217h-153c-4.3,0-7.8-3.5-7.8-7.8v-13.7c0-4.3,3.5-7.8,7.8-7.8h153c4.3,0,7.8,3.5,7.8,7.8
				v13.7C389.5,213.5,386,217,381.6,217z M228.7,189c-3.5,0-6.4,2.9-6.4,6.4v13.7c0,3.5,2.9,6.4,6.4,6.4h153c3.5,0,6.4-2.9,6.4-6.4
				v-13.7c0-3.5-2.9-6.4-6.4-6.4H228.7z"/>
			<path style="opacity:0.39;fill:#FFFFFF;" d="M374.3,216.3H235.1c-7.7,0-14-6.3-14-14v0c0-7.7,6.3-14,14-14h139.2
				c7.7,0,14,6.3,14,14v0C388.3,210,382,216.3,374.3,216.3z"/>
		</g>
		<g>
			<path style="fill:#FFFFFF;" d="M242.4,140.8l-0.6,4.8h-9l-3.4,27.9h-5.8l3.4-27.9h-9l0.6-4.8H242.4z"/>
			<path style="fill:#FFFFFF;" d="M264.9,173.5h-4.5c-0.5,0-0.9-0.1-1.2-0.4c-0.3-0.2-0.5-0.6-0.6-1l-1.4-6.8H245l-3,6.8
				c-0.2,0.3-0.4,0.7-0.8,0.9c-0.4,0.3-0.8,0.4-1.3,0.4h-4.6l15.8-32.7h6L264.9,173.5z M246.8,161.2h9.5l-2.2-11.2
				c-0.1-0.5-0.2-1.1-0.4-1.7c-0.1-0.6-0.2-1.3-0.3-2c-0.3,0.8-0.6,1.5-0.8,2.1c-0.3,0.6-0.5,1.2-0.8,1.7L246.8,161.2z"/>
			<path style="fill:#FFFFFF;" d="M276.9,156.1l-7.3-15.2h5.3c0.4,0,0.7,0.1,0.8,0.2c0.2,0.1,0.3,0.3,0.4,0.6l5,11.3
				c0.2-0.3,0.3-0.6,0.5-0.9l6.9-10.3c0.4-0.5,0.8-0.8,1.3-0.8h6.1l-11.1,15l8.2,17.7h-5.2c-0.4,0-0.7-0.1-0.9-0.3
				c-0.2-0.2-0.4-0.4-0.5-0.7l-5.7-13.1c-0.1,0.1-0.1,0.2-0.2,0.4c-0.1,0.1-0.1,0.2-0.2,0.4l-8.5,12.4c-0.3,0.4-0.5,0.6-0.8,0.8
				c-0.3,0.2-0.6,0.2-1,0.2h-5.9L276.9,156.1z"/>
		</g>
		<g>
			<g>
				<path style="opacity:0.39;fill:#FFFFFF;" d="M374.3,254.3H235.1c-7.7,0-14-6.3-14-14v0c0-7.7,6.3-14,14-14h139.2
					c7.7,0,14,6.3,14,14v0C388.3,248.1,382,254.3,374.3,254.3z"/>
			</g>
			<path style="fill:#FFFFFF;" d="M381.6,254.6h-153c-4.3,0-7.8-3.5-7.8-7.8V233c0-4.3,3.5-7.8,7.8-7.8h153c4.3,0,7.8,3.5,7.8,7.8
				v13.7C389.5,251.1,386,254.6,381.6,254.6z M228.7,226.6c-3.5,0-6.4,2.9-6.4,6.4v13.7c0,3.5,2.9,6.4,6.4,6.4h153
				c3.5,0,6.4-2.9,6.4-6.4V233c0-3.5-2.9-6.4-6.4-6.4H228.7z"/>
		</g>
	</g>
	<g>
		
			<linearGradient id="SVGID_00000163759463605337754260000017111514544663366318_" gradientUnits="userSpaceOnUse" x1="9037.168" y1="422.8033" x2="8937.9688" y2="530.7053" gradientTransform="matrix(-1 9.500000e-03 9.500000e-03 1 9424.498 -48.5882)">
			<stop  offset="0" style="stop-color:#09005D"/>
			<stop  offset="1" style="stop-color:#1A0F91"/>
		</linearGradient>
		<path style="fill:url(#SVGID_00000163759463605337754260000017111514544663366318_);" d="M422.8,467.8c0,0,1.1,5.8,1.6,11.6
			c0.2,2.2-1.5,4.2-3.8,4.3c-7.7,0.4-24.1,1.2-29.9,1c-0.9,0-1.5-0.9-1.2-1.8c0.3-0.7,0.8-1.3,1.5-1.6l27-12.7L422.8,467.8z"/>
		
			<linearGradient id="SVGID_00000156559809412838792670000002117912544725610686_" gradientUnits="userSpaceOnUse" x1="9004.9697" y1="430.8163" x2="9013.7812" y2="430.8163" gradientTransform="matrix(-1 9.500000e-03 9.500000e-03 1 9424.498 -48.5882)">
			<stop  offset="0" style="stop-color:#FEBBBA"/>
			<stop  offset="1" style="stop-color:#FF928E"/>
		</linearGradient>
		<path style="fill:url(#SVGID_00000156559809412838792670000002117912544725610686_);" d="M423.6,464.4l-0.8,7c0,0-4.7,2.3-8-0.2
			l1.9-7.8L423.6,464.4z"/>
		
			<linearGradient id="SVGID_00000105421901707452153230000017793548243422583453_" gradientUnits="userSpaceOnUse" x1="9044.9844" y1="300.7694" x2="8960.5693" y2="415.1839" gradientTransform="matrix(-1 9.500000e-03 9.500000e-03 1 9424.498 -48.5882)">
			<stop  offset="0" style="stop-color:#4F52FF"/>
			<stop  offset="1" style="stop-color:#4042E2"/>
		</linearGradient>
		<path style="fill:url(#SVGID_00000105421901707452153230000017793548243422583453_);" d="M421.7,333.6c0.4,1.8,2.8,90.6-6.3,130.5
			c-0.1,0.7,0.2,1.3,0.8,1.6c1.5,0.6,4.3,1.4,7.7,1.5c1.1,0,2-0.7,2.3-1.7c2.6-9.3,15.2-55.7,16.5-99.9c1.4-49.4,0-1.7,0-1.7
			l-1.4-30.5L421.7,333.6z"/>
		
			<linearGradient id="SVGID_00000101090875376488476410000001731070731597207951_" gradientUnits="userSpaceOnUse" x1="9014.9141" y1="402.3404" x2="8915.71" y2="510.247" gradientTransform="matrix(-1 9.500000e-03 9.500000e-03 1 9424.498 -48.5882)">
			<stop  offset="0" style="stop-color:#09005D"/>
			<stop  offset="1" style="stop-color:#1A0F91"/>
		</linearGradient>
		<path style="fill:url(#SVGID_00000101090875376488476410000001731070731597207951_);" d="M454,470.5c0,0,1.7,2.9,3.3,10.7
			c0.3,1.4-0.7,2.8-2.1,2.9c-2.5,0.3-6.4,0.6-9.5,0.6c-1.4,0-2.6-1.2-2.4-2.7c0.3-2.9,1.4-7.5,4.6-11.2L454,470.5z"/>
		
			<linearGradient id="SVGID_00000095326807910275172380000018446651788358030758_" gradientUnits="userSpaceOnUse" x1="8973.2119" y1="430.3631" x2="8980.8193" y2="430.3631" gradientTransform="matrix(-1 9.500000e-03 9.500000e-03 1 9424.498 -48.5882)">
			<stop  offset="0" style="stop-color:#FEBBBA"/>
			<stop  offset="1" style="stop-color:#FF928E"/>
		</linearGradient>
		<path style="fill:url(#SVGID_00000095326807910275172380000018446651788358030758_);" d="M455.3,461.6l-1.8,10.5
			c0,0-1.9,1.4-5.7,0.4l0.8-11.3L455.3,461.6z"/>
		
			<linearGradient id="SVGID_00000109013714139996847520000009478897943259993010_" gradientUnits="userSpaceOnUse" x1="9029.9395" y1="289.6693" x2="8945.5254" y2="404.0824" gradientTransform="matrix(-1 9.500000e-03 9.500000e-03 1 9424.498 -48.5882)">
			<stop  offset="0" style="stop-color:#4F52FF"/>
			<stop  offset="1" style="stop-color:#4042E2"/>
		</linearGradient>
		<path style="fill:url(#SVGID_00000109013714139996847520000009478897943259993010_);" d="M459.3,336c8.2,46.8-0.6,115.9-3.6,129.4
			c-0.2,0.8-0.8,1.5-1.7,1.6c-1.4,0.2-3.8,0.5-6.1-0.2c-0.8-0.2-1.4-0.9-1.4-1.8c-0.5-10.9-0.4-77.9-7.9-104.3
			c-0.4-1.3-1.2-2.5-2.4-3.3l-14.1-9.9l-1.2-16.1L459.3,336z"/>
		<g>
			
				<linearGradient id="SVGID_00000101825910552587891670000006491436914457819296_" gradientUnits="userSpaceOnUse" x1="520.1735" y1="87.414" x2="463.2287" y2="206.9985">
				<stop  offset="0" style="stop-color:#FF928E"/>
				<stop  offset="1" style="stop-color:#FE7062"/>
			</linearGradient>
			<path style="fill:url(#SVGID_00000101825910552587891670000006491436914457819296_);" d="M409,247.6c23.3-0.6,49,5.6,49,5.6
				c7.3,40.4,2,87.2,2,87.2c-18,4.9-38.4-2.5-38.4-2.5c-3.2-16.9-17.6-64.4-17.6-64.4c-11.4-1.3-20.8-4.5-28.5-8.8
				c5.8-6.9,8.5-15.6,9.7-20.7C393.5,246.5,401.8,247.8,409,247.6z"/>
			
				<linearGradient id="SVGID_00000110455413226273034380000002813315987313374126_" gradientUnits="userSpaceOnUse" x1="9041.2393" y1="200.9297" x2="9086.2578" y2="200.9297" gradientTransform="matrix(-1 9.500000e-03 9.500000e-03 1 9424.498 -48.5882)">
				<stop  offset="0" style="stop-color:#FEBBBA"/>
				<stop  offset="1" style="stop-color:#FF928E"/>
			</linearGradient>
			<path style="fill:url(#SVGID_00000110455413226273034380000002813315987313374126_);" d="M339.9,214c2.3-2.8,5.2-1.5,5.2-1.5
				c3.6,14.4,21.6,26,40.1,31.6c-1.2,5.1-3.8,13.8-9.7,20.7C344.8,247.8,339.9,214,339.9,214z"/>
		</g>
		<g>
			
				<linearGradient id="SVGID_00000059297321181756032920000015841457050363903371_" gradientUnits="userSpaceOnUse" x1="-1763.495" y1="192.4522" x2="-1733.2869" y2="261.1825" gradientTransform="matrix(1 -9.500000e-03 9.500000e-03 1 2111.772 21.8152)">
				<stop  offset="0" style="stop-color:#FEBBBA"/>
				<stop  offset="1" style="stop-color:#FF928E"/>
			</linearGradient>
			<path style="fill:url(#SVGID_00000059297321181756032920000015841457050363903371_);" d="M340.5,214.7c-0.2,0.8,2.5,1.9,4.2-1.2
				c0-1.5,0.9-7.9,0-9.1c-4.8-6.4-14.1-14.4-14.1-14.4c-1.5,1.5-0.2,3-0.2,3l4.5,4.6c-0.9,1.7-2,3.1-2.6,5.2
				c-0.4,1.5-0.1,3.2,0.7,4.6c0.8,1.4,1.9,3.2,2.9,4.7C337.7,214.7,340.5,214.7,340.5,214.7z"/>
			
				<linearGradient id="SVGID_00000139281846325376658820000011141816007062657947_" gradientUnits="userSpaceOnUse" x1="348.098" y1="175.0382" x2="336.709" y2="212.0525">
				<stop  offset="0" style="stop-color:#FEBBBA"/>
				<stop  offset="1" style="stop-color:#FF928E"/>
			</linearGradient>
			<path style="fill:url(#SVGID_00000139281846325376658820000011141816007062657947_);" d="M336.8,200.6l4.1,3.4l1.3,3.4l-3.6,4.1
				c0,0-1.3-6.8-2.2-8.3C335.5,201.7,335.9,201,336.8,200.6z"/>
		</g>
		
			<linearGradient id="SVGID_00000172411408839841986850000018177600614225880235_" gradientUnits="userSpaceOnUse" x1="550.7844" y1="101.9902" x2="493.8396" y2="221.5746">
			<stop  offset="0" style="stop-color:#FF928E"/>
			<stop  offset="1" style="stop-color:#FE7062"/>
		</linearGradient>
		<path style="fill:url(#SVGID_00000172411408839841986850000018177600614225880235_);" d="M449.3,275.9l8.7-22.6
			c0,0,21.9,14.6,25.6,33.3c-4.1,0.3-11.6,1.5-18.9,5.2C463.1,282.9,449.3,275.9,449.3,275.9z"/>
		
			<linearGradient id="SVGID_00000158017769555828873150000009543062714777337267_" gradientUnits="userSpaceOnUse" x1="8942.7285" y1="264.6918" x2="8999.6982" y2="264.6918" gradientTransform="matrix(-1 9.500000e-03 9.500000e-03 1 9424.498 -48.5882)">
			<stop  offset="0" style="stop-color:#FEBBBA"/>
			<stop  offset="1" style="stop-color:#FF928E"/>
		</linearGradient>
		<path style="fill:url(#SVGID_00000158017769555828873150000009543062714777337267_);" d="M430.5,297.3c0,0,24.5,13.6,32.7,1.7
			c1.7-2.5,2.1-4.9,1.6-7.2c7.3-3.8,14.7-4.9,18.9-5.2c1.1,5.6,0.6,11.6-2.6,17.7c-14.2,26.5-53.7-0.9-53.7-0.9L430.5,297.3z"/>
		
			<linearGradient id="SVGID_00000010279738423977743040000015376660210512185250_" gradientUnits="userSpaceOnUse" x1="8986.4756" y1="203.7885" x2="9009.001" y2="203.7885" gradientTransform="matrix(-1 9.500000e-03 9.500000e-03 1 9424.498 -48.5882)">
			<stop  offset="0" style="stop-color:#FEBBBA"/>
			<stop  offset="1" style="stop-color:#FF928E"/>
		</linearGradient>
		<path style="fill:url(#SVGID_00000010279738423977743040000015376660210512185250_);" d="M432.4,228.5l7.6,21.3
			c0.1,0.4,0,0.7-0.3,0.9c-2,1.1-9.3,4.4-18.1-1c-0.9-0.6-1.5-1.5-1.7-2.6l-2.6-18.5L432.4,228.5z"/>
		<g>
			
				<linearGradient id="SVGID_00000018947030600657117410000009701276257529764500_" gradientUnits="userSpaceOnUse" x1="798.4428" y1="3976.0271" x2="790.0256" y2="3948.2649" gradientTransform="matrix(-0.7523 -0.6588 -0.6588 0.7523 3632.0146 -2238.6438)">
				<stop  offset="0" style="stop-color:#FEBBBA"/>
				<stop  offset="1" style="stop-color:#FF928E"/>
			</linearGradient>
			<path style="fill:url(#SVGID_00000018947030600657117410000009701276257529764500_);" d="M416.1,208.8c0,0-8,15.4-6.9,21.6
				s11.2,5.6,19.9,0.5l6-16.6L416.1,208.8z"/>
			
				<linearGradient id="SVGID_00000023972237799551028170000011292902380707741104_" gradientUnits="userSpaceOnUse" x1="367.3292" y1="256.8937" x2="460.3394" y2="188.5596">
				<stop  offset="0" style="stop-color:#E1473D"/>
				<stop  offset="1" style="stop-color:#E9605A"/>
			</linearGradient>
			<path style="fill:url(#SVGID_00000023972237799551028170000011292902380707741104_);" d="M428.7,222.8c-0.4-0.2-0.5-0.6-0.3-0.9
				c0.6-1,1.8-3,2.2-4.8c0,0,1.5-1-3.7-2.1c-5.2-1.2-12.9-3-14.6-7.4c-1.6-4.3,2.4-15.1,9.2-6.6c0.3,0.3,0.8,0.3,1,0
				c1.1-1.4,3.9-4.4,7.9-2.7c3.7,1.6,4.2,4.4,4.1,5.7c0,0.4,0.4,0.7,0.7,0.6c1.9-0.4,6.4-0.7,8.5,3.9c1.8,3.8,0.7,6-0.4,7
				c-0.3,0.3-0.2,0.9,0.3,1c1.2,0.4,2.8,1.4,2.7,4.3c-0.2,4-4.7,3.7-5.9,3.5c-0.2,0-0.4,0-0.6,0.2c-1.1,1.2-6,6.4-11.3,7.1
				c-0.5,0.1-0.8-0.4-0.7-0.8l2.2-6.7c0.1-0.3,0-0.7-0.4-0.8L428.7,222.8z"/>
			
				<linearGradient id="SVGID_00000088831087567009716970000005614832389537592476_" gradientUnits="userSpaceOnUse" x1="789.8384" y1="3975.8975" x2="782.2653" y2="3950.9194" gradientTransform="matrix(-0.7523 -0.6588 -0.6588 0.7523 3632.0146 -2238.6438)">
				<stop  offset="0" style="stop-color:#FEBBBA"/>
				<stop  offset="1" style="stop-color:#FF928E"/>
			</linearGradient>
			<path style="fill:url(#SVGID_00000088831087567009716970000005614832389537592476_);" d="M427.7,223.7c0,0,5.8-4,6.2-0.7
				c0.5,3.3-5.2,4.9-8,3.7L427.7,223.7z"/>
		</g>
		<g>
			<g>
				
					<linearGradient id="SVGID_00000139974610334676184900000004319256606149533619_" gradientUnits="userSpaceOnUse" x1="494.6316" y1="158.8324" x2="453.8209" y2="220.5229">
					<stop  offset="0" style="stop-color:#09005D"/>
					<stop  offset="1" style="stop-color:#1A0F91"/>
				</linearGradient>
				<path style="fill:url(#SVGID_00000139974610334676184900000004319256606149533619_);" d="M435.5,318.7L422.1,272
					c-0.2-0.5-0.6-0.9-1.2-1c-2.4-0.3-9.4-1.1-17.5-1.8c-9.8-0.8-21.1-1.5-27.9-0.9c-1,0.1-1.5,1.1-1.1,2
					c3.9,7.8,19.7,39.5,27.6,49.9c0.3,0.3,0.7,0.5,1.1,0.5l31-0.3C435.1,320.4,435.8,319.6,435.5,318.7z"/>
				
					<linearGradient id="SVGID_00000038374002937863026430000016290348427614920843_" gradientUnits="userSpaceOnUse" x1="8707.7441" y1="299.5127" x2="8725.5547" y2="299.5127" gradientTransform="matrix(-1 0 0 1 9141.3223 0)">
					<stop  offset="0" style="stop-color:#FEBBBA"/>
					<stop  offset="1" style="stop-color:#FF928E"/>
				</linearGradient>
				<path style="fill:url(#SVGID_00000038374002937863026430000016290348427614920843_);" d="M432.3,307.4c0,0,1.9-7.7,1.1-10.4
					c-0.8-2.7-2.2-6.2-7.1-5.4c-4.9,0.8-10.6,2.8-10.6,2.8s0.3,3.5,4,2.4l-2.3,1.8c0,0,0.3,2.8,3.4,1.3l-2.1,2.3
					c0,0,1.3,2.3,3.6,0.8C424.7,301.6,425.8,308.4,432.3,307.4z"/>
			</g>
			<path style="fill:#7D97F4;" d="M404.3,283.2c0,2.2-1.8,3.9-3.9,3.9s-3.9-1.8-3.9-3.9c0-2.2,1.8-3.9,3.9-3.9
				S404.3,281,404.3,283.2z"/>
			<path style="fill:#BDD0FB;" d="M420.6,285.8l-2.7-9.2c-0.3-1.1-1.2-2-2.4-2.2c-8.5-1.8-31.9-2.2-32.1-2.2l0-1.1
				c1,0,23.7,0.4,32.3,2.2c1.5,0.3,2.7,1.5,3.2,3l2.7,9.2L420.6,285.8z"/>
		</g>
	</g>
	<g>
		<g>
			<g>
				
					<rect x="139.3" y="282.3" transform="matrix(0.1125 -0.9936 0.9936 0.1125 -201.8604 493.5786)" style="fill:#91B3FA;" width="72.3" height="155"/>
				<path style="opacity:0.5;fill:#FFFFFF;" d="M246.2,346.8l-4.7,41.1c-3.3-0.4-6.4,2.3-6.8,6c0,0.1,0,0.4,0,0.4l-124.3-14.1
					c0,0,0-0.3,0.1-0.4c0.4-3.7-1.9-7-5.3-7.3c0,0-0.1,0-0.1,0l4.5-40.2c5.7,0.6,6.6-3.1,7-6.7c0-0.1,0-0.1,0-0.1l124.3,14.1
					c0,0,0,0,0,0.1C240.5,343.3,242.9,346.4,246.2,346.8z"/>
				<g>
					
						<linearGradient id="SVGID_00000137819353375233236340000001783310942016239753_" gradientUnits="userSpaceOnUse" x1="6339.3506" y1="4193.8208" x2="6323.772" y2="4394.2656" gradientTransform="matrix(0.9937 0.1126 -0.1126 0.9937 -5648.6572 -4537.4004)">
						<stop  offset="0" style="stop-color:#50E7B7"/>
						<stop  offset="0.9964" style="stop-color:#323992"/>
					</linearGradient>
					<circle style="fill:url(#SVGID_00000137819353375233236340000001783310942016239753_);" cx="175.5" cy="359.6" r="22.7"/>
					<g>
						<path style="fill:#FFFFFF;" d="M171.5,374.6l0.3-2.4c-2.5-0.4-4.9-1.2-6.5-2.2c-0.6-0.3-0.8-1.1-0.6-1.7l0.9-2.2
							c0.3-0.8,1.3-1.1,2-0.7c1.7,0.9,3.7,1.7,6,2c2.4,0.3,4.3-0.3,4.5-2c0.2-1.5-1.1-2.6-4.3-3.8c-4.6-1.8-7.8-4.3-7.3-8.5
							c0.4-3.8,3.5-6.4,8.4-6.6l0.3-2.4c0.1-0.8,0.8-1.3,1.5-1.2l1.4,0.2c0.8,0.1,1.3,0.8,1.2,1.5l-0.2,2.1c2.3,0.4,3.9,0.9,5.2,1.6
							c0.7,0.3,0.9,1.1,0.7,1.8l-0.8,2c-0.3,0.8-1.2,1.1-1.9,0.7c-1.2-0.6-2.9-1.3-5.1-1.5c-2.8-0.3-3.8,0.8-3.9,1.8
							c-0.1,1.3,1.5,2.4,5,3.9c5.1,2.2,7.1,4.6,6.6,8.6c-0.4,3.6-3.5,6.6-8.8,6.8l-0.3,2.7c-0.1,0.8-0.8,1.3-1.5,1.2l-1.4-0.2
							C171.9,376.1,171.4,375.4,171.5,374.6z"/>
					</g>
				</g>
			</g>
			
				<linearGradient id="SVGID_00000171001599278085692710000011736558152812337048_" gradientUnits="userSpaceOnUse" x1="104.1326" y1="326.8495" x2="144.3014" y2="326.8495">
				<stop  offset="0" style="stop-color:#DAE3FE"/>
				<stop  offset="1" style="stop-color:#E9EFFD"/>
			</linearGradient>
			<path style="fill:url(#SVGID_00000171001599278085692710000011736558152812337048_);" d="M104.1,333.7c0,0,0-0.1,0-0.1l1.5-13.5
				c0-0.1,0.1-0.2,0.1-0.2c0.1-0.1,0.1-0.1,0.2-0.1l38,4.3c0.2,0,0.3,0.2,0.3,0.3c0,0.2-0.2,0.3-0.3,0.3l-37.7-4.3l-1.5,13.2
				c0,0.2-0.2,0.3-0.3,0.3C104.3,333.9,104.2,333.8,104.1,333.7z"/>
			<path style="fill:#FFFFFF;" d="M206.4,395.7c0,0,0-0.1,0-0.1c0-0.2,0.2-0.3,0.3-0.3l37.2,4.2l1.6-14.1c0-0.2,0.2-0.3,0.3-0.3
				c0.2,0,0.3,0.2,0.3,0.3l-1.6,14.4c0,0.1-0.1,0.2-0.1,0.2c-0.1,0.1-0.1,0.1-0.2,0.1l-37.6-4.3
				C206.6,395.9,206.5,395.8,206.4,395.7z"/>
		</g>
		<g>
			<g>
				
					<rect x="146.9" y="281.9" transform="matrix(0.3405 -0.9403 0.9403 0.3405 -217.0125 409.3558)" style="fill:#7D97F4;" width="72.7" height="155"/>
				<path style="opacity:0.5;fill:#FFFFFF;" d="M255.2,363.1L241.2,402c-3.1-1.1-6.8,0.9-8.1,4.4c0,0.1,0,0.1-0.2,0.5l-117.6-42.6
					c0.2-0.4,0.2-0.4,0.2-0.5c1.3-3.5-0.2-7.3-3.4-8.5c0,0-0.1-0.1-0.1-0.1l13.8-38c5.4,1.9,7.2-1.5,8.5-5c0-0.1,0-0.2,0-0.2
					l117.6,42.6c0,0-0.1,0.1-0.1,0.2C250.5,358.3,252.1,362,255.2,363.1z"/>
				<g>
					
						<linearGradient id="SVGID_00000115476158702769935450000017578540603247435934_" gradientUnits="userSpaceOnUse" x1="7060.0098" y1="3651.1021" x2="7044.4312" y2="3851.5488" gradientTransform="matrix(0.9403 0.3405 -0.3405 0.9403 -5205.1963 -5492.5898)">
						<stop  offset="0" style="stop-color:#50E7B7"/>
						<stop  offset="0.9964" style="stop-color:#323992"/>
					</linearGradient>
					<circle style="fill:url(#SVGID_00000115476158702769935450000017578540603247435934_);" cx="183.5" cy="359.1" r="22.7"/>
					<g>
						<path style="fill:#FFFFFF;" d="M176.1,372.8l0.8-2.3c-2.3-0.9-4.5-2.3-5.8-3.7c-0.5-0.5-0.6-1.2-0.2-1.8l1.3-1.9
							c0.5-0.7,1.5-0.8,2.1-0.2c1.4,1.3,3.2,2.6,5.4,3.4c2.3,0.8,4.2,0.7,4.8-0.9c0.5-1.4-0.5-2.7-3.3-4.7c-4.1-2.9-6.6-6-5.1-10
							c1.3-3.6,4.9-5.4,9.7-4.4l0.8-2.3c0.3-0.7,1.1-1.1,1.8-0.8l1.3,0.5c0.7,0.3,1.1,1.1,0.8,1.8l-0.7,2c2.1,0.9,3.6,1.8,4.7,2.7
							c0.6,0.5,0.7,1.3,0.2,1.9l-1.2,1.8c-0.5,0.7-1.4,0.8-2.1,0.3c-1-0.9-2.5-1.9-4.6-2.7c-2.7-1-3.9-0.1-4.2,0.9
							c-0.4,1.2,0.9,2.7,4,5c4.5,3.3,5.8,6.1,4.4,9.9c-1.2,3.4-4.9,5.6-10.1,4.6l-0.9,2.5c-0.3,0.7-1.1,1.1-1.8,0.8l-1.3-0.5
							C176.2,374.3,175.9,373.5,176.1,372.8z"/>
					</g>
				</g>
			</g>
			
				<linearGradient id="SVGID_00000037694790316211031870000002578182851236491440_" gradientUnits="userSpaceOnUse" x1="120.438" y1="311.1691" x2="161.3665" y2="311.1691">
				<stop  offset="0" style="stop-color:#DAE3FE"/>
				<stop  offset="1" style="stop-color:#E9EFFD"/>
			</linearGradient>
			<path style="fill:url(#SVGID_00000037694790316211031870000002578182851236491440_);" d="M120.4,317.8c0,0,0-0.1,0-0.1l4.8-13.2
				c0.1-0.2,0.2-0.2,0.4-0.2l35.5,12.9c0.2,0.1,0.2,0.2,0.2,0.4c-0.1,0.2-0.2,0.2-0.4,0.2L125.7,305l-4.7,12.9
				c-0.1,0.2-0.2,0.2-0.4,0.2C120.5,318,120.4,317.9,120.4,317.8z"/>
			<path style="fill:#FFFFFF;" d="M205.2,401.3c0,0,0-0.1,0-0.1c0.1-0.2,0.2-0.2,0.4-0.2l35.2,12.8l4.7-12.9
				c0.1-0.2,0.2-0.2,0.4-0.2c0.2,0.1,0.2,0.2,0.2,0.4l-4.8,13.2c0,0.1-0.1,0.1-0.2,0.2c-0.1,0-0.2,0-0.2,0l-35.5-12.9
				C205.3,401.5,205.2,401.4,205.2,401.3z"/>
		</g>
		<g>
			<g>
				<g>
					
						<rect x="156.6" y="283.4" transform="matrix(0.6081 -0.7938 0.7938 0.6081 -210.8748 294.6194)" style="fill:#91B3FA;" width="72.7" height="155"/>
					<path style="opacity:0.5;fill:#FFFFFF;" d="M260.4,386.2L235.3,419c-2.6-2-6.8-1.2-9,1.7c-0.1,0.1,0,0-0.3,0.4l-99.3-76.1
						c0.3-0.4,0.3-0.3,0.3-0.4c2.2-2.9,2-7-0.7-9.1c0,0,0-0.1,0-0.1l24.6-32.1c4.5,3.5,7.3,0.7,9.5-2.2c0.1-0.1,0.1-0.2,0.1-0.2
						l99.3,76.1c0,0-0.1,0.1-0.1,0.2C257.3,380.1,257.8,384.2,260.4,386.2z"/>
					<g>
						
							<ellipse transform="matrix(0.9929 -0.1186 0.1186 0.9929 -41.409 25.444)" style="fill:#91B3FA;" cx="193.1" cy="360.8" rx="22.7" ry="22.7"/>
						<g>
							<path style="fill:#FFFFFF;" d="M182,371.5l1.5-1.9c-1.9-1.6-3.5-3.6-4.5-5.3c-0.3-0.6-0.2-1.4,0.4-1.8l1.8-1.4
								c0.7-0.5,1.6-0.3,2.1,0.4c0.9,1.6,2.3,3.4,4.1,4.8c1.9,1.5,3.8,1.9,4.9,0.6c0.9-1.2,0.4-2.8-1.8-5.5c-3-3.9-4.5-7.7-1.9-11
								c2.3-3,6.3-3.6,10.6-1.3l1.5-1.9c0.5-0.6,1.3-0.7,2-0.3l1.1,0.9c0.6,0.5,0.7,1.3,0.3,2l-1.3,1.7c1.8,1.5,2.9,2.8,3.7,4
								c0.4,0.6,0.2,1.4-0.3,1.9l-1.7,1.3c-0.7,0.5-1.6,0.3-2-0.4c-0.7-1.1-1.8-2.6-3.6-3.9c-2.3-1.7-3.6-1.3-4.3-0.5
								c-0.8,1,0,2.8,2.3,6c3.3,4.5,3.7,7.6,1.2,10.7c-2.2,2.9-6.3,3.8-11,1.3l-1.6,2.1c-0.5,0.6-1.3,0.7-2,0.3l-1.1-0.9
								C181.6,373,181.5,372.1,182,371.5z"/>
						</g>
					</g>
				</g>
				
					<linearGradient id="SVGID_00000052089102320086047180000011571699840803657090_" gradientUnits="userSpaceOnUse" x1="145.2046" y1="302.5878" x2="184.7295" y2="302.5878">
					<stop  offset="0" style="stop-color:#DAE3FE"/>
					<stop  offset="1" style="stop-color:#E9EFFD"/>
				</linearGradient>
				<path style="fill:url(#SVGID_00000052089102320086047180000011571699840803657090_);" d="M145.2,302.1c0-0.1,0-0.1,0.1-0.2
					l8.5-11.1c0-0.1,0.1-0.1,0.2-0.1c0.1,0,0.2,0,0.2,0.1l30.4,23.3c0.1,0.1,0.2,0.3,0.1,0.4c-0.1,0.1-0.3,0.2-0.4,0.1l-30.1-23.1
					l-8.3,10.9c-0.1,0.1-0.3,0.2-0.4,0.1C145.2,302.3,145.2,302.2,145.2,302.1z"/>
				
					<linearGradient id="SVGID_00000167377107166852497810000000632264546930490281_" gradientUnits="userSpaceOnUse" x1="201.2248" y1="419.0699" x2="240.3722" y2="419.0699">
					<stop  offset="0" style="stop-color:#DAE3FE"/>
					<stop  offset="1" style="stop-color:#E9EFFD"/>
				</linearGradient>
				<path style="fill:url(#SVGID_00000167377107166852497810000000632264546930490281_);" d="M201.2,407.6c0-0.1,0-0.1,0.1-0.2
					c0.1-0.1,0.3-0.2,0.4-0.1l29.8,22.8l8.3-10.9c0.1-0.1,0.3-0.2,0.4-0.1c0.1,0.1,0.2,0.3,0.1,0.4l-8.5,11.1c0,0.1-0.1,0.1-0.2,0.1
					c-0.1,0-0.2,0-0.2-0.1l-30-23C201.3,407.8,201.2,407.7,201.2,407.6z"/>
			</g>
			<g>
				<path style="fill:#91B3FA;" d="M160.1,338.1c-2.2,2.8-6.2,3.4-9,1.2c-2.8-2.2-3.4-6.2-1.2-9c2.2-2.8,6.2-3.4,9-1.2
					C161.7,331.2,162.3,335.3,160.1,338.1z"/>
				<path style="fill:#91B3FA;" d="M237,397c-2.2,2.8-6.2,3.4-9,1.2c-2.8-2.2-3.4-6.2-1.2-9c2.2-2.8,6.2-3.4,9-1.2
					C238.7,390.2,239.2,394.2,237,397z"/>
			</g>
		</g>
	</g>
	<g>
		<g>
			
				<linearGradient id="SVGID_00000079484906815906524080000001135729522791826349_" gradientUnits="userSpaceOnUse" x1="157.6525" y1="362.8184" x2="99.4764" y2="456.1096">
				<stop  offset="0" style="stop-color:#FF928E"/>
				<stop  offset="1" style="stop-color:#FE7062"/>
			</linearGradient>
			<path style="fill:url(#SVGID_00000079484906815906524080000001135729522791826349_);" d="M171.5,407.3h-74
				c-3.1,0-5.6-2.5-5.6-5.6v-3.4c0-3.1,2.5-5.6,5.6-5.6h74c3.1,0,5.6,2.5,5.6,5.6v3.4C177.1,404.8,174.6,407.3,171.5,407.3z"/>
		</g>
		<g>
			
				<linearGradient id="SVGID_00000062878970791974685710000001652661368741101714_" gradientUnits="userSpaceOnUse" x1="157.6524" y1="347.2881" x2="99.4764" y2="440.5792">
				<stop  offset="0" style="stop-color:#FF928E"/>
				<stop  offset="1" style="stop-color:#FE7062"/>
			</linearGradient>
			<path style="fill:url(#SVGID_00000062878970791974685710000001652661368741101714_);" d="M171.5,391.8h-74
				c-3.1,0-5.6-2.5-5.6-5.6v-3.4c0-3.1,2.5-5.6,5.6-5.6h74c3.1,0,5.6,2.5,5.6,5.6v3.4C177.1,389.3,174.6,391.8,171.5,391.8z"/>
		</g>
		<g>
			
				<linearGradient id="SVGID_00000104665112244212518010000012226591189007560072_" gradientUnits="userSpaceOnUse" x1="157.6525" y1="378.6089" x2="99.4764" y2="471.9001">
				<stop  offset="0" style="stop-color:#FF928E"/>
				<stop  offset="1" style="stop-color:#FE7062"/>
			</linearGradient>
			<path style="fill:url(#SVGID_00000104665112244212518010000012226591189007560072_);" d="M171.5,423.1h-74
				c-3.1,0-5.6-2.5-5.6-5.6V414c0-3.1,2.5-5.6,5.6-5.6h74c3.1,0,5.6,2.5,5.6,5.6v3.4C177.1,420.6,174.6,423.1,171.5,423.1z"/>
		</g>
		<g>
			
				<linearGradient id="SVGID_00000068638286931907553220000016214897348427527046_" gradientUnits="userSpaceOnUse" x1="157.6525" y1="394.3995" x2="99.4765" y2="487.6907">
				<stop  offset="0" style="stop-color:#FF928E"/>
				<stop  offset="1" style="stop-color:#FE7062"/>
			</linearGradient>
			<path style="fill:url(#SVGID_00000068638286931907553220000016214897348427527046_);" d="M171.5,438.9h-74
				c-3.1,0-5.6-2.5-5.6-5.6v-3.4c0-3.1,2.5-5.6,5.6-5.6h74c3.1,0,5.6,2.5,5.6,5.6v3.4C177.1,436.4,174.6,438.9,171.5,438.9z"/>
		</g>
		<g>
			
				<linearGradient id="SVGID_00000055700183003172919060000008145906137959041194_" gradientUnits="userSpaceOnUse" x1="157.6525" y1="410.19" x2="99.4764" y2="503.4813">
				<stop  offset="0" style="stop-color:#FF928E"/>
				<stop  offset="1" style="stop-color:#FE7062"/>
			</linearGradient>
			<path style="fill:url(#SVGID_00000055700183003172919060000008145906137959041194_);" d="M171.5,454.7h-74
				c-3.1,0-5.6-2.5-5.6-5.6v-3.4c0-3.1,2.5-5.6,5.6-5.6h74c3.1,0,5.6,2.5,5.6,5.6v3.4C177.1,452.2,174.6,454.7,171.5,454.7z"/>
		</g>
		<g>
			
				<linearGradient id="SVGID_00000031899771029851610990000010442202282737116052_" gradientUnits="userSpaceOnUse" x1="157.6525" y1="425.506" x2="99.4764" y2="518.7973">
				<stop  offset="0" style="stop-color:#FF928E"/>
				<stop  offset="1" style="stop-color:#FE7062"/>
			</linearGradient>
			<path style="fill:url(#SVGID_00000031899771029851610990000010442202282737116052_);" d="M171.5,470h-74c-3.1,0-5.6-2.5-5.6-5.6
				v-3.4c0-3.1,2.5-5.6,5.6-5.6h74c3.1,0,5.6,2.5,5.6,5.6v3.4C177.1,467.5,174.6,470,171.5,470z"/>
		</g>
		<g>
			
				<linearGradient id="SVGID_00000025439683767963553880000013543217022575302272_" gradientUnits="userSpaceOnUse" x1="157.6525" y1="440.8221" x2="99.4764" y2="534.1133">
				<stop  offset="0" style="stop-color:#FF928E"/>
				<stop  offset="1" style="stop-color:#FE7062"/>
			</linearGradient>
			<path style="fill:url(#SVGID_00000025439683767963553880000013543217022575302272_);" d="M171.5,485.3h-74
				c-3.1,0-5.6-2.5-5.6-5.6v-3.4c0-3.1,2.5-5.6,5.6-5.6h74c3.1,0,5.6,2.5,5.6,5.6v3.4C177.1,482.8,174.6,485.3,171.5,485.3z"/>
		</g>
	</g>
	<g>
		<g>
			
				<linearGradient id="SVGID_00000008845385960171047480000014750812977240614545_" gradientUnits="userSpaceOnUse" x1="246.354" y1="392.3136" x2="188.178" y2="485.6048">
				<stop  offset="0" style="stop-color:#FF928E"/>
				<stop  offset="1" style="stop-color:#FE7062"/>
			</linearGradient>
			<path style="fill:url(#SVGID_00000008845385960171047480000014750812977240614545_);" d="M260.2,436.8h-74
				c-3.1,0-5.6-2.5-5.6-5.6v-3.4c0-3.1,2.5-5.6,5.6-5.6h74c3.1,0,5.6,2.5,5.6,5.6v3.4C265.8,434.3,263.3,436.8,260.2,436.8z"/>
		</g>
		<g>
			
				<linearGradient id="SVGID_00000067225335236418678990000013478300790160479109_" gradientUnits="userSpaceOnUse" x1="246.354" y1="408.1041" x2="188.1779" y2="501.3954">
				<stop  offset="0" style="stop-color:#FF928E"/>
				<stop  offset="1" style="stop-color:#FE7062"/>
			</linearGradient>
			<path style="fill:url(#SVGID_00000067225335236418678990000013478300790160479109_);" d="M260.2,452.6h-74
				c-3.1,0-5.6-2.5-5.6-5.6v-3.4c0-3.1,2.5-5.6,5.6-5.6h74c3.1,0,5.6,2.5,5.6,5.6v3.4C265.8,450.1,263.3,452.6,260.2,452.6z"/>
		</g>
		<g>
			
				<linearGradient id="SVGID_00000128449221928525306890000004473843222938403220_" gradientUnits="userSpaceOnUse" x1="246.354" y1="423.4201" x2="188.1779" y2="516.7114">
				<stop  offset="0" style="stop-color:#FF928E"/>
				<stop  offset="1" style="stop-color:#FE7062"/>
			</linearGradient>
			<path style="fill:url(#SVGID_00000128449221928525306890000004473843222938403220_);" d="M260.2,467.9h-74
				c-3.1,0-5.6-2.5-5.6-5.6v-3.4c0-3.1,2.5-5.6,5.6-5.6h74c3.1,0,5.6,2.5,5.6,5.6v3.4C265.8,465.4,263.3,467.9,260.2,467.9z"/>
		</g>
		<g>
			
				<linearGradient id="SVGID_00000059277387471877100250000016501592732113132425_" gradientUnits="userSpaceOnUse" x1="246.3539" y1="438.7362" x2="188.1779" y2="532.0273">
				<stop  offset="0" style="stop-color:#FF928E"/>
				<stop  offset="1" style="stop-color:#FE7062"/>
			</linearGradient>
			<path style="fill:url(#SVGID_00000059277387471877100250000016501592732113132425_);" d="M260.2,483.2h-74
				c-3.1,0-5.6-2.5-5.6-5.6v-3.4c0-3.1,2.5-5.6,5.6-5.6h74c3.1,0,5.6,2.5,5.6,5.6v3.4C265.8,480.7,263.3,483.2,260.2,483.2z"/>
		</g>
	</g>
</g>
</svg>
