<svg xmlns="http://www.w3.org/2000/svg" width="28.475" height="15.992" viewBox="0 0 28.475 15.992">
  <g id="Group_883" data-name="Group 883" transform="translate(-121.725 131.239)">
    <path id="Path_1231" data-name="Path 1231" d="M121.729-123.7q.223-.795.447-1.589c.028-.1.042-.2.077-.295a.378.378,0,0,1,.181-.24.378.378,0,0,1,.3-.032.355.355,0,0,1,.237.162.355.355,0,0,1,.039.285c-.05.263-.124.521-.187.781-.019.078-.033.157-.062.289.133-.07.221-.113.3-.162l2.907-1.682c.056-.032.112-.065.169-.1.267-.144.474-.1.6.114s.048.418-.218.573c-.711.414-1.425.824-2.138,1.236l-1.007.586c-.059.035-.115.078-.212.144.345.1.643.179.941.264s.418.261.359.5-.254.345-.55.267c-.616-.162-1.232-.328-1.841-.513a1.267,1.267,0,0,1-.344-.257Z" transform="translate(0 -1.863)" fill="#2669a2"/>
    <path id="Path_1232" data-name="Path 1232" d="M124.665-117.248l-1.5-2.594c-.277-.481-.557-.96-.833-1.442-.2-.358-.162-.516.2-.724q2.127-1.229,4.256-2.456c.354-.2.524-.159.727.193q1.091,1.886,2.18,3.775c.045.079.1.155.154.251a3.307,3.307,0,0,0,.51-.3.45.45,0,0,0,.1-.313q.008-3.281,0-6.562V-130.7c0-.433.109-.538.542-.538h12.012c.446,0,.558.109.56.557v2.476c.12.006.217.014.314.014.77,0,1.539.006,2.308,0a.589.589,0,0,1,.519.254c1.164,1.536,2.339,3.063,3.5,4.6a.865.865,0,0,1,.162.478c.013,1.344.008,2.688.007,4.032,0,.379-.119.5-.494.5s-.76-.011-1.14.009a.429.429,0,0,0-.3.161,2.062,2.062,0,0,1-1.792,1.042,2.062,2.062,0,0,1-1.792-1.042.414.414,0,0,0-.3-.164c-2.577-.009-5.153-.006-7.73-.01a.33.33,0,0,0-.324.191,2.038,2.038,0,0,1-1.767,1.023,2.038,2.038,0,0,1-1.768-1.023.327.327,0,0,0-.355-.189,1.053,1.053,0,0,1-.25,0,3.85,3.85,0,0,0-2.655.7c-1.265.8-2.59,1.509-3.883,2.267a.616.616,0,0,1-.719,0c-.375-.238-.768-.446-1.152-.67-.423-.245-.425-.57-.009-.813Zm18.108-13.2h-11.5v9.678c.711,0,1.4,0,2.1-.006a.561.561,0,0,0,.244-.116,2.053,2.053,0,0,1,2.258-.012.915.915,0,0,0,.433.13q3.087.013,6.174,0c.1,0,.2-.009.3-.014Zm6.843,9.678c0-.5-.03-.967.009-1.426a1.454,1.454,0,0,0-.4-1.182.51.51,0,0,0-.419-.2c-1.25.008-2.5,0-3.751,0-.474,0-.594-.117-.6-.587v-2.946c0-.1-.009-.194-.014-.289h-.84v6.626h1.657a.472.472,0,0,0,.225-.088,2.029,2.029,0,0,1,2.345-.006.484.484,0,0,0,.222.094c.509.013,1.017.008,1.561.008Zm-24.266,3.13,3.813-2.2-2.2-3.812-1,.582c.244.424.477.822.7,1.224a.4.4,0,0,1,.08.356.4.4,0,0,1-.243.273c-.309.186-.623.364-.936.544-.365.21-.536.165-.746-.2s-.441-.762-.67-1.158l-1,.58Zm19.231-1.483.139-.825h-8.04l.161.825Zm.7-8.282v3.03h3.106c0-.035.007-.058,0-.069q-1.09-1.436-2.184-2.868a.272.272,0,0,0-.183-.088c-.239-.012-.478-.006-.738-.006Zm1.386,6.96a1.292,1.292,0,0,0-1.276,1.274,1.289,1.289,0,0,0,1.282,1.267,1.288,1.288,0,0,0,1.261-1.259,1.289,1.289,0,0,0-1.266-1.283Zm-10.66,1.289a1.271,1.271,0,0,0-1.252-1.288,1.278,1.278,0,0,0-1.275,1.268,1.278,1.278,0,0,0,1.27,1.274,1.267,1.267,0,0,0,1.258-1.255Zm-11.169,2.721a3.79,3.79,0,0,0,.482.271.423.423,0,0,0,.319,0q2.339-1.333,4.663-2.691a.433.433,0,0,0,.157-.28,3.709,3.709,0,0,0,.007-.547Zm6.436-3.512v.823h1.392l.139-.823Zm17.477.821h.851v-.82h-1Zm-23.913-3.3.544.944.435-.262-.546-.937Z" transform="translate(-0.185)" fill="#2669a2"/>
    <path id="Path_1233" data-name="Path 1233" d="M145.539-124.333V-127.5c0-.1-.022-.229.03-.3.09-.12.225-.277.348-.284s.269.138.38.243c.047.044.04.158.04.239v6.561c0,.09.007.215-.045.265a.687.687,0,0,1-.387.233c-.114,0-.251-.151-.33-.267a.63.63,0,0,1-.035-.325Q145.536-122.735,145.539-124.333Z" transform="translate(-9.101 -1.206)" fill="#2669a2"/>
    <path id="Path_1234" data-name="Path 1234" d="M152.107-124.344v-3.169c0-.1-.022-.229.03-.3a.751.751,0,0,1,.35-.292.325.325,0,0,1,.254.051.325.325,0,0,1,.136.22.786.786,0,0,1,.028.218q0,3.281,0,6.562a.482.482,0,0,1-.055.291.627.627,0,0,1-.377.209c-.112,0-.247-.134-.323-.243a.61.61,0,0,1-.043-.324Q152.105-122.73,152.107-124.344Z" transform="translate(-11.613 -1.195)" fill="#2669a2"/>
    <path id="Path_1235" data-name="Path 1235" d="M139.769-124.276v3.2c0,.1.013.233-.043.293-.1.11-.254.249-.378.242s-.25-.167-.348-.283c-.044-.051-.026-.16-.026-.243v-6.478c0-.083-.019-.19.025-.243.1-.119.219-.282.342-.292s.284.123.384.234c.06.067.045.211.046.32Q139.771-125.9,139.769-124.276Z" transform="translate(-6.591 -1.207)" fill="#2669a2"/>
    <path id="Path_1236" data-name="Path 1236" d="M143.045-124.307v3.335a.387.387,0,0,1-.285.423.357.357,0,0,1-.443-.2.553.553,0,0,1-.051-.239q0-3.349,0-6.7a.385.385,0,0,1,.1-.312.385.385,0,0,1,.3-.124c.237,0,.381.163.382.446Q143.046-125.989,143.045-124.307Z" transform="translate(-7.851 -1.194)" fill="#2669a2"/>
    <path id="Path_1237" data-name="Path 1237" d="M149.617-124.326v3.363a.378.378,0,0,1-.321.421.365.365,0,0,1-.426-.233.539.539,0,0,1-.032-.217v-6.672c0-.284.141-.446.376-.454s.4.158.4.455C149.619-126.55,149.617-125.438,149.617-124.326Z" transform="translate(-10.364 -1.193)" fill="#2669a2"/>
    <path id="Path_1238" data-name="Path 1238" d="M158.335-116.868a4.07,4.07,0,0,1-.416,0,.354.354,0,0,1-.259-.118.354.354,0,0,1-.089-.27.348.348,0,0,1,.093-.27.348.348,0,0,1,.263-.11c.277-.014.555-.013.833,0a.357.357,0,0,1,.265.107.357.357,0,0,1,.1.267.374.374,0,0,1-.1.281.374.374,0,0,1-.273.119C158.613-116.861,158.474-116.868,158.335-116.868Z" transform="translate(-13.703 -5.196)" fill="#2669a2"/>
    <path id="Path_1239" data-name="Path 1239" d="M161.947-111.946a.389.389,0,0,1-.38.393.382.382,0,0,1-.289-.111.382.382,0,0,1-.111-.289.37.37,0,0,1,.115-.272.37.37,0,0,1,.277-.1.378.378,0,0,1,.275.108.378.378,0,0,1,.113.273Z" transform="translate(-15.079 -7.23)" fill="#2669a2"/>
    <path id="Path_1240" data-name="Path 1240" d="M142.261-111.553a.379.379,0,0,1-.274-.114.379.379,0,0,1-.108-.276.372.372,0,0,1,.108-.276.372.372,0,0,1,.275-.109.392.392,0,0,1,.285.115.392.392,0,0,1,.115.285.4.4,0,0,1-.4.375Z" transform="translate(-7.704 -7.23)" fill="#2669a2"/>
  </g>
</svg>
