<svg xmlns="http://www.w3.org/2000/svg" width="36.121" height="35.498" viewBox="0 0 36.121 35.498">
  <g id="Group_36" data-name="Group 36" transform="translate(-118.99 -245.836)" opacity="0.715">
    <path id="Path_34" data-name="Path 34" d="M153.172,319.45h1.459c.246,0,.491.083.48.36a.716.716,0,0,1-.3.439c-.09.069-.267.028-.4.028H119.464c-.278,0-.476-.113-.474-.413s.213-.408.482-.414c.339-.007.679,0,1.019,0h.454v-.558q0-10.51-.009-21.019a.685.685,0,0,1,.44-.714q7.66-3.933,15.3-7.9a.75.75,0,0,1,.789.01q7.612,3.944,15.237,7.862a.737.737,0,0,1,.479.765q-.021,10.51-.01,21.019Zm-15.693-5.28v1.148c0,.281.143.471.433.457.269-.014.385-.209.387-.469v-1.1a1.45,1.45,0,0,1,.177-.032h1.434c.665,0,.832.165.832.82v4.445h.829v-4.591c0-.322.08-.627.429-.649.658-.042,1.321-.012,2-.012,0,.369.007.708,0,1.047-.008.289.083.5.4.539.261.03.43-.187.434-.538s0-.7,0-1.075c.626,0,1.2-.009,1.779,0,.468.009.646.2.648.687v4.563h1.831V297.7H125.024v21.723h3.491v-4.589c0-.348.121-.625.485-.644.636-.033,1.275-.009,1.946-.009,0,.38.006.73,0,1.08-.006.3.109.515.416.515s.42-.224.416-.517c-.006-.349,0-.7,0-1.093h1.686c.572,0,.741.175.742.747v4.514h.829v-4.541c0-.46.164-.7.548-.713.609-.021,1.224,0,1.9,0Z" transform="translate(0 -38.955)" fill="#96a3b4"/>
    <path id="Path_35" data-name="Path 35" d="M122.906,256.466c0-.39.018-.781-.006-1.17a.561.561,0,0,1,.364-.611q7.575-3.892,15.138-7.806c.6-.311,1.214-.607,1.806-.937a.683.683,0,0,1,.732,0q7.009,3.633,14.028,7.248c.971.5,1.937,1.013,2.918,1.5a.571.571,0,0,1,.362.615c-.019.779-.006,1.56-.007,2.34,0,.564-.081.615-.579.358l-12.591-6.5c-1.384-.714-2.772-1.421-4.15-2.147a.662.662,0,0,0-.7,0q-8.35,4.322-16.709,8.627a1.963,1.963,0,0,1-.2.1c-.285.119-.4.051-.408-.258C122.9,257.372,122.906,256.919,122.906,256.466Z" transform="translate(-3.515)" fill="#96a3b4"/>
    <path id="Path_36" data-name="Path 36" d="M187.135,436.9v-1.78h22.412v1.78Z" transform="translate(-61.286 -170.236)" fill="#96a3b4"/>
    <path id="Path_37" data-name="Path 37" d="M209.633,382.324V384.1H187.22v-1.771Z" transform="translate(-61.362 -122.75)" fill="#96a3b4"/>
    <path id="Path_38" data-name="Path 38" d="M187.123,410.455V408.68h22.416v1.775Z" transform="translate(-61.275 -146.453)" fill="#96a3b4"/>
    <path id="Path_39" data-name="Path 39" d="M280.77,472.856v1.1c0,.285.1.506.428.5.309-.009.393-.227.4-.493v-1.094c.68,0,1.329-.021,1.975.009a.5.5,0,0,1,.462.554c.007,1.521.01,3.043,0,4.564a.515.515,0,0,1-.55.55q-2.3.012-4.6,0a.527.527,0,0,1-.551-.59q-.011-2.245,0-4.489a.541.541,0,0,1,.578-.6C279.507,472.847,280.11,472.856,280.77,472.856Z" transform="translate(-143.292 -204.166)" fill="#96a3b4"/>
    <path id="Path_40" data-name="Path 40" d="M216.03,472.858v1.076c0,.286.082.513.407.519s.424-.214.423-.5v-1.087c.667,0,1.3-.018,1.94.008a.487.487,0,0,1,.483.529c.006,1.534.009,3.068,0,4.6,0,.374-.222.546-.662.55-.8.008-1.609,0-2.414,0-.641,0-1.283.006-1.924,0-.505-.007-.678-.184-.679-.689v-4.338c0-.474.191-.663.661-.668C214.837,472.854,215.413,472.858,216.03,472.858Z" transform="translate(-85.085 -204.169)" fill="#96a3b4"/>
  </g>
</svg>
