<svg xmlns="http://www.w3.org/2000/svg" width="50" height="50" viewBox="0 0 50 50">
  <g id="Group_20047" data-name="Group 20047" transform="translate(-1092 -949)">
    <circle id="Ellipse_407" data-name="Ellipse 407" cx="25" cy="25" r="25" transform="translate(1092 949)" fill="#707070" opacity="0.11"/>
    <g id="Group_18620" data-name="Group 18620" transform="translate(595.184 881.348)">
      <path id="Path_13" data-name="Path 13" d="M511.169,103.6c-.038-.1.052-.131.094-.18q4.011-4.669,8.03-9.33a.292.292,0,0,0,.024-.439q-4.029-5.844-8.043-11.7c-.048-.07-.095-.141-.143-.212.043-.064.105-.033.155-.033,2.009,0,4.019,0,6.028-.005a.29.29,0,0,1,.273.149q2.643,3.856,5.293,7.708c.04.058.081.114.136.191l1.077-1.25q2.836-3.3,5.668-6.6a.514.514,0,0,1,.453-.2c.524.014,1.048,0,1.612,0l-1.358,1.581Q527.233,87.048,524,90.8a.25.25,0,0,0-.013.372q4.213,6.119,8.415,12.245c.039.057.1.106.1.182h-6.37a.68.68,0,0,0-.039-.074q-2.844-4.143-5.687-8.287c-.093-.136-.135-.1-.221,0q-2.142,2.5-4.289,4.99-1.447,1.684-2.889,3.373Zm18.747-1.361a.945.945,0,0,0-.044-.089q-6.6-9.447-13.2-18.9a.279.279,0,0,0-.263-.131c-.848,0-1.7,0-2.543,0-.051,0-.112-.029-.161.032.043.065.085.13.129.193L523.8,97.612q1.559,2.23,3.119,4.46c.049.07.075.17.2.17C528.038,102.24,528.962,102.241,529.916,102.241Z" transform="translate(0)" fill="#020202"/>
    </g>
  </g>
</svg>
